<?xml version="1.0" encoding="utf-8"?>
<!-- Generator: Adobe Illustrator 21.0.0, SVG Export Plug-In . SVG Version: 6.00 Build 0)  -->
<svg version="1.1" xmlns="http://www.w3.org/2000/svg" xmlns:xlink="http://www.w3.org/1999/xlink" x="0px" y="0px"
	 viewBox="0 0 600 600" style="enable-background:new 0 0 600 600;" xml:space="preserve">
<style type="text/css">
	.st0{display:none;}
	.st1{display:inline;fill:none;stroke:#000000;stroke-width:2;stroke-linecap:round;stroke-linejoin:round;stroke-miterlimit:10;}
	.st2{display:inline;}
	.st3{fill:#FAE200;}
	.st4{fill:none;stroke:#000000;stroke-width:9;stroke-miterlimit:10;}
	.st5{fill:none;stroke:#000000;stroke-width:2;stroke-miterlimit:10;}
	.st6{stroke:#000000;stroke-miterlimit:10;}
	.st7{fill:none;stroke:#000000;stroke-width:4;stroke-miterlimit:10;}
	.st8{fill:none;stroke:#000000;stroke-width:3;stroke-miterlimit:10;}
	.st9{fill:none;stroke:#000000;stroke-width:5;stroke-miterlimit:10;}
	.st10{fill:none;stroke:#000000;stroke-miterlimit:10;}
	.st11{fill:none;stroke:#000000;stroke-width:2;stroke-linecap:round;stroke-linejoin:round;stroke-miterlimit:10;}
	.st12{fill:none;stroke:#000000;stroke-width:5;stroke-linecap:round;stroke-linejoin:round;stroke-miterlimit:10;}
	.st13{fill:none;stroke:#000000;stroke-width:0.75;stroke-miterlimit:10;}
	.st14{fill:none;}
	.st15{fill:none;stroke:#000000;stroke-width:4;stroke-linecap:round;stroke-linejoin:round;stroke-miterlimit:10;}
</style>
<g id="Layer_5">
	<g>
		<g>
			<path d="M274.9,249c-3.8,8.5-7.4,16.9-10.9,25.4c-3.5,8.5-7,16.9-10.3,25.4c-6.7,17-13.1,34-18.3,51.3
				c-2.5,8.6-4.7,17.3-5.8,25.8c-0.5,4.2-0.6,8.4,0.1,11.9c0.3,1.7,0.9,3.2,1.6,4.1c0.1,0.1,0.2,0.2,0.3,0.3
				c0.1,0.1,0.1,0.2,0.4,0.4c0.4,0.3,0.7,0.7,1.1,1c0.7,0.6,1.5,1.2,2.2,1.8c3.1,2.1,6.4,3.2,10,2.9c3.6-0.2,7.5-1.9,11.2-4.1
				c3.7-2.2,7.2-5.1,10.7-8l10.4-9.1c-2.5,3.9-5,7.9-7.8,11.6c-2.8,3.7-5.9,7.4-9.6,10.6c-3.7,3.2-8.1,6.1-13.6,7.3
				c-2.7,0.6-5.7,0.6-8.5,0.1c-2.8-0.5-5.5-1.6-7.9-2.9c-1.2-0.7-2.3-1.4-3.4-2.2c-0.5-0.4-1.1-0.8-1.6-1.2
				c-0.2-0.2-0.6-0.5-0.9-0.8c-0.3-0.3-0.6-0.6-0.9-0.9c-2.3-2.6-3.5-5.5-4.2-8.3c-0.7-2.8-1-5.4-1.1-8c-0.1-2.6,0-5.1,0.2-7.6
				c0.4-4.9,1.2-9.7,2.2-14.4c1-4.7,2.2-9.2,3.6-13.7c5.5-18,12.9-35.1,21.3-51.7c4.3-8.3,8.8-16.4,13.7-24.2
				C263.8,263.9,268.9,256.2,274.9,249z"/>
		</g>
		<g>
			<path d="M246,424.5c3.9-14.1,7.1-28.4,10.3-42.7c3.1-14.3,6.3-28.5,9.3-42.9c3-14.3,6.1-28.6,9.1-42.9l9-42.9l10.1,2.5
				c-3,11.7-5.8,23.5-8.3,35.3c-1.3,5.9-2.4,11.8-3.4,17.7c-0.5,2.9-1,5.9-1.3,8.8c-0.4,2.9-0.7,5.8-0.7,8.5c0,1.3,0.1,2.6,0.2,3.3
				c0,0.2,0.1,0.3,0,0.2c0,0-0.1-0.3-0.6-0.8c-0.2-0.2-0.7-0.6-1.3-0.8c-0.6-0.2-1.2-0.2-1.5-0.1c-0.6,0.1-0.4,0.1-0.1-0.1
				c0.3-0.2,0.7-0.5,1.1-0.9c0.8-0.8,1.8-1.8,2.7-2.9c1.8-2.2,3.6-4.5,5.4-7c1.9-2.4,3.7-4.9,6-7.5c0.6-0.6,1.2-1.3,1.9-1.9
				c0.7-0.7,1.5-1.3,2.6-2c0.6-0.3,1.2-0.7,2.1-1c0.9-0.3,2.2-0.6,3.7-0.3c1.5,0.2,3,1.1,3.8,2c0.9,0.9,1.3,1.7,1.6,2.4
				c0.6,1.4,0.9,2.4,1.1,3.5c0.2,1.1,0.3,2,0.3,3c0.1,1.9-0.1,3.6-0.2,5.3c-0.8,6.7-2.4,12.7-4.2,18.7c-3.6,11.9-8.2,23.3-12.9,34.6
				c-2.4,5.6-4.8,11.3-7.4,16.8c-2.6,5.6-5.2,11.1-7.9,16.6c-5.3,11-11,21.8-16.9,32.5c-3,5.3-6,10.6-9.2,15.8
				c-1.6,2.6-3.3,5.2-5,7.7c-0.9,1.3-1.8,2.5-2.7,3.7c-0.5,0.6-1,1.2-1.5,1.7c-0.3,0.3-0.5,0.5-0.9,0.8c-0.2,0.1-0.3,0.2-0.5,0.3
				c-0.2,0.1-0.4,0.1-0.5-0.1c0.1,0.1,0.4,0.1,0.5,0c0.2-0.1,0.3-0.2,0.4-0.3c0.3-0.3,0.5-0.6,0.7-0.9c0.5-0.6,0.9-1.2,1.3-1.9
				c0.8-1.3,1.5-2.6,2.3-3.9c1.4-2.7,2.8-5.4,4.1-8.1c2.7-5.4,5.2-11,7.7-16.5c5-11.1,9.7-22.3,14.4-33.5c2.3-5.6,4.6-11.2,6.8-16.9
				c2.2-5.6,4.4-11.3,6.5-17c4.2-11.3,8.1-22.8,11.3-34.3c0.8-2.9,1.5-5.7,2.1-8.6c0.6-2.8,1.1-5.7,1.3-8.4c0.1-1.3,0.2-2.7,0.1-3.8
				c0-0.6-0.1-1.1-0.2-1.6c-0.1-0.4-0.2-0.9-0.3-0.8c0,0,0,0.1,0.4,0.5c0.3,0.3,1,0.8,1.8,0.9c0.8,0.1,1.2,0,1.4-0.1
				c0.2-0.1,0.2-0.1,0.1,0c-0.2,0.1-0.6,0.4-1,0.8c-0.4,0.4-0.8,0.8-1.3,1.3c-1.8,2-3.5,4.4-5.3,6.8c-1.8,2.4-3.6,4.9-5.7,7.5
				c-1,1.3-2.1,2.5-3.5,3.9c-0.7,0.7-1.4,1.3-2.4,2c-1,0.6-2.1,1.4-4.2,1.8c-1,0.2-2.4,0.2-3.7-0.2c-1.3-0.4-2.4-1.2-3.2-2
				c-1-1-1.4-2-1.7-2.7c-0.3-0.8-0.5-1.4-0.6-2c-0.5-2.3-0.5-4-0.5-5.8c0-3.4,0.3-6.6,0.7-9.7c0.4-3.1,0.9-6.2,1.4-9.3
				c1.1-6.1,2.3-12.1,3.6-18.1c1.3-6,2.7-12,4.2-17.9c1.5-5.9,3-11.9,4.7-17.8l10.1,2.5c-3.3,14.3-6.7,28.5-10.3,42.7
				c-3.6,14.2-7.2,28.4-11.1,42.5c-3.9,14.1-7.8,28.2-12.2,42.2l-3.3,10.5l-3.5,10.4c-1.2,3.5-2.4,6.9-3.7,10.4
				C248.7,417.7,247.3,421.1,246,424.5z"/>
		</g>
		<g>
			<path d="M311.5,306.6c6-5.4,12.3-10.7,18.7-15.7c3.2-2.5,6.4-5,9.7-7.4c3.3-2.4,6.7-4.7,10.2-7c1.8-1.1,3.6-2.2,5.8-3.2
				c0.6-0.2,1.1-0.5,1.8-0.7c0.3-0.1,0.7-0.2,1.1-0.3c0.2,0,0.4-0.1,0.7-0.1l0.4,0l0.2,0l0.3,0c0.2,0,0.4,0,0.6,0l0.3,0l0.4,0.1
				c0.3,0.1,0.6,0.1,0.8,0.2c0.3,0.1,0.7,0.3,1.1,0.6c0.7,0.4,1.4,1.3,1.8,2.1c0.2,0.4,0.3,0.7,0.4,1.1c0,0.2,0.1,0.4,0.1,0.6l0,0.4
				c0,0.3,0,0.5,0,0.8c0,0.3,0,0.4-0.1,0.6c-0.1,0.3-0.1,0.8-0.2,0.9l-0.2,0.7l-0.2,0.6c-0.2,0.4-0.3,0.6-0.4,0.8l-0.3,0.7l-0.6,1.4
				l-1.3,2.7L360,292c-1.7,3.7-3.5,7.3-5.3,10.9c-1.8,3.6-3.6,7.3-5.4,10.9c-7.2,14.5-14.6,28.9-22.2,43.2
				c-3.8,7.1-7.6,14.3-11.5,21.4c-3.8,7.1-7.8,14.2-11.7,21.3l-7.8-9.7c0.4-0.1,1-0.3,1.6-0.5l1.7-0.6c1.1-0.4,2.3-0.8,3.4-1.2
				c2.3-0.9,4.5-1.8,6.8-2.8c4.5-2,8.9-4.3,13.1-6.8c4.2-2.5,8.4-5.2,12.3-8.2c3.9-3,7.8-6.1,11.3-9.6c3.5-3.5,6.9-7.2,9.9-11.1
				c0.8-1,1.5-2,2.2-3l1.1-1.5l1-1.6c0.7-1,1.4-2.1,2-3.2l1.9-3.3c2.4-4.4,4.7-9,6.5-13.7c0.4-1.2,1-2.4,1.4-3.6l1.2-3.7
				c0.4-1.2,0.8-2.5,1.1-3.7l1.1-3.8c-0.3,10.4-2.2,20.9-6.1,30.9c-1.9,5-4.3,9.8-7,14.4c-2.7,4.6-6,9-9.4,13.2
				c-7,8.3-15.2,15.5-24.1,21.5c-4.5,3-9.1,5.8-14,8.2c-2.4,1.2-4.9,2.4-7.4,3.5c-1.3,0.5-2.5,1.1-3.8,1.6l-2,0.7
				c-0.7,0.2-1.3,0.5-2.1,0.7l-15.3,4.7l7.5-14.4c3.7-7.2,7.4-14.3,11.3-21.4c3.8-7.1,7.6-14.2,11.5-21.3
				c7.7-14.2,15.6-28.3,23.7-42.3c2-3.5,4-7,6.1-10.5c2-3.5,4.1-7,6.2-10.5l3.1-5.2l3-5.1l0.1-0.1c0,0,0,0,0,0c0,0,0,0.1,0,0.2
				c0,0.1,0,0,0,0.2c0,0.1,0,0.3,0,0.4c0,0.1,0,0.1,0,0.2c0,0.1,0,0.2,0.1,0.4c0.1,0.3,0.2,0.5,0.3,0.8c0.1,0.3,0.3,0.6,0.6,0.9
				c0.1,0.1,0.3,0.3,0.4,0.4c0.1,0.1,0.2,0.2,0.3,0.3c0.2,0.2,0.6,0.3,0.7,0.4c0.1,0.1,0.3,0.1,0.5,0.1c0.1,0,0.2,0,0.2,0l0.1,0
				c0.1,0,0.1,0,0.2,0l0.1,0c0,0,0,0,0,0c0,0,0,0,0,0c-0.1,0-0.2,0-0.3,0c-0.3,0.1-0.7,0.2-1.1,0.3c-1.6,0.5-3.4,1.3-5.1,2.1
				c-7.1,3.3-14.2,7.3-21.2,11.2L311.5,306.6z"/>
		</g>
		<g>
			<path d="M213,417c17.8,1,35.4,1.7,52.7,0.4c17.3-1.2,34.2-4.2,50.3-9.7l3-1c1-0.3,2-0.8,3-1.1l3-1.2l3-1.3c1-0.4,2-0.8,3-1.2
				l2.9-1.3c2-0.9,3.9-1.8,5.8-2.8c7.7-3.8,15.1-8.1,22.3-12.8c14.2-9.6,27.3-21.1,37.1-36.1c-2.5,8.6-7,16.7-12.5,24
				c-5.5,7.3-12,13.8-19,19.7c-7,5.8-14.7,10.9-22.7,15.3c-2,1.1-4,2.2-6.1,3.2l-3.1,1.5c-1,0.5-2.1,0.9-3.1,1.4l-3.1,1.4l-3.2,1.3
				c-1.1,0.4-2.1,0.9-3.2,1.2l-3.3,1.1c-17.4,6-35.9,8.3-54,7.7C247.7,426.2,229.9,422.9,213,417z"/>
		</g>
	</g>
</g>
<g id="Layer_6">
	<g>
		<g>
			<path d="M480,293c-1.7,0-3.4-0.2-5.1-0.3c-1.7-0.1-3.4-0.2-5-0.2c-3.3-0.1-6.6,0.1-9.6,0.8c-1.5,0.3-2.9,0.9-4.2,1.5
				c-1.3,0.6-2.5,1.4-3.6,2.4c-2.3,1.9-4.4,4.2-6.1,6.6c-1.7,2.4-2.9,5.1-3.2,7.3c-0.1,1.1,0,2,0.3,2.7c0.3,0.7,0.8,1.3,1.5,2
				c0.7,0.7,1.7,1.2,2.9,1.7c0.6,0.3,1.2,0.5,1.9,0.7l1,0.3l0.5,0.2l0.4,0.1c1.2,0.3,2.7,0.5,4.2,0.7c1.6,0.2,3.2,0.4,5.1,0.6
				l-2.1,11.6c-2.1-0.3-3.8-0.5-5.1-0.3c-0.6,0.1-1.1,0.2-1.5,0.4c-0.3,0.2-0.5,0.3-0.7,0.6c-0.5,0.6-1.1,1.7-1.5,3.2
				c-0.4,1.5-0.6,3.3-0.7,5.1c0,0.9,0,1.9,0,2.8c0,0.4,0.1,0.6,0.1,0.7c0,0,0-0.2-0.2-0.5c-0.2-0.4-0.5-0.7-0.7-0.8
				c-0.2-0.1-0.3-0.1-0.2-0.1c0.2,0.1,0.8,0.1,1.5,0.1c1.5,0,3.4-0.2,5.3-0.6c2-0.4,3.9-0.9,6.1-1.5l2.2,12.6
				c-3.5,0.3-7.9,1.3-10.5,2.6c-0.6,0.3-1,0.7-1.1,0.7c0.1-0.2-0.3,0.4-0.5,0.7c-0.3,0.4-0.5,0.7-0.8,1.1c-1,1.5-1.8,3.2-2.5,4.9
				c-1.4,3.5-2.1,7.3-2.2,11.2c-0.2,3.9,0.4,8,1.3,11.9c0.5,2,1.2,3.9,1.9,5.8l1.3,2.9c0.5,0.9,0.9,1.9,1.5,2.8c2,3.6,4.5,7,7.5,10
				c6,6,14,10.2,22.6,13.1c-4.5-0.2-9.1-1-13.6-2.4l-1.7-0.5l-1.6-0.6c-1.1-0.4-2.2-0.9-3.2-1.4c-1.1-0.5-2.1-1.1-3.2-1.7
				c-1-0.7-2-1.3-3-2c-3.9-2.8-7.4-6.3-10.4-10.1c-0.7-1-1.4-2-2.1-3l-1.9-3.1c-1.2-2.2-2.3-4.4-3.1-6.8c-1.8-4.6-2.8-9.6-3.1-14.7
				c-0.2-5.1,0.3-10.3,1.9-15.3c0.8-2.5,1.9-5,3.2-7.3c0.4-0.6,0.7-1.2,1.1-1.7c0.4-0.6,0.6-1,1.5-2c1.5-1.7,2.9-2.6,4.3-3.4
				c2.7-1.5,5.2-2.3,7.8-3c2.5-0.7,5-1.2,7.7-1.4l2.2,12.6c-2.1,0.6-4.5,1.2-6.9,1.7c-2.5,0.5-5,0.9-8,0.9c-1.5,0-3.2-0.1-5.1-0.7
				c-1-0.3-2.1-0.8-3.2-1.5c-1.1-0.7-2.3-1.8-3.1-3.1c-0.8-1.3-1.2-2.6-1.4-3.6c-0.2-1.1-0.3-1.9-0.3-2.7c-0.1-1.3-0.1-2.6,0-4
				c0.2-2.6,0.5-5.3,1.4-8.1c0.9-2.8,2.2-5.8,4.9-8.4c1.3-1.3,3.1-2.4,4.8-3.1c1.7-0.7,3.5-1,5.1-1.1c3.2-0.2,5.9,0.3,8.2,0.8
				l-2.1,11.6c-1.5-0.3-3.1-0.6-4.9-1c-1.7-0.4-3.5-0.7-5.6-1.4l-0.8-0.3l-0.7-0.3c-0.4-0.2-0.9-0.4-1.3-0.6
				c-0.9-0.4-1.8-0.8-2.7-1.3c-1.8-1-3.7-2.3-5.3-4.1c-1.6-1.7-3-4-3.6-6.6c-0.6-2.5-0.4-5,0.1-7.2c0.6-2.2,1.5-4.1,2.5-5.8
				c1-1.7,2.2-3.2,3.5-4.6c2.6-2.8,5.4-5.1,8.7-6.9c1.6-0.9,3.4-1.7,5.3-2.3c1.8-0.5,3.7-0.8,5.5-0.9c3.7-0.1,7.2,0.5,10.5,1.3
				C473.6,290.9,476.8,292,480,293z"/>
		</g>
		<line class="st4" x1="492.5" y1="286.5" x2="492.5" y2="297.5"/>
		<line class="st4" x1="473.5" y1="319.5" x2="474.5" y2="326.5"/>
		<line class="st4" x1="479.5" y1="339.5" x2="479.5" y2="348.5"/>
		<g>
			<path d="M450,209.1c0,0.3,0,0.2,0.1,0.2c0,0,0,0,0.1-0.1c0.1-0.1,0.1-0.1,0.1-0.2c0.1-0.2,0.1-0.4,0.1-0.6c0-0.2,0-0.4,0-0.7
				c-0.1-0.2-0.1-0.5-0.3-0.7c-0.5-1-1.6-2-3.1-2.8c-0.4-0.2-0.8-0.3-1.1-0.5c-0.4-0.2-0.8-0.4-1.2-0.5c-0.8-0.2-1.7-0.6-2.6-0.7
				c-0.9-0.2-1.8-0.4-2.7-0.5l-2.8-0.4l2.7-0.8c0.9-0.3,1.9-0.4,2.8-0.6c1-0.2,1.9-0.2,2.9-0.4c0.5-0.1,1,0,1.5,0c0.5,0,1,0,1.6,0.1
				c2.1,0.2,4.4,0.8,6.6,2.3c0.6,0.4,1,0.9,1.5,1.4c0.4,0.6,0.9,1.1,1.3,1.8c0.4,0.6,0.7,1.3,0.9,2.1c0.1,0.4,0.2,0.7,0.3,1.1
				c0,0.2,0.1,0.4,0.1,0.6c0,0.3,0.1,0.4,0,0.9L450,209.1z"/>
		</g>
		<g>
			<path d="M503.5,204.5c-15-4.4-29.7-10.2-44.9-12.7c-7.6-1.3-15.2-1.9-22.9-1.8c-7.6,0.2-15.4,0.7-22.5,2.4
				c-7.2,1.7-14,4.6-19,9.4c-2.5,2.4-4.7,5.1-6.3,8.2c-1.6,3.1-2.7,6.4-3.6,10c-0.1,0.4-0.2,0.9-0.3,1.4l-0.2,0.7l-0.1,0.3
				c0,0.1,0,0.2,0,0.2l-0.1,0.9c0,0.3,0,0.6,0,1c0.1,1.3,0.5,2.6,1.1,3.9c1.2,2.5,3.6,4.6,6,5.5c1.2,0.4,2.4,0.5,3.5,0.3
				c0.2,0,0.8-0.2,1.2-0.2c0.4-0.1,0.9-0.2,1.3-0.3c0.9-0.2,1.7-0.5,2.6-0.8c1.7-0.6,3.4-1.2,5.1-1.9c0.8-0.3,1.7-0.7,2.5-1.1
				c0.8-0.4,1.7-0.8,2.3-1.2l23.1-12.8l-17.7,19.8l-0.2,0.3l-0.3,0.4c-0.2,0.3-0.4,0.5-0.6,0.8c-0.4,0.6-0.7,1.2-1,1.8
				c-0.6,1.2-0.9,2.4-0.9,3.5l0,0.4l0,0.4c0,0.3,0.1,0.5,0.1,0.8c0,0.2,0.1,0.6,0.3,0.9c0.1,0.3,0.2,0.7,0.4,1
				c0.5,1.3,1.3,2.5,2.1,3.6c0.9,1.1,1.9,2.1,3.1,2.9c0.6,0.4,1.2,0.7,1.8,1.1c0.7,0.3,1.3,0.6,2,0.8c1.3,0.5,2.8,0.8,4.3,0.9
				c0.8,0,1.5,0.1,2.3,0.1l1.2,0c0.4,0,0.8-0.1,1.2-0.1c3.3-0.3,6.6-0.9,9.7-2c3.1-1,6.1-2.5,8.4-4.4c1.1-0.9,2.1-2,2.4-2.7
				c0.5-1.2,0.8-2.5,0.7-3.3c0-0.4-0.1-0.7-0.3-1c-0.2-0.3-0.5-0.5-0.9-0.8c-0.9-0.6-2.3-1-3.8-1.2c-1.5-0.2-3.1-0.2-4.8-0.1
				c-1.7,0.1-3.4,0.4-5.4,0.5c-1,0.1-2.1,0.1-3.2,0.1c-1.2-0.1-2.6-0.3-4-1.1c-1.4-0.8-2.4-2.1-3-3.4c-0.6-1.3-0.8-2.8-0.7-4.1
				c0.1-1.3,0.5-2.5,1-3.7c0.6-1.1,1.2-2.1,2.1-2.9c1.7-1.7,3.9-2.9,6.4-3.2l0.9,0l0.5,0l0.3,0c0.4,0,0.8,0,1.2,0
				c0.8,0,1.7-0.1,2.5-0.2c1.7-0.2,3.5-0.6,5.2-0.9c6.9-1.6,13.7-4,19.5-8c1.4-1,2.8-2.2,4.2-3.4c1.4-1.2,2.7-2.4,4-3.7
				c2.6-2.5,5-5.3,7.1-8.2c-1.7,3.2-3.9,6.2-6.1,9.1c-1.2,1.4-2.4,2.8-3.6,4.2c-1.3,1.4-2.6,2.6-4,3.9c-2.9,2.5-6.1,4.4-9.5,6.1
				c-3.4,1.7-6.9,3.1-10.5,4.2c-1.8,0.6-3.6,1-5.5,1.4c-0.9,0.2-1.9,0.3-2.9,0.5c-0.5,0.1-1,0.1-1.5,0.1l-0.4,0l-0.2,0l-0.5,0
				c-1.2,0.3-2.3,0.9-3.1,1.9c-0.4,0.5-0.7,1-1,1.6c-0.2,0.6-0.3,1.1-0.3,1.6c0,0.5,0.1,0.9,0.3,1.2c0.2,0.3,0.4,0.5,0.6,0.6
				c0.2,0.1,0.7,0.2,1.3,0.2c0.7,0,1.4-0.1,2.2-0.2c3.3-0.5,7.3-1.3,11.6-1c2.1,0.2,4.4,0.6,6.7,1.9c1.1,0.7,2.3,1.6,3.2,2.8
				c0.9,1.2,1.4,2.7,1.7,4.1c0.2,1.4,0.2,2.7,0,3.9c-0.2,1.3-0.5,2.3-1,3.4c-1.2,2.6-2.8,4.2-4.5,5.7c-3.3,2.8-7,4.6-10.7,6
				c-3.8,1.4-7.6,2.3-11.6,2.7c-4,0.5-8.4,0.4-12.6-1c-1.1-0.3-2.1-0.8-3.1-1.2c-1-0.5-2-1-2.9-1.7c-1.8-1.3-3.5-2.8-4.9-4.5
				c-1.4-1.7-2.6-3.7-3.5-5.7c-0.2-0.5-0.4-1-0.6-1.6c-0.2-0.5-0.4-1.1-0.5-1.7c-0.1-0.6-0.3-1.3-0.3-1.9l-0.1-1c0-0.3,0-0.6,0-1
				c0.1-2.6,0.7-5,1.7-7.1c0.5-1.1,1.1-2,1.7-3c0.3-0.5,0.7-0.9,1-1.4l0.6-0.7c0.2-0.2,0.4-0.4,0.7-0.8l5.4,7.1
				c-1.1,0.6-1.9,1-2.9,1.5c-0.9,0.4-1.9,0.9-2.9,1.3c-1.9,0.8-3.9,1.5-5.9,2.2c-1,0.3-2,0.6-3,0.9c-0.5,0.1-1,0.3-1.5,0.4
				c-0.5,0.1-0.9,0.3-1.7,0.4c-0.7,0.1-1.4,0.2-2.1,0.2c-0.7,0-1.4,0-2.1,0c-0.7-0.1-1.3-0.2-2-0.3c-0.7-0.1-1.3-0.4-1.9-0.6
				c-2.5-0.9-4.7-2.3-6.5-4c-1.8-1.7-3.3-3.7-4.4-6c-1.1-2.2-1.8-4.7-2-7.4c0-0.7,0-1.3,0-2c0.1-0.7,0.2-1.3,0.3-2l0.1-0.5l0.1-0.4
				l0.2-0.7c0.1-0.5,0.2-1,0.4-1.5c1-4,2.5-8.1,4.7-11.9c2.1-3.8,4.9-7.2,8.2-10.1c0.8-0.7,1.6-1.4,2.5-2.1l2.7-1.8
				c0.4-0.3,0.9-0.6,1.4-0.8l1.4-0.8c1-0.5,1.9-1.1,2.9-1.4c2-0.8,3.9-1.7,5.9-2.1l3-0.9c1-0.2,2-0.4,3-0.6l3-0.6l3.1-0.3l3-0.3
				c1-0.1,2-0.1,3-0.2c2-0.1,4-0.2,6-0.2c2,0,4,0,6,0.1c8,0.4,16,1.5,23.7,3.4c7.7,1.9,15.2,4.6,22.5,7.6c3.6,1.5,7.2,3.1,10.8,4.7
				L503.5,204.5z"/>
		</g>
		<g>
			<path d="M503.5,204.5c-0.9,5.4-3,10.4-4.5,15.5c-0.7,2.5-1.2,5.1-1.8,7.8c-0.5,2.6-1.1,5.3-1.6,7.9c-1.1,5.3-2.4,10.6-4.2,15.8
				c-1.8,5.2-4.1,10.4-7.3,15.1c-1.6,2.3-3.5,4.5-5.6,6.5c-2.1,2-4.4,3.7-6.8,5.2c-4.8,3-9.9,5.2-15.2,6.8
				c-10.5,3.3-21.3,4.7-32.1,5.4c10.5-2.7,20.9-5.2,30.8-9.1c9.8-3.9,19.1-9.1,24.7-17.6c2.9-4.2,5.1-8.9,7-13.8
				c1.9-4.9,3.4-10,4.9-15.2c0.8-2.6,1.5-5.2,2.3-7.8l1.2-3.9c0.4-1.3,0.9-2.6,1.4-3.9C498.9,214.2,501.6,209.6,503.5,204.5z"/>
		</g>
		<g>
			<path d="M435.6,189.9c-4.4,1.6-8.8,3.7-12.6,6.5c-1.9,1.4-3.6,2.9-4.9,4.7c-1.2,1.8-1.8,3.8-1.2,5.8c0.6,1.9,2.2,3.8,4.1,5.1
				c1.9,1.3,4.3,2,6.6,2.3c1.2,0.2,2.4,0.2,3.6,0.1c1.2-0.1,2.4-0.4,3.4-1c0.5-0.3,0.9-0.7,1.3-1.2c0.3-0.5,0.4-1.1,0.4-1.6
				c-0.1-1.2-0.9-2.2-1.8-3.1c0.9,0.8,1.8,1.8,2.1,3.1c0.1,0.6,0,1.3-0.3,1.9c-0.3,0.6-0.8,1.1-1.3,1.4c-2.1,1.5-4.9,1.8-7.4,1.7
				c-2.5-0.1-5.1-0.7-7.5-1.9c-1.2-0.6-2.3-1.5-3.2-2.4c-0.9-1-1.8-2.1-2.3-3.4c-0.6-1.3-0.8-2.9-0.5-4.3c0.2-1.5,0.7-2.8,1.4-4
				c1.4-2.4,3.3-4.3,5.2-6c4-3.4,8.4-6,13.1-8.2L435.6,189.9z"/>
		</g>
		<g>
			<path d="M443.5,259.5c3.7-0.4,7.3-1.1,10.8-2c3.5-0.9,6.9-2.1,10.1-3.5c6.5-2.9,12.2-7,16.6-12.3c2.2-2.7,4-5.6,5.6-8.7
				c1.7-3.3,3.4-6.5,5.1-9.7c1.8-3.2,3.6-6.4,5.5-9.5c2-3.1,3.9-6.3,6.2-9.2c-2.6,6.9-5.2,13.8-8.1,20.5c-1.4,3.4-2.9,6.7-4.5,10.1
				c-1.6,3.5-3.6,6.9-6.1,9.8c-5,6-11.8,10.3-19,12.7C458.5,259.9,450.8,260.7,443.5,259.5z"/>
		</g>
	</g>
</g>
</svg>
