<?xml version="1.0" encoding="iso-8859-1"?>
<!-- Generator: Adobe Illustrator 19.0.0, SVG Export Plug-In . SVG Version: 6.00 Build 0)  -->
<svg version="1.1" id="Layer_1" xmlns="http://www.w3.org/2000/svg" xmlns:xlink="http://www.w3.org/1999/xlink" x="0px" y="0px"
	 viewBox="0 0 512 512" style="enable-background:new 0 0 512 512;" xml:space="preserve">
<g>
	<g>
		<path d="M439.119,145.034C436.551,61.511,368.047,0,289.391,0c-33.427,0-64.334,10.979-89.32,29.509
			C178.669,10.421,151.411,0,122.435,0C57.993,0,5.565,52.428,5.565,116.87c0,24.051,7.394,47.299,21.001,66.805
			c-13.229,18.94-21.001,41.957-21.001,66.76c0,64.442,52.428,116.87,116.87,116.87h16.696V384c0,9.22,7.475,16.696,16.696,16.696
			s16.696-7.475,16.696-16.696v-16.696h33.391v38.957c0,9.22,7.475,16.696,16.696,16.696s16.696-7.475,16.696-16.696v-38.957h33.391
			V384c0,9.22,7.475,16.696,16.696,16.696s16.696-7.475,16.696-16.696v-16.696h33.391v38.957c0,9.22,7.475,16.696,16.696,16.696
			c9.22,0,16.696-7.475,16.696-16.696v-38.957h16.696c64.442,0,116.87-52.428,116.87-116.87
			C506.435,205.085,479.832,164.123,439.119,145.034z M122.435,33.391c19.62,0,38.132,6.701,53.029,19.011
			c-19.439,22.599-32.288,51.019-35.525,82.255c-5.742-0.869-16.137-1.778-20.342-1.056c-26.159,0.627-50.215,9.891-69.422,25.044
			c-7.294-12.605-11.218-26.976-11.218-41.775C38.957,70.84,76.405,33.391,122.435,33.391z M389.565,333.913h-267.13
			c-46.03,0-83.478-37.448-83.478-83.478c0-45.106,35.966-81.946,80.722-83.408c3.685,0.657,35.551-1.854,61.784,24.38
			c6.518,6.519,17.091,6.521,23.611,0c6.52-6.519,6.52-17.09,0-23.611c-9.616-9.616-20.569-17.358-32.418-23.051
			c2.893-61.89,54.144-111.353,116.736-111.353c56.458,0,107.687,41.134,115.415,100.975c-14.866-1.858-29.793-0.987-44.059,2.671
			c-20.291,5.202-38.903,15.838-53.821,30.758c-6.519,6.519-6.519,17.091,0,23.611c6.52,6.52,17.091,6.52,23.611,0
			c24.062-24.061,58.733-29.039,86.327-19.43c33.603,11.707,56.18,43.237,56.18,78.458
			C473.043,296.465,435.595,333.913,389.565,333.913z"/>
	</g>
</g>
<g>
	<g>
		<path d="M155.826,434.087c-9.22,0-16.696,7.475-16.696,16.696v44.522c0,9.22,7.475,16.696,16.696,16.696
			s16.696-7.475,16.696-16.696v-44.522C172.522,441.562,165.047,434.087,155.826,434.087z"/>
	</g>
</g>
<g>
	<g>
		<path d="M289.391,434.087c-9.22,0-16.696,7.475-16.696,16.696v44.522c0,9.22,7.475,16.696,16.696,16.696
			s16.696-7.475,16.696-16.696v-44.522C306.087,441.562,298.612,434.087,289.391,434.087z"/>
	</g>
</g>
<g>
	<g>
		<path d="M222.609,456.348c-9.22,0-16.696,7.475-16.696,16.696v22.261c0,9.22,7.475,16.696,16.696,16.696
			s16.696-7.475,16.696-16.696v-22.261C239.304,463.823,231.829,456.348,222.609,456.348z"/>
	</g>
</g>
<g>
	<g>
		<path d="M356.174,456.348c-9.22,0-16.696,7.475-16.696,16.696v22.261c0,9.22,7.475,16.696,16.696,16.696
			c9.22,0,16.696-7.475,16.696-16.696v-22.261C372.87,463.823,365.394,456.348,356.174,456.348z"/>
	</g>
</g>
<g>
</g>
<g>
</g>
<g>
</g>
<g>
</g>
<g>
</g>
<g>
</g>
<g>
</g>
<g>
</g>
<g>
</g>
<g>
</g>
<g>
</g>
<g>
</g>
<g>
</g>
<g>
</g>
<g>
</g>
</svg>
