<?xml version="1.0" encoding="utf-8"?>
<!-- Generator: Adobe Illustrator 21.0.0, SVG Export Plug-In . SVG Version: 6.00 Build 0)  -->
<svg version="1.1" id="Layer_1" xmlns="http://www.w3.org/2000/svg" xmlns:xlink="http://www.w3.org/1999/xlink" x="0px" y="0px"
	 viewBox="0 0 600 600" style="enable-background:new 0 0 600 600;" xml:space="preserve">
<style type="text/css">
	.st0{display:none;}
	.st1{display:inline;fill:none;stroke:#000000;stroke-width:2;stroke-linecap:round;stroke-linejoin:round;stroke-miterlimit:10;}
	.st2{display:inline;}
	.st3{fill:#FAE200;}
	.st4{fill:none;stroke:#000000;stroke-width:2;stroke-linecap:round;stroke-linejoin:round;stroke-miterlimit:10;}
	.st5{fill:none;stroke:#000000;stroke-width:4;stroke-miterlimit:10;}
	.st6{fill:none;stroke:#000000;stroke-miterlimit:10;}
	.st7{fill:none;stroke:#000000;stroke-width:5;stroke-linecap:round;stroke-linejoin:round;stroke-miterlimit:10;}
</style>
<g id="Layer_7" class="st0">
	<path class="st1" d="M288,101c-0.6-6.6-1.1-22.1,2.1-28.2c2.6-5.1,9.3-5.7,13.2-1.5c4.9,5.4-2.3,18.6-9.3,14.3
		c-3.6-2.2-1-9.6,3.1-7.6"/>
	<path class="st1" d="M304,79c14.2,0,23.7,13,24.2,26.3C329,124.4,313.4,133,296,133"/>
	<line class="st1" x1="299" y1="87" x2="299" y2="91"/>
	<line class="st1" x1="309" y1="80" x2="305" y2="91"/>
	<line class="st1" x1="316" y1="83" x2="311" y2="94"/>
	<line class="st1" x1="322" y1="89" x2="316" y2="97"/>
	<line class="st1" x1="326" y1="96" x2="319" y2="102"/>
	<line class="st1" x1="328" y1="105" x2="319" y2="109"/>
	<line class="st1" x1="327" y1="116" x2="318" y2="114"/>
	<line class="st1" x1="323" y1="123" x2="316" y2="118"/>
	<line class="st1" x1="317" y1="127" x2="313" y2="120"/>
	<line class="st1" x1="311" y1="131" x2="309" y2="122"/>
	<line class="st1" x1="303" y1="132" x2="302" y2="121"/>
	<g class="st2">
		<path class="st3" d="M28.1,214.7c-0.4-2.8-0.2-5.5,0-8.4c0.2,2.3,0.5,4.6,0.8,6.9c0.1,0.4-0.3,1,0.5,1.2c0.9,0.2,0.9-0.5,1.1-1
			c0.6-1.8,1.2-3.6,1.9-5.4c-0.5,2.2-0.6,4.6-1.7,6.7C29.9,214.8,29,214.7,28.1,214.7z"/>
		<path class="st3" d="M45.7,214.8c-1.1-2-1.1-4.2-1.4-6.4c0.6,1.7,1.1,3.5,1.7,5.2c0.1,0.5,0.1,1,0.9,0.9c0.9-0.1,0.6-0.7,0.6-1.1
			c0.3-2.3,0.5-4.7,1.1-7c0,2.8,0,5.6,0,8.4C47.6,214.8,46.7,214.8,45.7,214.8z"/>
		<path class="st3" d="M10.1,232.3c0-0.4-0.2-0.5-0.6-0.6c-2.9-1.3-5.8-2.6-9-4c1-0.3,1.5,0.1,2,0.3c2.8,0.9,5.4,2.2,8.2,2.9
			C10.5,231.3,10.5,231.9,10.1,232.3z"/>
		<path class="st3" d="M66.8,252.5c2.7-0.4,5.3,0.5,8,0.7c-2.3,0-4.6,0-6.9,0c-0.5,0-1.1-0.4-1.5,0.4
			C66.3,253.2,66.3,252.8,66.8,252.5z"/>
		<path class="st3" d="M10.1,235.7c-2.2,0.6-4.4,1.1-6.6,1.7c0-0.1-0.1-0.3-0.1-0.4c1.8-0.6,3.6-1.2,5.4-1.7c1-0.3,1.3-0.8,0.6-1.7
			c0-0.2,0-0.4,0-0.7c0.2-0.1,0.4-0.3,0.6-0.4C10,233.6,10.1,234.7,10.1,235.7z"/>
		<path class="st3" d="M9.4,252.4c0.6-1.1,0.3-1.5-0.9-1.8c-1.7-0.5-3.4-1.1-5.1-1.8c2.2,0.3,4.5,0.6,6.6,1.6c0,1.1,0,2.1,0,3.2
			c-0.4-0.7-1.2-0.2-1.7-0.4C8.6,252.8,9.3,253,9.4,252.4z"/>
		<path class="st3" d="M66.6,234.7c1.6,1.1,3.6,1.2,5.4,2c0.4,0.2,0.9,0,1.1,0.8c-2.3-0.6-4.5-1.1-6.8-1.7
			C66.3,235.3,66.3,235,66.6,234.7z"/>
		<path class="st3" d="M63.9,257.3c1.1,2,2.1,4,3.2,6c-0.1,0.1-0.2,0.1-0.3,0.2c-1.2-1.9-2.4-3.9-3.6-5.8
			C63.4,257.4,63.6,257.3,63.9,257.3z"/>
		<path class="st3" d="M31,271.1c0.5,2.1,1,4.2,1.5,6.3c-1-1.9-1.8-3.9-2.2-6C30.5,271.1,30.7,271,31,271.1z"/>
		<path class="st3" d="M66.4,250.4c2.1-0.9,4.3-1.2,6.6-1.4c-1.9,0.6-3.8,1.2-5.7,1.8c-0.5,0.1-0.7,0.2-0.7,0.7
			C66.3,251.2,66.3,250.8,66.4,250.4z"/>
		<path class="st3" d="M12.4,228.8c-0.6-2-2.1-3.6-2.4-5.8c0.9,1.5,1.9,3.1,2.8,4.7c0.2,0.3,0.3,0.6,0.7,0.5
			C13.2,228.6,12.8,228.7,12.4,228.8z"/>
		<path class="st3" d="M46.1,271.4c-0.2,2.2-1.3,4.2-1.9,6.3c0.2-2.2,0.7-4.4,1.5-6.6C45.9,271.1,46,271.2,46.1,271.4z"/>
		<path class="st3" d="M62.9,228.2c0.7,0.2,0.6-0.4,0.9-0.8c0.9-1.5,1.8-2.9,3-4.3c-0.9,1.9-1.8,3.8-2.7,5.6
			C63.6,228.7,63.2,228.6,62.9,228.2z"/>
		<path class="st3" d="M9.4,252.4c-0.2,0.6-0.8,0.4-1.1,0.7c-2.2,0-4.4,0-6.6,0C4.3,252.9,6.8,252.3,9.4,252.4z"/>
		<path class="st3" d="M65.4,256.2c1.3,0,1.7,1.2,2.5,1.8c1.1,0.9,2,1.9,2.9,3C68.9,259.4,66.7,258.4,65.4,256.2
			C65.3,256.3,65.3,256.3,65.4,256.2z"/>
		<path class="st3" d="M9.4,233c0,0.2,0,0.4,0,0.7c-0.6,0-1.1,0-1.7-0.1c-2-0.2-4-0.4-6-0.8C4.3,232.7,6.8,232.5,9.4,233z"/>
		<path class="st3" d="M38.3,231.3c-6.4,0-11.7,5.2-11.7,11.6c0,6.4,5.2,11.7,11.6,11.7c6.5,0,11.7-5.2,11.7-11.6
			C49.9,236.6,44.6,231.3,38.3,231.3z M48.4,239.5c0.3,0.5,0.5,1.1,0.4,1.6s-0.7,0.4-1.2,0.4c-0.8,0.1-1.7,0.2-2.6,0.4
			c-0.3,0-0.6,0.1-0.7-0.4c-0.1-0.5,0.1-0.7,0.5-0.9c0.8-0.3,1.6-0.7,2.4-1C47.6,239.5,48,238.9,48.4,239.5z M47.8,238.1
			c0.2,0.4,0.1,0.6-0.3,0.8c-1,0.4-2,0.8-3,1.2c-0.7,0.3-1.2-0.4-0.9-0.7c1-1,2.1-1.8,3.2-2.7C47.4,237.1,47.6,237.6,47.8,238.1z
			 M43.8,243c0,3.1-2.5,5.5-5.6,5.5s-5.5-2.5-5.5-5.6c0-3,2.5-5.6,5.6-5.5C41.3,237.4,43.8,239.9,43.8,243z M45.4,234.9
			c0.5,0.3,0.9,0.6,1.5,1c-0.6,0.5-0.8,0.7-1,0.9c-0.7,0.6-1.4,1.1-2.2,1.7c-0.4,0.3-0.7,0.6-1.1,0.1c-0.4-0.5,0-0.7,0.2-1
			c0.5-0.7,1.1-1.5,1.7-2.2C44.7,235.1,44.8,234.5,45.4,234.9z M42.9,233.3c0.5,0.1,1,0.4,1.3,0.8c0.5,0.6-0.3,0.9-0.5,1.2
			c-0.4,0.7-1,1.3-1.4,1.9c-0.2,0.2-0.3,0.4-0.4,0.6c-0.6-0.4-1.1-0.5-0.8-1.1c0.4-0.8,0.6-1.6,1-2.3
			C42.3,234,42.2,233.2,42.9,233.3z M39.4,235.9c0.1-0.8,0.2-1.6,0.3-2.5c0.1-0.4,0-1,0.4-1c0.5,0,1.2,0.2,1.6,0.4
			c0.6,0.4,0,0.8-0.2,1.2c-0.2,0.8-0.6,1.5-0.9,2.2c-0.2,0.4-0.3,0.9-0.9,0.7C39.3,236.7,39.3,236.4,39.4,235.9z M38.2,232.2
			c0.8-0.1,1.1,0.1,1,1c-0.2,0.9-0.3,1.9-0.4,2.9c0,0.4-0.2,0.6-0.6,0.6c-0.4,0-0.6-0.3-0.6-0.6c-0.1-1-0.2-1.9-0.4-2.9
			C37,232.3,37.5,232.1,38.2,232.2z M34.7,232.8c0.4-0.3,1.1-0.5,1.6-0.4s0.4,0.7,0.5,1.2c0.1,0.8,0.2,1.6,0.3,2.4
			c0.1,0.4,0.1,0.8-0.4,0.9c-0.6,0.2-0.7-0.2-0.9-0.5c-0.3-0.7-0.7-1.4-0.9-2.2C34.8,233.7,34.1,233.3,34.7,232.8z M32.7,233.8
			c0.4-0.2,1-1,1.4-0.2c0.6,1,0.9,2.2,1.4,3.2c0.1,0.4-0.1,0.6-0.3,0.7c-0.4,0.2-0.6,0.1-0.8-0.2c-0.6-0.9-1.3-1.7-2-2.6
			C31.8,234.2,32.3,233.9,32.7,233.8z M30.1,236.1c0.2-0.5,0.7-1,1.2-1.2c0.6-0.3,0.7,0.4,1,0.7c0.7,0.8,1.3,1.6,1.9,2.5
			c-0.1,0.2-0.2,0.4-0.4,0.5c-0.3,0.3-0.6,0.2-0.9,0c-0.7-0.5-1.4-1-2-1.6C30.6,236.7,29.8,236.6,30.1,236.1z M28.6,238.4
			c0.1-0.5,0.4-1.1,0.8-1.4c0.4-0.4,0.8,0.3,1.1,0.5c0.7,0.4,1.3,0.9,1.9,1.4c0.3,0.2,0.6,0.4,0.6,0.6c-0.2,0.7-0.5,0.9-1.1,0.6
			c-0.8-0.3-1.6-0.6-2.3-1C29.2,238.9,28.5,239,28.6,238.4z M28.1,239.5c0.3-0.5,0.8,0,1.2,0.1c0.7,0.2,1.4,0.5,2,0.8
			c0.4,0.2,1.1,0.2,0.8,1c-0.2,0.7-0.7,0.4-1,0.4c-0.9-0.1-1.6-0.2-2.3-0.3c-0.4-0.1-1.1,0.1-1.2-0.5
			C27.6,240.6,27.8,239.9,28.1,239.5z M27.5,242.9c0-0.7,0.2-1,1-0.9c0.9,0.2,1.9,0.3,2.9,0.4c0.4,0.1,0.7,0.2,0.6,0.6
			c0,0.5-0.3,0.5-0.7,0.6c-1,0.1-1.9,0.3-3,0.4C27.3,244.2,27.5,243.5,27.5,242.9z M28.1,246.5c-0.3-0.4-0.5-1.1-0.4-1.6
			s0.7-0.4,1.1-0.4c0.8-0.2,1.7-0.2,2.5-0.4c0.6-0.1,0.8,0.3,0.9,0.7c0,0.4-0.4,0.5-0.7,0.6c-0.7,0.3-1.4,0.6-2.2,0.9
			C28.9,246.5,28.5,247,28.1,246.5z M29.4,249c-0.4-0.3-0.7-0.9-0.8-1.4c-0.1-0.5,0.6-0.6,1-0.7c0.8-0.4,1.6-0.6,2.3-1
			c0.6-0.3,0.8,0.1,1,0.6c0.1,0.3-0.2,0.4-0.4,0.6c-0.7,0.5-1.3,1.1-2,1.5C30.2,248.8,29.8,249.4,29.4,249z M31,251
			c-0.4-0.4-1.3-0.9-1-1.2c0.9-1,2.1-1.8,3.2-2.7c0.5,0.3,1.1,0.5,0.6,1.2c-0.7,0.8-1.3,1.7-2,2.6C31.6,251.2,31.3,251.4,31,251z
			 M33.6,252.8c-0.5-0.3-1-0.5-1.4-0.9c-0.4-0.4,0.2-0.7,0.4-1c0.5-0.7,1.1-1.4,1.6-2.2c0.2-0.3,0.5-0.5,0.8-0.3
			c0.3,0.1,0.5,0.3,0.4,0.7c-0.5,1.2-0.9,2.3-1.4,3.4C34,252.6,33.8,252.7,33.6,252.8z M37,250.1c-0.1,0.8-0.2,1.6-0.3,2.4
			c-0.1,0.4,0.1,1.1-0.5,1.1c-0.5,0.1-1.2-0.1-1.6-0.4c-0.6-0.3,0-0.8,0.2-1.2c0.2-0.8,0.6-1.5,0.9-2.2c0.2-0.5,0.4-0.8,1-0.7
			C37.3,249.3,37.1,249.7,37,250.1z M38.2,253.8c-0.7,0-1.2,0-1-0.9c0.2-1,0.3-1.9,0.4-2.9c0.1-0.4,0.2-0.8,0.7-0.7
			c0.4,0,0.5,0.4,0.5,0.7c0.1,0.9,0.2,1.8,0.4,2.7C39.4,253.6,39,253.9,38.2,253.8z M41.2,253.4c-0.7,0.2-1.3,0.4-1.4-0.7
			c-0.1-1-0.2-1.9-0.3-2.5c-0.1-0.8-0.1-1.1,0.3-1.2c0.5-0.1,0.7,0.1,0.9,0.5c0.3,0.8,0.6,1.7,1,2.5
			C42.1,252.8,42.1,253.2,41.2,253.4z M43.1,252.6c-0.6,0.3-0.6-0.2-0.8-0.6c-0.4-0.9-0.8-1.9-1.2-2.8c-0.3-0.7,0.2-0.9,0.7-0.9
			c0.2,0,2.6,3.1,2.6,3.3C44.1,252.2,43.6,252.4,43.1,252.6z M45.3,251.1c-0.5,0.3-0.7-0.2-0.9-0.5c-0.6-0.7-1.1-1.4-1.7-2.2
			c-0.2-0.3-0.5-0.6-0.1-1s0.7-0.2,1,0c0.8,0.6,1.6,1.3,2.4,1.9c0.2,0.1,0.3,0.3,0.6,0.7C46.2,250.4,45.8,250.8,45.3,251.1z
			 M47.5,248.5c-0.2,0.4-0.4,0.9-1,0.5c-0.9-0.7-1.8-1.4-2.7-2.1c-0.2-0.2-0.4-0.4-0.2-0.7s0.3-0.5,0.6-0.4c1.1,0.5,2.3,0.9,3.4,1.5
			C48.4,247.6,47.6,248.1,47.5,248.5z M48.3,246.6c-0.3,0.5-0.8-0.1-1.2-0.2c-0.5-0.2-1.1-0.4-1.6-0.7s-1.4-0.1-1.2-1.1
			c0.2-1.1,1-0.2,1.5-0.4c0.6,0.1,1.2,0.1,1.8,0.3c0.4,0.1,1.1-0.2,1.1,0.5C48.8,245.5,48.6,246.2,48.3,246.6z M48.2,244
			c-1.2-0.2-2.1-0.3-3-0.4c-0.4,0-0.7-0.1-0.7-0.6s0.3-0.7,0.7-0.7c0.9-0.1,1.8-0.2,2.7-0.4c0.8-0.1,1.2,0.1,1.1,0.9
			C49.1,243.7,48.9,244.3,48.2,244z"/>
		<path class="st3" d="M-21.5,225.2c0.1-1.4,0.3-2.8,0.4-4.3c0.8-1.4,1-3.1,2.1-4.4c0.8-1,1.6-2.1,2.4-3.1c0.5-0.3,0.9-0.7,1.4-1
			c0.7-0.5,1.1-0.8,0.5-1.9c-0.6-1.2-0.3-2.7-1.5-3.9c-0.5-0.4-0.3-1.4,0.2-2.1c0.3-0.4,0.3-0.5-0.1-0.9c-1.7-1.6-1.6-2.6,0.2-4.2
			c-1.7-2.2-1.5-3.2,1-4.7c0.7-0.4,0.3-0.7,0.2-1.1c-0.4-1.4,0.2-2.4,1.2-3.3c1.1-0.9,2.7,0.1,3.2-0.3c0.8-0.6,1.2-2.4,2.4-2.2
			c1.8,0.3,3.3,0.4,5.1-0.4c1-0.4,1.8,1.6,2.2,1.4c0.9-0.4,2-1,2.7-0.4c1.1,1,2.4,0.9,3.4,1.4c1.5,0.7,1.9,0.1,2.5-0.9
			c0.2-0.3,0.5-0.6,0.7-1c1.1-0.8,2.1-1.6,3.2-2.4c1.3-1,3-1.3,4.4-2.1c1.4-0.2,2.9,0.3,4.2-0.4c1.5,0.2,3.3,1.1,3.7-1.4
			c0-0.3,0.4-0.5,0.7-0.7c0.5-0.2,0.6-0.5,0.4-1c-0.3-1.3,0.4-2.3,1.6-2.6c0.7-0.2,0.8-0.5,0.7-1.1c-0.2-1.6,0.7-2.4,2.2-2.5
			c0.8,0,1-0.1,1.1-0.9c0.3-1.7,2-2.6,3.5-1.9c0.8,0.4,1,0.2,1.3-0.5c1.2-2.1,3.9-2.1,5.1,0c0.4,0.7,0.5,0.8,1.3,0.4
			c1.3-0.6,3.1,0.1,3.3,1.4c0.2,1.2,0.7,1.4,1.8,1.5c1.2,0.1,1.8,1.1,1.7,2.3c0,0.3-0.4,0.9,0.2,1c1.8,0.4,2.6,1.4,2,3.2
			c0,0.1,0,0.2,0.1,0.3c1.5,1,2.1,3.8,4.8,2.4c1.4,0.7,3.1,0,4.5,0.7c1.5,0.3,2.9,0.9,4.1,1.8c1.1,0.9,2.2,1.8,3.3,2.7
			c0.4,0.5,0.8,1.1,1.3,1.6c0.2,0.2,0.4,0.8,0.7,0.4c1.1-1.4,3.4,0,4.4-1.9c0.3-0.5,1.5-0.4,2.2,0c0.5,0.4,0.7,0.4,1.2-0.2
			c1.2-1.4,2.3-1.4,3.6-0.1c0.5,0.5,0.6,0.3,1,0.1c1.8-1.2,3.2-0.8,4.1,1.2c0.3,0.6,0.4,0.6,0.9,0.4c2.7-0.7,4.4,1,3.8,3.8
			c-0.1,0.4-0.2,0.6,0.3,0.9c2.4,1.4,2.6,2.5,0.9,4.7c1.7,1.4,1.9,2.8,0.5,4s1.2,3.1-0.8,4.1c-0.1,0-0.1,0.1-0.1,0.1
			c-0.7,0.3-0.8,0.7-0.5,1.3c0.2,0.4,0.1,1-0.2,1.3c-0.9,1-0.4,1.6,0.5,2.1c0.4,0.3,0.8,0.6,1.2,0.9c0.7,1.1,2,1.8,2.4,3.1
			c1.1,1.3,1.4,3,2.1,4.5c0.1,1.4,0.3,2.8,0.4,4.2c0,0.4,0,0.8-0.1,1.2c-0.4,1.2-0.3,1.8,1.2,2.3c1.1,0.4,1.9,1.5,3.4,1.4
			c0.2,0,0.5,0.2,0.7,0.5c0.7,1.1,1.3,2,2.9,2c0.9,0,1.5,1.2,1.4,2.2c-0.1,0.7,0,0.8,0.7,0.9c1.8,0.3,2.8,1.8,2.1,3.5
			c-0.3,0.8-0.2,0.9,0.5,1.3c2,1.1,2.1,3.9,0.1,5c-0.9,0.5-0.9,0.8-0.5,1.6c0.4,0.9,0.2,2.1-0.6,2.5c-1.6,0.7-2,2.5-3,3.3
			c-1.3,1.1-2.9,2.1-4.4,3c-0.9,0.5-2.1,1.1-3.2,1.4c-1.6,0.5-1.5,1.3-1.3,2.5c0.1,0.3,0,0.7,0.1,1c0.1,1.6-0.2,3.1-0.7,4.6
			c-0.2,1.6-1.1,3-1.8,4.4c-0.9,1.1-1.6,2.2-2.7,3.1c-1,0.9-2.5,1.5-1.3,3.5c0.4,0.7,0.2,1.9,1.2,2.7c0.6,0.5,0.5,1.5,0.1,2.2
			c-0.3,0.5-0.5,0.8,0.2,1.3c1.3,1,1.4,2.3,0.1,3.5c-0.5,0.5-0.5,0.6-0.1,1.2c1.1,1.5,0.6,3.2-1.1,3.9c-0.8,0.3-0.8,0.5-0.6,1.3
			c0.5,1.8-0.7,3.7-2.5,3.7c-1.3,0-2.5-0.3-3,1.3c-0.1,0.5-0.9,0.6-1.5,0.8c-1,0.2-1.7-0.8-2.4-0.8c-0.7,0-1.3,1.2-2.4,1.2
			c-1.2,0-1.6-1.5-2.3-1.5c-0.8,0.1-1.8,1.1-2.6,0.4c-1.1-0.9-2.2-1.4-3.6-1.3c-0.1,0-0.2,0-0.3-0.1c-0.8-0.9-1.3-0.3-1.7,0.4
			c-0.2,0.4-0.6,0.7-0.9,1c-0.9,1.1-2,1.8-3.1,2.7c-1.5,1-3.1,1.5-4.7,2.1c-1.4,0.1-2.9,0.2-4.3,0.3c-0.7-0.1-1.5-0.2-2.2-0.2
			c-0.4,0-0.9-0.3-0.9,0.4c0,1.7-2.4,2.4-1.8,4.5c0.1,0.4-0.7,1.1-1.3,1.2c-0.7,0.2-1,0.4-0.9,1.2c0.2,1.6-0.8,2.3-2.2,2.4
			c-0.6,0.1-0.9-0.1-1.1,0.8c-0.3,1.9-1.8,2.7-3.7,1.9c-0.5-0.2-0.8-0.3-1,0.3c-0.5,1.3-5.2,0.8-5.7-0.7c-1.2,0.9-2.8,1.1-3.5-0.1
			c-0.9-1.5-2.5-1.9-3.3-3c-1.1-1.3-2.1-2.9-3-4.4c-0.5-0.9-1-2.1-1.4-3.1c-0.6-1.6-1.3-1.5-2.5-1.3c-0.3,0.1-0.7,0-1,0.1
			c-1.4-0.1-2.9-0.2-4.3-0.4c-1.6-0.6-3.2-1.2-4.7-2.1c-1-0.9-2-1.8-3-2.7c-0.2-0.2-0.4-0.4-0.6-0.6c-0.6-0.9-1-1.5-2.4-0.8
			c-1.1,0.5-2.6,0.3-3.5,1.5c-0.1,0.1-0.4,0.2-0.6,0.2c-1.3-0.3-2.5-0.7-3.7,0.7c-0.5,0.6-1.8,0.2-2.4-0.6c-0.5-0.6-0.7-0.5-1.3-0.1
			c-1.5,1-3.2,0.6-3.9-1.2c-0.3-0.7-0.5-0.7-1.2-0.5c-2,0.5-4.1-0.9-3.8-2.9c0.2-1.2,0.5-2-1.1-2.4c-0.6-0.2-0.9-1-1-1.7
			c-0.2-1,0.7-1.7,0.9-2.4c0.1-0.7-1.6-1.5-1.2-2.4c0.9-1.7,0.8-3.4,1.2-5.1c0.3-1,0.7-2.3,1.2-3.3c0.7-1.4,0.1-1.9-0.8-2.6
			c-0.2-0.1-0.4-0.4-0.6-0.6c-0.9-1.2-2.2-2-2.8-3.4c-0.9-1.2-1.5-2.6-1.7-4.1c-0.4-1.5-0.6-3-0.7-4.5c0.1-0.6,0.1-1.1,0.2-1.7
			c0.3-0.9,0-1.2-0.9-1.6c-1.3-0.6-2.4-1.7-4-1.7l-0.1-0.1c-0.8-1.3-1.7-2.2-3.4-2.3c-0.7,0-1.3-1.2-1.1-2.1c0.1-0.7,0-0.8-0.7-0.9
			c-1.8-0.3-2.8-1.9-2.1-3.5c0.4-0.8,0.2-0.9-0.5-1.3c-1.8-1-2.1-3.8-0.4-4.8c1.1-0.6,1.2-1,0.7-2.1c-0.3-0.5,0-1.2,0.3-1.8
			c0.6-1.1,2.1-0.9,2.5-1.4c0.5-0.7,0.1-2.5,1.1-2.7c1.8-0.3,2.6-1.8,3.9-2.5c1.2-0.6,2.5-1.2,3.8-1.7s1.2-1,1-1.9
			C-21.5,226.2-21.5,225.7-21.5,225.2z M13.5,228.2c0.8-0.2,1.3-0.4,0.6-1.3c-0.8-1.1-1.1-2.5-0.6-3.8s-0.2-1.7-1-2.1
			c-4-2.1-8-1.5-11.7,0.7c-1.7,1-3.1,2.3-4.9,3.1c-0.5,0.2-0.7,0.5-0.4,1.1c0.7,1.8,0.8,3.7,1.3,5.5c1.1,4.3,3.4,7.6,7.8,9
			c0.9,0.3,1.7,0.4,2.2-0.8c0.5-1.1,1.6-1.9,2.8-2.1c1.5-0.3,1.1-0.9,0.6-1.8c0-1.1,0-2.1-0.1-3.2c0-0.1,0-0.2,0.1-0.3
			c0.4-0.4,0.4-1,0.6-1.5c0.1-0.4,0.3-0.7-0.3-1.2c-1.9-1.6-3.7-3.4-5.5-5.1c0.4-0.1,0.6,0.1,0.7,0.2c1.6,1.3,3.3,2.6,4.9,4
			c0.7,0.6,1.1,0.6,1.8,0.1C12.8,228.7,13.2,228.6,13.5,228.2z M66.3,235.7c-0.2,0.4-0.4,0.9-0.6,1.4c1.7,0.4,3.3,1,4,2.5
			c0.6,1.1,1.2,1.1,2.2,0.8c4.3-1.3,6.6-4.5,7.7-8.6c0.5-1.9,0.6-3.9,1.4-5.8c0.2-0.5,0.1-0.8-0.4-1.1c-1.8-0.8-3.3-2.1-4.9-3.1
			c-3.7-2.2-7.6-2.8-11.6-0.8c-1,0.5-1.6,1-1.1,2.3s0.1,2.6-0.7,3.8c-0.7,1,0.1,1,0.6,1.2c0.3,0.4,0.7,0.5,1.1,0.6
			c0.6,0.4,1,0.7,1.7,0c1.7-1.6,3.6-3,5.5-4.5c-1.6,2-3.4,3.7-5.3,5.4c-0.3,0.3-0.6,0.4-0.3,0.8c0.2,0.3,0.3,0.5,0.9,0.2
			c2.4-1,4.9-1.9,7.3-2.8c0.6-0.2,1.1-0.7,2.1-0.4c-3.1,1.4-5.9,2.7-8.8,4c-0.4,0.2-1,0-0.7,0.8c0.2,0.7,0.6,0.4,1,0.4
			c2.4,0,4.9,0,7.3,0c-2.3,0.4-4.7,0.7-7.1,0.8c-0.8,0.1-1.1,0.3-1.1,1.1C66.3,235,66.3,235.3,66.3,235.7z M66.6,251.5
			c0,0.3,0.1,0.7,0.1,1c-0.5,0.2-0.5,0.7-0.4,1.1c0,0.4,0,0.5,0.5,0.7c3,1.3,6,2.7,9,4c-3-0.7-6-1.7-8.8-2.9c-1.2-0.6-1.4,0-1.6,0.8
			c0,0.1-0.1,0.1-0.1,0.1c-0.4,0.3-0.9,0.6-1.3,1c-0.3,0-0.5,0.1-0.7,0.3c-0.9,0.3-1.6,0.5-0.8,1.7c0.7,1,0.9,2.3,0.4,3.5
			s0.2,1.6,1,2.1c4,2.1,7.8,1.5,11.6-0.6c1.7-1,3.2-2.3,5.1-3.1c0.5-0.2,0.6-0.5,0.4-1.1c-0.7-1.8-0.8-3.8-1.3-5.7
			c-1.1-4.4-3.5-7.6-8.1-8.9c-0.5-0.1-1.1-0.5-1.5,0.3c-0.9,1.9-2.5,2.7-4.4,3.1c0.2,0.6,0.4,1,0.6,1.5
			C66.3,250.8,66.3,251.2,66.6,251.5z M31,271.1c-0.3,0-0.5,0-0.7,0.3c-1,0-1.4,0.2-1.5,1.4c-0.1,2.2-0.4,4.5-0.7,6.7
			c-0.1-2.5-0.2-4.9-0.1-7.4c0-0.6,0-0.8-0.5-0.9c-0.7-0.2-0.5,0.4-0.6,0.7c-1.3,2.8-2.6,5.6-4.1,8.9c0-0.7,0-0.9,0-1
			c1-2.7,2-5.4,3-8.2c0.1-0.3,0.9-0.5,0.1-1.1c-0.7-0.5-0.8,0.1-1.2,0.4c-1.7,1.8-3.3,3.5-5,5.2c1.3-2.1,2.6-4,4.3-5.7
			c1.6-1.6-1.7-1.8-0.8-3.1c0.1-0.1-0.2-0.5-0.3-0.7c-0.2,0.1-0.5,0.3-0.7,0.4c-1.2,0.6-2.5,1.1-3.8,0.6c-1.2-0.5-1.7,0.1-2.1,1
			c-2.2,4.3-1.4,8.3,1,12.2c0.9,1.5,1.9,2.9,2.7,4.4c0.3,0.5,0.5,0.8,1.2,0.6c1.9-0.7,3.9-0.8,5.8-1.4c4.2-1.2,7.4-3.6,8.6-8
			c0.2-0.6,0.5-1.2-0.4-1.6c-1.8-0.8-2.6-2.5-3.1-4.3C31.8,270.7,31.4,270.9,31,271.1z M30.7,214.8c0.5,0.2,1,0.5,1.5,0.7
			c0.4-1.7,1-3.3,2.6-4.1c1.1-0.5,1-1.2,0.7-2c-1.2-4-4.1-6.4-7.9-7.6c-2.2-0.7-4.5-0.7-6.6-1.6c-0.6-0.3-0.8,0.1-1,0.5
			c-0.8,1.7-2,3.2-3,4.8c-2.3,3.9-3,7.9-0.6,12c0.3,0.5,0.4,1.3,1.3,1c1.9-0.7,3.6-0.2,5.3,0.9c0.2-0.7,0.3-1.6,0.7-1.9
			c1.4-1.1,0.4-1.7-0.2-2.5c-1.1-1.3-2.2-2.7-3.3-4c1.7,1.2,3.1,2.7,4.6,4.2c0.2,0.3,0.3,0.9,1,0.5c0.9-0.5,0.2-0.8,0-1.2
			c-1.1-2.9-2.1-5.8-3.2-8.7c1.6,2.6,3,5.4,4.1,8.2c0.4,0.9,0.7,0.9,1.4,0.8C29,214.7,29.9,214.8,30.7,214.8z M10.1,253.6
			c0-1.1,0-2.1,0-3.2c0-0.6,0.7-0.9,0.6-1.5c-1.7-0.3-3.2-1-4-2.6c-0.5-1-1-0.9-1.9-0.7c-4.6,1.3-6.9,4.6-8,9
			c-0.5,1.8-0.6,3.7-1.3,5.5c-0.2,0.4-0.2,0.8,0.3,1c2.5,1.1,4.4,3,6.9,4.1c3.5,1.5,7,1.5,10.3-0.5c0.4-0.2,1.1-0.3,0.7-1.1
			c-0.8-1.9-0.2-3.7,0.8-5.4c-0.8-0.3-1.8-0.4-2.4-1c-0.5-0.6-0.9-0.5-1.5,0c-1.6,1.4-3.3,2.7-4.9,4c1.3-1.8,2.9-3.3,4.5-4.8
			c0.3-0.3,0.8-0.4,0.4-1c-0.4-0.7-0.7-0.2-1.1-0.1c-3,1.1-5.9,2.2-9,3.4c0.3-0.8,0.9-0.8,1.3-1c2.5-1.2,5.1-2.3,7.6-3.4
			C10.1,254.1,10.1,253.9,10.1,253.6z M45.7,214.8c1,0,1.9,0,2.9,0c0.3-0.1,0.7,0.4,1-0.4c1-2.5,2.2-4.9,3.3-7.3
			c0.2-0.5,0.3-1.1,1.1-1.6c-1.2,3.2-2.3,6.2-3.4,9.1c-0.1,0.3-0.8,0.6,0,1.1c0.6,0.4,0.7-0.1,1-0.4c1.5-1.6,3.1-3.3,4.6-4.9
			c-1.1,2-2.5,3.7-3.9,5.4c-0.3,0.3-0.8,0.5-0.2,1.1c0.8,0.7,0.9,1.7,1.3,2.7c1.5-0.9,3.1-1.6,4.9-1c1,0.4,1.3-0.1,1.7-0.8
			c1.4-2.4,1.7-5,1.2-7.8c-0.8-3.7-3.6-6.3-5.1-9.6c-2.1,0.4-4.2,0.8-6.3,1.3c-4.4,1.1-7.7,3.5-9,8c-0.2,0.6-0.5,1.2,0.3,1.6
			c1.8,0.9,2.6,2.4,3.1,4.4C44.7,215.3,45.2,215,45.7,214.8z M45.6,271.1c-0.5-0.2-0.9-0.4-1.5-0.6c-0.5,1.9-1.3,3.5-3.2,4.4
			c-0.8,0.3-0.3,1-0.2,1.5c1.1,4,3.8,6.4,7.6,7.7c2.3,0.7,4.6,1.1,7,1.7c0.5,0.1,0.7,0,1-0.4c1.3-2.2,2.8-4.3,3.9-6.6
			c1.7-3.5,1.7-7-0.3-10.5c-0.2-0.4-0.4-1.1-1.1-0.8c-2,0.9-3.7,0.2-5.5-0.8c-0.2,0.6-0.2,1.4-0.6,1.7c-1.5,1.3-0.3,2.1,0.4,3.1
			c0.7,1.1,2,1.8,2.2,3.5c-1.4-1.5-2.7-2.8-3.9-4.1c-0.4-0.5-0.6-0.5-1.1-0.2c-0.7,0.4,0,0.7,0.1,0.9c1.1,3,2.2,5.9,3.3,8.9
			c-1.7-2.7-3-5.6-4.3-8.5c-0.1-0.3,0.2-1-0.7-0.8c-0.6,0.2-0.5,0.5-0.5,1c0,2.4,0,4.8,0,7.2c-0.4-2.2-0.7-4.4-0.8-6.6
			c-0.1-1.2-0.5-1.6-1.5-1.4C46,271.2,45.9,271.1,45.6,271.1z M53.3,243.1c0-8.3-6.8-15.1-15-15.1c-8.3,0-15.1,6.8-15.2,15
			c0,8.3,6.7,15.1,15,15.1S53.3,251.3,53.3,243.1z M54.6,195.1c0-2.9-1.5-5.3-4.1-6.2c-0.8-0.3-0.9-0.7-1-1.4
			c-0.2-3.7-2.7-5.5-6.3-4.7c-0.7,0.2-0.9,0.1-1.1-0.5c-0.7-1.7-2.1-2.5-3.9-2.5c-1.8,0-3.1,0.8-3.8,2.4c-0.2,0.5-0.4,0.7-1.1,0.6
			c-3.8-0.8-6.2,1-6.3,4.8c0,0.7-0.1,1-0.9,1.3c-2.7,1-4.2,3.4-4.2,6.2c0,0.7,0,1.4,0.9,1.6c0.9,0.2,0.8-0.7,1-1.1
			c2.5-6.2,8-10,14.4-10c6.6,0,12.1,3.8,14.6,10c0.2,0.5,0.1,1.4,1.1,1.2C54.7,196.4,54.5,195.6,54.6,195.1z M98.6,236.7
			c0-3-1.9-5-4.8-5.1c-1,0-1.3-0.3-1.7-1.2c-0.9-2.5-3.6-4.1-6.2-4c-0.8,0-1.2,0.3-1.3,1c-0.2,0.8,0.6,0.7,1,0.9
			c6.4,2.7,10,8,10,14.6c0,6.4-3.8,11.8-10,14.4c-0.5,0.2-1.2,0.2-1,1.1c0.2,0.8,0.8,0.8,1.4,0.9c2.7,0.1,5.2-1.5,6.2-4
			c0.3-0.8,0.7-1,1.5-1.1c3.4-0.2,5.5-2.8,4.7-5.9c-0.2-1-0.1-1.3,0.8-1.7c2.8-1.4,2.9-5.7,0.2-7.2c-1.1-0.6-1.4-1.1-0.9-2.1
			C98.6,237,98.6,236.8,98.6,236.7z M-9.9,259.3c0.7-0.1,1.6,0.2,1.8-0.8c0.2-1.1-0.8-0.9-1.3-1.1c-5.9-2.4-9.8-8.1-9.7-14.4
			c0-6.4,3.9-12,9.8-14.4c0.5-0.2,1.4,0,1.2-1c-0.2-1-1-1-1.7-0.9c-2.8,0.2-4.9,1.4-6,4.1c-0.3,0.8-0.6,1-1.4,1
			c-3.7,0.2-5.6,2.7-4.7,6.2c0.1,0.6,0.1,0.8-0.5,1.2c-3.5,2-3.5,5.6,0.1,7.7c0.5,0.3,0.5,0.5,0.4,1c-0.8,3.8,1,6.2,4.8,6.4
			c0.7,0,1,0.2,1.3,0.9C-14.9,257.8-12.7,259-9.9,259.3z M44.4,303.3c3,0,4.9-1.9,5-4.8c0-0.9,0.3-1.3,1.2-1.7
			c2.5-0.9,4.1-3.6,4-6.2c0-0.7-0.2-1.1-0.9-1.3c-0.9-0.3-0.9,0.5-1.1,1c-0.7,1.9-1.8,3.7-3.3,5.2c-7.8,8.2-21.2,5.6-25.6-5
			c-0.2-0.5-0.1-1.4-1.1-1.2c-0.9,0.2-0.9,0.8-0.9,1.5c0,2.7,1.6,5,4.1,6c0.9,0.3,1,0.7,1,1.6c0.1,3.5,2.8,5.5,6.2,4.6
			c0.9-0.3,1,0.2,1.3,0.8c0.7,1.5,2,2.3,3.7,2.3s3.1-0.7,3.7-2.2c0.4-1,0.8-1.1,1.6-0.7C43.8,303.3,44.3,303.3,44.4,303.3z
			 M83.3,271.7c0.3,11.8-11.1,19.4-21.8,14.9c-0.4-0.2-0.9-0.8-1.4,0c-0.5,0.7-0.2,1.1,0.3,1.6c1.8,1.9,4.7,2.7,7.1,1.6
			c0.9-0.4,1.4-0.4,2.1,0.3c2.5,2.4,5.7,1.8,7.5-1.1c0.4-0.6,0.6-0.9,1.4-0.5c1.7,0.8,3.1,0.2,4.4-1c1.2-1.2,1.8-2.7,1-4.4
			c-0.3-0.7-0.3-1,0.5-1.4c3-1.8,3.5-5.1,1.1-7.6c-0.6-0.6-0.8-1-0.3-1.8c1.2-2.4,0.4-5.6-1.6-7.4c-0.5-0.4-0.9-0.6-1.5-0.2
			c-0.7,0.4-0.3,0.9-0.1,1.3C82.8,268,83.3,270.1,83.3,271.7z M-7,213.3c0-11.3,11.7-18.8,22-14.2c0.4,0.2,0.9,0.9,1.5,0.1
			c0.6-0.8,0.1-1.2-0.4-1.7c-2-2.1-4.8-2.7-7.4-1.5c-0.8,0.4-1.1,0.2-1.7-0.3c-2.7-2.5-5.8-2-7.8,1.1c-0.3,0.6-0.5,0.7-1.1,0.4
			c-1.7-0.8-3.2-0.3-4.5,1s-1.8,2.8-1,4.5c0.3,0.6,0.2,0.8-0.4,1.1c-3.2,2-3.6,5.1-1.1,7.9c0.5,0.5,0.6,0.8,0.2,1.5
			c-1.3,2.6-0.5,5.8,1.7,7.6c0.5,0.4,0.9,0.7,1.5,0.3c0.7-0.5,0.2-0.9,0-1.3C-6.5,217.8-6.9,215.6-7,213.3z M8.8,288
			c-11.3,0.1-18.8-11.2-14.4-21.7c0.2-0.5,0.9-1,0-1.6c-0.7-0.5-1.1,0-1.6,0.4c-2,1.9-2.6,4.8-1.5,7.2c0.4,0.7,0.3,1.1-0.2,1.7
			c-2.5,2.7-2.1,5.9,1,7.8c0.6,0.4,0.8,0.5,0.5,1.3c-0.8,1.6-0.3,3.1,0.9,4.4c1.3,1.3,2.8,1.9,4.5,1.1c0.7-0.3,0.9-0.1,1.2,0.5
			c1.9,3.1,5.1,3.6,7.8,1c0.6-0.5,0.9-0.6,1.7-0.3c2.5,1.2,5.7,0.5,7.5-1.7c0.4-0.5,0.6-0.9,0.2-1.5c-0.5-0.7-0.9-0.2-1.3,0
			C13.1,287.5,11,288,8.8,288z M67.3,197.7c11.7-0.2,19.2,11.4,14.6,22c-0.2,0.4-0.9,0.9,0,1.4c0.7,0.5,1.1,0.1,1.6-0.4
			c2-1.9,2.8-4.9,1.7-7.2c-0.5-1-0.3-1.4,0.4-2.1c2.3-2.5,1.8-5.8-1.2-7.5c-0.6-0.3-0.9-0.4-0.5-1.2c0.8-1.7,0.3-3.2-1-4.5
			s-2.8-1.7-4.5-0.9c-0.7,0.3-0.8,0.1-1.1-0.4c-1.9-3.2-5.1-3.6-7.9-1c-0.6,0.5-0.9,0.5-1.6,0.2c-2.6-1.2-5.8-0.4-7.6,1.7
			c-0.4,0.5-0.5,0.8-0.2,1.3c0.4,0.7,0.8,0.3,1.3,0.1C63.2,198.2,65.4,197.8,67.3,197.7z M39.8,210.6c-1.3-6.9-6.3-11.4-13.5-12.6
			c-2.4-0.4-4.9-0.6-7-2.1c-0.7-0.5-0.8-0.2-1,0.5c-0.4,2-1.4,3.7-2.7,5.3c-1.4,1.8-2.6,3.7-3.3,5.9c-1.6,4.9-0.9,9.4,1.8,13.5
			c0.7-0.5,1.2-1,1.7-1.4c0.6-0.4,0.7-0.7,0.3-1.4c-2.8-4.5-2.1-8.9,0.4-13.3c1.1-1.9,2.6-3.5,3.3-5.6c0.2-0.5,0.4-0.5,0.9-0.3
			c1.9,0.9,3.9,1.1,5.9,1.6c4.4,1,8,3.2,9.4,7.6c0.7,2.1,1.6,2.5,3.4,2.3C39.5,210.7,39.6,210.6,39.8,210.6z M85.9,223.3
			c-1.9-0.3-3.4-0.9-4.8-1.8c-1.3-0.9-2.6-1.9-3.9-2.7c-5.2-3.2-10.5-3.4-15.9-0.6c-0.4,0.2-1.6,0.4-0.9,1.1c0.7,0.6,1,2.4,2.5,1.5
			c4.7-2.8,9.3-2.1,13.7,0.7c1.7,1.1,3.2,2.3,5.1,3c0.2,0.1,0.8,0,0.4,0.6c-1.2,2.2-1.2,4.7-1.9,7.1c-1.2,4.1-3.5,7.4-7.8,8.6
			c-1.6,0.5-2.2,1.2-1.9,2.7c0.1,0.3-0.2,0.7,0.1,0.9c6.7-1.3,11.1-5.9,12.4-12.9C83.7,228.8,83.8,225.9,85.9,223.3z M56.5,287.1
			c-1.9-1-3.8-1.3-5.8-1.7c-5.3-1-9.3-3.7-10.8-9.2c-0.5-1.9-1.9-0.6-2.8-0.8c-0.8-0.1-0.3,1-0.1,1.4c1.9,6.1,6.2,9.7,12.4,11
			c2.2,0.5,4.5,0.3,6.5,1.5c1.8,1.1,2.3,0.8,2.7-1.2c0.6-2.5,2.7-4.3,4-6.5c3-5.2,3.2-10.5,0.4-15.8c-0.2-0.4-0.6-1.4-1-0.9
			c-0.6,0.8-2.4,1.1-1.6,2.5c3,5.1,2,9.8-1.1,14.4C58.2,283.6,57,285.1,56.5,287.1z M-5.9,261.3c1-1.7,1.3-3.6,1.6-5.4
			c1-5.5,3.7-9.6,9.4-11.2c1.6-0.4,0.6-1.9,0.7-2.7c0.1-0.9-0.9-0.3-1.4-0.2c-6.3,1.9-9.9,6.3-11.1,12.6c-0.5,2.8-0.8,5.8-2.7,8.3
			c2.8,0.4,4.9,1.8,6.9,3.3c5.6,4.2,11.5,5,17.8,1.7c0.4-0.2,1.4-0.6,0.9-1c-0.8-0.6-1.1-2.4-2.5-1.6c-5,2.9-9.7,2-14.3-1
			C-2.3,263-3.9,261.8-5.9,261.3z M3.9,241c-3.4-1.3-5.7-3.7-7.1-6.9c-0.8-2-1-4.1-1.5-6.1c-0.3-1.1-1.2-2.4-0.9-3.1
			c0.4-0.8,1.9-1,2.9-1.6c1.8-1,3.3-2.4,5.3-3.2c3.3-1.3,6.6-1.4,10.1,0.1c-0.4-0.8-0.7-1.3-0.8-1.9c-0.2-1.4-1.1-1.9-2.4-2
			c-4-0.4-7.6,0.7-10.8,2.9c-2.4,1.6-4.6,3.7-7.9,4c1.5,2.2,2.1,4.4,2.4,6.8c0.5,3.6,1.6,6.9,4,9.6C-0.2,242.7,0.1,242.8,3.9,241z
			 M57.9,195.4c-2.4,1.8-5.1,2.2-7.7,2.6c-3.4,0.5-6.5,1.8-9,4.2c-2.6,2.5-2.6,2.5-1.3,5.8c0.1,0.2,0,0.5,0.4,0.4
			c2.1-5.1,6.3-7.3,11.5-8.1c0.8-0.1,1.8-0.2,2.5-0.6c1.7-1,2.4-0.4,3.2,1.3c0.7,1.7,2,3.1,2.9,4.7c2,3.7,2.5,7.5,0.7,11.6
			c4-1.5,4.1-1.6,3.9-5.5c-0.1-3.8-1.8-7-4.1-10C59.5,200,58.3,198,57.9,195.4z M36.3,277.2c-2.1,5.1-6,7.4-11,8.3
			c-1.6,0.3-3.2,0.5-4.6,1.3c-0.7,0.4-0.8,0.1-1-0.5c-0.5-1.4-1.3-2.7-2.2-3.9c-3-4.2-4.3-8.6-2.1-13.8c-0.7,0.3-1.1,0.6-1.6,0.7
			c-2,0.2-2.3,1.6-2.4,3.3c-0.2,4.3,1.3,7.9,3.8,11.3c1.3,1.8,2.7,3.6,3.1,5.8c0.1,0.7,0.4,0.8,1,0.4c1.9-1.2,4-1.6,6.1-1.9
			c3.8-0.5,7.3-1.8,10.1-4.6c2.3-2.3,2.3-2.3,1.1-5.3C36.6,278,36.5,277.7,36.3,277.2z M85.8,262.7c-1.6-2.2-2.1-4.4-2.4-6.8
			c-0.5-3.9-1.8-7.5-4.8-10.4c-2.4-2.4-2.9-2.4-5.9-0.5c5.1,2.1,7.2,6.2,8,11.3c0.3,1.7,0.7,3.4,1.6,4.9c-1.7,0.3-3.1,1.3-4.4,2.2
			c-4.3,3.1-8.8,4.6-14,2.3c1.3,3.9,1.3,3.9,5.2,3.9c4-0.1,7.4-1.8,10.5-4.2C81.4,264.2,83.4,263.1,85.8,262.7z M18.5,257.5
			c-2.6,0.2-4.3,1.3-4.4,4.1c-0.1,2.2,1.9,4.9,4.2,5.4c2.6,0.6,4.9-0.4,5.4-3.8c0.1-0.5-0.1-0.5-0.5-0.6
			C20.4,262,19,260.2,18.5,257.5z M52.6,262.7c0.9,3.4,2.1,4.6,4.5,4.4c2.3-0.2,4.9-2.7,5.1-5c0.2-2.5-0.9-3.8-4.4-4.7
			C57.5,260.5,55.7,262.2,52.6,262.7z M18.5,228.7c0.5-2.9,2-4.8,4.8-5.3c0.3-0.1,0.7-0.1,0.5-0.4c-0.5-1.1-0.3-2.6-1.7-3.4
			c-2.3-1.2-4.4-0.9-6.4,1.3c-1.8,1.9-2,4.1-0.6,6.2C15.9,228.4,17.3,227.9,18.5,228.7z M57.4,218.9c-2.8,0-3.9,1-4.6,3.6
			c-0.2,0.6-0.2,0.8,0.5,1c2.4,0.5,3.9,2,4.4,4.4c0.1,0.3-0.1,0.9,0.4,0.7c1.1-0.5,2.6-0.2,3.4-1.6c0.8-1.6,1.1-3.1,0.2-4.7
			C60.7,220.4,59.2,219,57.4,218.9z M41.9,218.9c1.8-3.2,1.6-5-0.3-6.6c-1.9-1.4-5.3-1.3-7,0.2c-1.8,1.7-1.8,3.4,0,6.3
			C37.1,217,39.3,217,41.9,218.9z M34.5,267.1c-1.8,3-1.7,4.9,0.2,6.4s5.5,1.6,7.1-0.2c1.5-1.6,2.6-3.1,0-6.3
			C39.4,268.9,37.1,268.9,34.5,267.1z M14.2,239.2c-1.4-0.3-2.2-1.7-3.8-1.3c-3.7,1-5.2,5.8-2.6,8.7c1.6,1.8,4.2,2,6.1,0.4
			c0.4-0.4,0.2-0.5,0-0.8C12.2,243.8,12.5,241.6,14.2,239.2z M62.3,239.2c1.7,2.5,1.8,4.3,0.3,7c-0.1,0.2-0.5,0.5-0.1,0.7
			c1.2,0.4,2,1.6,3.6,1.2c2.3-0.6,3.6-2.2,3.7-4.7c0.1-2.9-1-4.4-3.3-5.3C64.7,237.3,63.7,238.8,62.3,239.2z M33.6,265.2
			c-2.8,1.6-6.5,0.6-7.4-2.2c-0.1-0.4,0.1-1-0.5-1c-0.4,0-0.8,0.4-1,0.9c-2,3.6-0.2,7.3,3.9,7.9C31.5,271.1,34.6,267.7,33.6,265.2z
			 M61,228.6c-0.9,0.1-1.9,0.4-2.9,0.8c-0.5,0.2-0.9,0.5-0.9,1c0,0.7,0.6,0.4,1,0.5c2.2,0.8,3.7,4.1,2.8,6.3c-0.2,0.4-1,0.8-0.4,1.3
			c0.6,0.6,1.3,0.1,1.9-0.2c0.7-0.4,1.4-0.8,2-1.3c1.5-1.3,1.8-3,1-5.1S63.2,228.6,61,228.6z M19.3,230.6c-1-1.8-4.1-2.6-6.1-1.5
			c-2.2,1.2-3.3,4.8-2.1,6.9c1.1,1.9,3.7,3.1,5.1,2.3C14.1,235.2,15.5,231.7,19.3,230.6z M42.8,265.1c-0.5,2.1,1.2,4.8,3.2,5.5
			s5.2-0.6,6.2-2.6c1-1.9,0.2-5-1.5-6.1C49.2,265.8,46.2,267.1,42.8,265.1z M57.1,255.4c1.2,1.8,4.3,2.5,6.2,1.5
			c2-1,3.2-4.2,2.5-6.2s-3.4-3.6-5.3-3.2C62.2,251.3,61,254.3,57.1,255.4z M19.3,255.4c-3.3-0.6-5.4-4.5-3.2-7.8
			c-1.9-0.5-4.6,1.1-5.3,3.1c-0.8,2.1,0.6,5.3,2.6,6.3C15.2,257.9,18.4,257.1,19.3,255.4z M42.8,220.9c2.8-1.6,6.3-0.7,7.4,1.9
			c0.2,0.4,0,1.2,0.6,1.2c0.7,0,1-0.7,1.2-1.3s0.4-1.2,0.5-1.8c0.3-1.7-0.1-3.2-1.5-4.3c-1.6-1.1-3.3-1.9-5.3-1.1
			C43.8,216.3,42.3,219.1,42.8,220.9z M33.7,220.9c0.7-1.8-0.4-3-1.3-4.1c-1.7-2.2-4.8-2.1-7.1,0c-1.7,1.5-1.9,5.1-0.3,6.7
			c0.3,0.3,0.7,1.1,1.2-0.1C27.4,220.1,30.6,219,33.7,220.9z M68.3,290.8c-4.4,8.2-7.9,9.6-17.6,7.3c-0.6,1.4-0.1,2,1.3,2.5
			c6.6,2.2,13.9-0.7,17.1-7C69.8,292.2,69.8,291.3,68.3,290.8z M25.7,298c-0.5,0.2-1,0.4-1.4,0.5c-6.1,2.3-12.8-0.5-15.4-6.5
			c-0.2-0.5,0-1.6-1.2-1.1c-1,0.5-0.9,1.1-0.5,2.1c3,6.5,10.3,9.7,17.2,7.6C25.7,300.2,26.3,299.5,25.7,298z M86,272.9
			c0.6,1.5,1.4,1.6,2.8,0.9c3.7-2,6.2-5,7.3-9.1c0.8-3,0.5-5.9-0.6-8.7c-0.4-1-1.1-0.8-1.8-0.7c-0.8,0.2-0.3,0.7-0.2,1.1
			C96.1,263.9,93.6,269.6,86,272.9z M94.6,224.7c0,1.6-0.4,3.2-1,4.7c-0.1,0.4-0.6,0.9,0.1,1.1c0.5,0.1,1.1,0.4,1.6-0.2
			c0.2-0.3,0.3-0.6,0.4-0.9c2.5-6.7-0.9-14.6-7.5-17.5c-0.9-0.4-1.5-0.3-1.9,0.5c-0.5,1.1,0.6,1,1.1,1.2
			C92,215.9,94.3,219.6,94.6,224.7z M-9.7,272.9c-0.3-0.1-0.6-0.3-0.9-0.4c-6.1-2.6-8.9-9.2-6.7-15.5c0.2-0.5,1.1-1.2,0-1.7
			c-1.1-0.4-1.6,0.2-1.9,1.2c-2.4,6.7,0.5,14,6.8,17.3C-11,274.6-10.2,274.4-9.7,272.9z M19.7,184.7c-5.6,0.3-9.9,3-12.6,8.2
			c-0.5,1-0.1,1.5,0.6,1.9c0.8,0.4,0.9-0.4,1.1-0.9c3-6.2,9-8.6,15.6-6.4c0.5,0.2,1.1,0.7,1.4-0.2c0.2-0.7,0.2-1.4-0.8-1.7
			C23.3,185.1,21.7,184.8,19.7,184.7z M-20.1,225.3c0,1.2,0.4,2.9,0.9,4.5c0.3,1,1.1,1,1.8,0.7c0.9-0.3,0.3-0.9,0.1-1.4
			c-2.3-6.4,0.3-12.6,6.5-15.5c0.5-0.2,1.4-0.3,0.9-1.2c-0.4-0.8-1-0.9-1.8-0.5C-16.6,214-20.1,219.3-20.1,225.3z M57,184.7
			c-2.2,0.1-3.8,0.4-5.5,0.9c-0.9,0.3-1.2,0.9-0.9,1.7c0.3,1.1,1,0.4,1.5,0.2c6.4-2.3,12.7,0.3,15.6,6.4c0.2,0.4,0.2,1.4,1,0.9
			c0.7-0.4,1.2-0.9,0.7-1.9C66.6,187.7,62.4,185,57,184.7z M84.7,287.1c-0.8,0.8-1.6,1.6-2.4,2.5c0,0,0.1,0.2,0.1,0.3
			c1.4,1.9,2.8,3.9,4.9,5.1c0.9,0.5,1.7,0.4,2.5-0.4c0.7-0.7,0.9-1.5,0.4-2.3c-1.2-2.2-3.3-3.6-5.2-5.1
			C85,287.2,84.9,287.1,84.7,287.1z M38,178.7c1.9,0,2,0,2.1-0.7c0.3-2,0.6-4.1,0.2-6.1c-0.3-1.1-0.8-1.9-2-1.9
			c-1.3,0-1.9,0.8-2.2,2c-0.3,1.6-0.1,3.2,0,4.8C36.2,178,36.3,179.4,38,178.7z M36,311.8c0,0.5,0,1.4,0.2,2.3
			c0.2,1.1,3.9,1.2,4.1,0c0.5-2.2,0.1-4.3-0.2-6.4c-0.1-0.4-0.2-0.7-0.7-0.7c-2.8-0.3-3-0.1-3.3,2.7C36.1,310.3,36,310.9,36,311.8z
			 M-30.6,240.7c-0.5,0-1.5,0-2.4,0.2c-1.1,0.2-1.8,0.9-1.8,2.1c0,1.2,0.7,1.7,1.8,2c2.2,0.5,4.3,0.1,6.4-0.2c0.3,0,0.6-0.2,0.7-0.6
			c0.5-2.4-0.1-3.2-2.5-3.4C-29,240.8-29.6,240.8-30.6,240.7z M92.8,256.8c-1,0.8-1.4,1.7-1.2,3.2c0.6,3.5-0.7,6.6-3.6,8.7
			c-1.2,0.9-1.5,1.8-1.3,3.1C92.6,269.5,95.5,262.5,92.8,256.8z M52,297.6c5.9,2.7,14-0.7,14.9-6.2c-1.3-0.2-2.1,0.3-3,1.4
			c-2.1,2.9-5.1,4.1-8.5,3.6C53.9,296.1,53,296.4,52,297.6z M-14,293.2c0,1.6,1.7,2.6,3.2,1.8c2.1-1.2,3.4-3.1,4.8-5
			c0.2-0.2,0.3-0.4,0-0.7c-1.6-2.1-2.4-2.2-4.5-0.5c-0.8,0.7-1.6,1.4-2.4,2.2C-13.5,291.6-14,292.3-14,293.2z M24.5,297.7
			c-0.9-1.2-1.9-1.5-3.3-1.3c-3.6,0.5-6.6-0.8-8.6-3.7c-0.8-1.2-1.7-1.5-3-1.2C12,297.5,18.1,300,24.5,297.7z M90.5,192.9
			c0-1.6-1.8-2.6-3.3-1.7c-1.7,1-2.8,2.6-4.1,4.1c-0.6,0.8-1,1.4,0.1,2c0.7,0.4,0.9,1.7,1.8,1.5c0.8-0.2,1.4-0.9,2.1-1.5
			c1-0.8,1.9-1.6,2.7-2.6C90.2,194,90.4,193.5,90.5,192.9z M-10.3,271.7c0.2-1.5-0.3-2.3-1.5-3.2c-2.7-2.1-4-5.1-3.4-8.5
			c0.3-1.5-0.2-2.3-1.3-3.1C-18.8,263-16.1,269.4-10.3,271.7z M-11.9,190.7c-1.5,0-2.6,1.6-1.9,3c1.1,2.1,3.1,3.5,5,4.9
			c0.2,0.2,0.4,0.2,0.7-0.1c2.3-1.7,2.3-2.2,0.5-4.4c-0.8-1-1.6-1.9-2.7-2.7C-10.7,191.1-11.3,190.8-11.9,190.7z M92.9,229.1
			c2.2-6.5-0.8-13.3-6.3-14.8c-0.2,1.3,0.3,2.2,1.5,3.1c2.8,2,4,5,3.5,8.4C91.4,227.3,91.9,228.1,92.9,229.1z M106.8,240.7
			c-0.8,0.1-1.4,0.1-2,0.1c-1.7,0-2.9,0.5-2.3,2.5c0.1,0.5-0.5,1.2,0.4,1.4c2.4,0.4,4.7,0.9,7.1,0.1c0.9-0.3,1.3-1,1.3-2
			c0-0.9-0.5-1.5-1.3-1.8C108.9,240.7,107.7,240.7,106.8,240.7z M-16.5,229c1.5-1.5,1.4-1.5,1.3-3.4c-0.2-3.3,0.9-6.1,3.5-8.1
			c1.2-0.9,1.6-1.8,1.4-3.2C-16.1,216.7-18.7,222.8-16.5,229z M67,194.4c-2.6-5.9-10.2-9-14.7-6c0.8,1.1,1.8,1.3,3.3,1.1
			c3.2-0.5,6,0.7,8,3.3C64.5,194.1,65.5,194.5,67,194.4z M9.5,194.4c1.5,0.1,2.4-0.4,3.4-1.6c2-2.6,4.9-3.7,8.2-3.2
			c1.5,0.2,2.3-0.3,3.1-1.4C18,186.1,12,188.6,9.5,194.4z M57.1,227.8c0-0.8-0.8-1.8-1.7-2.6c-2.2-1.9-5.1-1-5.8,1.9
			c-0.1,0.4,0,0.6,0.3,0.9c0.4,0.3,0.6,0,0.9-0.2c1-0.9,2.1-2,3.4-0.8c1.5,1.4,0.3,2.6-0.7,3.6c-0.3,0.3-0.4,0.5-0.1,0.9
			c0.2,0.2,0.4,0.3,0.7,0.3C55.7,231.4,57.1,229.9,57.1,227.8z M19.4,228.5c0.1,0.9,0.4,2,1.5,2.5c0.7,0.3,1.4,1.3,2.2,0.5
			c0.8-0.9-0.6-1.1-0.9-1.7c-0.6-1-0.9-1.9,0.1-2.8c0.9-0.9,1.9-0.5,2.8,0.1c0.3,0.2,0.5,0.5,0.8,0.7s0.5,0.4,0.9,0.1
			c0.3-0.3,0.3-0.5,0.2-0.9c-0.5-1.8-2.1-3.1-3.7-2.9C21.4,224.4,19.4,226.6,19.4,228.5z M53,261.8c1.6,0,3.8-1.9,4.1-3.6
			c0.3-1.6-0.8-3.1-2.7-3.8c-0.4-0.2-0.7-0.3-1,0.2c-0.3,0.4-0.1,0.6,0.2,0.9c1,1,2,2.2,0.7,3.5c-1.4,1.4-2.5,0.2-3.5-0.7
			c-0.3-0.3-0.5-0.4-0.9-0.1c-0.2,0.2-0.3,0.4-0.3,0.7C49.8,260.5,51.3,261.8,53,261.8z M23.5,261.8c1.8-0.1,2.7-1.2,3.3-2.8
			c0.2-0.4,0.2-0.7-0.2-1c-0.4-0.2-0.6-0.1-0.9,0.2c-1,1-2.2,2.1-3.5,0.7s-0.1-2.5,0.8-3.5c0.2-0.3,0.4-0.5,0.1-0.9
			c-0.3-0.3-0.5-0.3-0.9-0.2c-1.9,0.6-3.1,2.1-2.9,3.7C19.6,259.9,21.8,261.9,23.5,261.8z M63,243c0-3.2-2.5-4.7-5.3-3.2
			c-0.4,0.2-0.6,0.3-0.5,0.7c0,0.4,0.3,0.6,0.7,0.6c0.5,0,0.9,0,1.4,0.1c1,0.2,1.7,0.7,1.7,1.8s-0.7,1.6-1.7,1.8
			c-0.4,0.1-0.8,0.1-1.2,0.1s-0.8-0.1-0.9,0.5c-0.1,0.6,0.3,0.7,0.7,0.8C60.5,247.7,62.9,246.2,63,243z M38.2,218.3
			c-2.5,0-4.4,1.9-3.7,3.9c0.2,0.7,0.1,2,1.2,1.9c1.1-0.1,0.3-1.2,0.6-1.8c0.1-0.1,0-0.2,0.1-0.3c0.2-0.9,0.8-1.6,1.7-1.6
			c1,0,1.6,0.6,1.8,1.5c0.1,0.4,0.1,0.9,0.2,1.3c0,0.4-0.1,0.8,0.5,0.9c0.5,0.1,0.7-0.3,0.8-0.6C42.9,220.7,41.4,218.3,38.2,218.3z
			 M13.5,243c0,2.9,2,4.5,4.5,3.5c0.5-0.2,1.4-0.1,1.3-1c-0.1-1-1-0.4-1.5-0.5c-1.1-0.3-2.2-0.5-2.2-1.9s1-1.8,2.2-1.9
			c0.3,0,0.6,0,0.9,0c0.4,0,0.7-0.1,0.7-0.5s-0.1-0.6-0.5-0.8C16.1,238.2,13.5,239.8,13.5,243z M38.3,267.7c3.2,0,4.6-2.4,3.2-5.2
			c-0.2-0.4-0.3-0.8-0.8-0.7c-0.6,0.1-0.5,0.5-0.5,0.9c0,0.3,0,0.6-0.1,0.9c-0.2,1.1-0.6,2-1.9,2c-1.3,0-1.7-1-1.8-2.1
			c0-0.3-0.1-0.6-0.1-0.9c0-0.4,0-0.8-0.6-0.8c-0.6-0.1-0.6,0.3-0.8,0.7C33.6,265.4,35.1,267.7,38.3,267.7z M19.7,254.5
			c0.4-0.1,1.1-0.3,1.8-0.6c0.4-0.1,1-0.3,0.6-0.9c-0.2-0.4-0.3-1-1.1-0.9c-0.4,0.1-0.9,0.2-1.3,0.2c-0.8,0-1.3-0.4-1.5-1.1
			c-0.3-0.7-0.1-1.3,0.3-1.7c0.3-0.3,0.7-0.6,1.1-0.8c0.7-0.4,0.2-0.9,0.1-1.4c-0.1-0.4-0.3-0.5-0.7-0.4c-1.7,0.3-3.2,1.9-3.1,3.6
			C16,252.6,17.6,254.5,19.7,254.5z M26.8,224.3c0.1,0.3,0,0.8,0.2,1.2c0.3,0.5,0.2,1.5,1.1,1.4c0.9-0.2,1.2-0.7,0.9-1.7
			c-0.3-0.9,0-1.8,1-2.2c1.1-0.4,1.7,0.1,2.3,0.9c0.1,0.2,0.2,0.4,0.4,0.6c0.4,0.6,0.8,0.1,1.2,0.1c0.4-0.1,0.6-0.2,0.5-0.7
			c-0.2-1.6-1.9-3.2-3.5-3.2C28.6,220.7,26.7,222.3,26.8,224.3z M45.5,265.3c3,0,4.9-2.3,3.9-4.9c-0.2-0.5-0.1-1.6-1.2-1.3
			c-0.8,0.2-1.1,0.8-0.8,1.7c0.3,0.9,0.1,1.9-1,2.3c-1,0.4-1.8-0.1-2.3-0.9c-0.1-0.2-0.2-0.4-0.3-0.6c-0.4-0.5-0.9-0.1-1.4,0
			c-0.3,0.1-0.4,0.3-0.3,0.6C42.3,263.8,44,265.3,45.5,265.3z M19.9,231.5c-2.1-0.1-3.5,1.3-3.9,3.5c-0.3,1.8,0.5,3.1,2.6,3.9
			c0.4,0.2,1,0.7,1.2-0.2c0.1-0.5,0.5-1-0.3-1.4c-1-0.5-1.8-1.2-1.3-2.4c0.5-1.3,1.6-1.4,2.7-1c0.9,0.3,1-0.4,1.2-0.8
			c0.4-0.8-0.3-0.8-0.7-1C20.8,231.7,20.2,231.6,19.9,231.5z M60.6,250.6c0.1-1.7-0.8-2.7-2.2-3.3c-0.5-0.2-1.1-1-1.6-0.1
			c-0.4,0.7-0.2,1.3,0.6,1.8c1.3,0.7,1.4,2,0.6,2.8c-0.6,0.7-1.4,0.6-2.2,0.4c-0.9-0.3-1.1,0.3-1.4,0.9c-0.3,0.8,0.4,0.8,0.8,1
			C57.9,255.3,60.4,253.6,60.6,250.6z M60.6,235.8c0-3.2-2.4-5-5.2-3.9c-0.4,0.2-1.3,0.2-1,1c0.2,0.6,0.5,1.2,1.5,0.8s2-0.1,2.4,1
			c0.4,0.9,0,1.7-0.8,2.2c-0.2,0.2-0.5,0.3-0.7,0.5c-0.6,0.4-0.1,0.8-0.1,1.2s0.3,0.6,0.7,0.5C58.9,239,60.5,237.3,60.6,235.8z
			 M30.8,265.3c1.4,0.1,2.5-0.6,3.1-2.2c0.2-0.5,1-1.1,0.1-1.6c-0.7-0.4-1.3-0.3-1.8,0.6c-0.7,1.2-2,1.4-2.8,0.6
			c-0.7-0.6-0.6-1.5-0.4-2.2c0.3-0.9-0.4-1.1-0.9-1.4c-0.8-0.4-0.8,0.4-1,0.8C26,262.7,27.6,265.2,30.8,265.3z M44.8,220.7
			c-0.8,0-1.7,0.9-2.2,2.2c-0.2,0.4-1,1-0.1,1.5c0.7,0.4,1.3,0.3,1.8-0.6c0.4-0.9,1.2-1.4,2.3-0.9c1.1,0.4,1.2,1.3,1,2.2
			c0,0.2-0.1,0.3-0.1,0.5c-0.3,0.8,0.4,0.9,0.9,1.2c0.7,0.4,0.7-0.3,0.9-0.7C50.6,223.4,48.7,220.6,44.8,220.7z M9.9,207.8
			c-1.4-2.1-3.1-2.9-5.3-2.4c-2,0.5-3.4,2-3.7,4c-0.3,2.1,0.6,3.7,2.5,4.7c0.2-1.1,0.2-1.1-0.3-1.9c-1.1-1.5-1-3.3,0.3-4.5
			c1.2-1.1,3-1.3,4.3-0.2C8.5,208.1,9,208.2,9.9,207.8z M-6.5,238.2c-2.2-0.6-3.8,0-5.2,1.5c-1.2,1.4-1.4,3.5-0.5,5.1
			c1,1.7,2.5,2.6,4.5,2.6c0.4,0,0.9,0.1,1-0.4c0-0.4-0.4-0.8-0.8-1c-0.2-0.1-0.6,0-0.8-0.1c-1.8-0.4-2.9-1.6-2.9-3.3s1.1-3,2.9-3.2
			C-7.5,239.3-7,239-6.5,238.2z M42.5,287.7c-1.1,0.5-1.1,0.5-1.3,1.8c-0.4,1.7-1.8,2.9-3.4,2.8c-1.6-0.1-2.9-1.2-3.1-2.9
			c-0.1-0.9-0.5-1.4-1.2-1.8c-0.6,2.1-0.1,3.8,1.4,5.1c1.5,1.2,3.6,1.4,5.3,0.5C42.2,292.1,42.9,290.3,42.5,287.7z M107.6,249.5
			c1.2,0.1,1.7-0.5,1.9-1.6c0.1-1-0.6-1.7-1.5-1.8c-1.9-0.1-3.9-0.2-5.8-0.5c-0.6-0.1-0.8,0.4-1,0.7s0,0.4,0.2,0.5
			C103.4,248,105.3,249.2,107.6,249.5z M66.8,208.2c1,0.5,1.6,0.1,2.3-0.4c1-0.8,2.2-0.8,3.4-0.2c1.2,0.6,1.8,1.6,1.8,2.9
			c0,1-0.3,1.8-1,2.5c-0.5,0.5-0.4,1.2-0.1,1.5c0.5,0.4,0.9-0.3,1.2-0.6c1.4-1.4,1.7-3.1,1.1-4.9c-0.6-1.9-2-3-4-3.2
			C69.4,205.5,67.8,206.4,66.8,208.2z M9.6,277.6c-0.9-0.3-1.4-0.3-2.1,0.3c-1.5,1.2-3.3,1-4.5-0.2s-1.3-3-0.1-4.5
			c0.6-0.7,0.5-1.3,0.2-2c-1.9,1.2-2.7,2.9-2.3,5.1c0.3,1.8,1.8,3.3,3.5,3.8C6.4,280.5,8.1,279.7,9.6,277.6z M72.9,271.5
			c-0.3,0.8-0.3,1.4,0.2,2c1.2,1.5,1.1,3.2-0.1,4.5c-1.2,1.2-3,1.4-4.5,0.2c-0.7-0.6-1.3-0.6-2.1-0.3c1.4,2.1,3.2,2.9,5.3,2.4
			c1.8-0.4,3.3-2,3.6-3.7C75.7,274.5,74.9,272.8,72.9,271.5z M40.9,178.9c-0.1,0.4,0.4,0.7,0.8,1c0.3,0.2,0.5,0,0.7-0.2
			c1-1.9,2.2-3.7,2.4-6c0.1-1.1-0.5-1.8-1.5-1.9c-1.1-0.1-1.8,0.6-1.8,1.6C41.3,175.1,41.3,176.9,40.9,178.9z M44.8,312.5
			c0-1.2-1-3.8-2.3-5.8c-0.2-0.3-0.2-0.9-0.8-0.7c-0.5,0.2-0.9,0.5-0.8,1.2c0.4,1.9,0.5,3.7,0.5,5.6c0,0.9,0.7,1.6,1.7,1.5
			C44.1,314.2,44.8,313.6,44.8,312.5z M42.9,198.1c0.5-2.3-0.1-4.1-1.8-5.3c-1.7-1.1-3.4-1.2-5.1-0.1c-1.9,1.3-2.6,3.1-2.1,5.4
			c0.8-0.3,1.2-0.7,1.3-1.6c0.3-2,1.5-3.1,3.2-3.1c1.8,0,3,1.1,3.2,3C41.7,197.4,42.2,197.8,42.9,198.1z M35.6,307.2
			c0.2-0.5-0.2-0.8-0.7-1.1c-0.3-0.2-0.6,0-0.7,0.2c-1,2-2.3,3.8-2.5,6.1c-0.1,1.1,0.6,1.8,1.6,1.8c1.1,0.1,1.7-0.6,1.8-1.7
			C35.1,310.8,35.3,309.1,35.6,307.2z M-26.4,245.8c-1.3,0.1-2.9,0.3-4.5,0.4c-1.3,0-2.3,0.4-2.2,1.8c0.1,1.5,1.3,1.8,2.5,1.5
			c1.8-0.4,3.4-1.3,5-2.2c0.3-0.2,1-0.2,0.6-0.9C-25.1,245.9-25.5,245.5-26.4,245.8z M-7.4,297.4c0.9-0.1,1.4-0.7,1.8-1.4
			c0.9-1.5,1.4-3.2,1.9-4.9c0.1-0.3,0.6-0.9-0.2-1.1c-0.5-0.2-1-0.1-1.3,0.4c-1,1.5-2.2,2.9-3.5,4.2c-0.6,0.6-0.6,1.2-0.3,1.9
			C-8.7,297.1-8.1,297.3-7.4,297.4z M-26.2,240.3c0.5,0.3,0.9-0.2,1.2-0.7c0.3-0.4,0-0.6-0.3-0.8c-1.8-1-3.6-2-5.6-2.4
			c-1.1-0.2-1.9,0.4-2.1,1.5c-0.1,1.2,0.6,1.8,1.7,1.9C-29.6,239.9-28,240-26.2,240.3z M85.8,201.1c2.2-0.7,4.6-1.1,6.3-2.8
			c0.7-0.7,0.6-1.4,0.1-2.1c-0.6-0.8-1.5-0.9-2.1-0.4c-1.5,1.3-3,2.6-4.6,3.8c-0.5,0.3-0.2,0.8-0.2,1.3
			C85.3,201.1,85.5,201.2,85.8,201.1z M83,247.6c2.4,0.5,4.2-0.1,5.4-1.9c1.1-1.7,1-3.9-0.3-5.4c-1.3-1.6-3-2.1-5.1-1.5
			c0.3,0.6,0.7,1,1.5,1.1c2,0.2,3.1,1.5,3.1,3.2s-1.1,3.1-3.1,3.3C83.7,246.4,83.3,246.8,83,247.6z M85.6,295.5c0,0.1,0.1-0.1,0-0.3
			c-1.4-1.8-2.8-3.5-4.3-5.2c-0.2-0.2-1.4-0.3-1.2,0.5c0.6,2.2,1.1,4.6,2.7,6.4c0.5,0.6,1.2,0.7,1.9,0.3
			C85.3,296.9,85.7,296.4,85.6,295.5z M102.8,240.2c1.4-0.1,3-0.3,4.6-0.3c0.9,0,1.7-0.2,2.1-1.1c0.3-0.6,0.1-1.1-0.3-1.6
			c-0.6-0.8-1.5-0.7-2.3-0.5c-1.7,0.4-3.3,1.3-4.8,2.1c-0.3,0.2-0.8,0.3-0.6,0.8C101.6,240,101.9,240.5,102.8,240.2z M31.7,173.6
			c0.3,2,1.2,3.7,2.2,5.5c0.2,0.3,0.2,1,0.9,0.7c0.5-0.2,0.9-0.6,0.8-1.3c-0.3-1.7-0.4-3.4-0.5-5.1c0-1-0.7-1.7-1.8-1.7
			C32.3,171.8,31.6,172.4,31.7,173.6z M-8.8,200.4c0.2-0.6-0.3-0.8-0.6-1.1c-1.2-1-2.4-1.9-3.5-3c-0.9-0.8-1.8-1.2-2.7-0.2
			s-0.5,2,0.5,2.7c1.7,1.1,3.6,1.7,5.5,2.2C-9,201.3-8.8,200.9-8.8,200.4z M54.4,295.3c3.4,1.3,7.6-0.4,9.5-3.8
			c-1.1-0.8-2-0.7-3,0.4c-1,1.2-2.6,1.9-4.1,1.7C55.1,293.4,54.7,294.2,54.4,295.3z M-14.3,290.4c0,0,0.3,0,0.5-0.1
			c1.6-1.3,3.3-2.6,4.9-4c0.3-0.3,0.5-1.5-0.4-1.3c-2.2,0.5-4.4,1.1-6.2,2.6c-0.6,0.5-0.6,1.2-0.3,1.9
			C-15.6,290.1-15.2,290.4-14.3,290.4z M86.8,268.6c2.9-1.9,4.3-4.5,4.2-8c0-0.5,0.1-1.5-0.6-1.4s-1.7,0.3-1.5,1.7
			c0.3,1.7-0.3,3.4-1.6,4.5C86.1,266.5,86,267.4,86.8,268.6z M-10.3,268.5c0.6-1.1,0.7-2.1-0.5-3c-1.1-0.9-1.7-2.4-1.5-3.9
			c0.2-1.6-0.6-2.1-1.9-2.5C-15.2,263.1-13.6,266.9-10.3,268.5z M-4.6,195.9c0.4-0.1,1.1,0.1,0.9-0.7c-0.6-2.1-1.1-4.3-2.6-6.1
			c-0.6-0.6-1.3-0.7-2-0.3c-0.8,0.4-1.2,1.3-0.7,1.9c1.2,1.8,2.7,3.4,4,5.1C-5,195.9-4.7,195.9-4.6,195.9z M12.5,291.5
			c1.8,2.9,4.4,4.4,7.8,4.3c0.6,0,1.6,0.3,1.5-0.7c-0.1-0.6-0.4-1.6-1.7-1.5c-1.8,0.2-3.5-0.3-4.6-1.8
			C14.6,290.6,13.7,290.8,12.5,291.5z M-10.4,217.5c-3.4,1.9-5.1,6.2-3.7,9.1c1.3-0.2,1.8-0.9,1.8-2.3c-0.1-1.5,0.5-2.9,1.6-3.8
			C-9.5,219.4-9.6,218.6-10.4,217.5z M90.7,290.3c0.9,0.1,1.4-0.2,1.8-1s0.1-1.5-0.6-2c-1.6-1.3-3.5-1.8-5.5-2.3
			c-0.4-0.1-0.9-0.6-1.2,0c-0.2,0.5-0.2,1.1,0.4,1.5c1.4,1,2.8,2,3.9,3.3C89.9,290.1,90.3,290.4,90.7,290.3z M90.6,226.7
			c1.1-3.5-0.6-7.6-3.9-9.2c-0.9,1.1-0.7,2,0.4,3c1.1,0.9,1.7,2.4,1.6,3.8C88.7,225.8,89.3,226.4,90.6,226.7z M85.6,190.3
			c0.1-0.8-0.4-1.3-1.1-1.6c-0.8-0.3-1.4,0-1.9,0.6c-1.2,1.6-1.7,3.4-2.3,5.3c-0.1,0.4-0.6,0.9,0,1.2c0.5,0.2,1.1,0.3,1.5-0.4
			c1-1.5,2.1-2.8,3.4-4C85.6,191.1,85.6,190.7,85.6,190.3z M54.5,190.5c0.3,1.4,1,2.1,2.5,1.9c1.4-0.2,2.8,0.4,3.7,1.5
			c1,1.2,1.9,1.1,3,0.5C62.1,191.3,58.4,189.7,54.5,190.5z M21.9,190.5c-3.4-0.7-6.2,0.2-8.5,2.7c-0.3,0.3-1,0.7-0.6,1.2
			c0.3,0.4,1,0.5,1.6,0.6c0.4,0.1,0.6-0.4,0.9-0.7c1.1-1.1,2.5-2,4.1-1.8C21,192.6,21.6,191.9,21.9,190.5z M29.6,311.3
			c0.7,0,1.2-0.3,1.5-0.8c0.9-1.6,1.7-3.3,2.6-5c0.2-0.4,0.2-0.8-0.2-1c-0.4-0.3-1-0.2-1.3,0.1c-1.4,1.5-2.9,2.9-3.6,4.9
			C28.2,310.5,28.7,311,29.6,311.3z M43.5,304.3c-0.6,0-1.1,0.3-0.7,1c0.8,1.7,1.7,3.4,2.6,5.1c0.4,0.7,1.1,1.1,2,0.6
			c0.8-0.5,0.8-1.2,0.4-1.9c-0.8-1.7-2.1-3.1-3.4-4.5C44.2,304.4,43.9,304.3,43.5,304.3z M77.4,292c0.1,1.4,0.2,2.9,0.7,4.3
			c0.3,0.8,0.7,1.6,1.8,1.3c1.1-0.3,1.1-1.3,0.9-2.1c-0.5-1.7-1.1-3.3-1.7-5c-0.1-0.4-0.3-0.7-0.6-0.7c-0.5-0.1-0.7,0.3-0.9,0.6
			C77.2,290.9,77.4,291.4,77.4,292z M-23.2,248.9c0-0.8,0.2-1.8-0.7-1.4c-1.9,0.8-3.7,1.9-5.6,2.9c-0.6,0.4-0.8,1.1-0.3,1.8
			s1.1,0.8,1.8,0.5c1.6-0.7,2.9-1.8,4.1-3C-23.6,249.4-23.2,249.1-23.2,248.9z M-0.9,292.2c0-0.7,0.2-1.5-0.4-2.1
			c-0.5-0.5-1-0.5-1.2,0.1c-0.7,1.9-1.3,3.8-1.8,5.7c-0.2,0.8,0.1,1.5,1,1.7s1.4-0.4,1.7-1.1C-1.1,295.2-1,293.7-0.9,292.2z
			 M87.6,282.2c-0.6,0-0.8-0.1-1-0.1c-0.7,0-1.5,0.2-1.5,1c-0.1,0.7,0.7,0.8,1.2,1c1.5,0.5,3,1,4.5,1.5c0.9,0.2,1.7,0.2,2.1-0.9
			c0.3-1.1-0.4-1.5-1.2-1.8C90.2,282.3,88.7,282.2,87.6,282.2z M-0.9,193.5c-0.1-1.1-0.2-2.4-0.6-3.6c-0.3-0.9-0.7-1.8-1.9-1.5
			c-1.3,0.4-1.1,1.5-0.8,2.4c0.4,1.4,0.9,2.8,1.4,4.2c0.2,0.5,0.3,1.1,0.9,1s0.8-0.6,0.9-1.1C-0.9,194.5-0.9,194.1-0.9,193.5z
			 M106.5,251.5c-0.1-0.9-0.7-1.4-1.3-1.7c-1.4-0.7-2.9-1.4-4.3-2.1c-0.4-0.2-0.8-0.6-1.2-0.1c-0.3,0.5-0.3,1.1,0.1,1.4
			c1.4,1.5,2.9,2.9,4.9,3.6C105.8,253.1,106.3,252.4,106.5,251.5z M77.4,193.8c0.1,0.6-0.1,1.1,0.2,1.7c0.6,0.8,1.2,0.8,1.5,0
			c0.7-1.7,1.2-3.4,1.7-5.2c0.2-0.8,0.1-1.6-1-1.9c-0.9-0.2-1.4,0.4-1.7,1.1C77.6,190.9,77.5,192.3,77.4,193.8z M48.1,175.8
			c0-0.5-0.5-0.9-1.1-1.1c-0.9-0.2-1.4,0.4-1.8,1.1c-0.8,1.4-1.5,2.9-2.2,4.4c-0.2,0.3-0.5,0.7-0.2,1.1c0.4,0.4,0.9,0.2,1.3,0.1
			C45.2,181.1,48.1,177.2,48.1,175.8z M87.5,203.8c1.3-0.1,2.6-0.2,3.9-0.6c1-0.3,1.9-0.8,1.4-2.1c-0.4-1.1-1.4-0.9-2.3-0.6
			c-1.4,0.4-2.8,0.9-4.2,1.4c-0.5,0.2-1.2,0.2-1.1,0.8c0.1,0.7,0.7,1,1.4,1.1C86.8,203.9,87.1,203.8,87.5,203.8z M-14.7,285.6
			c1.7-0.5,3.4-1.1,5.1-1.6c0.5-0.2,1-0.5,0.9-1c-0.1-0.6-0.6-0.9-1.1-0.9c-1.9,0-3.9,0.1-5.7,0.9c-0.7,0.3-1.1,0.8-0.9,1.6
			C-16.2,285.5-15.5,285.6-14.7,285.6z M33.8,180.7c-1.4-1.7-1.6-4.1-3.4-5.7c-0.4-0.4-0.9-0.3-1.4,0s-0.8,0.8-0.6,1.3
			c0.7,2.1,2,3.7,3.7,5C32.5,181.7,33.4,181.9,33.8,180.7z M-28.7,233.2c-0.8-0.1-1.2,0.4-1.3,1.1c-0.2,0.9,0.4,1.4,1.1,1.8
			c1.5,0.8,3,1.5,4.4,2.2c0.4,0.2,0.7,0.3,1.1,0s0.3-0.8,0.2-1.1C-23.6,236.1-27.6,233.2-28.7,233.2z M100.6,238.5
			c1.6-1.3,3.9-1.6,5.6-3.1c0.5-0.4,0.4-1,0.1-1.5c-0.4-0.6-1-0.7-1.7-0.5c-1.9,0.7-3.4,2.1-4.8,3.5c-0.3,0.3-0.4,0.8-0.1,1.3
			C99.8,238.3,100.1,238.5,100.6,238.5z M-11.5,203.8c1,0,1.8,0.2,2.5-0.5c0.5-0.5,0.6-0.9,0-1.2c-1.9-0.7-3.7-1.3-5.6-1.8
			c-0.7-0.2-1.4,0.1-1.6,0.9c-0.3,0.9,0.1,1.4,0.9,1.8C-14.1,203.6-12.7,203.7-11.5,203.8z M4.4,214.3c0.3,0.4-0.4,1.6,0.9,1.4
			c0.5,0,0.9,0,0.8-0.9c-0.2-2.8,1.1-4.3,3.9-4.4c0.9,0,0.9-0.4,1-1c0.1-0.9-0.6-0.7-1.1-0.7C7,208.5,4.4,211.1,4.4,214.3z
			 M38.5,197.1c-1.7,0.1-3.2,0.7-4.2,2c-0.3,0.4-0.8,0.7-0.1,1.2c0.5,0.4,0.8,0.5,1.4-0.1c1.9-2,3.7-2.1,5.7-0.1
			c0.5,0.5,0.8,0.3,1.2,0c0.7-0.4,0.4-0.8,0-1.2C41.4,197.8,40.1,197.1,38.5,197.1z M66.5,210.8c2.5,0,4.1,1.4,4,4
			c0,0.9,0.3,0.9,0.9,1c0.7,0.1,0.7-0.4,0.8-0.8c0.4-3.2-2.6-6.3-5.8-5.8c-0.5,0.1-1.2-0.1-1,0.9C65.6,210.7,65.8,211.1,66.5,210.8z
			 M9.4,276.6c0.4-0.3,1.5,0.5,1.5-0.8S10,275,9.3,275c-2.1,0-3.5-1.4-3.6-3.7c-0.1-0.8-0.4-0.9-1-1c-0.9-0.2-0.7,0.6-0.7,1
			C3.9,274.1,6.4,276.6,9.4,276.6z M-7.6,242.5c0.1,1.9,0.8,3.4,2.3,4.5c0.5,0.4,0.8,0.2,1.1-0.2c0.2-0.4,0.5-0.6,0-1.1
			c-2.3-2.3-2.4-3.1-0.3-5.9c0.5-0.7,0-0.9-0.2-1.3c-0.3-0.5-0.7-0.1-1,0.1C-6.9,239.7-7.6,241-7.6,242.5z M71.9,271.7
			c-0.3-0.4,0.5-1.4-0.8-1.4c-1.1,0-0.9,0.6-0.9,1.3c0,2.1-1.4,3.6-3.7,3.6c-0.8,0-1.1,0.3-1.1,1c0,1,0.7,0.7,1.2,0.7
			C69.5,277,71.9,274.6,71.9,271.7z M37.9,288.7c1.8,0,3.2-0.8,4.3-2.1c0.3-0.4,0.4-0.7-0.1-1c-0.3-0.2-0.5-0.7-1.1-0.3
			c-3,2.2-3,2.2-5.8,0.3c-0.7-0.5-0.9,0-1.3,0.3c-0.5,0.3-0.1,0.7,0.1,1C35.1,288,36.4,288.7,37.9,288.7z M84,243.3
			c0.1-1.7-0.8-3.4-2-4.3c-0.4-0.3-0.7-0.6-1.1,0c-0.3,0.4-0.6,0.6-0.1,1.2c2,2.2,2.1,3.5,0.1,5.7c-0.5,0.6-0.2,0.8,0.1,1.2
			c0.4,0.6,0.7,0.3,1.1,0C83.3,246.1,83.9,244.9,84,243.3z M-13,245c-1.6,2.3-1.6,4.3-0.1,6.1c1.3,1.6,3.2,2.1,4.9,1.3
			c-0.8-1.6-3-0.9-4.1-2.4C-13.4,248.3-11.6,246.6-13,245z M84.5,233.2c0.3,0.8,0.7,1.2,1.5,1.2c0.6,0,1.2,0.2,1.7,0.6
			c1.3,1.1,1.7,2.4,1,4c-0.3,0.7,0,1.3,0.4,1.5c0.7,0.3,0.7-0.6,0.9-1c0.7-1.8,0.5-3.5-0.8-4.9C88.1,233.2,86.5,232.7,84.5,233.2z
			 M36.1,191.7c-2.3-1.5-4.2-1.5-6-0.2c-1.6,1.2-2.1,3.1-1.4,5c1.7-0.9,0.9-3.1,2.5-4.1C32.8,191.3,34.6,193.2,36.1,191.7z
			 M64.1,203.3c0.9,0.3,1.4,0.2,2.1-0.3c1.2-1,2.5-1,3.8-0.1c0.5,0.3,1,0.8,1.2,1.4c0.2,0.7,0.9,1.1,1.4,0.9c0.6-0.3,0.1-1-0.1-1.5
			c-0.8-1.8-2.2-2.7-4.2-2.8C66.4,200.8,65,201.6,64.1,203.3z M77.7,268.7c0,0.5-0.1,0.9-0.1,1.2c0,0.2,0.1,0.3,0.1,0.5
			c1.6,3.4,1.6,3.5-1.3,5.6c-0.5,0.4-0.7,0.9-0.5,1.3c0.2,0.5,0.7,0.1,1.1,0c1.8-0.6,2.9-2,3.2-3.9
			C80.5,271.4,79.6,269.9,77.7,268.7z M12.3,282.5c-0.7-0.2-1.1-0.3-1.7,0c-3.3,1.6-3.6,1.6-5.6-1.3c-0.4-0.5-0.9-0.6-1.3-0.5
			c-0.4,0.2-0.1,0.7,0,1.1c0.7,1.8,1.9,2.9,3.9,3.2C9.6,285.1,11.1,284.4,12.3,282.5z M-1.4,217c0.1-0.7,0.2-1.2,0-1.7
			c-1.7-3.2-1.6-3.3,1.3-5.6c0.4-0.3,0.6-0.8,0.5-1.2c-0.2-0.6-0.8-0.2-1.1-0.1c-1.8,0.6-2.9,2-3.2,3.9
			C-4.1,214.3-3.3,215.9-1.4,217z M47.8,289.1c-0.5,0.5-1,0.7-1.2,1.2c-1.1,3.4-1.2,3.5-4.9,3c-0.5-0.1-1,0.1-1.2,0.5
			c-0.3,0.6,0.4,0.7,0.7,0.9c1.8,0.9,3.5,0.7,5-0.5C47.8,293,48.4,291.3,47.8,289.1z M89.5,245.3c-0.6,0.5-0.7,1.1-0.5,2
			c0.4,2.1-0.5,3.5-2.5,3.9c-0.9,0.2-1.2,0.6-1.6,1.3c2.1,0.4,3.9-0.3,5-2C90.9,248.8,90.8,247,89.5,245.3z M76.2,208.2
			c0,0.9,0.3,1.4,1,1.8c1.7,1.1,2.2,2.9,1.1,4.5c-0.5,0.8-0.5,1.4-0.1,2.1c1.8-1.5,2.5-3.3,1.8-5.3
			C79.4,209.6,78.2,208.6,76.2,208.2z M-8.5,233.1c-2.3-0.3-4,0.5-5.1,2.3c-1,1.7-0.9,3.5,0.4,5.1c1.5-1.3,0-3,0.8-4.5
			C-11.5,234.5-9.2,235-8.5,233.1z M47.8,196.1c0.5-2.2-0.4-4-2.3-5c-1.8-1-3.6-0.7-4.9,0.7c1.4,1.1,3-0.3,4.6,0.7
			C46.6,193.3,46,195.6,47.8,196.1z M0.1,277.6c0.1-1.1-0.4-1.5-1-1.9c-1.6-1.1-2-2.8-1-4.5c0.5-0.8,0.6-1.4,0.1-2.2
			c-1.6,1.3-2.4,2.8-1.9,4.8C-3.3,275.9-2,277.1,0.1,277.6z M64.4,282.8c1.5,1.9,3.3,2.5,5.4,1.9c1.7-0.6,2.8-2,2.9-3.9
			c-1.8,0-2,2.3-3.7,2.7C67.3,283.9,66.1,281.8,64.4,282.8z M28.4,289.6c-0.2,2.3,0.5,3.9,2.3,5c1.7,1,3.5,0.9,5.2-0.3
			c-0.5-0.7-1.1-0.8-1.9-0.6c-2.1,0.5-3.4-0.4-4-2.6C29.6,290.3,29.2,289.9,28.4,289.6z M3.5,204.9c0.9,0.1,1.4-0.2,1.8-0.9
			c1.2-1.9,2.8-2.3,4.7-1.1c0.7,0.5,1.3,0.4,2.1,0.1c-1.2-1.7-2.8-2.4-4.7-2.1C5.3,201.3,4,202.6,3.5,204.9z M76.5,291.7
			c-2.6,1.1-2.9,1.6-2.5,3.7c0.2,0.8,0.5,1.6,1.5,1.5c1.1-0.1,1.3-0.9,1.3-1.8C76.8,293.9,76.6,292.9,76.5,291.7z M86.9,281.2
			c1.2,0.1,2.2,0.3,3.3,0.4c0.9,0,1.7-0.2,1.9-1.3c0.1-1.1-0.6-1.3-1.4-1.5C88.6,278.3,88.1,278.6,86.9,281.2z M45.6,304.5
			c0.7,0.9,1.4,1.8,2.1,2.6c0.6,0.7,1.3,1.1,2.2,0.3c0.8-0.7,0.5-1.4,0-2.1C48.6,303.4,48.2,303.3,45.6,304.5z M0,291.8
			c-0.1,1.1-0.3,2.2-0.3,3.3c0,0.8,0.2,1.6,1.3,1.7s1.4-0.7,1.6-1.6C2.9,293.2,2.2,292.1,0,291.8z M-10.6,281.2
			c-1.1-2.7-1.4-2.9-3.4-2.5c-0.9,0.2-1.7,0.5-1.6,1.6c0.1,1.1,1,1.3,1.9,1.2C-12.7,281.5-11.7,281.3-10.6,281.2z M30.9,304.5
			c-2.6-1.1-3-1-4.3,0.8c-0.5,0.7-0.7,1.4,0,2.1c0.8,0.7,1.5,0.3,2.1-0.3C29.5,306.3,30.1,305.4,30.9,304.5z M-23.3,250.5
			c-1,0.8-1.9,1.5-2.7,2.3c-0.6,0.6-0.8,1.3-0.1,2c0.6,0.6,1.2,0.5,1.8,0.1C-22.4,253.7-22.2,253-23.3,250.5z M76.5,194.1
			c0.1-1.1,0.2-2,0.3-3c0-0.9-0.1-1.8-1.2-1.9c-1.2-0.1-1.4,0.8-1.6,1.7C73.4,193,74.7,193.6,76.5,194.1z M0,194
			c2.6-1,3-1.6,2.5-3.6c-0.2-0.8-0.7-1.4-1.6-1.3c-0.8,0.1-1.2,0.7-1.2,1.4C-0.3,191.7-0.1,192.9,0,194z M87.2,204.8
			c0.1,2.3,1.3,2.8,3.2,2.5c0.9-0.2,1.7-0.4,1.6-1.6c-0.1-1.1-1-1.3-1.9-1.3C89.2,204.5,88.2,204.7,87.2,204.8z M99.8,250.5
			c-1.2,1.6-1.2,3,0.5,4.1c0.8,0.5,1.6,1,2.4,0.1s0.1-1.6-0.5-2.2C101.4,251.7,100.6,251.1,99.8,250.5z M45.8,181.4
			c2.5,1.1,3.1,1,4.2-0.7c0.4-0.7,0.7-1.3,0-2c-0.8-0.7-1.5-0.4-2.1,0.2C47.1,179.6,46.5,180.5,45.8,181.4z M79.3,206.4
			c0-2.8-3-4.9-5.4-4c-0.4,0.2-1,0.2-0.8,1c0.3,0.8,0.7,0.3,1.1,0.2c2.5-0.6,4.2,1,3.7,3.5c-0.1,0.5-0.4,1,0.4,1.2s0.7-0.5,0.8-1
			C79.2,206.9,79.2,206.5,79.3,206.4z M-10.8,204.8c-1-0.1-2-0.3-3-0.3c-0.9-0.1-1.8,0.2-1.8,1.3c-0.1,1.1,0.8,1.3,1.7,1.5
			C-12,207.7-11.1,206.8-10.8,204.8z M99.8,235.6c1-0.8,1.9-1.5,2.7-2.2c0.6-0.5,0.9-1.2,0.2-2c-0.6-0.7-1.2-0.6-2-0.2
			C98.9,232.3,98.7,232.9,99.8,235.6z M-23.3,235.5c1.1-2.7,1-3-0.7-4.2c-0.8-0.5-1.5-0.7-2.1,0.1c-0.7,0.8-0.3,1.5,0.4,2.1
			C-25.1,234.1-24.3,234.8-23.3,235.5z M1.3,282.4c-2.1,0-3.2-1.6-2.8-3.7c0.1-0.5,0.4-1-0.4-1.2c-0.7-0.1-0.6,0.5-0.8,0.9
			c-1.1,2.4,2.4,6,4.6,5.1c0.5-0.2,1.4-0.1,1.3-1c-0.2-1.2-0.9-0.3-1.4-0.2C1.6,282.4,1.4,282.4,1.3,282.4z M-1.3,206
			c0-2,1.5-3.2,3.6-2.8c0.5,0.1,1,0.4,1.2-0.3c0.2-0.8-0.6-0.7-1-0.9c-2.5-0.8-5.6,2-5,4.6c0.1,0.6,0.1,1.6,1.1,1.4
			c1.1-0.3,0-1,0.1-1.5C-1.3,206.3-1.3,206.1-1.3,206z M77.7,279.8c0,2.1-1.6,3.3-3.6,2.8c-0.6-0.1-1-0.3-1.2,0.4
			c-0.1,0.7,0.5,0.6,0.9,0.8c2.5,1,5.9-2.4,5.1-4.7c-0.2-0.5,0-1.5-0.9-1.3c-1.1,0.2-0.3,0.9-0.3,1.4
			C77.7,279.5,77.7,279.7,77.7,279.8z M94.2,243.3c0-2-0.9-3.4-2.4-3.9c-0.5-0.2-0.7,0-0.9,0.4c-0.2,0.4,0.1,0.6,0.4,0.8
			c2.6,1.8,2.7,3.1,0.1,5.2c-0.4,0.4-0.4,0.7-0.3,1c0.2,0.5,0.6,0.2,0.9,0.1C93.5,246.1,94.3,244.9,94.2,243.3z M17.1,288.4
			c-0.3,1.2-2,1.2-1.5,2.4c0.5,1.3,4,2.7,4.9,2.1c0.9-0.7,0-1.7,0.2-2.6c-1.2,0.3-1.8,1.2-2.7,1.6C17.8,290.8,17.8,289.7,17.1,288.4
			z M38.5,186.9c-1.8-0.3-2.9,0.6-3.7,2.1c-0.2,0.4-0.5,0.8,0.2,1.1c0.5,0.2,0.6-0.1,0.9-0.4c1.5-2.5,3.3-2.5,5.1-0.1
			c0.3,0.4,0.5,0.5,1,0.3c0.6-0.3,0.3-0.7,0.1-1C41.3,187.5,40.2,186.7,38.5,186.9z M-17.8,242.4c0,2.1,0.8,3.5,2.3,3.9
			c0.4,0.1,0.7,0.2,1-0.3c0.3-0.6-0.1-0.6-0.5-0.8c-2.5-1.5-2.5-3.3-0.1-5.2c0.4-0.3,0.6-0.5,0.4-0.9c-0.3-0.6-0.6-0.3-1-0.1
			C-17.1,239.8-18,240.9-17.8,242.4z M30.6,181.3c-0.7-0.8-1.3-1.7-2-2.5c-0.6-0.6-1.3-0.9-2.1-0.2c-0.7,0.6-0.5,1.3,0,2
			C27.7,182.4,28.1,182.5,30.6,181.3z M85.6,225.5c0.9-0.3,2,0.7,2.5-0.5s-0.7-4.1-2-4.6c-1.3-0.6-1.3,1.2-2.3,1.5
			c1.2,0.6,2.3,0.6,3.5,0.8C86.6,223.7,85.8,224.3,85.6,225.5z M58.5,292c-1-0.6-1.6-1.4-2.8-1.7c0.3,0.9-0.8,1.9,0.3,2.6
			c1.1,0.6,4.9-1,5-2.1c0.1-1-1.1-1.2-1.8-1.8C58.6,289.8,58.8,290.8,58.5,292z M37.7,298.9c2.1,0.1,3.5-0.9,4-2.4
			c0.2-0.5,0.1-0.7-0.4-0.9c-0.4-0.2-0.5,0-0.7,0.3c-1.7,2.6-3.2,2.7-5.2,0.2c-0.3-0.4-0.6-0.5-1-0.3c-0.6,0.3-0.2,0.7,0,1
			C35.1,298.2,36.2,299,37.7,298.9z M-9,260.5c-2.9-0.3-3.3,0.3-2.3,2.9c0,0.1,0,0.1,0.1,0.2c1,2.4,1.7,2.5,3.3,0.7
			c0.1-0.1,0.1-0.2,0.1-0.3c-0.9-0.6-1.9-0.3-2.9-0.7C-10.1,262.3-9.3,261.6-9,260.5z M55.8,195.7c1.1-0.2,1.7-1.2,2.7-1.6
			c0.4,1,0.1,2,0.8,2.9c0.7-0.6,1.2-1.1,1.8-1.6c-1-1.2-1.4-1.5-2.4-1.9C56.1,192.5,55.4,192.9,55.8,195.7z M-7.6,221.9
			c-1-0.2-0.7-2.3-2.2-1.4c-1.3,0.8-2.5,4-1.8,4.7s1.6,0.2,2.7,0.1c-0.7-1-1.2-1.7-1.8-2.5C-9.6,222.6-8.6,222.5-7.6,221.9z
			 M20.7,195.7c0.2-2.5,0.2-2.5-0.5-2.6c-1.4-0.3-4.4,1-4.6,2.1c-0.2,1.1,1.1,1.2,1.8,2.1c0.2-1.3,0.4-2.2,0.7-3.3
			C18.9,194.7,19.6,195.4,20.7,195.7z M85.7,265.9c1-0.7,1.7-1.6,2.1-2.7c0.9-2.5,0.5-3.1-2.1-2.8c-0.1,0-0.1,0.1-0.2,0.3
			c0.3,1,1.2,1.7,1.7,2.7c-1.1,0.1-2.1,0-3.1,0.6C84.7,264.7,85.2,265.3,85.7,265.9z M56.5,242.9c-0.5-0.6,0.6-1.9-1-1.9
			c-2-0.1-1.2,1.4-1.4,2.5c-0.2,1.2,0.4,1.5,1.4,1.5C57.1,244.9,56,243.6,56.5,242.9z M22.3,243c0.3-1.1,0-2.1-1.5-1.9
			c-1.4,0.1-0.7,1.3-0.7,2s-0.6,1.9,1,2C22.7,245,22.4,244,22.3,243z M38.2,261.2c0.6-0.5,2,0.7,2-1c0-2.3-1.7-1-2.7-1.3
			c-1.3-0.4-1.2,0.7-1.2,1.4C36.3,261.8,37.6,260.7,38.2,261.2z M38.1,227.1c1.1,0.2,2.3,0.2,2.1-1.4c-0.2-1.5-1.4-0.8-2.1-0.8
			c-0.6,0-1.9-0.7-1.9,0.9C36.2,227.2,37,227.3,38.1,227.1z M21.7,240.6c1.6-0.4,1.1-2,1.5-3s-1.2-1.2-1.4-1.1
			c-1.2,0.7-1,2.1-1.3,3.2C20.2,240.8,21.2,240.4,21.7,240.6z M36,226.5c-0.4-0.5,0.1-1.5-1-1.3c-1.1,0.3-2.5,0.2-3.2,1.3
			c-0.1,0.2,0.1,1.8,1.1,1.4C33.9,227.6,35.4,228,36,226.5z M24,253.6c0.3-0.5,1.1-0.5,1.2-1.3c0.1-0.5-1.8-2.9-2.1-2.8
			c-0.5,0.3-1.3,0.1-1.4,1C21.7,251,23.5,253.6,24,253.6z M40.6,226.6c0.4,1.5,2,0.9,3,1.4c0.9,0.4,1.1-1,1.1-1.3
			c-0.4-1.5-2-1.1-3-1.4C40.6,224.8,40.8,225.8,40.6,226.6z M28.4,230.5c-0.5-0.6-0.9-1.1-1.4-1.5c-0.2-0.2-2.8,2.4-2.7,2.7
			c0.3,0.6,1.2,1.4,1.4,1.2C26.6,232.3,27.4,231.4,28.4,230.5z M55.9,246.8c0.4-1.2-0.2-1.3-0.9-1.3c-2.1,0-1.2,1.9-1.7,2.9
			c-0.5,0.9,0.9,1.1,1.3,1.1C56.1,249.1,55.4,247.4,55.9,246.8z M49.9,257.1c0.5-0.6,1.1-1.3,1.7-2c0.3-0.4,1.2-0.7,0.2-1.4
			c-0.7-0.5-1.2-1.1-1.9,0c-0.3,0.5-0.9,0.9-1.3,1.3c-0.3,0.2-0.5,0.5-0.2,0.8C48.8,256.3,49,256.9,49.9,257.1z M45.5,226.5
			c-0.5,0.2-0.8,1.1-0.7,1.5c0.3,1.3,1.8,1.4,2.7,1.9c0.5,0.3,0.9-0.8,1.3-1.3C49,228.4,46.4,226.6,45.5,226.5z M35.9,259.2
			c-0.5-1-1.9-0.8-3-1.1c-1-0.3-1.2,1-1.1,1.3c0.5,1.4,2,1.1,3,1.4C35.9,261.1,35.7,260.2,35.9,259.2z M30.5,226.6
			c-0.7,0.4-1.5,0.9-2.4,1.4c-0.4,0.3-0.8,0.6-0.2,1c0.4,0.4,0.5,1.3,1.4,0.9c0.8-0.4,1.5-0.8,2.2-1.3c0.7-0.4,0.1-0.9,0-1.3
			C31.3,226.9,31.3,226.4,30.5,226.6z M20.4,246.5c0.5,0.9,0,2.5,1.5,2.9c0.3,0.1,1.7-0.1,1.3-1c-0.5-1,0.4-2.8-1.5-2.9
			C21.2,245.4,20.2,245.3,20.4,246.5z M56,239.5c-0.6-0.8,0.1-2.4-1.4-2.9c-0.3-0.1-1.7,0.2-1.4,1c0.4,1-0.2,2.7,1.5,2.9
			C55.3,240.6,56.2,240.8,56,239.5z M49.5,229c-0.5,0.3-1.3,1.3-1.2,1.4c0.7,0.9,1.5,1.8,2.5,2.5c0.2,0.1,1.2-0.6,1.5-1.2
			C52.4,231.4,49.9,229,49.5,229z M31.8,257.9c-0.5-0.8-1.6-0.9-2.2-1.5c-0.9-0.9-1.2,0-1.7,0.5c-0.8,0.8,0.1,1,0.5,1.3
			c0.5,0.3,1,0.6,1.5,0.8c0.4,0.2,0.8,0.7,1.2,0.2C31.5,258.9,31.6,258.4,31.8,257.9z M53.2,236.7c0.5-0.6,1.8-0.3,1.4-1.3
			c-0.4-1.1-0.8-2.4-2-2.9c-0.3-0.1-1.5,0.6-1.3,1.3C51.8,234.7,52.1,235.9,53.2,236.7z M28.2,255.6c-0.5-0.6-1.1-1.1-1.5-1.7
			c-0.7-1-1.3-1-2.1-0.1c-1,1,0.3,1.2,0.6,1.7c0.2,0.4,0.7,0.8,1.1,1.1c0.3,0.2,0.6,0.7,1,0.3C27.6,256.5,27.9,256,28.2,255.6z
			 M45.9,259.5c0.8-0.5,1.7-1,2.5-1.5c0.4-0.2,0.7-0.5,0.2-0.9c-0.4-0.4-0.5-1.3-1.3-1c-0.8,0.3-1.5,0.8-2.2,1.3
			c-0.6,0.3-0.4,0.7-0.1,1.1C45.1,258.9,45.1,259.5,45.9,259.5z M40.5,259.4c0.3,0.6,0,1.6,1,1.3c1.1-0.3,2.6,0,3.1-1.4
			c0.1-0.3-0.2-1.7-1-1.3C42.6,258.4,41.1,258,40.5,259.4z M54.7,250.6c0-0.4-1.4-1.3-1.5-1.1c-0.7,0.9-1.5,1.8-1.9,2.9
			c-0.2,0.5,1,1.4,1.4,1.2C53.8,252.9,54.1,251.6,54.7,250.6z M23.5,236.5c0.6-0.5,0.7-1.4,1.3-2.1c0.8-0.9,0-1.2-0.5-1.7
			c-0.9-0.8-1,0.1-1.3,0.5c-0.3,0.5-0.6,1-0.9,1.5C21.6,235.7,22.2,236.6,23.5,236.5z M73.1,293.6c0.3-1.1-0.6-0.9-1.3-1
			c-1.3-0.2-1.1,0.9-1.3,1.5c-0.2,0.8,0.4,1.3,1.2,1.3C72.8,295.5,73.1,294.7,73.1,293.6z M27.7,302.8c-0.6-0.4-0.7-1.5-1.5-1.4
			c-0.7,0.1-1.7,0.4-1.7,1.4c0,0.8,0.5,1.5,1.3,1.5C26.7,304.2,27.1,303.5,27.7,302.8z M-11.5,276.6c0.3-1.2-0.7-1.3-1.3-1.4
			c-0.9-0.2-1.4,0.5-1.4,1.3c0,1,0.7,1.3,1.6,1.4C-11.5,278-11.5,277.3-11.5,276.6z M87.9,276.4c0.2,0.6-0.3,1.5,0.9,1.4
			c0.9-0.1,1.8-0.1,1.9-1.2c0.1-0.9-0.4-1.5-1.3-1.4C88.8,275.3,87.8,275.3,87.9,276.4z M99.5,255.4c-0.2-0.7-0.7-1.5-1.5-1.7
			c-0.4-0.1-1.5,0.5-1.4,1.2c0.1,0.8,0.3,1.8,1.5,1.8C98.8,256.7,99.4,256.3,99.5,255.4z M52,302.9c-0.1-1.2-1-1.4-1.8-1.5
			s-1.3,1-1.3,1.3c0.1,0.8,0.8,1.5,1.8,1.5C51.5,304.3,51.9,303.6,52,302.9z M-20,254.9c-0.3-0.6-1.1-1.2-1.6-1.1
			c-0.7,0.1-1.3,0.8-1.4,1.7c0,0.8,0.5,1.2,1.3,1.3C-20.6,256.8-20.5,255.8-20,254.9z M3.4,293.6c0,0.9,0,1.8,1.2,1.9
			c0.8,0,1.4-0.4,1.3-1.2c-0.1-0.7,0-1.7-1.1-1.7C4.3,292.6,3.2,292.3,3.4,293.6z M50.7,181.8c-0.8,0.1-1.5,0.7-1.6,1.4
			c0,0.4,0.4,1.6,1.3,1.4c0.7-0.1,1.6-0.4,1.6-1.4C51.9,182.4,51.5,181.8,50.7,181.8z M26,181.8c-1,0-1.4,0.5-1.5,1.2
			c-0.2,1.1,0.8,1.4,1.5,1.5c0.9,0.2,1.3-1,1.4-1.4C27.4,182.5,26.6,182,26,181.8z M89,208.2c-1.1-0.3-1,0.5-1.1,1.2
			c-0.2,1.3,0.9,1.1,1.5,1.3c0.8,0.2,1.2-0.5,1.3-1.2C90.7,208.4,90,208.2,89,208.2z M98.1,229.2c-1,0.1-1.4,0.9-1.5,1.6
			c0,0.8,1,1.4,1.5,1.3c0.7-0.1,1.4-0.8,1.4-1.7C99.5,229.7,98.8,229.3,98.1,229.2z M71.5,193.2c0.7-0.2,1.7,0.2,1.6-1.1
			c-0.1-0.9-0.3-1.6-1.3-1.6c-0.7,0-1.4,0.4-1.3,1.2C70.5,192.4,70.5,193.3,71.5,193.2z M-12.6,208.2c-0.9-0.1-1.7,0.2-1.7,1.2
			c0,0.8,0.4,1.4,1.3,1.3c0.6-0.1,1.6,0,1.5-1.1C-11.5,209-11.3,208-12.6,208.2z M-8.4,248.1c-0.6-0.1-0.8,0.2-0.7,0.8
			c0.1,1,0.5,2,1.3,2.7c0.2,0.3,0.5,0.8,0.9,0.5c0.3-0.3,0.7-0.9,0.3-1.4c-0.5-0.6-0.9-1.3-1-2.1C-7.7,248.1-8,248.1-8.4,248.1z
			 M83.6,233.7c-0.4,0.7,0.1,3.7,0.7,3.9c0.3,0.1,0.7,0.2,1,0.1c0.3-0.1,0.3-0.5,0.2-0.7C85.3,235.6,84.8,234.4,83.6,233.7z
			 M32.2,195.6c-1,0.1-1.8,0.5-2.6,1.2c-0.3,0.3-1,0.5-0.5,1c0.3,0.3,0.9,0.6,1.4,0.2c0.6-0.5,1.2-0.8,2-0.9c0.7-0.1,0.6-0.5,0.6-1
			C33,195.4,32.5,195.6,32.2,195.6z M85.5,249.4c-0.1-0.2,0.3-0.8-0.3-0.8c-0.4-0.1-1-0.1-1.1,0.5c-0.1,0.7-0.4,1.4-0.8,2
			c-0.3,0.5-0.1,1.1,0.4,1.4c0.4,0.2,0.6-0.3,0.9-0.6C85,251.2,85.3,250.3,85.5,249.4z M47.5,288.2c-1.7-1-2.7,0.6-4,0.8
			c-0.1,0-0.1,0.7-0.1,1c0.1,0.4,0.6,0.3,0.9,0.2C45.5,289.9,46.6,289.4,47.5,288.2z M11.9,281.7c0.2-0.2,0.8,0.3,0.8-0.4
			c0-0.4-0.2-0.9-0.7-1.1c-0.8-0.2-1.6-0.4-2.3-0.9c-0.4-0.3-0.7,0.2-1,0.4c-0.3,0.3,0,0.6,0.2,0.8C9.8,281.2,10.7,281.6,11.9,281.7
			z M48,197.6c-0.9-1.3-2-1.9-3.4-2c-0.3,0-0.7,0.1-0.7,0.2c-0.1,0.3,0,0.9,0.1,1C45.3,196.9,46.3,198.5,48,197.6z M77.2,217.8
			c0.2-1.5-0.2-2.7-1-3.8c-0.2-0.3-0.4-0.6-0.8-0.3c-0.2,0.2-0.6,0.8-0.5,0.8C75.8,215.5,75.3,217.4,77.2,217.8z M-0.6,216.6
			c0.1,0.3-0.2,0.9,0.4,0.9c0.4,0,0.9-0.2,1-0.7c0.1-0.8,0.3-1.6,0.8-2.2c0.5-0.5,0-0.8-0.3-1.1c-0.5-0.5-0.7,0.1-0.9,0.3
			C-0.2,214.6-0.5,215.6-0.6,216.6z M3.4,192.1c-0.2,1.2,0.8,1,1.5,1.1c1,0.1,1-0.8,1.1-1.4c0.1-0.9-0.6-1.3-1.4-1.3
			C3.7,190.6,3.4,191.3,3.4,192.1z M63.5,204.3c0.4,1.9,2.5,1.3,3.4,2.3c0,0,0.6-0.3,0.7-0.6c0.3-0.4-0.2-0.6-0.4-0.8
			C66.2,204.3,65,203.9,63.5,204.3z M13.1,203.9c-1.4-0.3-2.6,0.1-3.7,0.9c-0.2,0.2-0.7,0.3-0.4,0.7c0.2,0.3,0.7,0.6,0.7,0.6
			C10.7,205.3,12.6,205.8,13.1,203.9z M76.9,268.4c-2,0.3-1.5,2.3-2.3,3.3c0,0.1,0.4,0.6,0.6,0.7c0.3,0.2,0.5-0.1,0.7-0.3
			C76.7,271,77.1,269.9,76.9,268.4z M-21.8,229.2c-0.5,0.2-1.2,0.5-1.2,1.3s0.7,1.6,1.3,1.6c0.5,0,1.5-0.5,1.5-1.3
			C-20.3,230.1-20.7,229.3-21.8,229.2z M64.4,282c1.2-0.3,2.5-0.4,3-1.7c0.1-0.2-0.7-0.9-0.9-0.7c-0.9,0.9-2.6,0.4-2.9,2
			C63.5,282.1,64,281.9,64.4,282z M-0.8,268.2c-0.2,1.4,0.2,2.5,0.9,3.4c0.2,0.3,0.4,0.7,0.8,0.4c0.3-0.2,0.7-0.7,0.6-0.7
			C0.7,270.3,1,268.5-0.8,268.2z M-7.2,233.2c-1.2,0.8-1.7,1.9-1.9,3.2c0,0.3-0.2,0.7,0.3,0.8c0.3,0.1,0.9-0.1,0.9-0.1
			C-7.8,235.8-6.2,234.8-7.2,233.2z M28.6,288.4c0.8,1.1,1.8,1.5,3,1.8c0.3,0.1,0.7,0.2,0.9-0.2c0.1-0.4,0.1-1-0.2-1.1
			C31.1,288.8,30,287.3,28.6,288.4z"/>
	</g>
</g>
<g id="Layer_12">
	<g>
		<g>
			<g>
				<path class="st4" d="M288,224c-1-31-3-168-4-185c-0.6-9.8,8.7-12.9,16.5-8.4c11.3,6.6-0.7,23.4-7.5,14.4"/>
				<path class="st4" d="M277,213c-2-29-7-168-6-191c0.6-13.5,19.2-17.5,29.7-14.3c15.5,4.7,21.6,21.9,16.3,36.5
					c-5.3,14.7-19.6,17.2-32.6,10.4"/>
				<path class="st5" d="M263.5,224.5c-0.6-15.8-0.4-31.6-1.1-47.3c-0.2-4.6-1.4-9.4-5-12.3c-2-1.6-4.5-2.4-7.1-2.6
					c-3.1-0.2-6.2,0.6-8.8,2.2c-12.8,7.9-9,29.4,7.9,26"/>
				<path class="st5" d="M249.5,217.5c0-20-1-36-1-42c0-2.6-2.1-4.8-4.8-4.8c-5.5,0.1-3.4,10.1,0.8,8.6"/>
				<path class="st5" d="M286.5,121.5c-1.3-20.1-2.6-45.3,0-52.4c2.6-7.2,13.5-8,18.8-2.7c5.4,5.4,3.2,17.6-6.3,17.2
					c-7.1-0.3-8.1-12-0.8-10.9"/>
				<line class="st6" x1="298.5" y1="83.5" x2="298.5" y2="91.5"/>
				<line class="st6" x1="308.5" y1="82.5" x2="305.5" y2="91.5"/>
				<line class="st6" x1="312.5" y1="82.5" x2="308.5" y2="92.5"/>
				<line class="st6" x1="319.5" y1="85.5" x2="312.5" y2="94.5"/>
				<line class="st6" x1="325.5" y1="91.5" x2="315.5" y2="97.5"/>
				<line class="st6" x1="328.5" y1="100.5" x2="318.5" y2="104.5"/>
				<line class="st6" x1="329.5" y1="109.5" x2="318.5" y2="109.5"/>
				<line class="st6" x1="326.5" y1="118.5" x2="317.5" y2="113.5"/>
				<line class="st6" x1="322.5" y1="126.5" x2="315.5" y2="118.5"/>
				<line class="st6" x1="315.5" y1="130.5" x2="313.5" y2="119.5"/>
				<line class="st6" x1="310.5" y1="132.5" x2="308.5" y2="120.5"/>
				<line class="st6" x1="304.5" y1="133.5" x2="303.5" y2="120.5"/>
				<line class="st6" x1="300.5" y1="132.5" x2="299.5" y2="121.5"/>
				<path class="st4" d="M268,216c-0.9-26.1-1.7-52.3-2.6-78.4c-0.6-17.7-0.6-35.6-1.5-53.3c-0.3-4.7-2.8-19.8-10.6-15.6
					c-8.3,4.5-5.3,13.7,3.8,13.2"/>
				<path class="st4" d="M271.4,63.5C258,45,233,58,235,76c1,9,8.4,17.9,29.2,16"/>
				<path class="st4" d="M301,110c5.3,4.4,13-1,7.7-6.9c-1.4-1.5-3.5-2.5-5.5-2.2c-9.4,1.6-7.8,19.2-7.5,25.7
					c1.4,28.1,2.8,56.2,4.3,84.2c0,0.7,0.1,1.4,0.1,2.1"/>
				<path class="st7" d="M297,119c24,11,31-22.9,6.3-26.9c-7.7-1.3-12.7,5.5-15.3,11.9l-0.2,112"/>
			</g>
			<line class="st6" x1="269" y1="217.5" x2="263.5" y2="217.5"/>
			<line class="st6" x1="268" y1="211.5" x2="263.5" y2="211.5"/>
			<line class="st6" x1="267.5" y1="204.5" x2="263.5" y2="204.5"/>
			<line class="st6" x1="266.5" y1="198.5" x2="263.5" y2="198.5"/>
			<line class="st6" x1="267.5" y1="192.5" x2="263" y2="192.5"/>
			<line class="st6" x1="267.5" y1="186.5" x2="262.5" y2="186.5"/>
			<line class="st6" x1="267" y1="179.5" x2="263" y2="179.5"/>
			<line class="st6" x1="261.5" y1="174.5" x2="266.5" y2="174.5"/>
			<line class="st6" x1="260.5" y1="170.5" x2="266.5" y2="170.5"/>
			<line class="st6" x1="259.5" y1="166.5" x2="265.5" y2="166.5"/>
			<path class="st6" d="M266.5,166.5c0,0-7-4-14-4"/>
		</g>
		<path class="st5" d="M305.2,81.5c15.3,0,24.3,11.6,24.3,26s-12,31-33,25"/>
	</g>
</g>
<g id="Layer_15">
</g>
<g id="Layer_21">
</g>
</svg>
