<svg version="1.1" id="chz" xmlns="http://www.w3.org/2000/svg" xmlns:xlink="http://www.w3.org/1999/xlink" x="0px" y="0px"
	 viewBox="0 0 600 600" style="enable-background:new 0 0 600 600;" xml:space="preserve">
<g id="chz">
	<g>
		<g>
			<path d="M274.9,249c-3.8,8.5-7.4,16.9-10.9,25.4s-7,16.9-10.3,25.4c-6.7,17-13.1,34-18.3,51.3c-2.5,8.6-4.7,17.3-5.8,25.8
				c-0.5,4.2-0.6,8.4,0.1,11.9c0.3,1.7,0.9,3.2,1.6,4.1c0.1,0.1,0.2,0.2,0.3,0.3c0.1,0.1,0.1,0.2,0.4,0.4c0.4,0.3,0.7,0.7,1.1,1
				c0.7,0.6,1.5,1.2,2.2,1.8c3.1,2.1,6.4,3.2,10,2.9c3.6-0.2,7.5-1.9,11.2-4.1c3.7-2.2,7.2-5.1,10.7-8l10.4-9.1
				c-2.5,3.9-5,7.9-7.8,11.6s-5.9,7.4-9.6,10.6s-8.1,6.1-13.6,7.3c-2.7,0.6-5.7,0.6-8.5,0.1s-5.5-1.6-7.9-2.9
				c-1.2-0.7-2.3-1.4-3.4-2.2c-0.5-0.4-1.1-0.8-1.6-1.2c-0.2-0.2-0.6-0.5-0.9-0.8c-0.3-0.3-0.6-0.6-0.9-0.9
				c-2.3-2.6-3.5-5.5-4.2-8.3s-1-5.4-1.1-8s0-5.1,0.2-7.6c0.4-4.9,1.2-9.7,2.2-14.4c1-4.7,2.2-9.2,3.6-13.7
				c5.5-18,12.9-35.1,21.3-51.7c4.3-8.3,8.8-16.4,13.7-24.2C263.8,263.9,268.9,256.2,274.9,249z" stroke="#123" stroke-width="4px" fill="none"/>
		</g>
		<g>
			<path d="M246,424.5c3.9-14.1,7.1-28.4,10.3-42.7c3.1-14.3,6.3-28.5,9.3-42.9c3-14.3,6.1-28.6,9.1-42.9l9-42.9l10.1,2.5
				c-3,11.7-5.8,23.5-8.3,35.3c-1.3,5.9-2.4,11.8-3.4,17.7c-0.5,2.9-1,5.9-1.3,8.8c-0.4,2.9-0.7,5.8-0.7,8.5c0,1.3,0.1,2.6,0.2,3.3
				c0,0.2,0.1,0.3,0,0.2c0,0-0.1-0.3-0.6-0.8c-0.2-0.2-0.7-0.6-1.3-0.8c-0.6-0.2-1.2-0.2-1.5-0.1c-0.6,0.1-0.4,0.1-0.1-0.1
				s0.7-0.5,1.1-0.9c0.8-0.8,1.8-1.8,2.7-2.9c1.8-2.2,3.6-4.5,5.4-7c1.9-2.4,3.7-4.9,6-7.5c0.6-0.6,1.2-1.3,1.9-1.9
				c0.7-0.7,1.5-1.3,2.6-2c0.6-0.3,1.2-0.7,2.1-1s2.2-0.6,3.7-0.3c1.5,0.2,3,1.1,3.8,2c0.9,0.9,1.3,1.7,1.6,2.4
				c0.6,1.4,0.9,2.4,1.1,3.5s0.3,2,0.3,3c0.1,1.9-0.1,3.6-0.2,5.3c-0.8,6.7-2.4,12.7-4.2,18.7c-3.6,11.9-8.2,23.3-12.9,34.6
				c-2.4,5.6-4.8,11.3-7.4,16.8c-2.6,5.6-5.2,11.1-7.9,16.6c-5.3,11-11,21.8-16.9,32.5c-3,5.3-6,10.6-9.2,15.8
				c-1.6,2.6-3.3,5.2-5,7.7c-0.9,1.3-1.8,2.5-2.7,3.7c-0.5,0.6-1,1.2-1.5,1.7c-0.3,0.3-0.5,0.5-0.9,0.8c-0.2,0.1-0.3,0.2-0.5,0.3
				c-0.2,0.1-0.4,0.1-0.5-0.1c0.1,0.1,0.4,0.1,0.5,0c0.2-0.1,0.3-0.2,0.4-0.3c0.3-0.3,0.5-0.6,0.7-0.9c0.5-0.6,0.9-1.2,1.3-1.9
				c0.8-1.3,1.5-2.6,2.3-3.9c1.4-2.7,2.8-5.4,4.1-8.1c2.7-5.4,5.2-11,7.7-16.5c5-11.1,9.7-22.3,14.4-33.5c2.3-5.6,4.6-11.2,6.8-16.9
				c2.2-5.6,4.4-11.3,6.5-17c4.2-11.3,8.1-22.8,11.3-34.3c0.8-2.9,1.5-5.7,2.1-8.6c0.6-2.8,1.1-5.7,1.3-8.4c0.1-1.3,0.2-2.7,0.1-3.8
				c0-0.6-0.1-1.1-0.2-1.6c-0.1-0.4-0.2-0.9-0.3-0.8c0,0,0,0.1,0.4,0.5c0.3,0.3,1,0.8,1.8,0.9s1.2,0,1.4-0.1c0.2-0.1,0.2-0.1,0.1,0
				c-0.2,0.1-0.6,0.4-1,0.8s-0.8,0.8-1.3,1.3c-1.8,2-3.5,4.4-5.3,6.8s-3.6,4.9-5.7,7.5c-1,1.3-2.1,2.5-3.5,3.9
				c-0.7,0.7-1.4,1.3-2.4,2c-1,0.6-2.1,1.4-4.2,1.8c-1,0.2-2.4,0.2-3.7-0.2c-1.3-0.4-2.4-1.2-3.2-2c-1-1-1.4-2-1.7-2.7
				c-0.3-0.8-0.5-1.4-0.6-2c-0.5-2.3-0.5-4-0.5-5.8c0-3.4,0.3-6.6,0.7-9.7c0.4-3.1,0.9-6.2,1.4-9.3c1.1-6.1,2.3-12.1,3.6-18.1
				c1.3-6,2.7-12,4.2-17.9s3-11.9,4.7-17.8l10.1,2.5c-3.3,14.3-6.7,28.5-10.3,42.7c-3.6,14.2-7.2,28.4-11.1,42.5
				s-7.8,28.2-12.2,42.2l-3.3,10.5l-3.5,10.4c-1.2,3.5-2.4,6.9-3.7,10.4C248.7,417.7,247.3,421.1,246,424.5z" stroke="#123" stroke-width="4px" fill="none"/>
		</g>
		<g>
			<path d="M311.5,306.6c6-5.4,12.3-10.7,18.7-15.7c3.2-2.5,6.4-5,9.7-7.4c3.3-2.4,6.7-4.7,10.2-7c1.8-1.1,3.6-2.2,5.8-3.2
				c0.6-0.2,1.1-0.5,1.8-0.7c0.3-0.1,0.7-0.2,1.1-0.3c0.2,0,0.4-0.1,0.7-0.1h0.4h0.2h0.3c0.2,0,0.4,0,0.6,0h0.3l0.4,0.1
				c0.3,0.1,0.6,0.1,0.8,0.2c0.3,0.1,0.7,0.3,1.1,0.6c0.7,0.4,1.4,1.3,1.8,2.1c0.2,0.4,0.3,0.7,0.4,1.1c0,0.2,0.1,0.4,0.1,0.6v0.4
				c0,0.3,0,0.5,0,0.8s0,0.4-0.1,0.6c-0.1,0.3-0.1,0.8-0.2,0.9l-0.2,0.7l-0.2,0.6c-0.2,0.4-0.3,0.6-0.4,0.8l-0.3,0.7l-0.6,1.4
				l-1.3,2.7L360,292c-1.7,3.7-3.5,7.3-5.3,10.9s-3.6,7.3-5.4,10.9c-7.2,14.5-14.6,28.9-22.2,43.2c-3.8,7.1-7.6,14.3-11.5,21.4
				c-3.8,7.1-7.8,14.2-11.7,21.3l-7.8-9.7c0.4-0.1,1-0.3,1.6-0.5l1.7-0.6c1.1-0.4,2.3-0.8,3.4-1.2c2.3-0.9,4.5-1.8,6.8-2.8
				c4.5-2,8.9-4.3,13.1-6.8s8.4-5.2,12.3-8.2s7.8-6.1,11.3-9.6s6.9-7.2,9.9-11.1c0.8-1,1.5-2,2.2-3l1.1-1.5l1-1.6
				c0.7-1,1.4-2.1,2-3.2l1.9-3.3c2.4-4.4,4.7-9,6.5-13.7c0.4-1.2,1-2.4,1.4-3.6l1.2-3.7c0.4-1.2,0.8-2.5,1.1-3.7l1.1-3.8
				c-0.3,10.4-2.2,20.9-6.1,30.9c-1.9,5-4.3,9.8-7,14.4s-6,9-9.4,13.2c-7,8.3-15.2,15.5-24.1,21.5c-4.5,3-9.1,5.8-14,8.2
				c-2.4,1.2-4.9,2.4-7.4,3.5c-1.3,0.5-2.5,1.1-3.8,1.6l-2,0.7c-0.7,0.2-1.3,0.5-2.1,0.7l-15.3,4.7l7.5-14.4
				c3.7-7.2,7.4-14.3,11.3-21.4c3.8-7.1,7.6-14.2,11.5-21.3c7.7-14.2,15.6-28.3,23.7-42.3c2-3.5,4-7,6.1-10.5c2-3.5,4.1-7,6.2-10.5
				l3.1-5.2l3-5.1l0.1-0.1l0,0c0,0,0,0.1,0,0.2s0,0,0,0.2c0,0.1,0,0.3,0,0.4s0,0.1,0,0.2s0,0.2,0.1,0.4c0.1,0.3,0.2,0.5,0.3,0.8
				c0.1,0.3,0.3,0.6,0.6,0.9c0.1,0.1,0.3,0.3,0.4,0.4s0.2,0.2,0.3,0.3c0.2,0.2,0.6,0.3,0.7,0.4s0.3,0.1,0.5,0.1c0.1,0,0.2,0,0.2,0
				h0.1c0.1,0,0.1,0,0.2,0h0.1l0,0l0,0c-0.1,0-0.2,0-0.3,0c-0.3,0.1-0.7,0.2-1.1,0.3c-1.6,0.5-3.4,1.3-5.1,2.1
				c-7.1,3.3-14.2,7.3-21.2,11.2L311.5,306.6z" stroke="#123" stroke-width="4px" fill="none"/>
		</g>
		<g>
			<path d="M213,417c17.8,1,35.4,1.7,52.7,0.4c17.3-1.2,34.2-4.2,50.3-9.7l3-1c1-0.3,2-0.8,3-1.1l3-1.2l3-1.3c1-0.4,2-0.8,3-1.2
				l2.9-1.3c2-0.9,3.9-1.8,5.8-2.8c7.7-3.8,15.1-8.1,22.3-12.8c14.2-9.6,27.3-21.1,37.1-36.1c-2.5,8.6-7,16.7-12.5,24
				s-12,13.8-19,19.7c-7,5.8-14.7,10.9-22.7,15.3c-2,1.1-4,2.2-6.1,3.2l-3.1,1.5c-1,0.5-2.1,0.9-3.1,1.4l-3.1,1.4l-3.2,1.3
				c-1.1,0.4-2.1,0.9-3.2,1.2l-3.3,1.1c-17.4,6-35.9,8.3-54,7.7C247.7,426.2,229.9,422.9,213,417z" stroke="#123" stroke-width="4px" fill="none"/>
		</g>
	</g>
</g>
</svg>
