<svg height="600px" xmlns="http://www.w3.org/2000/svg" xmlns:xlink="http://www.w3.org/1999/xlink" x="0px" y="0px"
	 viewBox="0 0 600 600" style="enable-background:new 0 0 600 600;" xml:space="preserve">

	<g fill="none" stroke="#000000" stroke-width="4" stroke-miterlimit="10">
		<path  d="M341.5,222.5c15-22,73-115,79-124c2.6-3.9,7-10.7,4.6-15.6c-3.6-7.3-15.9-6.1-17.6,2
			c-0.5,2.6,1.4,5.9,4.1,5.6"/>
		<line  x1="417.5" y1="162.5" x2="369.5" y2="233.5"/>
		<path  d="M416.3,126.5c10.1-6.3,22.5-5.1,28.9,5.6c7.2,12.1,0,32.3-15,34.6c-7.3,1.1-14.1-5.2-18.6-10.2"/>
    </g>
	<g  fill="none" stroke="#000000" stroke-width="3" stroke-miterlimit="10">
		<path d="M331.5,215.5c12-15,54.9-79.9,55-83c0.1-5.7-9.6-10.3-12-3.9c-1.3,3.5,2.4,5.8,5,6.9"/>
		<path d="M379.2,145.2c-8.8-2-14.3-11.1-11.7-19.7c5.3-17.8,37.4-1.5,27.5,13.2"/>
		<path d="M373.6,152.5c-9.3-2.9-16.1-11.6-16.1-22c0-12.7,10.3-23,23-23c11.1,0,20.4,7.9,22.5,18.4"/>
		<path d="M420.5,150.5c2.2,2.5,5.4,5.8,9.1,4.6c2.9-0.9,5.3-4,6.2-6.8c2.2-6.3-3.6-10.4-9.4-9.4
			c-7.1,1.2-11,9.7-14.8,14.9c-6.3,8.5-12.3,17.3-18.1,26.1c-11,16.5-21.6,33.3-32,50.2c-1.3,2.1-2.6,4.3-3.9,6.4"/>
	</g>

	<g  fill="none" stroke="#000000" stroke-width="5" stroke-miterlimit="10">
	<path d="M353.5,223.5c15-23,75-115,80-125s6-26-13-34c-8.4-3.5-18.6,2.1-23,9.4c-7,11.6,2,28.6,20,28.6"/>
	</g>

<g fill="none" stroke="#000000" stroke-miterlimit="10">
		<line x1="412.5" y1="170.5" x2="404.5" y2="164.5"/>
		<line x1="408.5" y1="175.5" x2="400.5" y2="171.5"/>
		<line x1="403.5" y1="183.5" x2="394.5" y2="178.5"/>
		<line x1="398.5" y1="189.5" x2="390.5" y2="184.5"/>
		<line x1="395.5" y1="195.5" x2="386.5" y2="190.5"/>
		<line x1="391.5" y1="200.5" x2="383.5" y2="196.5"/>
		<line x1="387.5" y1="206.5" x2="378.5" y2="202.5"/>
		<line x1="382.5" y1="215.5" x2="373.5" y2="210.5"/>
		<line x1="377.5" y1="220.5" x2="370.5" y2="215.5"/>
		<line x1="373.5" y1="226.5" x2="366.5" y2="222.5"/>
		<line x1="371.5" y1="230.5" x2="363.5" y2="226.5"/>
		<line x1="366.5" y1="233.5" x2="361.5" y2="230.5"/>

		<line x1="401.5" y1="121.5" x2="395.5" y2="128.5"/>
		<line x1="399.5" y1="117.5" x2="393.5" y2="124.5"/>
		<line x1="396.5" y1="114.5" x2="390.5" y2="122.5"/>
		<line x1="393.5" y1="111.5" x2="387.5" y2="120.5"/>
		<line x1="388.5" y1="108.5" x2="383.5" y2="118.5"/>
		<line x1="383.5" y1="107.5" x2="380.5" y2="118.5"/>
		<line x1="376.5" y1="107.5" x2="376.5" y2="117.5"/>
		<line x1="370.5" y1="109.5" x2="373.5" y2="118.5"/>
		<line x1="366.5" y1="113.5" x2="370.5" y2="120.5"/>
		<line x1="361.5" y1="118.5" x2="367.5" y2="123.5"/>
		<line x1="358.5" y1="126.5" x2="366.5" y2="128.5"/>
		<line x1="358.5" y1="134.5" x2="367.5" y2="133.5"/>
		<line x1="359.5" y1="140.5" x2="367.5" y2="136.5"/>
		<line x1="364.5" y1="146.5" x2="370.5" y2="140.5"/>
		<line x1="369.5" y1="150.5" x2="375.5" y2="143.5"/>
</g>
</svg>
