
<svg height="900" xmlns="http://www.w3.org/2000/svg" xmlns:xlink="http://www.w3.org/1999/xlink" x="0px" y="0px"
	 viewBox="0 0 600 600" style="enable-background:new 0 0 600 600;" xml:space="preserve">

	<g fill="none" stroke="#000000" stroke-width="2" stroke-miterlimit="10">
		<path delay="0" d="M334.1,131.1c-6.8-9.5-2.8-21,3.1-18.5C343.1,115.1,334.1,131.1,334.1,131.1z"/>
		<path delay="5" d="M350.5,116.5c2-3,5-8,0-9S350.5,116.5,350.5,116.5z"/>
		<path delay="0" d="M300.5,132.5c6,5,12,4,14,11s-4,10,0,12s7.6-6.5,10.9-8.2c0.4-0.2,0.8-0.4,1.2-0.3c0.6,0.1,1,0.8,1.2,1.4
			c0.7,1.6,1.2,3.3,1.6,5c0.3,1.3,0.5,2.7,1.5,3.5c4.2,3.7,6.5-13.8,7.3-15.7c0.8-2,2.5-3.8,4.7-4.2c2.3-0.4,4.5,0.9,6.1,2.7
			c1,1.1,1.8,2.6,1.9,4.1c0.1,2.8-2.2,4.9-4.1,6.9c-3,3.1-5.5,6.7-7.3,10.6c-0.2,0.4,6.4,2.2,7.2,2.6c5.6,2.8,6.3,11.1,0,13.6
			c-2.9,1.2-6.5,3.6-1.7,5.5c2.2,0.9,7.7-1.5,8.7,1.5"/>

		<path delay="10" d="M337.2,182.5c-0.1-5,7.4-15.3-0.8-18.2c-2.8-1-8.2,1.1-10.1-2.3c-1-1.9,1-3.6-0.9-5.5c-3-3-4,2-7,4s-9,4-9-7
			s-6-13-13-15l3,66c0,0,0,6,6,8s8,9,8,9s5-4,10-6s7,0,7,0l20-27C344.9,188.5,337.4,190.3,337.2,182.5z M319.5,164.5
			c3.3,0,6,2.7,6,6s-2.7,6-6,6s-6-2.7-6-6S316.2,164.5,319.5,164.5z M313.5,186.5c0,2.2-1.8,4-4,4s-4-1.8-4-4s1.8-4,4-4
			S313.5,184.3,313.5,186.5z M301.5,150.5c0-1.1,0.9-2,2-2s2,0.9,2,2s-0.9,2-2,2S301.5,151.6,301.5,150.5z M302.5,166.5
			c0-2.2,1.8-4,4-4s4,1.8,4,4s-1.8,4-4,4S302.5,168.7,302.5,166.5z M310.5,207.5c-2.8,0-5-2.2-5-5s2.2-5,5-5s5,2.2,5,5
			S313.3,207.5,310.5,207.5z M323.5,195.5c-2.2,0-4-1.8-4-4s1.8-4,4-4s4,1.8,4,4S325.7,195.5,323.5,195.5z M327.5,176.5
			c0-1.7,1.3-3,3-3s3,1.3,3,3s-1.3,3-3,3S327.5,178.2,327.5,176.5z M331.5,205.5c-1.7,0-3-1.3-3-3s1.3-3,3-3s3,1.3,3,3
			S333.2,205.5,331.5,205.5z M338.5,195.5c-1.7,0-3-1.3-3-3s1.3-3,3-3s3,1.3,3,3S340.2,195.5,338.5,195.5z"/>

		<path delay="0" d="M255.5,93.5c0.6,3.2,1.8,7.7,0.2,10.8c-1.8,3.3-7,4.4-10,6.3c-0.6,0.4-1.2,0.8-1.5,1.4
			c-0.7,1.5,0.6,3.1,2,3.9c2.2,1.3,4.8,2.2,4.3,5.3c-0.3,1.7-1.4,3.2-2.6,4.4c-1.2,1.3-2.5,2.4-3.4,4c-0.5,0.9-0.8,2-0.5,2.9
			s1,1.5,1.6,2.2c1.7,1.9,4.5,6.6,2.6,9.1c-0.6,0.8-1.6,1.1-2.5,1.4c-6.4,1.6-11.9,2.3-15.3,8.8c-0.8,1.5-1.3,3.3-1.1,5
			c0.4,4,4.6,7.6,7.4,10.1"/>

		<path delay="7" d="M263.5,91.5l-5,1c1,4,1,8,0,13s-4,4-5,7s1,2,3,6s1,5-2,9s-6,5-2,11s0,12-6,12c-5.5,0-12.8,0.9-11.8,7.8
			c0.2,1.1,0.3,2.2,0.8,3.2c0.9,1.9,3.9,4.5,5,3c5-7,26,0,26,0L263.5,91.5z M245.5,157.5c-1.7,0-3-1.3-3-3s1.3-3,3-3s3,1.3,3,3
			S247.2,157.5,245.5,157.5z M260.5,108.5c1.1,0,2,0.9,2,2s-0.9,2-2,2s-2-0.9-2-2S259.4,108.5,260.5,108.5z M261.5,122.5
			c1.7,0,3,1.3,3,3s-1.3,3-3,3s-3-1.3-3-3S259.8,122.5,261.5,122.5z M253.5,133.5c0-1.1,0.9-2,2-2s2,0.9,2,2s-0.9,2-2,2
			S253.5,134.6,253.5,133.5z M253.5,159.5c-1.1,0-2-0.9-2-2s0.9-2,2-2s2,0.9,2,2S254.6,159.5,253.5,159.5z M260.5,154.5
			c-0.6,0-1-0.4-1-1s0.4-1,1-1s1,0.4,1,1S261.1,154.5,260.5,154.5z M259.5,147.5c-2.8,0-5-2.2-5-5s2.2-5,5-5s5,2.2,5,5
			S262.3,147.5,259.5,147.5z"/>
	</g>


</svg>
