<svg id="logo" width="600px" xmlns="http://www.w3.org/2000/svg" xmlns:xlink="http://www.w3.org/1999/xlink" x="0px" y="0px"
	 viewBox="0 0 600 600" style="enable-background:new 0 0 600 600;" xml:space="preserve">

	<g fill="none" stroke="#000000" stroke-width="2" stroke-linecap="round" stroke-linejoin="round" stroke-miterlimit="10" >
		<path d="M207,477c-5.6,2.8-6.7,16.3-6.8,21.6c-0.2,10.6-0.4,21.2-2.7,31.6c-0.4,1.9-2.8,8.4-4.9,4.3c-0.5-0.9-0.4-2-0.4-3
			c0.4-7.4,1.3-14.7,2.7-21.9c0.3-1.4,1.4-7.7-2-6.5c-0.4,0.1-0.7,0.4-1,0.5c-0.8,0.3-1.8-0.3-2.2-1.1c-0.4-0.8-0.5-1.7-0.5-2.6
			c-0.1-3.2-0.1-6.3-0.2-9.5c0,4.8-1.5,10.2-1.9,15.1c-0.5,6-1,12-1.5,18c-0.8,9.8-1.6,19.7-2.3,29.5c-0.6,7.3-1.7,15.1,1.7,21.9
			c2,4,0,9-4,8s-7-5-5-10s4-19,4-25c0-16.1,0.6-32.2,1.7-48.2c1-14.3,4.5-30.2-1.7-43.8l9.3,1c0,0-0.3,1-0.3,4s0,7,2,8s6,3,8,3
			s8-3,8-3h2l-2,5L207,477L207,477z"/>

		 <path d="M219,486c-4.6,4.6,1.4,27.9-4.9,29.3c-2.7,0.6-2.7-5.7-3.1-7.3c-1-5,0-20-2-24c-1-2,0-1,0-1s3,1,5,2S219,486,219,486z"/> -->

		<path d="M437.4,389c2.9,6.1-0.4,13-10.3,13.3c-0.6,1.5-0.6,1.6-1.2,3.1c8.9,8.6,4.6,21.4-9.4,17.9c-0.5-0.1-0.9,0.1-1.1,0.5
			s-0.4,0.8-0.7,1.2c-0.2,0.4-0.1,0.9,0.2,1.2c9.8,10,3.5,24-11.2,17.6c-0.4-0.2-0.9-0.1-1.2,0.3c0,0.1-0.1,0.1-0.1,0.2
			c-0.3,0.4-0.3,0.8,0,1.2c8.3,11.4-0.2,24.5-14.1,15.5c-0.4-0.2-0.9-0.2-1.2,0.1c-0.4,0.3-0.7,0.7-1.1,1c-0.3,0.3-0.4,0.7-0.2,1.1
			c5.2,12.9-5.6,23.4-16.4,12.8c-0.3-0.3-0.9-0.4-1.2-0.1c-0.4,0.3-0.8,0.5-1.2,0.8c-0.4,0.2-0.5,0.7-0.4,1.1
			c3.2,13.4-9,22.2-18.4,9.7c-0.3-0.4-0.8-0.5-1.2-0.3c-0.1,0.1-0.3,0.1-0.4,0.2c-0.4,0.2-0.6,0.6-0.6,1c1,13.5-12.3,20.3-19.7,6.4
			c-0.2-0.4-0.7-0.6-1.1-0.5c-1.1,0.2-2.1,0.5-3.2,0.7c-0.4,0.1-0.7,0.4-0.8,0.8c-2.6,12.2-15.6,15.4-20,2.6c-0.1-0.4-0.5-0.7-1-0.7
			c-0.7,0-1.4,0.1-2.1,0.1c-0.4,0-0.8,0.3-0.9,0.7c-4.1,12.2-18.1,13.5-20.4-1c-0.1-0.4-0.4-0.8-0.9-0.9c-0.3,0-0.6-0.1-0.8-0.1
			c-0.4-0.1-0.8,0.2-1,0.6c-5.7,11.3-19.3,10.9-20-2.9h-6.8c-5,3.6-14.9,0-14.9,0c0,4.7,0.9,9.4,0.3,14.1c-0.8,6.3-6,15-3.9,21.2
			c0.6,1.7,2.1,3.6,3.4,4.6c1,0.8,2.5,1.1,3.7,0.6c8.5-3.6-2.3-18.9,0.8-24.6c0.5-1,1.5-1.8,2.4-2.5c3.1-2.3,7-4.3,10.9-5
			c3.5-0.6,8,1.6,10.9,3.4c3.9,2.4,4,5.3,6.4,8.9c1.7,2.6,5.2,3.7,8.3,3.3c7.9-1.1,9.1-9.9,17.5-9.9c5.3,0,10.3,2.7,15.6,2.3
			c4.9-0.3,7.9-4.3,12.5-5.2c3.9-0.7,7.9-0.2,11.8-0.7c2.2-0.3,8.5-4,10.1-2.9c0.8,0.6,1.2,1.7,1.4,2.7c3,12.5,1.4,28-1.6,40.3
			c-0.5,2.1-1.1,4.3-0.9,6.5c0.1,0.9,0.4,1.9,1.2,2.5c1,0.7,2.4,0.5,3.4-0.2c3.5-2.6,4.1-7.7,3.8-11.7c-0.5-8.2,1-15.8,2.1-23.8
			c0.5-4.1-2.3-11.3,0-14.8c2-3,15-10,20-13c13.1-7.9,24.1-15,35-26c15.6-15.8,25.9-36.1,32.6-56.8c1.9-6,1.1-11.2-0.6-17.2
			C439,390,438.5,389.4,437.4,389z"/>
	</g>
</svg>
