<svg height="600" xmlns="http://www.w3.org/2000/svg" xmlns:xlink="http://www.w3.org/1999/xlink" x="0px" y="0px"
	 viewBox="0 0 600 600" style="enable-background:new 0 0 600 600;" xml:space="preserve">


	 <g fill="none" stroke="#000000" stroke-width="1" stroke-miterlimit="10">
	 		<path d="M148,400c-6-3-7.7-6.4-9.3-9.5c-1.8-3.3-7-4.4-10-6.3c-0.6-0.4-1.2-0.8-1.5-1.4c-0.7-1.5,0.6-3.1,2-3.9
	 			c2.2-1.3,4.8-2.2,4.3-5.3c-0.3-1.7-1.4-3.2-2.6-4.4c-1.2-1.3-2.5-2.4-3.4-4c-0.5-0.9-0.8-2-0.5-2.9s1-1.5,1.6-2.2
	 			c1.7-1.9,4.5-6.6,2.6-9.1c-0.6-0.8-1.6-1.1-2.5-1.4c-6.4-1.6-11.9-2.3-15.3-8.8c-0.8-1.5-1.3-3.3-1.1-5c0.4-4,4.8-11.6,13.8-13.6"/>
	 </g>

<g stroke="#000000" stroke-width="1" stroke-miterlimit="10">
		<path d="M147.5,327.5c0,0-1-9,15-8c-4-4-10-11-10-11s-0.1,5.6-7,9c-6.6,3.2-17,6.1-18,8c-1.6,1.1-8.1,5.9-9,7.7
			c-0.5,1-0.7,2.1-0.8,3.2c-0.9,6.8,6.4,7.8,11.8,7.8c6,0,10,6,6,12s-1,7,2,11s4,5,2,9s-4,3-3,6s4,2,5,7c0.8,4,4.2,7.5,6.5,11.8
			c0.6,1.1,1.1,2.2,1.5,3.4c0,0-0.1-0.5,1-6c1-5,7.1-6.7,8-9c-8,1-24-13-4-24c-17-3-11.2-22.4-1-24
			C145.5,335.5,147.5,327.5,147.5,327.5z M131.5,340.3c0,1.7-1.3,3-3,3s-3-1.3-3-3s1.3-3,3-3S131.5,338.6,131.5,340.3z M141.5,384.3
			c0-1.1,0.9-2,2-2s2,0.9,2,2s-0.9,2-2,2S141.5,385.4,141.5,384.3z M141.5,369.3c0-1.7,1.3-3,3-3s3,1.3,3,3s-1.3,3-3,3
			S141.5,370.9,141.5,369.3z M138.5,359.3c1.1,0,2,0.9,2,2s-0.9,2-2,2s-2-0.9-2-2C136.5,360.2,137.4,359.3,138.5,359.3z
			 M138.5,337.3c0,1.1-0.9,2-2,2s-2-0.9-2-2s0.9-2,2-2S138.5,336.2,138.5,337.3z M144.5,341.3c0,0.6-0.4,1-1,1s-1-0.4-1-1s0.4-1,1-1
			S144.5,340.7,144.5,341.3z M143.5,352.5c0,2.8,1.8,4.8-1,4.8s-5-2.2-5-5s2.2-5,5-5S143.5,349.7,143.5,352.5z"/>
		<path d="M172.5,443.5c0.7-5,4-10,4-10s-13,2-17-6c-2.5-5.1-2-6,0-9s6-6,6-6s-3,1-9-2s-8-8-8-8c-2.5,1.3-7.3,6.6-3,8.9
			c0.9,0.5,2,0.6,3,0.9c4.2,1.1,7.3,5,7.9,9.2c0.1,0.7,0.1,1.5-0.2,2.2c-1.4,2.8-7.6,1.9-7.8,5.6c0,0.7,0.2,1.4,0.4,2.1
			c1.1,3.5,3.9,3.2,6.1,5.7c1.1,1.3,1.3,3.2,0.9,4.8c-1.3,4.8-10.2,12.4-3.3,16.6c3.9,2.3,11.5,4.4,14.1-0.7c0.6-1.2,1-2.5,1.7-3.5
			c2.2-3.2,8.8-1.8,12.2-1.8C180.5,452.5,171.5,450.5,172.5,443.5z M156.5,431.5c0-1.1,0.9-2,2-2s2,0.9,2,2s-0.9,2-2,2
			S156.5,432.6,156.5,431.5z M160,452.5c-1.4,0-2.5-1.1-2.5-2.5s1.1-2.5,2.5-2.5s2.5,1.1,2.5,2.5S161.4,452.5,160,452.5z
			 M161.5,440.5c-1.1,0-2-0.9-2-2s0.9-2,2-2s2,0.9,2,2S162.6,440.5,161.5,440.5z M169.5,441.5c-1.7,0-3-1.3-3-3s1.3-3,3-3s3,1.3,3,3
			S171.2,441.5,169.5,441.5z"/>
</g>

<g fill="none" stroke="#000000" stroke-width="1" stroke-miterlimit="10">
		<path d="M146.5,399.5c-3.1,1.2-6.2,3.9-6.9,7.4c-0.8,4.5,2,7.4,6.2,7.7c2.4,0.2,7.9,2.7,7.2,5.9
			c-0.7,3.1-5.2,2.6-7.2,4.4c-3.5,3.2-2.1,8.4,1.5,10.7c1.6,1,3.4,1.8,4.8,3.2c0.4,0.4,0.7,0.8,0.8,1.3c0.3,1.8-2.4,3.7-3.3,5
			c-3.7,4.9-4.2,10.4,0.6,14.8c2.6,2.4,6.3,4,9.7,4.9c2.8,0.8,5.7,0.3,7.2-2.3c1.4-2.4,1.1-5.4,4.4-6c2.7-0.6,5.6-0.6,8.6-0.5
			c3.6,0.2,7.2,0.6,10.6,1"/>
</g>
</svg>
