<svg height="600px" xmlns="http://www.w3.org/2000/svg" xmlns:xlink="http://www.w3.org/1999/xlink" x="0px" y="0px"
	 viewBox="0 0 600 600" style="enable-background:new 0 0 600 600;" xml:space="preserve">
<g>

	<!-- cercle principal -->
	<g stroke="red"  stroke-width="2" stroke-linecap="round" stroke-linejoin="round">
<path d="M293,241v2c32.3,0,61.6,13.1,82.7,34.3c21.2,21.2,34.3,50.4,34.3,82.7c0,32.3-13.1,61.6-34.3,82.7
	C354.6,463.9,325.3,477,293,477c-32.3,0-61.6-13.1-82.7-34.3C189.1,421.6,176,392.3,176,360c0-32.3,13.1-61.6,34.3-82.7
	c21.2-21.2,50.4-34.3,82.7-34.3V241v-2c-66.8,0-121,54.2-121,121c0,66.8,54.2,121,121,121c66.8,0,121-54.2,121-121
	c0-66.8-54.2-121-121-121V241z"/>
   </g>
	<!-- cercle principal -->

	<g fill="none" stroke="black"  stroke-width="5" stroke-linecap="round" stroke-linejoin="round">
		  <circle cx="164.5" cy="353.5" r="3.5"/>
		  <circle cx="165.5" cy="376.5" r="3.5"/>
		  <circle cx="170.5" cy="398.5" r="3.5"/>
		  <circle cx="178.5" cy="418.5" r="3.5"/>
		  <circle cx="191.5" cy="437.5" r="3.5"/>
		  <circle cx="205.5" cy="453.5" r="3.5"/>
		  <circle cx="223.5" cy="467.5" r="3.5"/>
		  <circle cx="242.5" cy="478.5" r="3.5"/>
		  <circle cx="264.5" cy="484.5" r="3.5"/>
		  <circle cx="286.5" cy="487.5" r="3.5"/>
		  <circle cx="308.5" cy="487.5" r="3.5"/>
		  <circle cx="332.5" cy="482.5" r="3.5"/>
		  <circle cx="352.5" cy="473.5" r="3.5"/>
		  <circle cx="371.5" cy="461.5" r="3.5"/>
		  <circle cx="387.5" cy="446.5" r="3.5"/>
		  <circle cx="400.5" cy="429.5" r="3.5"/>
		  <circle cx="411.5" cy="409.5" r="3.5"/>
		  <circle cx="417.5" cy="389.5" r="3.5"/>
		  <circle cx="420.5" cy="368.5" r="3.5"/>
		  <circle cx="420.5" cy="345.5" r="3.5"/>
		  <circle cx="415.5" cy="323.5" r="3.5"/>
		  <circle cx="407.5" cy="303.5" r="3.5"/>
		  <circle cx="396.5" cy="283.5" r="3.5"/>
		  <circle cx="380.5" cy="265.5" r="3.5"/>
		  <circle cx="363.5" cy="252.5" r="3.5"/>
		  <circle cx="343.5" cy="242.5" r="3.5"/>
		  <circle cx="322.5" cy="234.5" r="3.5"/>
		  <circle cx="300.5" cy="231.5" r="3.5"/>
		  <circle cx="277.5" cy="232.5" r="3.5"/>
		  <circle cx="253.5" cy="237.5" r="3.5"/>
		  <circle cx="233.5" cy="246.5" r="3.5"/>
		  <circle cx="214.5" cy="258.5" r="3.5"/>
		  <circle cx="198.5" cy="273.5" r="3.5"/>
		  <circle cx="184.5" cy="290.5" r="3.5"/>
		  <circle cx="174.5" cy="311.5" r="3.5"/>
		 <circle cx="167.5" cy="332.5" r="3.5"/>
  </g>
  <!-- les cercles -->
  <!-- demi cercles -->
	<g fill="none" stroke="black"  stroke-width="3" stroke-linecap="round" stroke-linejoin="round">
	  <path d="M172,364.5l-0.1-1c-1,0.1-2,0.2-3,0.2c-4.9,0-8.7-1.4-11.2-3.5c-2.5-2-3.8-4.6-3.8-7c0-2.1,0.9-4,3-5.6
		   c2.1-1.5,5.3-2.6,10-2.6c1.9,0,4,0.2,6.4,0.6l0.2-1l-1,0c-0.2,4.7-0.5,9.7-0.8,13.5c-0.1,1.9-0.3,3.5-0.4,4.6
		   c-0.1,1.1-0.1,1.8-0.1,1.8L172,364.5l-0.1-1L172,364.5l1,0.1c0,0,0.9-10.4,1.3-19.9l0-0.9l-0.9-0.1c-2.5-0.4-4.7-0.6-6.7-0.6
		   c-4.9,0-8.6,1.1-11.2,3c-2.5,1.9-3.8,4.5-3.8,7.2c0,3.1,1.6,6.3,4.6,8.6c2.9,2.3,7.2,3.9,12.5,3.9c1,0,2.1-0.1,3.2-0.2l0.8-0.1
		   l0.1-0.8L172,364.5z"/>
	 <path d="M174.6,385.9l-0.2-1c-2.1,0.5-4,0.7-5.8,0.7c-4.3,0-7.7-1.3-10-3.1c-2.3-1.8-3.5-4.2-3.5-6.5c0-1.1,0.3-2.2,0.9-3.2
		   c0.9-1.6,2.5-3,5-4.1c2.5-1.1,5.9-1.8,10.4-1.8c0.6,0,1.3,0,2,0l0-1l-1,0.1c0.3,4.7,0.6,9.7,0.9,13.5c0.1,1.9,0.2,3.5,0.2,4.6
		   c0.1,1.1,0.1,1.8,0.1,1.8L174.6,385.9l-0.2-1L174.6,385.9l1,0c0,0-0.5-10.4-1.2-19.9l-0.1-0.9l-0.9,0c-0.7,0-1.4,0-2.1,0
		   c-6.2,0-10.7,1.3-13.7,3.3c-1.5,1-2.6,2.2-3.4,3.6c-0.8,1.3-1.1,2.8-1.1,4.2c0,3,1.5,5.9,4.2,8c2.7,2.1,6.5,3.5,11.2,3.5
		   c2,0,4.1-0.2,6.3-0.8l0.8-0.2l0-0.8L174.6,385.9z"/>
	 <path d="M181.3,405.4l-0.5-0.9c-3.8,2.1-7.3,2.9-10.4,2.9c-3.3,0-6-1-7.9-2.5c-1.9-1.5-2.9-3.5-2.9-5.6c0-2.1,1-4.3,3.4-6.5
		   c2.4-2.1,6.3-4.1,12-5.4l-0.2-1l-0.9,0.3c1.6,4.5,3.2,9.2,4.4,12.8c0.6,1.8,1.1,3.3,1.4,4.4c0.3,1.1,0.5,1.7,0.5,1.7L181.3,405.4
			 l-0.5-0.9L181.3,405.4l1-0.3c0,0-3.2-9.9-6.4-18.9l-0.3-0.8l-0.9,0.2c-5.9,1.4-10.1,3.4-12.9,5.9c-2.8,2.4-4.1,5.3-4.1,8
			 c0,2.8,1.4,5.3,3.6,7.2c2.3,1.8,5.4,2.9,9.1,2.9c3.4,0,7.3-1,11.3-3.2l0.7-0.4l-0.3-0.8L181.3,405.4z"/>
	 <path d="M190.7,423.6l-0.6-0.8c-4.3,3.2-8.5,4.5-12,4.5c-2.9,0-5.4-0.9-7-2.3c-1.7-1.4-2.6-3.2-2.6-5.3c0-2,0.9-4.2,3-6.5
		 c2.2-2.3,5.6-4.6,10.6-6.5l-0.4-0.9l-0.9,0.5c2.2,4.2,4.4,8.6,6.1,12c0.8,1.7,1.6,3.1,2.1,4.1c0.5,1,0.8,1.6,0.8,1.6L190.7,423.6
		 l-0.6-0.8L190.7,423.6l0.9-0.4c0,0-4.6-9.4-9-17.8l-0.4-0.8l-0.8,0.3c-5.2,2-8.9,4.4-11.4,7c-2.4,2.6-3.6,5.3-3.6,7.9
		 c0,2.7,1.3,5.1,3.4,6.9c2.1,1.7,5,2.7,8.3,2.7c4,0,8.6-1.5,13.2-4.9l0.7-0.5l-0.4-0.7L190.7,423.6z"/>
	 <path d="M203.7,440.8l-0.7-0.7c-4.6,4.4-9.2,6.1-13.1,6.1c-2.6,0-4.9-0.8-6.4-2.1c-1.5-1.3-2.4-3.1-2.4-5.2c0-1.9,0.8-4.1,2.7-6.5
		 c1.9-2.4,4.9-4.9,9.3-7.2l-0.5-0.9l-0.8,0.6c2.7,3.8,5.5,8,7.6,11.1c1,1.6,1.9,2.9,2.5,3.9c0.6,0.9,1,1.5,1,1.5L203.7,440.8
		 l-0.7-0.7L203.7,440.8l0.8-0.5c0,0-5.7-8.8-11.1-16.5l-0.5-0.7l-0.8,0.4c-4.6,2.5-7.9,5.1-10,7.7c-2.1,2.6-3.1,5.3-3.1,7.8
		 c0,2.7,1.2,5.1,3.2,6.7c2,1.6,4.7,2.6,7.7,2.6c4.4,0,9.6-2,14.5-6.7l0.6-0.6l-0.4-0.7L203.7,440.8z"/>
	   <path d="M219.1,454.3l-0.8-0.5c-4.2,6.7-9.7,9.4-14,9.4c-2.3,0-4.2-0.7-5.6-2c-1.4-1.2-2.2-3-2.2-5.3c0-1.8,0.6-4,1.9-6.4
		 c1.4-2.4,3.5-5.1,6.6-7.9l-0.7-0.7l-0.7,0.8c3.6,3.1,7.3,6.5,10.1,9c1.4,1.3,2.6,2.4,3.4,3.1c0.8,0.8,1.3,1.2,1.3,1.2L219.1,454.3
		 l-0.8-0.5L219.1,454.3l0.7-0.7c0,0-7.6-7.1-14.8-13.4l-0.7-0.6l-0.7,0.6c-3.3,2.9-5.6,5.8-7.1,8.4c-1.5,2.7-2.2,5.1-2.2,7.4
		 c0,2.8,1.1,5.1,2.9,6.7c1.8,1.6,4.2,2.5,6.9,2.5c5.2,0,11.2-3.1,15.7-10.3l0.4-0.7l-0.6-0.6L219.1,454.3z"/>
	 <path d="M236.2,465.6l-0.9-0.4c-3.6,8.1-9.4,11.4-14,11.4c-2.1,0-4-0.7-5.3-2c-1.3-1.3-2.1-3.1-2.1-5.5c0-3.5,1.8-8.3,6.6-14.1
		 l-0.8-0.6l-0.5,0.8c3.9,2.6,8.1,5.4,11.2,7.5c1.6,1.1,2.9,2,3.8,2.6s1.5,1,1.5,1L236.2,465.6l-0.9-0.4L236.2,465.6l0.6-0.8
		 c0,0-8.6-6-16.5-11.2l-0.7-0.5l-0.6,0.7c-5,6-7,11.2-7,15.4c0,2.9,1,5.3,2.8,7c1.7,1.7,4.1,2.5,6.6,2.5c5.5,0,12-4,15.8-12.6
		 l0.3-0.8l-0.7-0.5L236.2,465.6z"/>
	 <path d="M255.9,474.2l-1-0.3c-2.8,9.2-8.9,13.1-13.6,13.1c-2,0-3.8-0.7-5.1-2c-1.3-1.3-2.1-3.3-2.1-6c0-3.4,1.3-7.8,4.8-13.3
		 l-0.8-0.5l-0.4,0.9c4.3,2.1,8.7,4.3,12.1,6.1c1.7,0.9,3.1,1.6,4.1,2.1c1,0.5,1.6,0.8,1.6,0.8L255.9,474.2l-1-0.3L255.9,474.2
		 l0.5-0.9c0,0-9.2-4.8-17.8-9l-0.8-0.4l-0.5,0.7c-3.6,5.7-5.2,10.5-5.2,14.4c0,3.1,1,5.7,2.7,7.4c1.7,1.7,4,2.6,6.5,2.6
		 c5.8,0,12.5-4.7,15.5-14.5l0.2-0.8l-0.7-0.4L255.9,474.2z"/>
	 <path d="M276.2,478.3l-1,0c-0.1,5.5-1.8,9.7-4.1,12.4c-2.3,2.7-5.1,4.1-7.6,4.1c-2,0-3.8-0.8-5.2-2.5c-1.4-1.7-2.3-4.3-2.3-8
		 c0-2.7,0.5-5.9,1.7-9.7l-1-0.3l-0.2,1c4.6,0.9,9.5,1.9,13.2,2.7c1.9,0.4,3.4,0.7,4.5,1s1.7,0.4,1.7,0.4L276.2,478.3l-1,0
		 L276.2,478.3l0.2-1c0,0-10.2-2.2-19.5-4l-0.9-0.2l-0.3,0.9c-1.3,4-1.8,7.4-1.8,10.3c0,4,1,7.1,2.8,9.3c1.7,2.1,4.2,3.2,6.7,3.2
		 c3.2,0,6.6-1.7,9.2-4.8c2.6-3.1,4.4-7.7,4.5-13.6l0-0.8l-0.8-0.2L276.2,478.3z"/>
	 <path d="M296.6,479.4l-1,0.1c0.1,1.1,0.2,2.1,0.2,3.1c0,4.9-1.4,8.7-3.4,11.2c-2,2.5-4.6,3.8-7,3.8c-2.1,0-4-0.9-5.6-3
		 c-1.5-2.1-2.6-5.3-2.6-10c0-1.9,0.2-4,0.6-6.3l-1-0.2l0,1c4.7,0.2,9.7,0.5,13.5,0.7c1.9,0.1,3.5,0.2,4.6,0.3
		 c1.1,0.1,1.8,0.1,1.8,0.1L296.6,479.4l-1,0.1L296.6,479.4l0.1-1c0,0-10.4-0.8-19.9-1.2l-0.9,0l-0.1,0.9c-0.4,2.4-0.6,4.6-0.6,6.6
		 c0,5,1.1,8.7,3,11.2c1.9,2.5,4.5,3.8,7.2,3.8c3.1,0,6.2-1.6,8.6-4.6c2.3-2.9,3.9-7.2,3.9-12.4c0-1.1-0.1-2.2-0.2-3.3l-0.1-0.8
		 l-0.8-0.1L296.6,479.4z"/>
	 <path d="M318,476.8l-1,0.2c0.5,2.1,0.7,4.1,0.7,5.9c0,4.3-1.3,7.6-3.1,9.9c-1.8,2.3-4.2,3.5-6.5,3.5c-1.1,0-2.2-0.3-3.3-0.9
		 c-1.6-0.9-3-2.5-4.1-5c-1.1-2.5-1.8-6-1.8-10.5c0-0.6,0-1.2,0-1.9l-1,0l0.1,1c4.7-0.3,9.7-0.6,13.5-0.9c1.9-0.1,3.5-0.2,4.6-0.2
		 c1.1-0.1,1.8-0.1,1.8-0.1L318,476.8l-1,0.2L318,476.8l0-1c0,0-10.4,0.5-19.9,1.2l-0.9,0.1l0,0.9c0,0.7,0,1.3,0,1.9
		 c0,6.2,1.3,10.8,3.3,13.8c1,1.5,2.2,2.7,3.6,3.4c1.3,0.8,2.8,1.1,4.2,1.1c3,0,5.9-1.5,8-4.2c2.1-2.7,3.5-6.5,3.5-11.1
		 c0-2-0.3-4.1-0.8-6.4l-0.2-0.8l-0.8,0L318,476.8z"/>
	 <path d="M339,470.9l-0.9,0.5c2,3.7,2.8,7.2,2.8,10.2c0,3.3-1,6.1-2.5,8c-1.5,1.9-3.5,2.9-5.6,2.9c-2.1,0-4.4-1-6.5-3.5
		 c-2.1-2.5-4-6.4-5.3-12.2l-1,0.2l0.3,0.9c4.5-1.5,9.2-3,12.9-4.2c1.8-0.6,3.3-1.1,4.4-1.4c1.1-0.3,1.7-0.5,1.7-0.5L339,470.9
		 l-0.9,0.5L339,470.9l-0.3-1c0,0-10,3.1-19,6.1l-0.8,0.3l0.2,0.9c1.3,6,3.3,10.3,5.7,13.1c2.4,2.8,5.3,4.2,8,4.2
		 c2.8,0,5.4-1.4,7.2-3.7c1.8-2.3,3-5.5,3-9.2c0-3.3-0.9-7.1-3-11.1l-0.4-0.7l-0.8,0.2L339,470.9z"/>
	  <path d="M357.3,461.8l-0.8,0.6c3.1,4.3,4.3,8.4,4.3,11.9c0,3-0.9,5.4-2.3,7.1c-1.4,1.7-3.3,2.7-5.3,2.7c-2,0-4.2-0.9-6.5-3.1
		 c-2.3-2.2-4.5-5.7-6.4-10.8l-0.9,0.3l0.5,0.9c4.2-2.1,8.7-4.3,12.1-6c1.7-0.8,3.2-1.5,4.2-2c1-0.5,1.6-0.8,1.6-0.8L357.3,461.8
		 l-0.8,0.6L357.3,461.8l-0.4-0.9c0,0-9.5,4.4-17.9,8.7l-0.8,0.4l0.3,0.8c1.9,5.3,4.3,9.1,6.9,11.6c2.5,2.5,5.3,3.6,7.9,3.6
		 c2.7,0,5.2-1.3,6.9-3.4c1.7-2.1,2.7-5,2.7-8.4c0-3.9-1.4-8.5-4.7-13l-0.5-0.7l-0.7,0.3L357.3,461.8z"/>
	 <path d="M374.7,449l-0.7,0.7c4.2,4.5,5.9,9.1,5.9,12.9c0,2.7-0.8,4.9-2.1,6.5c-1.3,1.6-3.1,2.5-5.2,2.5c-1.9,0-4.2-0.8-6.5-2.7
		 c-2.4-1.9-4.8-5-7.1-9.5l-0.9,0.5l0.6,0.8c3.9-2.6,8.1-5.3,11.3-7.3c1.6-1,3-1.9,3.9-2.5c1-0.6,1.5-1,1.5-1L374.7,449l-0.7,0.7
		 L374.7,449l-0.5-0.8c0,0-8.9,5.6-16.7,10.8l-0.7,0.5l0.4,0.8c2.4,4.7,5,8,7.7,10.2c2.6,2.2,5.3,3.2,7.8,3.2c2.7,0,5.1-1.2,6.7-3.2
		 c1.6-2,2.6-4.7,2.6-7.8c0-4.4-1.9-9.5-6.4-14.3l-0.6-0.6l-0.7,0.4L374.7,449z"/>
	 <path d="M388.4,433.6l-0.5,0.9c6.8,4.2,9.5,9.7,9.5,14c0,2.3-0.7,4.2-2,5.6c-1.2,1.4-3,2.2-5.3,2.2c-1.8,0-4-0.6-6.4-1.9
		 c-2.4-1.3-5.1-3.5-7.9-6.5l-0.7,0.7l0.8,0.6c3.1-3.6,6.4-7.4,9-10.2c1.3-1.4,2.4-2.6,3.1-3.4c0.8-0.8,1.2-1.3,1.2-1.3L388.4,433.6
		 l-0.5,0.9L388.4,433.6l-0.7-0.7c0,0-7.1,7.6-13.3,14.9l-0.6,0.7l0.6,0.7c2.9,3.2,5.8,5.5,8.4,6.9c2.7,1.5,5.1,2.1,7.4,2.1
		 c2.8,0,5.1-1.1,6.8-2.9c1.6-1.8,2.5-4.2,2.5-6.9c0-5.2-3.2-11.2-10.5-15.7l-0.7-0.4l-0.6,0.6L388.4,433.6z"/>
	 <path d="M399.5,416.4l-0.4,0.9c8.1,3.6,11.5,9.4,11.5,14c0,2.1-0.7,3.9-1.9,5.2c-1.3,1.3-3.1,2.1-5.5,2.1c-3.5,0-8.3-1.8-14-6.4
		 l-0.6,0.8l0.8,0.5c2.5-4,5.3-8.1,7.4-11.3c1.1-1.6,2-2.9,2.6-3.8c0.6-0.9,1-1.5,1-1.5L399.5,416.4l-0.4,0.9L399.5,416.4l-0.8-0.6
		 c0,0-5.9,8.6-11,16.6l-0.5,0.7l0.7,0.6c5.9,4.9,11.1,6.9,15.2,6.9c2.9,0,5.3-1,7-2.8c1.6-1.7,2.5-4.1,2.5-6.6c0-5.5-4-12-12.7-15.8
		 l-0.8-0.3l-0.5,0.7L399.5,416.4z"/>
 <path d="M408,396.6l-0.3,1c9.2,2.7,13.2,8.8,13.2,13.6c0,2-0.7,3.8-2,5.1c-1.3,1.3-3.3,2.1-6,2.1c-3.3,0-7.8-1.3-13.2-4.8l-0.5,0.8
		 l0.9,0.4c2-4.2,4.3-8.7,6-12.1c0.9-1.7,1.6-3.1,2.1-4.1c0.5-1,0.8-1.6,0.8-1.6L408,396.6l-0.3,1L408,396.6l-0.9-0.5
		 c0,0-4.8,9.3-8.9,17.8l-0.4,0.8l0.8,0.5c5.6,3.6,10.4,5.1,14.3,5.1c3.1,0,5.7-1,7.4-2.7c1.7-1.7,2.6-4,2.6-6.5
		 c0-5.9-4.8-12.6-14.6-15.5l-0.8-0.2l-0.4,0.7L408,396.6z"/>
	 <path d="M412.1,377.6l0,1c5.5,0.3,9.6,2,12.3,4.3c2.7,2.3,4,5.1,4,7.6c0,2-0.8,3.8-2.4,5.2c-1.6,1.4-4.2,2.3-7.8,2.3
		 c-2.8,0-6.1-0.6-10.1-1.9l-0.3,0.9l1,0.2c1-4.6,2.1-9.4,2.9-13.1c0.4-1.8,0.8-3.4,1-4.5c0.3-1.1,0.4-1.7,0.4-1.7L412.1,377.6l0,1
		 L412.1,377.6l-1-0.2c0,0-2.4,10.2-4.4,19.4l-0.2,0.9l0.9,0.3c4.1,1.4,7.7,2,10.8,2c3.9,0,7-1,9.1-2.8c2.1-1.7,3.1-4.2,3.1-6.7
		 c0-3.2-1.6-6.6-4.7-9.2c-3.1-2.6-7.6-4.5-13.5-4.7l-0.8,0l-0.2,0.8L412.1,377.6z"/>
	 <path d="M413.5,357.2l0.1,1c0.9-0.1,1.8-0.1,2.7-0.1c5,0,8.8,1.5,11.4,3.5c2.6,2,3.9,4.7,3.9,7.1c0,2.1-0.9,4-2.9,5.5
		 c-2,1.5-5.2,2.6-9.7,2.6c-2,0-4.2-0.2-6.8-0.7l-0.2,1l1,0.1c0.3-4.7,0.7-9.7,1-13.5c0.2-1.9,0.3-3.5,0.4-4.6s0.2-1.8,0.2-1.8
		 L413.5,357.2l0.1,1L413.5,357.2l-1-0.1c0,0-1,10.4-1.6,19.9l-0.1,0.9l0.9,0.2c2.6,0.5,5,0.7,7.1,0.7c4.8,0,8.5-1.1,10.9-3
		 c2.5-1.9,3.7-4.5,3.7-7.1c0-3.1-1.6-6.3-4.6-8.7c-3-2.4-7.2-3.9-12.6-3.9c-0.9,0-1.9,0-2.9,0.1l-0.8,0.1l-0.1,0.8L413.5,357.2z"/>
	  <path d="M411.3,335.8l0.2,1c2-0.4,3.8-0.6,5.5-0.6c4.3,0,7.7,1.3,10,3.1c2.3,1.9,3.5,4.2,3.5,6.5c0,2.2-1.1,4.3-3.5,6.1
		 c-2.5,1.7-6.5,2.9-12.2,2.9c-0.8,0-1.7,0-2.6-0.1l-0.1,1l1-0.1c-0.3-4.7-0.5-9.7-0.7-13.5c-0.1-1.9-0.1-3.5-0.2-4.6
		 c0-1.1-0.1-1.8-0.1-1.8L411.3,335.8l0.2,1L411.3,335.8l-1,0c0,0,0.3,10.4,0.9,19.9l0.1,0.9l0.9,0.1c0.9,0.1,1.8,0.1,2.7,0.1
		 c6,0,10.4-1.3,13.4-3.3c3-2,4.4-4.9,4.4-7.7c0-3-1.5-5.9-4.2-8.1c-2.7-2.2-6.6-3.6-11.3-3.6c-1.9,0-3.9,0.2-6,0.7l-0.8,0.2l0,0.8
		 L411.3,335.8z"/>
	 <path d="M404.9,316.1l0.5,0.9c3.7-2,7.2-2.8,10.2-2.8c3.3,0,6.1,1,8,2.5c1.9,1.5,2.9,3.5,2.9,5.6c0,2.1-1,4.3-3.5,6.5
		 c-2.5,2.1-6.4,4.1-12.2,5.3l0.2,1l0.9-0.3c-1.5-4.5-3.1-9.2-4.2-12.8c-0.6-1.8-1-3.3-1.4-4.4c-0.3-1.1-0.5-1.7-0.5-1.7L404.9,316.1
		 l0.5,0.9L404.9,316.1l-1,0.3c0,0,3,10,6.1,19l0.3,0.8l0.9-0.2c6-1.3,10.2-3.3,13-5.7c2.8-2.4,4.1-5.3,4.1-8c0-2.8-1.4-5.4-3.7-7.2
		 c-2.3-1.8-5.5-3-9.2-3c-3.3,0-7.1,0.9-11.1,3l-0.7,0.4l0.2,0.8L404.9,316.1z"/>
	  <path d="M395.8,297.9l0.6,0.8c4.3-3.1,8.4-4.3,11.9-4.3c3,0,5.4,0.9,7.1,2.3c1.7,1.4,2.7,3.3,2.7,5.3c0,2-0.9,4.2-3.1,6.5
		 c-2.2,2.3-5.7,4.5-10.8,6.4l0.3,0.9l0.9-0.5c-2.1-4.2-4.3-8.7-6-12.1c-0.8-1.7-1.5-3.1-2-4.2c-0.5-1-0.8-1.6-0.8-1.6L395.8,297.9
		 l0.6,0.8L395.8,297.9l-0.9,0.4c0,0,4.4,9.4,8.7,17.9l0.4,0.8l0.8-0.3c5.3-1.9,9.1-4.3,11.6-6.9c2.5-2.5,3.6-5.3,3.6-7.9
		 c0-2.7-1.3-5.2-3.4-6.9c-2.1-1.7-5-2.7-8.4-2.7c-3.9,0-8.5,1.4-13,4.7l-0.7,0.5l0.4,0.7L395.8,297.9z"/>
		 <path d="M383,280.5l0.7,0.7c4.5-4.2,9.1-5.9,12.9-5.9c2.7,0,5,0.8,6.5,2.1c1.6,1.3,2.5,3.1,2.5,5.2c0,1.9-0.8,4.1-2.7,6.5
	c-1.9,2.4-5,4.8-9.5,7.1l0.5,0.9l0.8-0.6c-2.6-3.9-5.4-8.1-7.4-11.3c-1-1.6-1.9-2.9-2.5-3.9c-0.6-0.9-1-1.5-1-1.5L383,280.5
	l0.7,0.7L383,280.5l-0.8,0.5c0,0,5.6,8.8,10.9,16.7l0.5,0.7l0.8-0.4c4.7-2.4,8-5,10.1-7.6c2.1-2.6,3.1-5.3,3.1-7.8
	c0-2.7-1.2-5.1-3.2-6.7c-2-1.7-4.7-2.6-7.8-2.6c-4.4,0-9.5,1.9-14.3,6.4l-0.6,0.6l0.4,0.7L383,280.5z"/>
	<path d="M367.4,265.5l0.8,0.5c4.2-6.7,9.7-9.4,14-9.4c2.3,0,4.2,0.7,5.6,2c1.4,1.2,2.2,3,2.2,5.3c0,1.8-0.6,4-1.9,6.4
		 c-1.4,2.4-3.5,5.1-6.6,7.9l0.7,0.7l0.7-0.8c-3.6-3.1-7.3-6.5-10.1-9c-1.4-1.3-2.6-2.4-3.4-3.1c-0.8-0.8-1.3-1.2-1.3-1.2
		 L367.4,265.5l0.8,0.5L367.4,265.5l-0.7,0.7c0,0,7.6,7.1,14.8,13.4l0.7,0.6l0.7-0.6c3.3-2.9,5.6-5.8,7.1-8.4
		 c1.5-2.7,2.2-5.1,2.2-7.4c0-2.8-1.1-5.1-2.9-6.7c-1.8-1.6-4.2-2.5-6.9-2.5c-5.2,0-11.2,3.1-15.7,10.3l-0.4,0.7l0.6,0.6L367.4,265.5z"/>
		 <path d="M350.3,254.2l0.9,0.4c3.6-8.1,9.4-11.4,14-11.4c2.1,0,4,0.7,5.3,2c1.3,1.3,2.1,3.1,2.1,5.5c0,3.5-1.8,8.3-6.6,14.1l0.8,0.6
		 l0.5-0.8c-3.9-2.6-8.1-5.4-11.2-7.5c-1.6-1.1-2.9-2-3.8-2.6c-0.9-0.6-1.5-1-1.5-1L350.3,254.2l0.9,0.4L350.3,254.2l-0.6,0.8
		 c0,0,8.6,6,16.5,11.2l0.7,0.5l0.6-0.7c5-6,7-11.2,7-15.4c0-2.9-1-5.3-2.8-7c-1.7-1.7-4.1-2.5-6.6-2.5c-5.5,0-12,4-15.8,12.6
		 l-0.3,0.8l0.7,0.5L350.3,254.2z"/>
		 <path d="M330.6,245.6l1,0.3c2.8-9.2,8.9-13.1,13.6-13.1c2,0,3.8,0.7,5.1,2c1.3,1.3,2.1,3.3,2.1,6c0,3.4-1.3,7.8-4.8,13.3l0.8,0.5
		 l0.4-0.9c-4.3-2.1-8.7-4.3-12.1-6.1c-1.7-0.9-3.1-1.6-4.1-2.1c-1-0.5-1.6-0.8-1.6-0.8L330.6,245.6l1,0.3L330.6,245.6l-0.5,0.9
		 c0,0,9.2,4.8,17.8,9l0.8,0.4l0.5-0.7c3.6-5.7,5.2-10.5,5.2-14.4c0-3.1-1-5.7-2.7-7.4c-1.7-1.7-4-2.6-6.5-2.6
		 c-5.8,0-12.5,4.7-15.5,14.5l-0.2,0.8l0.7,0.4L330.6,245.6z"/>
		 <path d="M310.3,241.5l1,0c0.1-5.5,1.8-9.7,4.1-12.4c2.3-2.7,5.1-4.1,7.6-4.1c2,0,3.8,0.8,5.2,2.5c1.4,1.7,2.3,4.3,2.3,8
		 c0,2.7-0.5,5.9-1.7,9.7l1,0.3l0.2-1c-4.6-0.9-9.5-1.9-13.2-2.7c-1.9-0.4-3.4-0.7-4.5-1c-1.1-0.2-1.7-0.4-1.7-0.4L310.3,241.5l1,0
		 L310.3,241.5l-0.2,1c0,0,10.2,2.2,19.5,4l0.9,0.2l0.3-0.9c1.3-4,1.8-7.4,1.8-10.3c0-4-1-7.1-2.8-9.3c-1.7-2.1-4.2-3.2-6.7-3.2
		 c-3.2,0-6.6,1.7-9.2,4.8c-2.6,3.1-4.4,7.7-4.5,13.6l0,0.8l0.8,0.2L310.3,241.5z"/>
		 <path d="M289.9,240.4l1-0.1c-0.1-1.1-0.2-2.1-0.2-3.1c0-4.9,1.4-8.7,3.4-11.2c2-2.5,4.6-3.8,7-3.8c2.1,0,4,0.9,5.6,3
				 c1.5,2.1,2.6,5.3,2.6,10c0,1.9-0.2,4-0.6,6.3l1,0.2l0-1c-4.7-0.2-9.7-0.5-13.5-0.7c-1.9-0.1-3.5-0.2-4.6-0.3s-1.8-0.1-1.8-0.1
				  L289.9,240.4l1-0.1L289.9,240.4l-0.1,1c0,0,10.4,0.8,19.9,1.2l0.9,0l0.1-0.9c0.4-2.4,0.6-4.6,0.6-6.6c0-5-1.1-8.7-3-11.2
				  c-1.9-2.5-4.5-3.8-7.2-3.8c-3.1,0-6.2,1.6-8.6,4.6c-2.3,2.9-3.9,7.2-3.9,12.4c0,1.1,0.1,2.2,0.2,3.3l0.1,0.8l0.8,0.1L289.9,240.4z"/>
		 <path d="M268.5,243l1-0.2c-0.5-2.1-0.7-4.1-0.7-5.9c0-4.3,1.3-7.6,3.1-9.9c1.8-2.3,4.2-3.5,6.5-3.5c1.1,0,2.2,0.3,3.3,0.9
		   c1.6,0.9,3,2.5,4.1,5c1.1,2.5,1.8,6,1.8,10.5c0,0.6,0,1.2,0,1.9l1,0l-0.1-1c-4.7,0.3-9.7,0.6-13.5,0.9c-1.9,0.1-3.5,0.2-4.6,0.2
		   c-1.1,0.1-1.8,0.1-1.8,0.1L268.5,243l1-0.2L268.5,243l0,1c0,0,10.4-0.5,19.9-1.2l0.9-0.1l0-0.9c0-0.7,0-1.3,0-1.9
		   c0-6.2-1.3-10.8-3.3-13.8c-1-1.5-2.3-2.7-3.6-3.4c-1.3-0.8-2.8-1.1-4.2-1.1c-3,0-5.9,1.5-8,4.2c-2.1,2.7-3.5,6.5-3.5,11.1
		   c0,2,0.3,4.1,0.8,6.4l0.2,0.8l0.8,0L268.5,243z"/>
		<path d="M247,250l0.9-0.5c-1.9-3.7-2.7-7.1-2.7-10.1c0-3.3,1-6.1,2.5-8c1.5-1.9,3.5-2.9,5.6-2.9c2.1,0,4.4,1,6.5,3.5
		  c2.1,2.5,4,6.4,5.2,12.2l1-0.2l-0.3-0.9c-4.5,1.5-9.2,3-12.9,4.1c-1.8,0.6-3.3,1-4.4,1.4s-1.7,0.5-1.7,0.5L247,250l0.9-0.5L247,250
		  l0.3,1c0,0,10-3,19-6l0.8-0.3l-0.2-0.9c-1.2-6-3.3-10.3-5.7-13.1c-2.4-2.8-5.2-4.2-8-4.2c-2.8,0-5.4,1.4-7.2,3.7
		  c-1.8,2.3-3,5.5-3,9.2c0,3.3,0.9,7.1,3,11l0.4,0.7l0.8-0.2L247,250z"/>
	   <path d="M228.7,259l0.8-0.6c-3.1-4.3-4.3-8.4-4.3-11.8c0-3,0.9-5.4,2.3-7.1c1.4-1.7,3.3-2.7,5.3-2.7c2,0,4.3,0.9,6.5,3.1
		  c2.3,2.2,4.5,5.7,6.4,10.9l0.9-0.3l-0.4-0.9c-4.3,2.1-8.8,4.2-12.2,5.9c-1.7,0.8-3.2,1.5-4.2,2c-1,0.5-1.6,0.8-1.6,0.8L228.7,259
		  l0.8-0.6L228.7,259l0.4,0.9c0,0,9.4-4.4,18-8.6l0.8-0.4l-0.3-0.8c-1.9-5.4-4.3-9.1-6.9-11.6c-2.6-2.5-5.3-3.6-7.9-3.6
		  c-2.7,0-5.2,1.3-6.9,3.4c-1.7,2.1-2.7,5-2.7,8.4c0,3.9,1.4,8.4,4.7,13l0.5,0.7l0.7-0.4L228.7,259z"/>
	  <path d="M211.2,271.7l0.7-0.7c-4.2-4.5-5.8-9.1-5.8-12.9c0-2.7,0.8-5,2.1-6.6c1.3-1.6,3.1-2.5,5.2-2.5c1.9,0,4.2,0.8,6.5,2.7
		  c2.4,1.9,4.8,5,7.1,9.6l0.9-0.5l-0.6-0.8c-3.9,2.6-8.1,5.3-11.3,7.4c-1.6,1-3,1.9-3.9,2.5c-1,0.6-1.5,0.9-1.5,0.9L211.2,271.7
		  l0.7-0.7L211.2,271.7l0.5,0.9c0,0,8.9-5.5,16.8-10.8l0.7-0.5l-0.4-0.8c-2.4-4.7-5-8-7.6-10.2c-2.6-2.2-5.3-3.2-7.8-3.2
		  c-2.7,0-5.1,1.2-6.7,3.2c-1.7,2-2.6,4.7-2.6,7.8c0,4.4,1.9,9.4,6.3,14.3l0.6,0.6l0.7-0.4L211.2,271.7z"/>
	   <path d="M197.5,287.2l0.5-0.8c-6.8-4.2-9.5-9.7-9.5-14c0-2.3,0.7-4.2,1.9-5.6c1.2-1.4,3-2.2,5.2-2.2c1.8,0,4,0.6,6.4,1.9
		 c2.4,1.4,5.1,3.5,7.9,6.6l0.7-0.7l-0.8-0.7c-3.1,3.5-6.4,7.2-9,10c-1.3,1.4-2.4,2.6-3.1,3.4c-0.8,0.8-1.2,1.3-1.2,1.3L197.5,287.2
		 l0.5-0.8L197.5,287.2l0.7,0.7c0,0,7.1-7.7,13.3-14.8l0.6-0.7l-0.6-0.7c-2.9-3.3-5.8-5.6-8.4-7c-2.7-1.5-5.1-2.2-7.4-2.2
		 c-2.8,0-5.1,1.1-6.7,2.9c-1.6,1.8-2.5,4.2-2.5,6.9c0,5.2,3.2,11.3,10.4,15.7l0.7,0.4l0.6-0.6L197.5,287.2z"/>
	   <path d="M186.3,304.2l0.4-0.9c-8.1-3.6-11.5-9.4-11.5-14c0-2.1,0.7-3.9,1.9-5.2c1.3-1.3,3.1-2.1,5.5-2.1c3.5,0,8.3,1.8,14.1,6.6
		 l0.6-0.8l-0.8-0.5c-2.6,4-5.4,8.1-7.5,11.2c-1.1,1.6-2,2.9-2.6,3.8c-0.6,0.9-1,1.4-1,1.5L186.3,304.2l0.4-0.9L186.3,304.2l0.8,0.6
		 c0,0,5.9-8.5,11.1-16.5l0.5-0.7l-0.7-0.6c-6-5-11.2-7-15.3-7c-2.9,0-5.3,1-7,2.7c-1.6,1.7-2.5,4.1-2.5,6.6c0,5.5,4,12,12.6,15.8
		 l0.8,0.3l0.5-0.7L186.3,304.2z"/>
	 <path d="M177.7,324l0.3-1c-9.2-2.8-13.2-8.8-13.2-13.6c0-2,0.7-3.8,2-5.1c1.3-1.3,3.3-2.1,6-2.1c3.4,0,7.8,1.3,13.3,4.8l0.5-0.8
		 l-0.9-0.4c-2.1,4.3-4.3,8.7-6.1,12.1c-0.9,1.7-1.6,3.1-2.1,4.1c-0.5,1-0.8,1.6-0.8,1.6L177.7,324l0.3-1L177.7,324l0.9,0.5
		 c0,0,4.8-9.2,9-17.8l0.4-0.8l-0.8-0.5c-5.7-3.6-10.5-5.1-14.4-5.1c-3.1,0-5.7,1-7.4,2.7c-1.7,1.7-2.6,4-2.6,6.5
		 c0,5.8,4.8,12.5,14.6,15.5l0.8,0.2l0.4-0.7L177.7,324z"/>
	<path d="M173.2,344.1l0-1c-5.5-0.2-9.7-1.8-12.4-4.1c-2.7-2.3-4.1-5.1-4.1-7.6c0-2,0.8-3.8,2.5-5.2c1.7-1.4,4.3-2.3,8-2.3
		 c2.7,0,6,0.5,9.8,1.7l0.3-1l-1-0.2c-0.9,4.6-2,9.5-2.8,13.2c-0.4,1.9-0.7,3.4-1,4.5c-0.2,1.1-0.4,1.7-0.4,1.7L173.2,344.1l0-1
		 L173.2,344.1l1,0.2c0,0,2.2-10.2,4.1-19.5l0.2-0.9l-0.9-0.3c-4-1.3-7.5-1.8-10.4-1.8c-4,0-7.1,1-9.2,2.8c-2.1,1.7-3.2,4.2-3.2,6.7
		 c0,3.2,1.7,6.6,4.8,9.2c3.1,2.6,7.7,4.4,13.6,4.6l0.8,0l0.2-0.8L173.2,344.1z"/>
	 </g>

      <!-- contour mandala -->
<g stroke="red"  stroke-width="1" stroke-linecap="round" stroke-linejoin="round">
	  <path d="M301.7,213c4.3,0,8.4,3.4,9.5,10.8c0.1,0.4,0.4,0.8,0.9,0.9c0.2,0,0.4,0.1,0.7,0.1h0.1c0.4,0,0.7-0.2,0.9-0.6
		c2.6-5.4,7.1-8.2,11.1-8.2c4.9,0,9.3,4.2,9,12.8c0,0.5,0.3,0.9,0.7,1c0.6,0.2,1.1,0.4,1.7,0.5c0.1,0,0.2,0,0.3,0
		c0.3,0,0.6-0.1,0.8-0.4c3.3-4,7.3-5.9,10.9-5.9c5.8,0,10.4,5,8.2,13.9c-0.1,0.5,0.1,0.9,0.5,1.1s0.9,0.5,1.3,0.7
		c0.1,0.1,0.3,0.1,0.5,0.1c0.3,0,0.5-0.1,0.7-0.3c3.3-3.1,6.9-4.5,10.1-4.5c6.7,0,11.6,6.1,7.3,15.8c-0.2,0.4-0.1,0.9,0.3,1.2
		c0.1,0.1,0.2,0.1,0.3,0.2c0.2,0.1,0.4,0.2,0.6,0.2c0.2,0,0.4-0.1,0.6-0.2c3-2.1,6.2-3.1,9-3.1c7.7,0,12.9,7.2,6.3,17.3
		c-0.3,0.4-0.2,0.9,0.1,1.2c0.3,0.3,0.5,0.6,0.8,0.9c0.4,0.4,0.7,0.8,1.1,1.2c0.2,0.2,0.5,0.3,0.7,0.3c0.1,0,0.2,0,0.4-0.1
		c2-0.7,4-1.1,5.8-1.1c9.3,0,14.8,8.7,6.5,17.5c-0.3,0.3-0.4,0.8-0.1,1.2c0.1,0.2,0.2,0.3,0.3,0.5c0.2,0.3,0.4,0.6,0.6,0.9
		c0.2,0.3,0.5,0.5,0.9,0.5c0.1,0,0.2,0,0.2,0c1.4-0.3,2.7-0.5,4-0.5c11,0,16.7,11,4.7,19.5c0.1,0.3,0.3,0.7,0.4,1
		c0.1,0.3,0.2,0.5,0.3,0.8c0.8-0.1,1.6-0.1,2.4-0.1c12.7,0,18.4,12.9,4.4,20.1c-0.4,0.2-0.6,0.7-0.5,1.1c0.1,0.3,0.1,0.5,0.2,0.8
		c0,0.1,0,0.1,0,0.2c0.1,0.4,0.2,0.8,0.2,1.2c14.3,1.7,18.2,16.8,3.2,20.7c-0.5,0.1-0.8,0.5-0.8,1s0,0.9,0,1.4
		c0,0.4,0.3,0.8,0.7,0.9c13.4,4,14.8,19.3-1.2,20.8c-0.5,0-0.8,0.4-0.9,0.9c0,0.1,0,0.2,0,0.3c-0.1,0.4,0.2,0.9,0.6,1
		c12.1,5.7,11.7,20-2.7,20.4c-0.6,1.5-0.6,1.6-1.2,3.1c7.9,7.6,5.4,18.5-4.9,18.5c-1.3,0-2.8-0.2-4.4-0.6c-0.1,0-0.2,0-0.3,0
		c-0.4,0-0.7,0.2-0.9,0.5c-0.2,0.4-0.4,0.8-0.7,1.2c-0.2,0.4-0.1,0.9,0.2,1.2c8.1,8.2,5.2,19.2-4.3,19.2c-2,0-4.4-0.5-6.9-1.6
		c-0.1-0.1-0.3-0.1-0.4-0.1c-0.3,0-0.6,0.1-0.8,0.4c0,0.1-0.1,0.1-0.1,0.2c-0.3,0.4-0.3,0.8,0,1.2c6.3,8.7,2.9,18.5-5.4,18.5
		c-2.5,0-5.4-0.9-8.7-3c-0.2-0.1-0.4-0.2-0.6-0.2c-0.2,0-0.5,0.1-0.7,0.3c-0.4,0.3-0.7,0.7-1.1,1c-0.3,0.3-0.4,0.7-0.2,1.1
		c3.7,9.2-0.7,17.1-7.5,17.1c-2.7,0-5.8-1.3-8.9-4.3c-0.2-0.2-0.5-0.3-0.7-0.3s-0.4,0.1-0.5,0.2c-0.4,0.3-0.8,0.5-1.2,0.8
		c-0.4,0.2-0.5,0.7-0.4,1.1c2.1,8.9-2.5,15.7-8.6,15.7c-3.1,0-6.6-1.8-9.8-6c-0.2-0.3-0.5-0.4-0.8-0.4c-0.1,0-0.3,0-0.4,0.1
		c-0.1,0.1-0.3,0.1-0.4,0.2c-0.4,0.2-0.6,0.6-0.6,1c0.6,8.3-4.1,14-9.6,14c-3.5,0-7.2-2.3-10.1-7.7c-0.2-0.3-0.5-0.5-0.9-0.5
		c-0.1,0-0.1,0-0.2,0c-1.1,0.2-2.1,0.5-3.2,0.7c-0.4,0.1-0.7,0.4-0.8,0.8c-1.4,6.8-6.1,10.8-10.7,10.8c-3.7,0-7.3-2.5-9.3-8.2
		c-0.1-0.4-0.5-0.7-0.9-0.7c-0.7,0-1.4,0.1-2.1,0.1c-0.4,0-0.8,0.3-0.9,0.7c-2.1,6.1-6.7,9.5-11,9.5c-4.3,0-8.3-3.3-9.4-10.5
		c-0.1-0.4-0.4-0.8-0.9-0.9c-0.3,0-0.6-0.1-0.8-0.1h-0.1c-0.4,0-0.7,0.2-0.9,0.6c-2.7,5.3-7,8-11,8c-4.9,0-9.2-4-9-12.5
		c0-0.4-0.3-0.8-0.7-1c-0.6-0.2-1.3-0.4-1.9-0.6c-0.1,0-0.2,0-0.3,0c-0.3,0-0.6,0.1-0.8,0.4c-3.2,3.8-7.2,5.6-10.6,5.6
		c-5.7,0-10.2-4.8-8.3-13.5c0.1-0.4-0.1-0.9-0.5-1.1c-0.5-0.3-1.1-0.6-1.6-0.8c-0.1-0.1-0.3-0.1-0.5-0.1c-0.2,0-0.5,0.1-0.7,0.3
		c-3.2,2.9-6.7,4.2-9.8,4.2c-6.6,0-11.4-5.9-7.5-15.4c0.2-0.4,0.1-0.9-0.3-1.2c-0.2-0.1-0.3-0.3-0.5-0.4c-0.2-0.1-0.4-0.2-0.6-0.2
		c-0.2,0-0.4,0.1-0.6,0.2c-2.9,1.9-5.9,2.8-8.6,2.8c-7.6,0-12.7-7-6.6-16.8c0.2-0.4,0.2-0.9-0.1-1.2c-0.3-0.3-0.6-0.7-0.9-1
		c-0.2-0.2-0.5-0.3-0.7-0.3c-0.1,0-0.3,0-0.4,0.1c-2.2,0.9-4.4,1.3-6.3,1.3c-9.3,0-14.8-8.7-6.3-17.7c0.3-0.3,0.4-0.8,0.1-1.2
		c-0.3-0.4-0.5-0.8-0.8-1.2c-0.2-0.3-0.5-0.5-0.8-0.5c-0.1,0-0.2,0-0.3,0c-1.6,0.4-3.2,0.6-4.6,0.6c-10.8,0-16.5-10.7-5-19.2
		c0.4-0.3,0.5-0.8,0.3-1.2c0,0,0-0.1-0.1-0.1c-0.2-0.4-0.5-0.6-0.9-0.6H166c-0.8,0.1-1.6,0.1-2.3,0.1c-12.6,0-18.3-13-4-20.2
		c0.4-0.2,0.6-0.7,0.5-1.1c-0.1-0.4-0.2-0.8-0.3-1.2c-0.1-0.4-0.4-0.7-0.9-0.8c-14.3-1.6-18.2-16.8-2.8-20.8c0.5-0.1,0.8-0.5,0.8-1
		c0-0.4,0-0.7,0-1.1c0-0.5-0.3-0.8-0.8-0.9c-14.1-3.5-15.8-19.5,0.9-21c0.5,0,0.9-0.4,0.9-0.9c0.1-0.5-0.2-0.9-0.6-1.1
		c-12.9-5.4-12.7-20.7,2.8-20.7c0.5,0,1.1,0,1.6,0.1c0,0,0,0,0.1,0c0.4,0,0.8-0.3,1-0.7c0.1-0.4,0.3-0.8,0.4-1.2
		c0.1-0.4,0-0.8-0.3-1.1c-9.7-7.6-7.6-19.9,3.4-19.9c1.3,0,2.8,0.2,4.4,0.6c0.1,0,0.2,0,0.3,0c0.4,0,0.7-0.2,0.9-0.5
		c0.2-0.4,0.4-0.9,0.7-1.3c0.2-0.4,0.1-0.8-0.2-1.2c-7.9-8.2-5-19.1,4.4-19.1c2,0,4.2,0.5,6.7,1.5c0.1,0.1,0.3,0.1,0.4,0.1
		c0.3,0,0.6-0.1,0.8-0.4c0.1-0.1,0.2-0.2,0.3-0.3c0.3-0.3,0.3-0.8,0-1.2c-6-8.7-2.5-18.2,5.6-18.2c2.4,0,5.2,0.8,8.3,2.7
		c0.2,0.1,0.4,0.2,0.5,0.2c0.2,0,0.5-0.1,0.7-0.3c0.4-0.4,0.9-0.8,1.3-1.2c0.3-0.3,0.4-0.7,0.3-1.1c-3.3-8.9,1.1-16.6,7.7-16.6
		c2.6,0,5.5,1.2,8.4,3.9c0.2,0.2,0.4,0.3,0.7,0.3c0.2,0,0.4-0.1,0.5-0.2c0.5-0.3,1.1-0.7,1.6-1c0.4-0.2,0.5-0.6,0.4-1.1
		c-1.7-8.5,2.9-15,8.8-15c3,0,6.2,1.6,9.3,5.4c0.2,0.2,0.5,0.4,0.8,0.4c0.1,0,0.3,0,0.4-0.1c0.3-0.1,0.6-0.3,0.9-0.4
		c0.4-0.2,0.6-0.5,0.6-1c-0.2-7.8,4.4-13.1,9.7-13.1c3.3,0,6.8,2,9.6,6.8c0.2,0.3,0.5,0.5,0.9,0.5c0.1,0,0.1,0,0.2,0
		c1.4-0.3,2.8-0.6,4.2-0.9c0.4-0.1,0.7-0.4,0.8-0.8c1.4-6.9,6.1-10.9,10.7-10.9c3.7,0,7.4,2.6,9.4,8.4c0.1,0.4,0.5,0.7,1,0.7
		c0.7,0,1.3,0,2-0.1c0.4,0,0.8-0.3,0.9-0.7C292.7,216.4,297.3,213,301.7,213 M301.7,211c-5.4,0-10.4,4.2-12.7,10.4
		c-0.2,0-0.4,0-0.6,0c-2.1-5.7-6.2-9.1-11-9.1c-5.8,0-10.9,4.8-12.5,11.9c-1,0.2-1.9,0.4-2.9,0.6c-2.9-4.6-6.8-7.2-11-7.2
		c-2.8,0-5.5,1.2-7.6,3.3c-2.6,2.6-4,6.4-4.1,10.6c-3-3.3-6.5-5.2-10-5.2c-3.1,0-5.9,1.4-8,3.9c-2.7,3.2-3.7,7.8-2.9,12.8
		c-0.1,0.1-0.3,0.2-0.4,0.3c-3-2.6-6.1-3.9-9.2-3.9c-3.4,0-6.4,1.6-8.4,4.5c-2.6,3.7-3.1,9-1.4,14.1c-0.1,0.1-0.2,0.2-0.3,0.3
		c-3-1.7-5.9-2.6-8.7-2.6c-4.1,0-7.5,2-9.3,5.5c-2.1,4-1.7,9.1,0.8,13.9c-1.9-0.6-3.6-0.9-5.3-0.9c-4.6,0-8.4,2.3-10.1,6.3
		c-2,4.8-0.6,10.9,3.7,15.7c-1.4-0.3-2.8-0.5-4.1-0.5c-5.3,0-9.4,2.6-11,7c-1.8,5.2,0.4,11.3,5.6,15.8c-0.2,0-0.5,0-0.7,0
		c-8.9,0-13,4.6-13.9,9c-1.1,5.3,2,10.8,7.5,14.1c-7.4,1.6-10.4,6.2-10.7,10.3c-0.5,6,4.1,11.5,11.2,13.8c-7.7,2.5-10.2,7.7-9.9,12
		c0.4,6,5.8,10.9,13.3,12.2c-6.4,3.6-9.5,8.8-8.2,14.1c1.3,5.5,6.9,9.2,13.9,9.3c-4.2,4-5.9,8.7-4.5,13c1.6,4.8,6.6,8,12.8,8
		c1.4,0,2.9-0.2,4.3-0.5c-4,4.5-5.2,9.4-3.4,13.6c1.8,4.2,6.3,6.8,11.7,6.8c2.1,0,4.3-0.4,6.4-1.2c-4,6.9-2.5,11.6-1.3,13.8
		c1.9,3.4,5.6,5.4,10,5.4c2.7,0,5.4-0.7,8-2.2c-1.5,4.6-1.1,8.7,0.9,11.8c1.9,2.9,5.3,4.6,9.1,4.6c3.6,0,7.4-1.5,10.6-4.2
		c0.1,0.1,0.2,0.1,0.3,0.2c-0.9,4.5-0.1,8.5,2.1,11.3c2,2.5,4.9,3.8,8.3,3.8c4.2,0,8.4-2.1,11.7-5.8c0.2,0.1,0.4,0.1,0.6,0.2
		c0.1,5.8,2.1,9,3.8,10.8c1.9,1.9,4.5,3,7.2,3c4.7,0,9.2-2.9,12.1-7.7c1.8,7.8,6.8,10.7,11.1,10.7c5.4,0,10.3-4,12.6-10.2
		c0.2,0,0.5,0,0.7,0c2.1,5.6,6.2,8.9,10.9,8.9c5.8,0,10.8-4.8,12.5-11.8c0.6-0.1,1.3-0.3,1.9-0.4c4,7,8.9,8.1,11.5,8.1
		c2.9,0,5.6-1.3,7.8-3.6c2.4-2.6,3.8-6.3,3.9-10.4c3,3.3,6.5,5.1,10,5.1c3.2,0,6.1-1.5,8.2-4.1c2.7-3.4,3.6-8.3,2.6-13.4
		c3.1,2.8,6.5,4.3,9.7,4.3c3.4,0,6.5-1.7,8.5-4.6c2.6-3.9,3-9.3,1-14.6c3.2,1.9,6.2,2.9,9.1,2.9c4.1,0,7.6-2,9.4-5.6
		c2-4,1.7-9.1-0.9-13.8c1.8,0.6,3.6,0.9,5.3,0.9c4.7,0,8.5-2.4,10.1-6.3c2-4.8,0.5-10.9-3.8-15.7c1.4,0.3,2.8,0.4,4.1,0.4
		c5.1,0,9.1-2.4,10.8-6.6c1.8-4.5,0.4-10-3.5-14.4l0.1-0.3l0.1-0.3c7.4-0.6,10.9-4.9,11.7-8.8c1.1-5.2-1.9-10.7-7.3-14.2
		c7.4-1.5,10.5-6.1,10.8-10.1c0.6-5.9-3.9-11.6-11-14c7.9-2.4,10.4-7.7,10.1-12c-0.4-5.9-5.7-10.8-13-12.2c6.5-3.5,9.6-8.8,8.3-14.1
		c-1.3-5.4-6.9-9.2-13.7-9.4c4.3-3.9,6-8.6,4.7-13c-1.6-5-6.6-8.2-13-8.2c-1.2,0-2.5,0.1-3.7,0.4c0-0.1-0.1-0.1-0.1-0.2
		c3.9-4.4,5.1-9.3,3.3-13.5c-1.8-4.2-6.3-6.8-11.8-6.8c-1.9,0-3.9,0.3-5.9,1c-0.2-0.2-0.4-0.5-0.7-0.7c-0.1-0.1-0.2-0.2-0.3-0.3
		c4.3-7,2.9-11.9,1.6-14.2c-1.9-3.4-5.6-5.5-10.1-5.5c-2.7,0-5.4,0.7-8,2.2c1.4-4.5,1.2-8.6-0.9-11.7c-1.9-3-5.3-4.7-9.1-4.7
		c-3.8,0-7.7,1.6-11,4.5c1-4.7,0.3-8.8-1.9-11.7c-2-2.5-4.9-3.9-8.3-3.9c-4.3,0-8.6,2.2-12,6.1c-0.1,0-0.2-0.1-0.3-0.1
		c0-5.9-2-9.3-3.8-11.1c-1.9-2-4.5-3.1-7.3-3.1c-4.7,0-9.2,2.9-12.1,7.7C311,213.8,306,211,301.7,211z"/>
		</g>
		<!-- contour mandala -->



</g>
</svg>
