<svg height="600px" xmlns="http://www.w3.org/2000/svg" xmlns:xlink="http://www.w3.org/1999/xlink" x="0px" y="0px"
	 viewBox="0 0 600 600" style="enable-background:new 0 0 600 600;" xml:space="preserve">
	<g>
				<!-- forme centralle -->
				<g fill="none" stroke="#000000" stroke-width="2" stroke-miterlimit="10" >
				 <path  d="M297,119c24,11,31-22.9,6.3-26.9c-7.7-1.3-12.7,5.5-15.3,11.9l-0.2,112"/>
				 <path  d="M301,110c5.3,4.4,13-1,7.7-6.9c-1.4-1.5-3.5-2.5-5.5-2.2c-9.4,1.6-7.8,19.2-7.5,25.7c1.4,28.1,2.8,56.2,4.3,84.2c0,0.7,0.1,1.4,0.1,2.1"/>
				<path  d="M305.2,81.5c15.3,0,24.3,11.6,24.3,26s-12,31-33,25"/>
				</g>
					<g fill="none" stroke="#000000" stroke-width="1" stroke-miterlimit="10">
				   <line  x1="298.5" y1="83.5" x2="298.5" y2="91.5"/>
				   <line  x1="308.5" y1="82.5" x2="305.5" y2="91.5"/>
				   <line  x1="312.5" y1="82.5" x2="308.5" y2="92.5"/>
				   <line  x1="319.5" y1="85.5" x2="312.5" y2="94.5"/>
				   <line  x1="325.5" y1="91.5" x2="315.5" y2="97.5"/>
				   <line  x1="328.5" y1="100.5" x2="318.5" y2="104.5"/>
				   <line  x1="329.5" y1="109.5" x2="318.5" y2="109.5"/>
				   <line  x1="326.5" y1="118.5" x2="317.5" y2="113.5"/>
				   <line  x1="322.5" y1="126.5" x2="315.5" y2="118.5"/>
				   <line  x1="315.5" y1="130.5" x2="313.5" y2="119.5"/>
				   <line  x1="310.5" y1="132.5" x2="308.5" y2="120.5"/>
				   <line  x1="304.5" y1="133.5" x2="303.5" y2="120.5"/>
				   <line  x1="300.5" y1="132.5" x2="299.5" y2="121.5"/>
				</g>
					<!-- forme centralle -->
				<!-- line orpheline -->
				<g fill="none" stroke="#000000" stroke-width="2" stroke-miterlimit="10">
			   <path d="M286.5,121.5c-1.3-20.1-2.6-45.3,0-52.4c2.6-7.2,13.5-8,18.8-2.7c5.4,5.4,3.2,17.6-6.3,17.2
				   c-7.1-0.3-8.1-12-0.8-10.9"/>
			   </g>
			   <!-- line orpheline -->

				<!-- Forme 03 -->
					<g fill="none" stroke="#000000" stroke-width="2" stroke-miterlimit="10">
							<path  d="M288,224c-1-31-3-168-4-185c-0.6-9.8,8.7-12.9,16.5-8.4c11.3,6.6-0.7,23.4-7.5,14.4"/>
			   				<path  d="M277,213c-2-29-7-168-6-191c0.6-13.5,19.2-17.5,29.7-14.3c15.5,4.7,21.6,21.9,16.3,36.5
			   			c-5.3,14.7-19.6,17.2-32.6,10.4"/>
					</g>
					<!-- Forme 03 -->
								<!-- forme 02 -->
			  <g fill="none" stroke="#000000" stroke-width="2" stroke-miterlimit="10">
				 <path  d="M271.4,63.5C258,45,233,58,235,76c1,9,8.4,17.9,29.2,16"/>
				 <path  d="M268,216c-0.9-26.1-1.7-52.3-2.6-78.4c-0.6-17.7-0.6-35.6-1.5-53.3c-0.3-4.7-2.8-19.8-10.6-15.6c-8.3,4.5-5.3,13.7,3.8,13.2"/>
			 </g>
		                  	 <!-- forme 02 -->
				 		<!-- forme 01 -->
                 <g fill="none" stroke="#000000" stroke-width="2" stroke-miterlimit="10">
			    <path  d="M249.5,217.5c0-20-1-36-1-42c0-2.6-2.1-4.8-4.8-4.8c-5.5,0.1-3.4,10.1,0.8,8.6"/>
				<path  d="M263.5,224.5c-0.6-15.8-0.4-31.6-1.1-47.3c-0.2-4.6-1.4-9.4-5-12.3c-2-1.6-4.5-2.4-7.1-2.6c-3.1-0.2-6.2,0.6-8.8,2.2c-12.8,7.9-9,29.4,7.9,26"/>
			    </g>
		     	<g fill="none" stroke="#000000" stroke-miterlimit="10">
			    <line  x1="269" y1="217.5" x2="263.5" y2="217.5"/>
  				<line  x1="268" y1="211.5" x2="263.5" y2="211.5"/>
  				<line  x1="267.5" y1="204.5" x2="263.5" y2="204.5"/>
  			 	<line  x1="266.5" y1="198.5" x2="263.5" y2="198.5"/>
  				<line  x1="267.5" y1="192.5" x2="263" y2="192.5"/>
  				<line  x1="267.5" y1="186.5" x2="262.5" y2="186.5"/>
  				<line  x1="267" y1="179.5" x2="263" y2="179.5"/>
  				<line  x1="261.5" y1="174.5" x2="266.5" y2="174.5"/>
  				<line  x1="260.5" y1="170.5" x2="266.5" y2="170.5"/>
  				<line  x1="259.5" y1="166.5" x2="265.5" y2="166.5"/>
  				<path  d="M266.5,166.5c0,0-7-4-14-4"/>
			    </g>
		</g>
				      <!-- forme 01 -->

					  
</svg>
