<svg height="600px" xmlns="http://www.w3.org/2000/svg" xmlns:xlink="http://www.w3.org/1999/xlink" x="0px" y="0px"
	 viewBox="0 0 600 600" style="enable-background:new 0 0 600 600;" xml:space="preserve">
<!-- Branches -->
<g>
		 <g display="inline" stroke="#000000" stroke-width="1" stroke-linecap="round" stroke-linejoin="round" stroke-miterlimit="10" >
			<path d="M138.5,104.5c1.1,1.9,2.2,3.8,2.8,6c0.2,1.1,0.2,2.4,0,3.5c-0.1,0.6-0.3,1.1-0.5,1.7c-0.1,0.3-0.2,0.5-0.3,0.8l-0.2,0.4
				l-0.1,0.3c-0.2,0.8-0.1,1.7,0.3,2.7c0.3,0.9,0.8,1.8,1.4,2.7c1.1,1.7,2.4,3.5,3.8,5l0.1,0.1l0.1,0.2c1.4,3,2.9,5.9,4.3,8.9
				l4.3,8.9l-0.3-0.5c2.8,3.2,5.6,6.4,8.4,9.6c2.8,3.2,5.6,6.4,8.3,9.6c2.9,3.1,5.8,6.1,8.8,9.2l8.7,9.3l0.2,0.2l0.1,0.3
				c2.8,5.2,5.4,10.5,8.1,15.7l0.5,1l0.1,0.2l0.1,0.1c0,0,0.1,0.2,0,0c0-0.1-0.1-0.2-0.2-0.2c-0.1-0.1-0.1-0.1-0.1-0.1l0,0
				c0.3,0.2,1,0.6,1.6,0.8c1.3,0.6,2.6,1.1,3.9,1.6c2.7,1.1,5.5,2,8.2,3c2.8,1,5.5,2,8.3,3l2.1,0.8c0.4,0.1,0.7,0.3,1.1,0.5
				c0.2,0.1,0.4,0.2,0.6,0.3c0.1,0,0.2,0.1,0.3,0.2l0.1,0.1l0,0c0,0,0.1,0,0.1,0.1c0.4,0.3,1.1,0.7,1.7,1.1l1.9,1.1
				c5.1,2.9,10.3,5.7,15.4,8.7c-5.5-2.1-10.9-4.3-16.3-6.8l-2-0.9c-0.7-0.3-1.3-0.6-2.1-1.1l-0.4-0.3l-0.1-0.1l0,0l0.1,0.1l-0.4-0.2
				c-0.3-0.1-0.6-0.2-1-0.3l-2.1-0.6c-2.8-0.8-5.6-1.6-8.5-2.4c-2.8-0.8-5.7-1.7-8.5-2.6c-1.4-0.5-2.8-0.9-4.3-1.5
				c-0.7-0.3-1.4-0.6-2.4-1.2c-0.1-0.1-0.3-0.2-0.4-0.3c0,0-0.2-0.2-0.3-0.3s-0.2-0.3-0.3-0.4l-0.3-0.6l-0.5-1
				c-2.8-5.1-5.7-10.2-8.4-15.4l0.4,0.5l-8.8-9.2c-2.9-3.1-5.8-6.2-8.7-9.4c-2.8-3.3-5.5-6.5-8.2-9.9c-2.7-3.3-5.4-6.6-8.1-9.9
				l-0.2-0.3l-0.1-0.2l-3.7-9.1c-1.3-3-2.5-6.1-3.7-9.1l0.2,0.4c-1.4-1.8-2.7-3.7-3.7-5.8c-0.5-1-0.9-2.1-1.2-3.3
				c-0.3-1.2-0.4-2.5,0.1-3.8l0.2-0.5l0.2-0.4c0.1-0.2,0.3-0.5,0.4-0.7c0.2-0.5,0.4-0.9,0.6-1.4c0.4-1,0.5-2,0.4-3
				C140.1,108.6,139.3,106.5,138.5,104.5z"/>

			<path d="M160.5,112.5c1.1,1.4,2,2.9,2.8,4.5c0.7,1.7,1.2,3.5,1.2,5.5s-0.5,3.9-1.3,5.6c-0.7,1.7-1.7,3.3-2.6,4.7l-0.2-3
				c1.7,2,2.6,4.2,3.2,6.4c0.6,2.2,0.9,4.4,0.9,6.6c0.1,2.2-0.1,4.3-0.4,6.4c-0.3,2.1-0.8,4.2-1.6,6.2c-0.4-2.1-0.7-4.2-1-6.2
				s-0.7-4-1.1-6c-0.4-1.9-0.8-3.8-1.5-5.6c-0.6-1.7-1.4-3.4-2.4-4.6l-1.2-1.5l1-1.5c0.9-1.4,1.9-2.7,2.6-4c0.8-1.3,1.3-2.6,1.7-4
				c0.3-1.4,0.4-2.9,0.3-4.6C161,115.9,160.7,114.2,160.5,112.5z"/>

			<path d="M171.5,171.5c-0.8,0.4-1.5,0.8-2.3,1.2s-1.6,0.7-2.5,1c-0.9,0.2-1.9,0.4-3,0.3c-1.1-0.1-2.2-0.6-3.1-1.2
				c-1.8-1.3-2.8-3.1-3.6-4.7l-2.1-4.4c-0.7-1.4-1.3-2.6-2.1-3.6s-1.9-1.7-3.2-2.5l-1-0.5c-0.4-0.2-0.8-0.4-1.2-0.6
				c-0.8-0.4-1.5-1-2.2-1.5c-0.7-0.6-1.3-1.3-1.8-2s-0.9-1.6-1-2.5c1.2,1.2,2.7,1.8,4.1,2.4c0.7,0.2,1.5,0.4,2.2,0.6
				c0.4,0.1,0.8,0.2,1.1,0.2c0.4,0.1,0.9,0.2,1.3,0.3c1.8,0.5,3.6,1.4,5.1,2.8c0.8,0.7,1.4,1.5,1.9,2.3s1,1.6,1.3,2.4
				c0.8,1.6,1.4,3.1,1.9,4.7c0.5,1.4,1,2.7,1.8,3.6c0.4,0.4,0.7,0.7,1.3,1c0.5,0.3,1.2,0.4,2,0.5C168,171.4,169.8,171.3,171.5,171.5
				z"/>

					<path d="M127.5,148.5c1.7,0,3.3,0.3,4.9,0.6c1.6,0.4,3.1,0.8,4.5,1.4c1.5,0.5,2.9,1.3,4.3,2c1.3,0.6,2.7,1.2,4.4,1.5
						c-1.5,0.9-3.3,1-5,0.8c-1.6-0.3-3.1-0.8-4.6-1.4c-1.5-0.6-2.9-1.2-4.4-2C130.1,150.5,128.8,149.6,127.5,148.5z"/>

					<path d="M144.5,128.5c0.3,1.1,0.3,2.2,0.1,3.2s-0.6,2-1.1,2.9s-1.2,1.8-2,2.5s-1.8,1.3-3,1.4c0.4-1.1,0.8-2,1.2-2.8
						c0.4-0.9,0.8-1.7,1.2-2.5s0.9-1.6,1.5-2.4S143.6,129.3,144.5,128.5z"/>

					<path d="M169.5,164.5c0.6-1.4,1-2.7,1.4-4c0.3-1.3,0.6-2.5,0.8-3.8s0.3-2.6,0.4-3.9c0.1-0.7,0.1-1.4,0.2-2.1
						c0.1-0.7,0.1-1.4,0.3-2.2c0.5,0.6,0.8,1.3,1.2,1.9c0.3,0.7,0.6,1.4,0.7,2.1c0.3,1.5,0.4,3,0.2,4.6c-0.2,1.5-0.8,3-1.6,4.4
						C172.1,162.8,171,164,169.5,164.5z"/>

					<path d="M178.5,131.5c2.4,2.4,4.5,5,6.6,7.7c1,1.4,2,2.7,3,4.1c0.5,0.7,0.9,1.4,1.4,2.2l0.2,0.3c0.1,0.1,0.1,0.3,0.2,0.4
						c0.1,0.3,0.2,0.5,0.3,0.8c0.1,0.5,0.2,1,0.2,1.5c0.2,3.7-0.4,7-1.1,10.4c-0.7,3.3-1.6,6.6-2.7,9.8v-0.3c0,0.9-0.1,1.8-0.2,2.7
						c-0.1,0.9-0.1,1.8-0.2,2.7c-0.2,1.8-0.4,3.7-0.6,5.5c-0.3-1.8-0.5-3.7-0.6-5.5c-0.1-0.9-0.2-1.8-0.2-2.7
						c-0.1-0.9-0.2-1.8-0.2-2.7v-0.1v-0.2c0.7-3.3,1.3-6.6,1.9-9.8c0.3-1.6,0.6-3.3,0.8-4.9c0.2-1.6,0.4-3.3,0.3-4.8
						c0-0.4,0-0.7-0.1-1c0-0.1-0.1-0.3-0.1-0.4l-0.1-0.2l-0.1-0.3c-0.3-0.7-0.7-1.4-1.2-2.1c-0.8-1.4-1.7-2.9-2.5-4.3
						C181.8,137.4,180.1,134.5,178.5,131.5z"/>

					<path d="M179.5,156.5c1.2,0.7,2,1.8,2.7,2.9c0.7,1.1,1.2,2.3,1.5,3.6s0.4,2.4,0.6,3.5c0.1,0.5,0.2,1.1,0.4,1.6s0.3,1,0.9,1.5
						c-0.7,0.3-1.5-0.2-2.1-0.6c-0.6-0.5-1-1-1.4-1.6c-0.7-1.2-1-2.6-1.3-3.6c-0.3-1.1-0.5-2.3-0.7-3.4
						C179.8,159.1,179.6,157.9,179.5,156.5z"/>

					<path d="M181.5,125.5c4.6,2.3,8.5,6.1,11.4,10.6c1.4,2.2,2.6,4.5,4,6.5c1.3,1.9,3,3.8,4.8,5.6l2.7,2.7c0.5,0.5,0.9,0.9,1.4,1.4
						s0.9,1,1.4,1.7l0.2,0.3c0.1,0.1,0.1,0.2,0.1,0.2l0.2,0.2c0.2,0.2,0.3,0.4,0.5,0.7l1.1,1.4l2.4,2.9c0.8,1,1.6,2,2.5,3
						c0.4,0.5,0.8,1,1.2,1.6c0.2,0.3,0.4,0.6,0.6,0.9l0.2,0.2l0.2,0.3l0.2,0.3c0.1,0.3,0.3,0.7,0.3,1.1c0,0.1,0,0.2,0,0.3v0.1v0.2v0.4
						l-0.1,0.5l-0.1,1l-0.2,1.9c-0.1,1.2-0.3,2.5-0.3,3.7c-0.1,1.2-0.1,2.4-0.1,3.5c0.1,1.1,0.3,2.2,0.5,2.5c0.8,1.3,1.3,2.5,1.9,3.6
						c0.6,1.1,1.1,2.2,1.7,3.2c1.2,2.1,2.6,4,4.2,5.6c0.8,0.8,1.7,1.5,2.6,2.2c0.5,0.3,0.9,0.6,1.5,0.9c0.5,0.3,1.1,0.6,1.6,0.8
						c2.2,1.1,4.5,1.8,7,2.7c1.2,0.4,2.5,0.9,3.7,1.6c1.2,0.7,2.4,1.5,3.4,2.6c1.9,2.1,3,4.7,3.6,7.2c0.6,2.6,0.8,5.2,0.6,7.8
						c-0.2-1.3-0.4-2.5-0.7-3.8c-0.3-1.2-0.7-2.4-1.2-3.6c-0.5-1.1-1-2.3-1.7-3.3s-1.4-1.9-2.3-2.6c-1.7-1.5-3.9-2.2-6.4-2.8
						c-2.4-0.6-5-1.3-7.6-2.3c-0.6-0.2-1.2-0.5-1.9-0.8c-0.6-0.3-1.3-0.6-1.9-1c-1.2-0.7-2.4-1.6-3.4-2.5c-2.1-1.9-3.8-4.1-5.3-6.4
						c-0.7-1.1-1.4-2.3-2-3.5c-0.6-1.1-1.2-2.3-1.7-3.1l-0.2-0.3l-0.2-0.4c-0.1-0.2-0.3-0.5-0.3-0.7c-0.1-0.4-0.3-0.9-0.4-1.3
						c-0.2-0.8-0.2-1.5-0.3-2.3c-0.1-1.4,0-2.8,0-4.1c0.1-1.3,0.2-2.7,0.4-4l0.2-1.9l0.1-0.9l0.1-0.4v-0.1l0,0l0,0c0,0,0,0.1,0,0.2
						c0,0.2,0.1,0.5,0.2,0.6l-0.1-0.1v-0.1l0.2,0.1c-0.1-0.2-0.3-0.4-0.5-0.7c-0.3-0.5-0.7-1-1.1-1.5l-2.3-3l-2.4-3.1
						c-0.4-0.5-0.8-1-1.2-1.6c-0.2-0.3-0.4-0.6-0.6-0.9c-0.1-0.2-0.2-0.4-0.3-0.6l-0.1-0.2v-0.1c-0.2-0.3-0.6-0.8-0.9-1.3l-1.2-1.4
						l-2.5-2.9c-1.7-2-3.4-4.1-4.7-6.5s-2.2-4.8-3.3-7C188.6,132.8,185.5,128.8,181.5,125.5z"/>

					<path d="M199.3,148.5c0.6-1.5,0.9-2.9,1-4.2c0-0.7,0-1.3,0-2c-0.1-0.7-0.2-1.2-0.3-1.9c-0.3-1.4-0.6-2.8-0.9-4.3
						c-0.3-1.5-0.5-3-0.6-4.6c1.2,1.1,2.1,2.4,2.8,3.8c0.7,1.4,1.2,2.9,1.6,4.4c0.2,0.8,0.3,1.7,0.2,2.5c-0.1,0.9-0.2,1.7-0.5,2.5
						C201.9,146.4,200.8,147.8,199.3,148.5z"/>

					<path d="M208.5,138.5c-0.5,1.1-0.9,2.2-0.9,3.2s0.2,1.9,0.8,2.5c0.2,0.1,0.3,0.3,0.5,0.4l0.3,0.2l0.1,0.1l0.2,0.2
						c0.3,0.2,0.6,0.5,0.8,0.7l0.6,0.8c0.4,0.5,0.7,1.1,1,1.7c0.3,0.6,0.5,1.1,0.7,1.7c0.9,2.3,1.4,4.6,1.7,6.9
						c0.3,2.3,0.4,4.7,0.1,7.1c-1-2.2-1.7-4.4-2.4-6.6c-0.7-2.2-1.4-4.3-2.2-6.4c-0.4-1-0.8-2-1.3-2.9l-0.4-0.6l-0.4-0.5l-0.1-0.1
						l-0.2-0.2l-0.4-0.4c-0.2-0.2-0.4-0.6-0.6-0.9c-0.8-1.3-0.8-2.9-0.3-4.2C206.7,140.1,207.5,139.2,208.5,138.5z"/>

					<path d="M222.5,166.5c1.4,0.8,2.6,1.8,3.7,2.9c1.2,1.1,2.2,2.5,2.9,4c1.5,3,2.2,5.9,2.8,8.9s1,6,1,9c0.1,3-0.1,6.1-0.8,9.2
						c-1.3-2.9-2.3-5.7-3.1-8.6c-0.8-2.9-1.5-5.8-2.1-8.7s-1-5.8-1.6-8.5c-0.3-1.3-0.7-2.6-1.3-4C223.7,169.4,223,168,222.5,166.5z"/>

					<path d="M220.5,176.5c1.1,0,2,0.2,2.9,0.5s1.7,0.7,2.4,1.2c0.8,0.5,1.4,1.1,2.1,1.8c0.6,0.7,1.2,1.5,1.6,2.5
						c-1.1,0-2-0.2-2.9-0.5s-1.7-0.7-2.4-1.2s-1.4-1.1-2.1-1.8C221.5,178.3,220.9,177.5,220.5,176.5z"/>

					<path d="M205.5,172.5c1.1,0.3,2.1,0.8,2.9,1.3c0.9,0.6,1.6,1.2,2.3,1.9s1.3,1.5,1.9,2.4c0.5,0.9,1,1.8,1.3,3
						c-1.1-0.3-2.1-0.7-2.9-1.3c-0.9-0.6-1.6-1.2-2.3-1.9s-1.3-1.5-1.9-2.4C206.2,174.6,205.8,173.6,205.5,172.5z"/>

					<path d="M196.5,156.5c0.9,1.3,1.7,2.5,2.5,3.5c0.9,1,1.8,1.7,2.7,2s1.9,0.2,3.1-0.3c1.2-0.5,2.4-1.3,3.7-2.2
						c-0.3,1.6-1.1,3-2.4,4.2c-0.7,0.6-1.5,1-2.4,1.3s-2,0.2-2.9-0.1c-1.9-0.6-3.2-2.1-3.8-3.6C196.4,159.7,196.2,158.1,196.5,156.5z"/>

					<path d="M217.1,209.5c-1.1-2.5-2.2-5-3.6-7.1c-0.7-1.1-1.5-2.1-2.3-3.2c-0.8-1.1-1.6-2.4-2.1-3.9c-0.1-0.5-0.2-0.6-0.3-0.9
						c-0.1-0.3-0.2-0.5-0.3-0.8c-0.3-0.6-0.6-1.1-0.9-1.7c-0.6-1.1-1.3-2.3-2-3.4c-1.4-2.3-2.8-4.6-4.2-7c2.3,1.6,4.2,3.5,6.1,5.6
						c0.9,1,1.8,2.1,2.6,3.3c0.4,0.6,0.8,1.2,1.1,1.9c0.2,0.4,0.3,0.7,0.5,1.1l0.4,1.1c0.6,2,2.5,4.3,3.6,6.9
						C216.7,203.9,217.2,206.7,217.1,209.5z"/>





				<path d="M205.5,206.5c-0.7,1.9-2.2,3.5-4,4.6c-0.5,0.3-1,0.5-1.5,0.7s-0.8,0.3-1.2,0.5c-0.8,0.3-1.7,0.8-2.5,1.1
					c-1.7,0.8-3.4,1.6-5.2,2.3s-3.6,1.4-5.6,1.8c1.3-1.5,2.9-2.8,4.4-3.9c1.6-1.1,3.3-2.1,5.1-3c0.9-0.4,1.8-0.8,2.8-1.1
					c0.5-0.2,1.1-0.3,1.5-0.4c0.4-0.1,0.8-0.2,1.2-0.3C202.2,208.5,203.9,207.7,205.5,206.5z"/>

					<path d="M214.5,192.5c1.6,1,2.9,2.2,4.2,3.5c1.2,1.4,2.3,2.7,3.1,4.7c0.4,1,0.5,1.8,0.7,2.8c0.2,0.9,0.3,1.8,0.3,2.7
						c0.1,1.8,0.1,3.6-0.3,5.4c-0.9-1.6-1.5-3.3-2-5c-0.3-0.8-0.5-1.7-0.8-2.5c-0.2-0.8-0.5-1.7-0.7-2.3c-0.5-1.3-1.4-2.9-2.2-4.4
						C215.9,195.8,215.1,194.2,214.5,192.5z"/>
					</g>


<!-- Branches -->
<g fill="none" stroke="#000000" stroke-width="0.7" stroke-miterlimit="10">
				 <path class="st4" d="M137.2,167.2c-4.7,6.8-7.8,9.4-12.5,6.9C128.7,168,137.2,167.2,137.2,167.2z"/>
				<path d="M137.2,167.2c-1,1.2-2.2,2.1-3.4,3c-1.3,0.8-2.5,1.6-4,2.2c1-1.2,2.2-2.1,3.4-3C134.5,168.5,135.8,167.7,137.2,167.2z"/>
				<path class="st4" d="M147.4,159.9c-7.5,3.4-11.4,4.2-14.3-0.4C139.6,156.2,147.4,159.9,147.4,159.9z"/>
				<path d="M147.4,159.9c-1.5,0.5-3,0.7-4.5,0.8s-3,0.1-4.6-0.2c1.5-0.5,3-0.7,4.5-0.8C144.3,159.6,145.8,159.6,147.4,159.9z"/>
				<path class="st4" d="M156.4,166.9c-7.5,3.4-11.4,4.2-14.3-0.4C148.6,163.2,156.4,166.9,156.4,166.9z"/>
				<path d="M156.4,166.9c-1.5,0.5-3,0.7-4.5,0.8s-3,0.1-4.6-0.2c1.5-0.5,3-0.7,4.5-0.8C153.3,166.6,154.8,166.6,156.4,166.9z"/>
				<path class="st4" d="M158.6,171.2c-5.6,6-9,8.2-13.4,5.1C150,170.8,158.6,171.2,158.6,171.2z"/>
				<path d="M158.6,171.2c-1.2,1-2.5,1.8-3.8,2.5c-1.4,0.7-2.7,1.3-4.3,1.6c1.2-1,2.5-1.8,3.8-2.5
					C155.7,172.1,157.1,171.5,158.6,171.2z"/>
				<path class="st4" d="M154.7,183.8c-2.7,7.8-4.9,11.1-10.2,10C146.7,186.9,154.7,183.8,154.7,183.8z"/>
				<path d="M154.7,183.8c-0.7,1.4-1.6,2.6-2.5,3.8c-1,1.2-2,2.3-3.3,3.2c0.7-1.4,1.6-2.6,2.5-3.8
					C152.4,185.8,153.5,184.7,154.7,183.8z"/>
				<path class="st4" d="M163.7,173.7c-2.7,7.8-4.9,11.2-10.1,10.1C155.7,176.9,163.7,173.7,163.7,173.7z"/>
				<path d="M163.7,173.7c-0.7,1.4-1.5,2.6-2.5,3.8s-2,2.3-3.3,3.2c0.6-1.4,1.5-2.6,2.5-3.8C161.4,175.8,162.4,174.6,163.7,173.7z"/>
				<path class="st4" d="M165.6,172.9c1.4,8.1,1.2,12.1-4,13.8C160.1,179.6,165.6,172.9,165.6,172.9z"/>
				<path d="M165.6,172.9c0.1,1.6-0.1,3.1-0.3,4.5c-0.3,1.5-0.6,3-1.3,4.4c-0.1-1.6,0.1-3.1,0.3-4.5
					C164.6,175.8,164.9,174.3,165.6,172.9z"/>
				<path class="st4" d="M172.6,172.9c1.4,8.1,1.2,12.1-4,13.8C167.1,179.6,172.6,172.9,172.6,172.9z"/>
				<path d="M172.6,172.9c0.1,1.6-0.1,3.1-0.3,4.5c-0.3,1.5-0.6,3-1.3,4.4c-0.1-1.6,0.1-3.1,0.3-4.5
					C171.6,175.8,171.9,174.3,172.6,172.9z"/>
				<path class="st4" d="M177.7,176.3c0,8.2-0.9,12.1-6.3,12.9C171.2,181.9,177.7,176.3,177.7,176.3z"/>
				<path d="M177.7,176.3c-0.2,1.6-0.6,3-1.1,4.4s-1.1,2.8-2,4.1c0.2-1.6,0.6-3,1.1-4.4C176.2,179,176.8,177.6,177.7,176.3z"/>
				<path class="st4" d="M181.6,180.9c-1.2,8.2-2.7,11.9-8.1,11.8C174.4,185.4,181.6,180.9,181.6,180.9z"/>
			 	<path class="st4" d="M193.5,183.5c-2-8-2-12,3-14C198.5,176.5,193.5,183.5,193.5,183.5z"/>
			 	<path d="M193.5,183.5c-0.2-1.5-0.1-3.1,0-4.6c0.2-1.5,0.4-3,1-4.4c0.2,1.5,0.1,3.1,0,4.6C194.3,180.6,194.1,182,193.5,183.5z"/>
				<path d="M181.6,180.9c-0.4,1.5-1,2.9-1.7,4.2s-1.5,2.6-2.6,3.7c0.4-1.5,1-2.9,1.7-4.2C179.8,183.3,180.6,182,181.6,180.9z"/>
				<path class="st4" d="M186.4,186.6c-3.9,7.3-6.6,10.2-11.6,8.4C178,188.4,186.4,186.6,186.4,186.6z"/>
				<path d="M186.4,186.6c-0.9,1.3-1.9,2.4-3.1,3.4c-1.1,1-2.3,1.9-3.7,2.6c0.9-1.3,1.9-2.4,3.1-3.4
					C183.8,188.2,185,187.3,186.4,186.6z"/>
				<path class="st4" d="M187.4,166.3c2.3-5.2,4-7.4,7.6-6.4C193.1,164.6,187.4,166.3,187.4,166.3z"/>
				<path d="M187.4,166.3c0.4-1,1.1-1.8,1.8-2.6c0.7-0.7,1.5-1.4,2.5-1.9c-0.4,1-1.1,1.8-1.8,2.6
					C189.2,165.2,188.4,165.9,187.4,166.3z"/>
				<path class="st4" d="M193.2,198c3.8-7.3,6.4-10.4,11.5-8.6C201.5,196.1,193.2,198,193.2,198z"/>
				<path d="M193.2,198c0.8-1.3,1.9-2.4,3-3.4s2.3-2,3.7-2.7c-0.8,1.3-1.9,2.4-3,3.4C195.7,196.4,194.5,197.3,193.2,198z"/>
				<path class="st4" d="M195.8,204c-6.9,4.5-10.7,5.7-14.2,1.6C187.6,201.5,195.8,204,195.8,204z"/>
				<path d="M195.8,204c-1.4,0.7-2.8,1.1-4.3,1.5c-1.5,0.3-3,0.5-4.5,0.5c1.4-0.7,2.8-1.1,4.3-1.5S194.3,203.9,195.8,204z"/>
				<path class="st4" d="M196.3,204c-2.7,7.8-4.9,11.1-10.2,10C188.3,207,196.3,204,196.3,204z"/>
				<path d="M196.3,204c-0.7,1.4-1.6,2.6-2.5,3.8c-1,1.2-2,2.3-3.3,3.2c0.7-1.4,1.6-2.6,2.5-3.8C194,206,195,204.9,196.3,204z"/>
				<path class="st4" d="M193.1,214.3c6.9,4.5,9.5,7.5,7,12.7C193.9,223.3,193.1,214.3,193.1,214.3z"/>
				<path d="M193.1,214.3c1.2,1,2.1,2.2,3,3.5s1.6,2.6,2.2,4c-1.2-1-2.1-2.2-3-3.5C194.4,217.1,193.6,215.8,193.1,214.3z"/>
				<path class="st4" d="M192.9,215.2c1.5,8.1,1.1,12-4.4,13.8C186.9,222,192.9,215.2,192.9,215.2z"/>
				<path d="M192.9,215.2c0.1,1.6-0.1,3.1-0.4,4.6c-0.3,1.5-0.7,3-1.4,4.4c-0.1-1.6,0.1-3.1,0.4-4.6
					C191.8,218.1,192.2,216.6,192.9,215.2z"/>
		    	<path class="st4" d="M228,214.7c-1.8,6.2-3.5,9-7.8,8.4C221.6,217.6,228,214.7,228,214.7z"/>
				<path d="M228,214.7c-0.4,1.2-1.1,2.2-1.8,3.2c-0.7,0.9-1.5,1.9-2.6,2.6c0.4-1.2,1.1-2.2,1.8-3.2
					C226.1,216.3,226.9,215.4,228,214.7z"/>
		     	<path class="st4" d="M224,212.7c-1.8,6.2-3.5,9-7.8,8.4C217.6,215.6,224,212.7,224,212.7z"/>
				<path d="M224,212.7c-0.4,1.2-1.1,2.2-1.8,3.2c-0.7,0.9-1.5,1.9-2.6,2.6c0.4-1.2,1.1-2.2,1.8-3.2
					C222.1,214.3,222.9,213.4,224,212.7z"/>
			    <path class="st4" d="M216.1,210.3c1.8,6.2,1.9,9.4-2,11.3C212.3,216.1,216.1,210.3,216.1,210.3z"/>
				<path d="M216.1,210.3c0.3,1.2,0.3,2.4,0.2,3.6c-0.1,1.2-0.3,2.4-0.8,3.6c-0.3-1.2-0.3-2.4-0.2-3.6
					C215.4,212.6,215.6,211.5,216.1,210.3z"/>
			    <path class="st4" d="M214.3,210.1c-0.9,6.4-2.1,9.4-6.5,9.4C208.5,213.8,214.3,210.1,214.3,210.1z"/>
				<path d="M214.3,210.1c-0.2,1.2-0.7,2.3-1.3,3.4c-0.6,1-1.2,2.1-2.2,2.9c0.2-1.2,0.7-2.3,1.3-3.4
					C212.8,211.9,213.4,210.9,214.3,210.1z"/>
		    	<path class="st4" d="M208.2,208.4c0.6,6.5,0.1,9.6-4.2,10.7C203.3,213.4,208.2,208.4,208.2,208.4z"/>
				<path d="M208.2,208.4c0.1,1.3-0.2,2.4-0.5,3.6c-0.3,1.2-0.7,2.3-1.4,3.3c-0.1-1.3,0.2-2.4,0.5-3.6
					C207.1,210.6,207.5,209.5,208.2,208.4z"/>
		    	<path class="st4" d="M205.3,208c-0.9,6.4-2.1,9.4-6.5,9.4C199.5,211.8,205.3,208,205.3,208z"/>
				<path d="M205.3,208c-0.2,1.2-0.7,2.3-1.3,3.4c-0.6,1-1.2,2.1-2.2,2.9c0.2-1.2,0.7-2.3,1.3-3.4
					C203.8,209.9,204.4,208.9,205.3,208z"/>
		    	<path class="st4" d="M221.7,232.1c-6.4-1-9.3-2.3-9.3-6.7C218.1,226.2,221.7,232.1,221.7,232.1z"/>
				<path d="M221.7,232.1c-1.2-0.3-2.3-0.8-3.4-1.4c-1-0.6-2-1.3-2.9-2.2c1.2,0.3,2.3,0.8,3.4,1.4S220.9,231.2,221.7,232.1z"/>
			    <path class="st4" d="M223.7,229.1c-6.4-1-9.3-2.3-9.3-6.7C220.1,223.2,223.7,229.1,223.7,229.1z"/>
				<path d="M223.7,229.1c-1.2-0.3-2.3-0.8-3.4-1.4c-1-0.6-2-1.3-2.9-2.2c1.2,0.3,2.3,0.8,3.4,1.4S222.9,228.2,223.7,229.1z"/>
		    	<path class="st4" d="M213,218.8c-2.7,8.9-5.2,12.8-12,12.1C203,223,213,218.8,213,218.8z"/>
				<path d="M213,218.8c-0.8,1.6-1.9,3.1-3,4.4c-1.1,1.4-2.3,2.7-3.7,3.8c0.8-1.6,1.9-3.1,3-4.4C210.4,221.3,211.6,220,213,218.8z"/>
		    	<path class="st4" d="M242.3,221c-2.2,6.1-4,8.7-8.3,7.9C235.8,223.4,242.3,221,242.3,221z"/>
				<path d="M242.3,221c-0.5,1.2-1.2,2.1-2,3.1c-0.8,0.9-1.6,1.8-2.7,2.4c0.5-1.2,1.2-2.1,2-3.1C240.4,222.5,241.2,221.6,242.3,221z"/>
		    	<path class="st4" d="M239.1,219.9c-3.5,5.5-5.8,7.7-9.8,5.9C232.2,220.9,239.1,219.9,239.1,219.9z"/>
				<path d="M239.1,219.9c-0.7,1-1.6,1.8-2.6,2.6c-1,0.7-2,1.4-3.2,1.8c0.7-1,1.6-1.8,2.6-2.6C236.9,221,237.9,220.4,239.1,219.9z"	/>
		    	<path class="st4" d="M231,216.7c-1.8,6.2-3.5,9-7.8,8.4C224.6,219.6,231,216.7,231,216.7z"/>
				<path d="M231,216.7c-0.4,1.2-1.1,2.2-1.8,3.2c-0.7,0.9-1.5,1.9-2.6,2.6c0.4-1.2,1.1-2.2,1.8-3.2
					C229.1,218.3,229.9,217.4,231,216.7z"/>
		    	<path class="st4" d="M218.5,237.7c-6.5,0.8-9.6,0.4-10.8-3.8C213.3,233,218.5,237.7,218.5,237.7z"/>
				<path d="M218.5,237.7c-1.3,0.1-2.5-0.1-3.6-0.3c-1.2-0.3-2.3-0.7-3.4-1.3c1.3-0.1,2.5,0.1,3.6,0.3
					C216.3,236.7,217.4,237,218.5,237.7z"/>
		    	<path class="st4" d="M221.9,234.9c-8.2,1.1-12.1,0.6-13.7-4.7C215.4,228.9,221.9,234.9,221.9,234.9z"/>
				<path d="M221.9,234.9c-1.6,0-3.1-0.2-4.6-0.6c-1.5-0.4-2.9-0.8-4.3-1.5c1.6,0,3.1,0.2,4.6,0.6
					C219.1,233.7,220.5,234.1,221.9,234.9z"/>
		    	<path class="st4" d="M173.4,203.8c-3.9-3-5.4-4.9-3.8-7.8C173.1,198.6,173.4,203.8,173.4,203.8z"/>
				<path d="M173.4,203.8c-0.8-0.6-1.4-1.3-1.9-2.1s-0.9-1.6-1-2.6c0.8,0.6,1.4,1.3,1.9,2.1S173.3,202.8,173.4,203.8z"/>
		    	<path class="st4" d="M170.4,204.8c-3.9-3-5.4-4.9-3.8-7.8C170.1,199.6,170.4,204.8,170.4,204.8z"/>
				<path d="M170.4,204.8c-0.8-0.6-1.4-1.3-1.9-2.1s-0.9-1.6-1-2.6c0.8,0.6,1.4,1.3,1.9,2.1S170.3,203.8,170.4,204.8z"/>
		    	<path class="st4" d="M167.4,205.8c-3.9-3-5.4-4.9-3.8-7.8C167.1,200.6,167.4,205.8,167.4,205.8z"/>
				<path d="M167.4,205.8c-0.8-0.6-1.4-1.3-1.9-2.1s-0.9-1.6-1-2.6c0.8,0.6,1.4,1.3,1.9,2.1S167.3,204.8,167.4,205.8z"/>
		    	<path class="st4" d="M168.9,196.5c-4.8-1.1-7-2.2-6.8-5.5C166.4,191.9,168.9,196.5,168.9,196.5z"/>
				<path d="M168.9,196.5c-1-0.2-1.8-0.6-2.6-1.1s-1.5-1.1-2-1.9c1,0.2,1.8,0.6,2.6,1.1C167.6,195.1,168.3,195.7,168.9,196.5z"/>
		    	<path class="st4" d="M164.5,205c-4.6-1.7-6.7-3-6.1-6.3C162.6,200,164.5,205,164.5,205z"/>
				<path d="M164.5,205c-1-0.3-1.7-0.8-2.4-1.4c-0.7-0.6-1.3-1.3-1.8-2.2c1,0.3,1.7,0.8,2.4,1.4C163.5,203.4,164.1,204.1,164.5,205z"/>
			    <path class="st4" d="M174.4,203.4c-2.1-4.5-2.5-6.9,0.2-8.7C176.5,198.6,174.4,203.4,174.4,203.4z"/>
				<path d="M174.4,203.4c-0.5-0.9-0.6-1.8-0.7-2.7c-0.1-0.9,0-1.8,0.3-2.8c0.5,0.9,0.6,1.8,0.7,2.7
					C174.7,201.5,174.7,202.5,174.4,203.4z"/>
                <path class="st4" d="M188.4,190.6c-3.9,7.3-6.6,10.2-11.6,8.4C180,192.4,188.4,190.6,188.4,190.6z"/>
				<path d="M188.4,190.6c-0.9,1.3-1.9,2.4-3.1,3.4c-1.1,1-2.3,1.9-3.7,2.6c0.9-1.3,1.9-2.4,3.1-3.4
					C185.8,192.2,187,191.3,188.4,190.6z"/>
			    <path class="st4" d="M191.4,194.6c-3.9,7.3-6.6,10.2-11.6,8.4C183,196.4,191.4,194.6,191.4,194.6z"/>
				<path d="M191.4,194.6c-0.9,1.3-1.9,2.4-3.1,3.4c-1.1,1-2.3,1.9-3.7,2.6c0.9-1.3,1.9-2.4,3.1-3.4
					C188.8,196.2,190,195.3,191.4,194.6z"/>
		    	<path class="st4" d="M157.4,208.8c-3.9-3-5.4-4.9-3.8-7.8C157.1,203.6,157.4,208.8,157.4,208.8z"/>
				<path d="M157.4,208.8c-0.8-0.6-1.4-1.3-1.9-2.1s-0.9-1.6-1-2.6c0.8,0.6,1.4,1.3,1.9,2.1S157.3,207.8,157.4,208.8z"/>
</g>
</g>
</svg>
