<svg height="600px" xmlns="http://www.w3.org/2000/svg" xmlns:xlink="http://www.w3.org/1999/xlink" x="0px" y="0px"
	 viewBox="0 0 600 600" style="enable-background:new 0 0 600 600;" xml:space="preserve">
		<g id="cali" stroke="#000000" stroke-width="9" stroke-miterlimit="3" fill="red" >
		<!-- premier mot  -->
			<path d="M450,209.1c0,0.3,0,0.2,0.1,0.2c0,0,0,0,0.1-0.1s0.1-0.1,0.1-0.2c0.1-0.2,0.1-0.4,0.1-0.6c0-0.2,0-0.4,0-0.7
				c-0.1-0.2-0.1-0.5-0.3-0.7c-0.5-1-1.6-2-3.1-2.8c-0.4-0.2-0.8-0.3-1.1-0.5c-0.4-0.2-0.8-0.4-1.2-0.5c-0.8-0.2-1.7-0.6-2.6-0.7
				c-0.9-0.2-1.8-0.4-2.7-0.5l-2.8-0.4l2.7-0.8c0.9-0.3,1.9-0.4,2.8-0.6c1-0.2,1.9-0.2,2.9-0.4c0.5-0.1,1,0,1.5,0s1,0,1.6,0.1
				c2.1,0.2,4.4,0.8,6.6,2.3c0.6,0.4,1,0.9,1.5,1.4c0.4,0.6,0.9,1.1,1.3,1.8c0.4,0.6,0.7,1.3,0.9,2.1c0.1,0.4,0.2,0.7,0.3,1.1
				c0,0.2,0.1,0.4,0.1,0.6c0,0.3,0.1,0.4,0,0.9L450,209.1z"/>
			<path d="M503.5,204.5c-15-4.4-29.7-10.2-44.9-12.7c-7.6-1.3-15.2-1.9-22.9-1.8c-7.6,0.2-15.4,0.7-22.5,2.4
				c-7.2,1.7-14,4.6-19,9.4c-2.5,2.4-4.7,5.1-6.3,8.2c-1.6,3.1-2.7,6.4-3.6,10c-0.1,0.4-0.2,0.9-0.3,1.4l-0.2,0.7l-0.1,0.3
				c0,0.1,0,0.2,0,0.2l-0.1,0.9c0,0.3,0,0.6,0,1c0.1,1.3,0.5,2.6,1.1,3.9c1.2,2.5,3.6,4.6,6,5.5c1.2,0.4,2.4,0.5,3.5,0.3
				c0.2,0,0.8-0.2,1.2-0.2c0.4-0.1,0.9-0.2,1.3-0.3c0.9-0.2,1.7-0.5,2.6-0.8c1.7-0.6,3.4-1.2,5.1-1.9c0.8-0.3,1.7-0.7,2.5-1.1
				c0.8-0.4,1.7-0.8,2.3-1.2l23.1-12.8l-17.7,19.8l-0.2,0.3l-0.3,0.4c-0.2,0.3-0.4,0.5-0.6,0.8c-0.4,0.6-0.7,1.2-1,1.8
				c-0.6,1.2-0.9,2.4-0.9,3.5v0.4v0.4c0,0.3,0.1,0.5,0.1,0.8c0,0.2,0.1,0.6,0.3,0.9c0.1,0.3,0.2,0.7,0.4,1c0.5,1.3,1.3,2.5,2.1,3.6
				c0.9,1.1,1.9,2.1,3.1,2.9c0.6,0.4,1.2,0.7,1.8,1.1c0.7,0.3,1.3,0.6,2,0.8c1.3,0.5,2.8,0.8,4.3,0.9c0.8,0,1.5,0.1,2.3,0.1h1.2
				c0.4,0,0.8-0.1,1.2-0.1c3.3-0.3,6.6-0.9,9.7-2c3.1-1,6.1-2.5,8.4-4.4c1.1-0.9,2.1-2,2.4-2.7c0.5-1.2,0.8-2.5,0.7-3.3
				c0-0.4-0.1-0.7-0.3-1c-0.2-0.3-0.5-0.5-0.9-0.8c-0.9-0.6-2.3-1-3.8-1.2s-3.1-0.2-4.8-0.1c-1.7,0.1-3.4,0.4-5.4,0.5
				c-1,0.1-2.1,0.1-3.2,0.1c-1.2-0.1-2.6-0.3-4-1.1s-2.4-2.1-3-3.4c-0.6-1.3-0.8-2.8-0.7-4.1c0.1-1.3,0.5-2.5,1-3.7
				c0.6-1.1,1.2-2.1,2.1-2.9c1.7-1.7,3.9-2.9,6.4-3.2h0.9h0.5h0.3c0.4,0,0.8,0,1.2,0c0.8,0,1.7-0.1,2.5-0.2c1.7-0.2,3.5-0.6,5.2-0.9
				c6.9-1.6,13.7-4,19.5-8c1.4-1,2.8-2.2,4.2-3.4c1.4-1.2,2.7-2.4,4-3.7c2.6-2.5,5-5.3,7.1-8.2c-1.7,3.2-3.9,6.2-6.1,9.1
				c-1.2,1.4-2.4,2.8-3.6,4.2c-1.3,1.4-2.6,2.6-4,3.9c-2.9,2.5-6.1,4.4-9.5,6.1c-3.4,1.7-6.9,3.1-10.5,4.2c-1.8,0.6-3.6,1-5.5,1.4
				c-0.9,0.2-1.9,0.3-2.9,0.5c-0.5,0.1-1,0.1-1.5,0.1h-0.4h-0.2h-0.5c-1.2,0.3-2.3,0.9-3.1,1.9c-0.4,0.5-0.7,1-1,1.6
				c-0.2,0.6-0.3,1.1-0.3,1.6s0.1,0.9,0.3,1.2c0.2,0.3,0.4,0.5,0.6,0.6s0.7,0.2,1.3,0.2c0.7,0,1.4-0.1,2.2-0.2
				c3.3-0.5,7.3-1.3,11.6-1c2.1,0.2,4.4,0.6,6.7,1.9c1.1,0.7,2.3,1.6,3.2,2.8c0.9,1.2,1.4,2.7,1.7,4.1c0.2,1.4,0.2,2.7,0,3.9
				c-0.2,1.3-0.5,2.3-1,3.4c-1.2,2.6-2.8,4.2-4.5,5.7c-3.3,2.8-7,4.6-10.7,6c-3.8,1.4-7.6,2.3-11.6,2.7c-4,0.5-8.4,0.4-12.6-1
				c-1.1-0.3-2.1-0.8-3.1-1.2c-1-0.5-2-1-2.9-1.7c-1.8-1.3-3.5-2.8-4.9-4.5c-1.4-1.7-2.6-3.7-3.5-5.7c-0.2-0.5-0.4-1-0.6-1.6
				c-0.2-0.5-0.4-1.1-0.5-1.7c-0.1-0.6-0.3-1.3-0.3-1.9l-0.1-1c0-0.3,0-0.6,0-1c0.1-2.6,0.7-5,1.7-7.1c0.5-1.1,1.1-2,1.7-3
				c0.3-0.5,0.7-0.9,1-1.4l0.6-0.7c0.2-0.2,0.4-0.4,0.7-0.8l5.4,7.1c-1.1,0.6-1.9,1-2.9,1.5c-0.9,0.4-1.9,0.9-2.9,1.3
				c-1.9,0.8-3.9,1.5-5.9,2.2c-1,0.3-2,0.6-3,0.9c-0.5,0.1-1,0.3-1.5,0.4c-0.5,0.1-0.9,0.3-1.7,0.4c-0.7,0.1-1.4,0.2-2.1,0.2
				s-1.4,0-2.1,0c-0.7-0.1-1.3-0.2-2-0.3s-1.3-0.4-1.9-0.6c-2.5-0.9-4.7-2.3-6.5-4s-3.3-3.7-4.4-6c-1.1-2.2-1.8-4.7-2-7.4
				c0-0.7,0-1.3,0-2c0.1-0.7,0.2-1.3,0.3-2l0.1-0.5l0.1-0.4l0.2-0.7c0.1-0.5,0.2-1,0.4-1.5c1-4,2.5-8.1,4.7-11.9
				c2.1-3.8,4.9-7.2,8.2-10.1c0.8-0.7,1.6-1.4,2.5-2.1l2.7-1.8c0.4-0.3,0.9-0.6,1.4-0.8l1.4-0.8c1-0.5,1.9-1.1,2.9-1.4
				c2-0.8,3.9-1.7,5.9-2.1l3-0.9c1-0.2,2-0.4,3-0.6l3-0.6l3.1-0.3l3-0.3c1-0.1,2-0.1,3-0.2c2-0.1,4-0.2,6-0.2s4,0,6,0.1
				c8,0.4,16,1.5,23.7,3.4s15.2,4.6,22.5,7.6c3.6,1.5,7.2,3.1,10.8,4.7L503.5,204.5z"/>

			<path d="M503.5,204.5c-0.9,5.4-3,10.4-4.5,15.5c-0.7,2.5-1.2,5.1-1.8,7.8c-0.5,2.6-1.1,5.3-1.6,7.9c-1.1,5.3-2.4,10.6-4.2,15.8
				c-1.8,5.2-4.1,10.4-7.3,15.1c-1.6,2.3-3.5,4.5-5.6,6.5s-4.4,3.7-6.8,5.2c-4.8,3-9.9,5.2-15.2,6.8c-10.5,3.3-21.3,4.7-32.1,5.4
				c10.5-2.7,20.9-5.2,30.8-9.1c9.8-3.9,19.1-9.1,24.7-17.6c2.9-4.2,5.1-8.9,7-13.8c1.9-4.9,3.4-10,4.9-15.2
				c0.8-2.6,1.5-5.2,2.3-7.8l1.2-3.9c0.4-1.3,0.9-2.6,1.4-3.9C498.9,214.2,501.6,209.6,503.5,204.5z"/>

		    <path d="M435.6,189.9c-4.4,1.6-8.8,3.7-12.6,6.5c-1.9,1.4-3.6,2.9-4.9,4.7c-1.2,1.8-1.8,3.8-1.2,5.8c0.6,1.9,2.2,3.8,4.1,5.1
				s4.3,2,6.6,2.3c1.2,0.2,2.4,0.2,3.6,0.1c1.2-0.1,2.4-0.4,3.4-1c0.5-0.3,0.9-0.7,1.3-1.2c0.3-0.5,0.4-1.1,0.4-1.6
				c-0.1-1.2-0.9-2.2-1.8-3.1c0.9,0.8,1.8,1.8,2.1,3.1c0.1,0.6,0,1.3-0.3,1.9c-0.3,0.6-0.8,1.1-1.3,1.4c-2.1,1.5-4.9,1.8-7.4,1.7
				s-5.1-0.7-7.5-1.9c-1.2-0.6-2.3-1.5-3.2-2.4c-0.9-1-1.8-2.1-2.3-3.4c-0.6-1.3-0.8-2.9-0.5-4.3c0.2-1.5,0.7-2.8,1.4-4
				c1.4-2.4,3.3-4.3,5.2-6c4-3.4,8.4-6,13.1-8.2L435.6,189.9z"/>

			<path d="M443.5,259.5c3.7-0.4,7.3-1.1,10.8-2s6.9-2.1,10.1-3.5c6.5-2.9,12.2-7,16.6-12.3c2.2-2.7,4-5.6,5.6-8.7
				c1.7-3.3,3.4-6.5,5.1-9.7c1.8-3.2,3.6-6.4,5.5-9.5c2-3.1,3.9-6.3,6.2-9.2c-2.6,6.9-5.2,13.8-8.1,20.5c-1.4,3.4-2.9,6.7-4.5,10.1
				c-1.6,3.5-3.6,6.9-6.1,9.8c-5,6-11.8,10.3-19,12.7C458.5,259.9,450.8,260.7,443.5,259.5z"/>
		 <!-- premier mot -->

		 <!-- deuxiemme mot  -->
		 <path d="M480,293c-1.7,0-3.4-0.2-5.1-0.3c-1.7-0.1-3.4-0.2-5-0.2c-3.3-0.1-6.6,0.1-9.6,0.8c-1.5,0.3-2.9,0.9-4.2,1.5
			 c-1.3,0.6-2.5,1.4-3.6,2.4c-2.3,1.9-4.4,4.2-6.1,6.6s-2.9,5.1-3.2,7.3c-0.1,1.1,0,2,0.3,2.7s0.8,1.3,1.5,2s1.7,1.2,2.9,1.7
			 c0.6,0.3,1.2,0.5,1.9,0.7l1,0.3l0.5,0.2l0.4,0.1c1.2,0.3,2.7,0.5,4.2,0.7c1.6,0.2,3.2,0.4,5.1,0.6l-2.1,11.6
			 c-2.1-0.3-3.8-0.5-5.1-0.3c-0.6,0.1-1.1,0.2-1.5,0.4c-0.3,0.2-0.5,0.3-0.7,0.6c-0.5,0.6-1.1,1.7-1.5,3.2s-0.6,3.3-0.7,5.1
			 c0,0.9,0,1.9,0,2.8c0,0.4,0.1,0.6,0.1,0.7c0,0,0-0.2-0.2-0.5c-0.2-0.4-0.5-0.7-0.7-0.8c-0.2-0.1-0.3-0.1-0.2-0.1
			 c0.2,0.1,0.8,0.1,1.5,0.1c1.5,0,3.4-0.2,5.3-0.6c2-0.4,3.9-0.9,6.1-1.5l2.2,12.6c-3.5,0.3-7.9,1.3-10.5,2.6
			 c-0.6,0.3-1,0.7-1.1,0.7c0.1-0.2-0.3,0.4-0.5,0.7c-0.3,0.4-0.5,0.7-0.8,1.1c-1,1.5-1.8,3.2-2.5,4.9c-1.4,3.5-2.1,7.3-2.2,11.2
			 c-0.2,3.9,0.4,8,1.3,11.9c0.5,2,1.2,3.9,1.9,5.8l1.3,2.9c0.5,0.9,0.9,1.9,1.5,2.8c2,3.6,4.5,7,7.5,10c6,6,14,10.2,22.6,13.1
			 c-4.5-0.2-9.1-1-13.6-2.4l-1.7-0.5l-1.6-0.6c-1.1-0.4-2.2-0.9-3.2-1.4c-1.1-0.5-2.1-1.1-3.2-1.7c-1-0.7-2-1.3-3-2
			 c-3.9-2.8-7.4-6.3-10.4-10.1c-0.7-1-1.4-2-2.1-3l-1.9-3.1c-1.2-2.2-2.3-4.4-3.1-6.8c-1.8-4.6-2.8-9.6-3.1-14.7
			 c-0.2-5.1,0.3-10.3,1.9-15.3c0.8-2.5,1.9-5,3.2-7.3c0.4-0.6,0.7-1.2,1.1-1.7c0.4-0.6,0.6-1,1.5-2c1.5-1.7,2.9-2.6,4.3-3.4
			 c2.7-1.5,5.2-2.3,7.8-3c2.5-0.7,5-1.2,7.7-1.4l2.2,12.6c-2.1,0.6-4.5,1.2-6.9,1.7c-2.5,0.5-5,0.9-8,0.9c-1.5,0-3.2-0.1-5.1-0.7
			 c-1-0.3-2.1-0.8-3.2-1.5s-2.3-1.8-3.1-3.1c-0.8-1.3-1.2-2.6-1.4-3.6c-0.2-1.1-0.3-1.9-0.3-2.7c-0.1-1.3-0.1-2.6,0-4
			 c0.2-2.6,0.5-5.3,1.4-8.1c0.9-2.8,2.2-5.8,4.9-8.4c1.3-1.3,3.1-2.4,4.8-3.1c1.7-0.7,3.5-1,5.1-1.1c3.2-0.2,5.9,0.3,8.2,0.8
			 l-2.1,11.6c-1.5-0.3-3.1-0.6-4.9-1c-1.7-0.4-3.5-0.7-5.6-1.4l-0.8-0.3l-0.7-0.3c-0.4-0.2-0.9-0.4-1.3-0.6
			 c-0.9-0.4-1.8-0.8-2.7-1.3c-1.8-1-3.7-2.3-5.3-4.1c-1.6-1.7-3-4-3.6-6.6c-0.6-2.5-0.4-5,0.1-7.2c0.6-2.2,1.5-4.1,2.5-5.8
			 c1-1.7,2.2-3.2,3.5-4.6c2.6-2.8,5.4-5.1,8.7-6.9c1.6-0.9,3.4-1.7,5.3-2.3c1.8-0.5,3.7-0.8,5.5-0.9c3.7-0.1,7.2,0.5,10.5,1.3
			 C473.6,290.9,476.8,292,480,293z"/>
		 <!-- deuxiemme mot  -->

		 <!-- point fill:none;stroke:#000000;stroke-width:9;stroke-miterlimit:10; -->
		 <g stroke="#000000" stroke-width="9" stroke-miterlimit="10" fill="none">
		 <line  x1="492.5" y1="286.5" x2="492.5" y2="297.5"/>
		 <line  x1="473.5" y1="319.5" x2="474.5" y2="326.5"/>
		 <line  x1="479.5" y1="339.5" x2="479.5" y2="348.5"/>
	    </g><!-- point -->

</g>
</svg>
