<svg id="svg" height="600px" xmlns="http://www.w3.org/2000/svg" xmlns:xlink="http://www.w3.org/1999/xlink" x="0px" y="0px"
   viewBox="0 0 600 600" style="enable-background:new 0 0 600 600;" xml:space="preserve">
   <filter id="blurMe">
	  <feGaussianBlur in="SourceGraphic" stdDeviation="5"/>
   </filter>
   <filter id="floodFilter" filterUnits="userSpaceOnUse">
	  <feFlood x="50" y="50" width="100" height="100"
		 flood-color="green" flood-opacity="0.5"/>
   </filter>
   <!-- DEBUT MANDALA -->
   <g stroke="black"  stroke-width="5" stroke-linecap="round" stroke-linejoin="round" filter="burl(#blurMe)">
	  <path d="M293,241v2c32.3,0,61.6,13.1,82.7,34.3c21.2,21.2,34.3,50.4,34.3,82.7c0,32.3-13.1,61.6-34.3,82.7
		 C354.6,463.9,325.3,477,293,477c-32.3,0-61.6-13.1-82.7-34.3C189.1,421.6,176,392.3,176,360c0-32.3,13.1-61.6,34.3-82.7
		 c21.2-21.2,50.4-34.3,82.7-34.3V241v-2c-66.8,0-121,54.2-121,121c0,66.8,54.2,121,121,121c66.8,0,121-54.2,121-121
		 c0-66.8-54.2-121-121-121V241z"/>
   </g>
   <g stroke="white"  stroke-width="5" stroke-linecap="round" stroke-linejoin="round">
	  <path d="M293,241v2c32.3,0,61.6,13.1,82.7,34.3c21.2,21.2,34.3,50.4,34.3,82.7c0,32.3-13.1,61.6-34.3,82.7
		 C354.6,463.9,325.3,477,293,477c-32.3,0-61.6-13.1-82.7-34.3C189.1,421.6,176,392.3,176,360c0-32.3,13.1-61.6,34.3-82.7
		 c21.2-21.2,50.4-34.3,82.7-34.3V241v-2c-66.8,0-121,54.2-121,121c0,66.8,54.2,121,121,121c66.8,0,121-54.2,121-121
		 c0-66.8-54.2-121-121-121V241z"/>
   </g>
   <g fill="none" stroke="white"  stroke-width="5" stroke-linecap="round" stroke-linejoin="round" filter="url(#blurMe)">
	  <circle cx="164.5" cy="353.5" r="3.5"/>
	  <circle cx="165.5" cy="376.5" r="3.5"/>
	  <circle cx="170.5" cy="398.5" r="3.5"/>
	  <circle cx="178.5" cy="418.5" r="3.5"/>
	  <circle cx="191.5" cy="437.5" r="3.5"/>
	  <circle cx="205.5" cy="453.5" r="3.5"/>
	  <circle cx="223.5" cy="467.5" r="3.5"/>
	  <circle cx="242.5" cy="478.5" r="3.5"/>
	  <circle cx="264.5" cy="484.5" r="3.5"/>
	  <circle cx="286.5" cy="487.5" r="3.5"/>
	  <circle cx="308.5" cy="487.5" r="3.5"/>
	  <circle cx="332.5" cy="482.5" r="3.5"/>
	  <circle cx="352.5" cy="473.5" r="3.5"/>
	  <circle cx="371.5" cy="461.5" r="3.5"/>
	  <circle cx="387.5" cy="446.5" r="3.5"/>
	  <circle cx="400.5" cy="429.5" r="3.5"/>
	  <circle cx="411.5" cy="409.5" r="3.5"/>
	  <circle cx="417.5" cy="389.5" r="3.5"/>
	  <circle cx="420.5" cy="368.5" r="3.5"/>
	  <circle cx="420.5" cy="345.5" r="3.5"/>
	  <circle cx="415.5" cy="323.5" r="3.5"/>
	  <circle cx="407.5" cy="303.5" r="3.5"/>
	  <circle cx="396.5" cy="283.5" r="3.5"/>
	  <circle cx="380.5" cy="265.5" r="3.5"/>
	  <circle cx="363.5" cy="252.5" r="3.5"/>
	  <circle cx="343.5" cy="242.5" r="3.5"/>
	  <circle cx="322.5" cy="234.5" r="3.5"/>
	  <circle cx="300.5" cy="231.5" r="3.5"/>
	  <circle cx="277.5" cy="232.5" r="3.5"/>
	  <circle cx="253.5" cy="237.5" r="3.5"/>
	  <circle cx="233.5" cy="246.5" r="3.5"/>
	  <circle cx="214.5" cy="258.5" r="3.5"/>
	  <circle cx="198.5" cy="273.5" r="3.5"/>
	  <circle cx="184.5" cy="290.5" r="3.5"/>
	  <circle cx="174.5" cy="311.5" r="3.5"/>
	  <circle cx="167.5" cy="332.5" r="3.5"/>
   </g>
   <g fill="none" stroke="white"  stroke-width="5" stroke-linecap="round" stroke-linejoin="round">
	  <circle cx="164.5" cy="353.5" r="3.5"/>
	  <circle cx="165.5" cy="376.5" r="3.5"/>
	  <circle cx="170.5" cy="398.5" r="3.5"/>
	  <circle cx="178.5" cy="418.5" r="3.5"/>
	  <circle cx="191.5" cy="437.5" r="3.5"/>
	  <circle cx="205.5" cy="453.5" r="3.5"/>
	  <circle cx="223.5" cy="467.5" r="3.5"/>
	  <circle cx="242.5" cy="478.5" r="3.5"/>
	  <circle cx="264.5" cy="484.5" r="3.5"/>
	  <circle cx="286.5" cy="487.5" r="3.5"/>
	  <circle cx="308.5" cy="487.5" r="3.5"/>
	  <circle cx="332.5" cy="482.5" r="3.5"/>
	  <circle cx="352.5" cy="473.5" r="3.5"/>
	  <circle cx="371.5" cy="461.5" r="3.5"/>
	  <circle cx="387.5" cy="446.5" r="3.5"/>
	  <circle cx="400.5" cy="429.5" r="3.5"/>
	  <circle cx="411.5" cy="409.5" r="3.5"/>
	  <circle cx="417.5" cy="389.5" r="3.5"/>
	  <circle cx="420.5" cy="368.5" r="3.5"/>
	  <circle cx="420.5" cy="345.5" r="3.5"/>
	  <circle cx="415.5" cy="323.5" r="3.5"/>
	  <circle cx="407.5" cy="303.5" r="3.5"/>
	  <circle cx="396.5" cy="283.5" r="3.5"/>
	  <circle cx="380.5" cy="265.5" r="3.5"/>
	  <circle cx="363.5" cy="252.5" r="3.5"/>
	  <circle cx="343.5" cy="242.5" r="3.5"/>
	  <circle cx="322.5" cy="234.5" r="3.5"/>
	  <circle cx="300.5" cy="231.5" r="3.5"/>
	  <circle cx="277.5" cy="232.5" r="3.5"/>
	  <circle cx="253.5" cy="237.5" r="3.5"/>
	  <circle cx="233.5" cy="246.5" r="3.5"/>
	  <circle cx="214.5" cy="258.5" r="3.5"/>
	  <circle cx="198.5" cy="273.5" r="3.5"/>
	  <circle cx="184.5" cy="290.5" r="3.5"/>
	  <circle cx="174.5" cy="311.5" r="3.5"/>
	  <circle cx="167.5" cy="332.5" r="3.5"/>
   </g>
   <g fill="none" stroke="white"  stroke-width="3" stroke-linecap="round" stroke-linejoin="round">
	  <path d="M172,364.5l-0.1-1c-1,0.1-2,0.2-3,0.2c-4.9,0-8.7-1.4-11.2-3.5c-2.5-2-3.8-4.6-3.8-7c0-2.1,0.9-4,3-5.6
		 c2.1-1.5,5.3-2.6,10-2.6c1.9,0,4,0.2,6.4,0.6l0.2-1l-1,0c-0.2,4.7-0.5,9.7-0.8,13.5c-0.1,1.9-0.3,3.5-0.4,4.6
		 c-0.1,1.1-0.1,1.8-0.1,1.8L172,364.5l-0.1-1L172,364.5l1,0.1c0,0,0.9-10.4,1.3-19.9l0-0.9l-0.9-0.1c-2.5-0.4-4.7-0.6-6.7-0.6
		 c-4.9,0-8.6,1.1-11.2,3c-2.5,1.9-3.8,4.5-3.8,7.2c0,3.1,1.6,6.3,4.6,8.6c2.9,2.3,7.2,3.9,12.5,3.9c1,0,2.1-0.1,3.2-0.2l0.8-0.1
		 l0.1-0.8L172,364.5z"/>
	  <path d="M174.6,385.9l-0.2-1c-2.1,0.5-4,0.7-5.8,0.7c-4.3,0-7.7-1.3-10-3.1c-2.3-1.8-3.5-4.2-3.5-6.5c0-1.1,0.3-2.2,0.9-3.2
		 c0.9-1.6,2.5-3,5-4.1c2.5-1.1,5.9-1.8,10.4-1.8c0.6,0,1.3,0,2,0l0-1l-1,0.1c0.3,4.7,0.6,9.7,0.9,13.5c0.1,1.9,0.2,3.5,0.2,4.6
		 c0.1,1.1,0.1,1.8,0.1,1.8L174.6,385.9l-0.2-1L174.6,385.9l1,0c0,0-0.5-10.4-1.2-19.9l-0.1-0.9l-0.9,0c-0.7,0-1.4,0-2.1,0
		 c-6.2,0-10.7,1.3-13.7,3.3c-1.5,1-2.6,2.2-3.4,3.6c-0.8,1.3-1.1,2.8-1.1,4.2c0,3,1.5,5.9,4.2,8c2.7,2.1,6.5,3.5,11.2,3.5
		 c2,0,4.1-0.2,6.3-0.8l0.8-0.2l0-0.8L174.6,385.9z"/>
	  <path d="M181.3,405.4l-0.5-0.9c-3.8,2.1-7.3,2.9-10.4,2.9c-3.3,0-6-1-7.9-2.5c-1.9-1.5-2.9-3.5-2.9-5.6c0-2.1,1-4.3,3.4-6.5
		 c2.4-2.1,6.3-4.1,12-5.4l-0.2-1l-0.9,0.3c1.6,4.5,3.2,9.2,4.4,12.8c0.6,1.8,1.1,3.3,1.4,4.4c0.3,1.1,0.5,1.7,0.5,1.7L181.3,405.4
		 l-0.5-0.9L181.3,405.4l1-0.3c0,0-3.2-9.9-6.4-18.9l-0.3-0.8l-0.9,0.2c-5.9,1.4-10.1,3.4-12.9,5.9c-2.8,2.4-4.1,5.3-4.1,8
		 c0,2.8,1.4,5.3,3.6,7.2c2.3,1.8,5.4,2.9,9.1,2.9c3.4,0,7.3-1,11.3-3.2l0.7-0.4l-0.3-0.8L181.3,405.4z"/>
	  <path d="M190.7,423.6l-0.6-0.8c-4.3,3.2-8.5,4.5-12,4.5c-2.9,0-5.4-0.9-7-2.3c-1.7-1.4-2.6-3.2-2.6-5.3c0-2,0.9-4.2,3-6.5
		 c2.2-2.3,5.6-4.6,10.6-6.5l-0.4-0.9l-0.9,0.5c2.2,4.2,4.4,8.6,6.1,12c0.8,1.7,1.6,3.1,2.1,4.1c0.5,1,0.8,1.6,0.8,1.6L190.7,423.6
		 l-0.6-0.8L190.7,423.6l0.9-0.4c0,0-4.6-9.4-9-17.8l-0.4-0.8l-0.8,0.3c-5.2,2-8.9,4.4-11.4,7c-2.4,2.6-3.6,5.3-3.6,7.9
		 c0,2.7,1.3,5.1,3.4,6.9c2.1,1.7,5,2.7,8.3,2.7c4,0,8.6-1.5,13.2-4.9l0.7-0.5l-0.4-0.7L190.7,423.6z"/>
	  <path d="M203.7,440.8l-0.7-0.7c-4.6,4.4-9.2,6.1-13.1,6.1c-2.6,0-4.9-0.8-6.4-2.1c-1.5-1.3-2.4-3.1-2.4-5.2c0-1.9,0.8-4.1,2.7-6.5
		 c1.9-2.4,4.9-4.9,9.3-7.2l-0.5-0.9l-0.8,0.6c2.7,3.8,5.5,8,7.6,11.1c1,1.6,1.9,2.9,2.5,3.9c0.6,0.9,1,1.5,1,1.5L203.7,440.8
		 l-0.7-0.7L203.7,440.8l0.8-0.5c0,0-5.7-8.8-11.1-16.5l-0.5-0.7l-0.8,0.4c-4.6,2.5-7.9,5.1-10,7.7c-2.1,2.6-3.1,5.3-3.1,7.8
		 c0,2.7,1.2,5.1,3.2,6.7c2,1.6,4.7,2.6,7.7,2.6c4.4,0,9.6-2,14.5-6.7l0.6-0.6l-0.4-0.7L203.7,440.8z"/>
	  <path d="M219.1,454.3l-0.8-0.5c-4.2,6.7-9.7,9.4-14,9.4c-2.3,0-4.2-0.7-5.6-2c-1.4-1.2-2.2-3-2.2-5.3c0-1.8,0.6-4,1.9-6.4
		 c1.4-2.4,3.5-5.1,6.6-7.9l-0.7-0.7l-0.7,0.8c3.6,3.1,7.3,6.5,10.1,9c1.4,1.3,2.6,2.4,3.4,3.1c0.8,0.8,1.3,1.2,1.3,1.2L219.1,454.3
		 l-0.8-0.5L219.1,454.3l0.7-0.7c0,0-7.6-7.1-14.8-13.4l-0.7-0.6l-0.7,0.6c-3.3,2.9-5.6,5.8-7.1,8.4c-1.5,2.7-2.2,5.1-2.2,7.4
		 c0,2.8,1.1,5.1,2.9,6.7c1.8,1.6,4.2,2.5,6.9,2.5c5.2,0,11.2-3.1,15.7-10.3l0.4-0.7l-0.6-0.6L219.1,454.3z"/>
	  <path d="M236.2,465.6l-0.9-0.4c-3.6,8.1-9.4,11.4-14,11.4c-2.1,0-4-0.7-5.3-2c-1.3-1.3-2.1-3.1-2.1-5.5c0-3.5,1.8-8.3,6.6-14.1
		 l-0.8-0.6l-0.5,0.8c3.9,2.6,8.1,5.4,11.2,7.5c1.6,1.1,2.9,2,3.8,2.6s1.5,1,1.5,1L236.2,465.6l-0.9-0.4L236.2,465.6l0.6-0.8
		 c0,0-8.6-6-16.5-11.2l-0.7-0.5l-0.6,0.7c-5,6-7,11.2-7,15.4c0,2.9,1,5.3,2.8,7c1.7,1.7,4.1,2.5,6.6,2.5c5.5,0,12-4,15.8-12.6
		 l0.3-0.8l-0.7-0.5L236.2,465.6z"/>
	  <path d="M255.9,474.2l-1-0.3c-2.8,9.2-8.9,13.1-13.6,13.1c-2,0-3.8-0.7-5.1-2c-1.3-1.3-2.1-3.3-2.1-6c0-3.4,1.3-7.8,4.8-13.3
		 l-0.8-0.5l-0.4,0.9c4.3,2.1,8.7,4.3,12.1,6.1c1.7,0.9,3.1,1.6,4.1,2.1c1,0.5,1.6,0.8,1.6,0.8L255.9,474.2l-1-0.3L255.9,474.2
		 l0.5-0.9c0,0-9.2-4.8-17.8-9l-0.8-0.4l-0.5,0.7c-3.6,5.7-5.2,10.5-5.2,14.4c0,3.1,1,5.7,2.7,7.4c1.7,1.7,4,2.6,6.5,2.6
		 c5.8,0,12.5-4.7,15.5-14.5l0.2-0.8l-0.7-0.4L255.9,474.2z"/>
	  <path d="M276.2,478.3l-1,0c-0.1,5.5-1.8,9.7-4.1,12.4c-2.3,2.7-5.1,4.1-7.6,4.1c-2,0-3.8-0.8-5.2-2.5c-1.4-1.7-2.3-4.3-2.3-8
		 c0-2.7,0.5-5.9,1.7-9.7l-1-0.3l-0.2,1c4.6,0.9,9.5,1.9,13.2,2.7c1.9,0.4,3.4,0.7,4.5,1s1.7,0.4,1.7,0.4L276.2,478.3l-1,0
		 L276.2,478.3l0.2-1c0,0-10.2-2.2-19.5-4l-0.9-0.2l-0.3,0.9c-1.3,4-1.8,7.4-1.8,10.3c0,4,1,7.1,2.8,9.3c1.7,2.1,4.2,3.2,6.7,3.2
		 c3.2,0,6.6-1.7,9.2-4.8c2.6-3.1,4.4-7.7,4.5-13.6l0-0.8l-0.8-0.2L276.2,478.3z"/>
	  <path d="M296.6,479.4l-1,0.1c0.1,1.1,0.2,2.1,0.2,3.1c0,4.9-1.4,8.7-3.4,11.2c-2,2.5-4.6,3.8-7,3.8c-2.1,0-4-0.9-5.6-3
		 c-1.5-2.1-2.6-5.3-2.6-10c0-1.9,0.2-4,0.6-6.3l-1-0.2l0,1c4.7,0.2,9.7,0.5,13.5,0.7c1.9,0.1,3.5,0.2,4.6,0.3
		 c1.1,0.1,1.8,0.1,1.8,0.1L296.6,479.4l-1,0.1L296.6,479.4l0.1-1c0,0-10.4-0.8-19.9-1.2l-0.9,0l-0.1,0.9c-0.4,2.4-0.6,4.6-0.6,6.6
		 c0,5,1.1,8.7,3,11.2c1.9,2.5,4.5,3.8,7.2,3.8c3.1,0,6.2-1.6,8.6-4.6c2.3-2.9,3.9-7.2,3.9-12.4c0-1.1-0.1-2.2-0.2-3.3l-0.1-0.8
		 l-0.8-0.1L296.6,479.4z"/>
	  <path d="M318,476.8l-1,0.2c0.5,2.1,0.7,4.1,0.7,5.9c0,4.3-1.3,7.6-3.1,9.9c-1.8,2.3-4.2,3.5-6.5,3.5c-1.1,0-2.2-0.3-3.3-0.9
		 c-1.6-0.9-3-2.5-4.1-5c-1.1-2.5-1.8-6-1.8-10.5c0-0.6,0-1.2,0-1.9l-1,0l0.1,1c4.7-0.3,9.7-0.6,13.5-0.9c1.9-0.1,3.5-0.2,4.6-0.2
		 c1.1-0.1,1.8-0.1,1.8-0.1L318,476.8l-1,0.2L318,476.8l0-1c0,0-10.4,0.5-19.9,1.2l-0.9,0.1l0,0.9c0,0.7,0,1.3,0,1.9
		 c0,6.2,1.3,10.8,3.3,13.8c1,1.5,2.2,2.7,3.6,3.4c1.3,0.8,2.8,1.1,4.2,1.1c3,0,5.9-1.5,8-4.2c2.1-2.7,3.5-6.5,3.5-11.1
		 c0-2-0.3-4.1-0.8-6.4l-0.2-0.8l-0.8,0L318,476.8z"/>
	  <path d="M339,470.9l-0.9,0.5c2,3.7,2.8,7.2,2.8,10.2c0,3.3-1,6.1-2.5,8c-1.5,1.9-3.5,2.9-5.6,2.9c-2.1,0-4.4-1-6.5-3.5
		 c-2.1-2.5-4-6.4-5.3-12.2l-1,0.2l0.3,0.9c4.5-1.5,9.2-3,12.9-4.2c1.8-0.6,3.3-1.1,4.4-1.4c1.1-0.3,1.7-0.5,1.7-0.5L339,470.9
		 l-0.9,0.5L339,470.9l-0.3-1c0,0-10,3.1-19,6.1l-0.8,0.3l0.2,0.9c1.3,6,3.3,10.3,5.7,13.1c2.4,2.8,5.3,4.2,8,4.2
		 c2.8,0,5.4-1.4,7.2-3.7c1.8-2.3,3-5.5,3-9.2c0-3.3-0.9-7.1-3-11.1l-0.4-0.7l-0.8,0.2L339,470.9z"/>
	  <path d="M357.3,461.8l-0.8,0.6c3.1,4.3,4.3,8.4,4.3,11.9c0,3-0.9,5.4-2.3,7.1c-1.4,1.7-3.3,2.7-5.3,2.7c-2,0-4.2-0.9-6.5-3.1
		 c-2.3-2.2-4.5-5.7-6.4-10.8l-0.9,0.3l0.5,0.9c4.2-2.1,8.7-4.3,12.1-6c1.7-0.8,3.2-1.5,4.2-2c1-0.5,1.6-0.8,1.6-0.8L357.3,461.8
		 l-0.8,0.6L357.3,461.8l-0.4-0.9c0,0-9.5,4.4-17.9,8.7l-0.8,0.4l0.3,0.8c1.9,5.3,4.3,9.1,6.9,11.6c2.5,2.5,5.3,3.6,7.9,3.6
		 c2.7,0,5.2-1.3,6.9-3.4c1.7-2.1,2.7-5,2.7-8.4c0-3.9-1.4-8.5-4.7-13l-0.5-0.7l-0.7,0.3L357.3,461.8z"/>
	  <path d="M374.7,449l-0.7,0.7c4.2,4.5,5.9,9.1,5.9,12.9c0,2.7-0.8,4.9-2.1,6.5c-1.3,1.6-3.1,2.5-5.2,2.5c-1.9,0-4.2-0.8-6.5-2.7
		 c-2.4-1.9-4.8-5-7.1-9.5l-0.9,0.5l0.6,0.8c3.9-2.6,8.1-5.3,11.3-7.3c1.6-1,3-1.9,3.9-2.5c1-0.6,1.5-1,1.5-1L374.7,449l-0.7,0.7
		 L374.7,449l-0.5-0.8c0,0-8.9,5.6-16.7,10.8l-0.7,0.5l0.4,0.8c2.4,4.7,5,8,7.7,10.2c2.6,2.2,5.3,3.2,7.8,3.2c2.7,0,5.1-1.2,6.7-3.2
		 c1.6-2,2.6-4.7,2.6-7.8c0-4.4-1.9-9.5-6.4-14.3l-0.6-0.6l-0.7,0.4L374.7,449z"/>
	  <path d="M388.4,433.6l-0.5,0.9c6.8,4.2,9.5,9.7,9.5,14c0,2.3-0.7,4.2-2,5.6c-1.2,1.4-3,2.2-5.3,2.2c-1.8,0-4-0.6-6.4-1.9
		 c-2.4-1.3-5.1-3.5-7.9-6.5l-0.7,0.7l0.8,0.6c3.1-3.6,6.4-7.4,9-10.2c1.3-1.4,2.4-2.6,3.1-3.4c0.8-0.8,1.2-1.3,1.2-1.3L388.4,433.6
		 l-0.5,0.9L388.4,433.6l-0.7-0.7c0,0-7.1,7.6-13.3,14.9l-0.6,0.7l0.6,0.7c2.9,3.2,5.8,5.5,8.4,6.9c2.7,1.5,5.1,2.1,7.4,2.1
		 c2.8,0,5.1-1.1,6.8-2.9c1.6-1.8,2.5-4.2,2.5-6.9c0-5.2-3.2-11.2-10.5-15.7l-0.7-0.4l-0.6,0.6L388.4,433.6z"/>
	  <path d="M399.5,416.4l-0.4,0.9c8.1,3.6,11.5,9.4,11.5,14c0,2.1-0.7,3.9-1.9,5.2c-1.3,1.3-3.1,2.1-5.5,2.1c-3.5,0-8.3-1.8-14-6.4
		 l-0.6,0.8l0.8,0.5c2.5-4,5.3-8.1,7.4-11.3c1.1-1.6,2-2.9,2.6-3.8c0.6-0.9,1-1.5,1-1.5L399.5,416.4l-0.4,0.9L399.5,416.4l-0.8-0.6
		 c0,0-5.9,8.6-11,16.6l-0.5,0.7l0.7,0.6c5.9,4.9,11.1,6.9,15.2,6.9c2.9,0,5.3-1,7-2.8c1.6-1.7,2.5-4.1,2.5-6.6c0-5.5-4-12-12.7-15.8
		 l-0.8-0.3l-0.5,0.7L399.5,416.4z"/>
	  <path d="M408,396.6l-0.3,1c9.2,2.7,13.2,8.8,13.2,13.6c0,2-0.7,3.8-2,5.1c-1.3,1.3-3.3,2.1-6,2.1c-3.3,0-7.8-1.3-13.2-4.8l-0.5,0.8
		 l0.9,0.4c2-4.2,4.3-8.7,6-12.1c0.9-1.7,1.6-3.1,2.1-4.1c0.5-1,0.8-1.6,0.8-1.6L408,396.6l-0.3,1L408,396.6l-0.9-0.5
		 c0,0-4.8,9.3-8.9,17.8l-0.4,0.8l0.8,0.5c5.6,3.6,10.4,5.1,14.3,5.1c3.1,0,5.7-1,7.4-2.7c1.7-1.7,2.6-4,2.6-6.5
		 c0-5.9-4.8-12.6-14.6-15.5l-0.8-0.2l-0.4,0.7L408,396.6z"/>
	  <path d="M412.1,377.6l0,1c5.5,0.3,9.6,2,12.3,4.3c2.7,2.3,4,5.1,4,7.6c0,2-0.8,3.8-2.4,5.2c-1.6,1.4-4.2,2.3-7.8,2.3
		 c-2.8,0-6.1-0.6-10.1-1.9l-0.3,0.9l1,0.2c1-4.6,2.1-9.4,2.9-13.1c0.4-1.8,0.8-3.4,1-4.5c0.3-1.1,0.4-1.7,0.4-1.7L412.1,377.6l0,1
		 L412.1,377.6l-1-0.2c0,0-2.4,10.2-4.4,19.4l-0.2,0.9l0.9,0.3c4.1,1.4,7.7,2,10.8,2c3.9,0,7-1,9.1-2.8c2.1-1.7,3.1-4.2,3.1-6.7
		 c0-3.2-1.6-6.6-4.7-9.2c-3.1-2.6-7.6-4.5-13.5-4.7l-0.8,0l-0.2,0.8L412.1,377.6z"/>
	  <path d="M413.5,357.2l0.1,1c0.9-0.1,1.8-0.1,2.7-0.1c5,0,8.8,1.5,11.4,3.5c2.6,2,3.9,4.7,3.9,7.1c0,2.1-0.9,4-2.9,5.5
		 c-2,1.5-5.2,2.6-9.7,2.6c-2,0-4.2-0.2-6.8-0.7l-0.2,1l1,0.1c0.3-4.7,0.7-9.7,1-13.5c0.2-1.9,0.3-3.5,0.4-4.6s0.2-1.8,0.2-1.8
		 L413.5,357.2l0.1,1L413.5,357.2l-1-0.1c0,0-1,10.4-1.6,19.9l-0.1,0.9l0.9,0.2c2.6,0.5,5,0.7,7.1,0.7c4.8,0,8.5-1.1,10.9-3
		 c2.5-1.9,3.7-4.5,3.7-7.1c0-3.1-1.6-6.3-4.6-8.7c-3-2.4-7.2-3.9-12.6-3.9c-0.9,0-1.9,0-2.9,0.1l-0.8,0.1l-0.1,0.8L413.5,357.2z"/>
	  <path d="M411.3,335.8l0.2,1c2-0.4,3.8-0.6,5.5-0.6c4.3,0,7.7,1.3,10,3.1c2.3,1.9,3.5,4.2,3.5,6.5c0,2.2-1.1,4.3-3.5,6.1
		 c-2.5,1.7-6.5,2.9-12.2,2.9c-0.8,0-1.7,0-2.6-0.1l-0.1,1l1-0.1c-0.3-4.7-0.5-9.7-0.7-13.5c-0.1-1.9-0.1-3.5-0.2-4.6
		 c0-1.1-0.1-1.8-0.1-1.8L411.3,335.8l0.2,1L411.3,335.8l-1,0c0,0,0.3,10.4,0.9,19.9l0.1,0.9l0.9,0.1c0.9,0.1,1.8,0.1,2.7,0.1
		 c6,0,10.4-1.3,13.4-3.3c3-2,4.4-4.9,4.4-7.7c0-3-1.5-5.9-4.2-8.1c-2.7-2.2-6.6-3.6-11.3-3.6c-1.9,0-3.9,0.2-6,0.7l-0.8,0.2l0,0.8
		 L411.3,335.8z"/>
	  <path d="M404.9,316.1l0.5,0.9c3.7-2,7.2-2.8,10.2-2.8c3.3,0,6.1,1,8,2.5c1.9,1.5,2.9,3.5,2.9,5.6c0,2.1-1,4.3-3.5,6.5
		 c-2.5,2.1-6.4,4.1-12.2,5.3l0.2,1l0.9-0.3c-1.5-4.5-3.1-9.2-4.2-12.8c-0.6-1.8-1-3.3-1.4-4.4c-0.3-1.1-0.5-1.7-0.5-1.7L404.9,316.1
		 l0.5,0.9L404.9,316.1l-1,0.3c0,0,3,10,6.1,19l0.3,0.8l0.9-0.2c6-1.3,10.2-3.3,13-5.7c2.8-2.4,4.1-5.3,4.1-8c0-2.8-1.4-5.4-3.7-7.2
		 c-2.3-1.8-5.5-3-9.2-3c-3.3,0-7.1,0.9-11.1,3l-0.7,0.4l0.2,0.8L404.9,316.1z"/>
	  <path d="M395.8,297.9l0.6,0.8c4.3-3.1,8.4-4.3,11.9-4.3c3,0,5.4,0.9,7.1,2.3c1.7,1.4,2.7,3.3,2.7,5.3c0,2-0.9,4.2-3.1,6.5
		 c-2.2,2.3-5.7,4.5-10.8,6.4l0.3,0.9l0.9-0.5c-2.1-4.2-4.3-8.7-6-12.1c-0.8-1.7-1.5-3.1-2-4.2c-0.5-1-0.8-1.6-0.8-1.6L395.8,297.9
		 l0.6,0.8L395.8,297.9l-0.9,0.4c0,0,4.4,9.4,8.7,17.9l0.4,0.8l0.8-0.3c5.3-1.9,9.1-4.3,11.6-6.9c2.5-2.5,3.6-5.3,3.6-7.9
		 c0-2.7-1.3-5.2-3.4-6.9c-2.1-1.7-5-2.7-8.4-2.7c-3.9,0-8.5,1.4-13,4.7l-0.7,0.5l0.4,0.7L395.8,297.9z"/>
	  <path d="M383,280.5l0.7,0.7c4.5-4.2,9.1-5.9,12.9-5.9c2.7,0,5,0.8,6.5,2.1c1.6,1.3,2.5,3.1,2.5,5.2c0,1.9-0.8,4.1-2.7,6.5
		 c-1.9,2.4-5,4.8-9.5,7.1l0.5,0.9l0.8-0.6c-2.6-3.9-5.4-8.1-7.4-11.3c-1-1.6-1.9-2.9-2.5-3.9c-0.6-0.9-1-1.5-1-1.5L383,280.5
		 l0.7,0.7L383,280.5l-0.8,0.5c0,0,5.6,8.8,10.9,16.7l0.5,0.7l0.8-0.4c4.7-2.4,8-5,10.1-7.6c2.1-2.6,3.1-5.3,3.1-7.8
		 c0-2.7-1.2-5.1-3.2-6.7c-2-1.7-4.7-2.6-7.8-2.6c-4.4,0-9.5,1.9-14.3,6.4l-0.6,0.6l0.4,0.7L383,280.5z"/>
	  <path d="M367.4,265.5l0.8,0.5c4.2-6.7,9.7-9.4,14-9.4c2.3,0,4.2,0.7,5.6,2c1.4,1.2,2.2,3,2.2,5.3c0,1.8-0.6,4-1.9,6.4
		 c-1.4,2.4-3.5,5.1-6.6,7.9l0.7,0.7l0.7-0.8c-3.6-3.1-7.3-6.5-10.1-9c-1.4-1.3-2.6-2.4-3.4-3.1c-0.8-0.8-1.3-1.2-1.3-1.2
		 L367.4,265.5l0.8,0.5L367.4,265.5l-0.7,0.7c0,0,7.6,7.1,14.8,13.4l0.7,0.6l0.7-0.6c3.3-2.9,5.6-5.8,7.1-8.4
		 c1.5-2.7,2.2-5.1,2.2-7.4c0-2.8-1.1-5.1-2.9-6.7c-1.8-1.6-4.2-2.5-6.9-2.5c-5.2,0-11.2,3.1-15.7,10.3l-0.4,0.7l0.6,0.6L367.4,265.5z"/>
	  <path d="M350.3,254.2l0.9,0.4c3.6-8.1,9.4-11.4,14-11.4c2.1,0,4,0.7,5.3,2c1.3,1.3,2.1,3.1,2.1,5.5c0,3.5-1.8,8.3-6.6,14.1l0.8,0.6
		 l0.5-0.8c-3.9-2.6-8.1-5.4-11.2-7.5c-1.6-1.1-2.9-2-3.8-2.6c-0.9-0.6-1.5-1-1.5-1L350.3,254.2l0.9,0.4L350.3,254.2l-0.6,0.8
		 c0,0,8.6,6,16.5,11.2l0.7,0.5l0.6-0.7c5-6,7-11.2,7-15.4c0-2.9-1-5.3-2.8-7c-1.7-1.7-4.1-2.5-6.6-2.5c-5.5,0-12,4-15.8,12.6
		 l-0.3,0.8l0.7,0.5L350.3,254.2z"/>
	  <path d="M330.6,245.6l1,0.3c2.8-9.2,8.9-13.1,13.6-13.1c2,0,3.8,0.7,5.1,2c1.3,1.3,2.1,3.3,2.1,6c0,3.4-1.3,7.8-4.8,13.3l0.8,0.5
		 l0.4-0.9c-4.3-2.1-8.7-4.3-12.1-6.1c-1.7-0.9-3.1-1.6-4.1-2.1c-1-0.5-1.6-0.8-1.6-0.8L330.6,245.6l1,0.3L330.6,245.6l-0.5,0.9
		 c0,0,9.2,4.8,17.8,9l0.8,0.4l0.5-0.7c3.6-5.7,5.2-10.5,5.2-14.4c0-3.1-1-5.7-2.7-7.4c-1.7-1.7-4-2.6-6.5-2.6
		 c-5.8,0-12.5,4.7-15.5,14.5l-0.2,0.8l0.7,0.4L330.6,245.6z"/>
	  <path d="M310.3,241.5l1,0c0.1-5.5,1.8-9.7,4.1-12.4c2.3-2.7,5.1-4.1,7.6-4.1c2,0,3.8,0.8,5.2,2.5c1.4,1.7,2.3,4.3,2.3,8
		 c0,2.7-0.5,5.9-1.7,9.7l1,0.3l0.2-1c-4.6-0.9-9.5-1.9-13.2-2.7c-1.9-0.4-3.4-0.7-4.5-1c-1.1-0.2-1.7-0.4-1.7-0.4L310.3,241.5l1,0
		 L310.3,241.5l-0.2,1c0,0,10.2,2.2,19.5,4l0.9,0.2l0.3-0.9c1.3-4,1.8-7.4,1.8-10.3c0-4-1-7.1-2.8-9.3c-1.7-2.1-4.2-3.2-6.7-3.2
		 c-3.2,0-6.6,1.7-9.2,4.8c-2.6,3.1-4.4,7.7-4.5,13.6l0,0.8l0.8,0.2L310.3,241.5z"/>
	  <path d="M289.9,240.4l1-0.1c-0.1-1.1-0.2-2.1-0.2-3.1c0-4.9,1.4-8.7,3.4-11.2c2-2.5,4.6-3.8,7-3.8c2.1,0,4,0.9,5.6,3
		 c1.5,2.1,2.6,5.3,2.6,10c0,1.9-0.2,4-0.6,6.3l1,0.2l0-1c-4.7-0.2-9.7-0.5-13.5-0.7c-1.9-0.1-3.5-0.2-4.6-0.3s-1.8-0.1-1.8-0.1
		 L289.9,240.4l1-0.1L289.9,240.4l-0.1,1c0,0,10.4,0.8,19.9,1.2l0.9,0l0.1-0.9c0.4-2.4,0.6-4.6,0.6-6.6c0-5-1.1-8.7-3-11.2
		 c-1.9-2.5-4.5-3.8-7.2-3.8c-3.1,0-6.2,1.6-8.6,4.6c-2.3,2.9-3.9,7.2-3.9,12.4c0,1.1,0.1,2.2,0.2,3.3l0.1,0.8l0.8,0.1L289.9,240.4z"/>
	  <path d="M268.5,243l1-0.2c-0.5-2.1-0.7-4.1-0.7-5.9c0-4.3,1.3-7.6,3.1-9.9c1.8-2.3,4.2-3.5,6.5-3.5c1.1,0,2.2,0.3,3.3,0.9
		 c1.6,0.9,3,2.5,4.1,5c1.1,2.5,1.8,6,1.8,10.5c0,0.6,0,1.2,0,1.9l1,0l-0.1-1c-4.7,0.3-9.7,0.6-13.5,0.9c-1.9,0.1-3.5,0.2-4.6,0.2
		 c-1.1,0.1-1.8,0.1-1.8,0.1L268.5,243l1-0.2L268.5,243l0,1c0,0,10.4-0.5,19.9-1.2l0.9-0.1l0-0.9c0-0.7,0-1.3,0-1.9
		 c0-6.2-1.3-10.8-3.3-13.8c-1-1.5-2.3-2.7-3.6-3.4c-1.3-0.8-2.8-1.1-4.2-1.1c-3,0-5.9,1.5-8,4.2c-2.1,2.7-3.5,6.5-3.5,11.1
		 c0,2,0.3,4.1,0.8,6.4l0.2,0.8l0.8,0L268.5,243z"/>
	  <path d="M247,250l0.9-0.5c-1.9-3.7-2.7-7.1-2.7-10.1c0-3.3,1-6.1,2.5-8c1.5-1.9,3.5-2.9,5.6-2.9c2.1,0,4.4,1,6.5,3.5
		 c2.1,2.5,4,6.4,5.2,12.2l1-0.2l-0.3-0.9c-4.5,1.5-9.2,3-12.9,4.1c-1.8,0.6-3.3,1-4.4,1.4s-1.7,0.5-1.7,0.5L247,250l0.9-0.5L247,250
		 l0.3,1c0,0,10-3,19-6l0.8-0.3l-0.2-0.9c-1.2-6-3.3-10.3-5.7-13.1c-2.4-2.8-5.2-4.2-8-4.2c-2.8,0-5.4,1.4-7.2,3.7
		 c-1.8,2.3-3,5.5-3,9.2c0,3.3,0.9,7.1,3,11l0.4,0.7l0.8-0.2L247,250z"/>
	  <path d="M228.7,259l0.8-0.6c-3.1-4.3-4.3-8.4-4.3-11.8c0-3,0.9-5.4,2.3-7.1c1.4-1.7,3.3-2.7,5.3-2.7c2,0,4.3,0.9,6.5,3.1
		 c2.3,2.2,4.5,5.7,6.4,10.9l0.9-0.3l-0.4-0.9c-4.3,2.1-8.8,4.2-12.2,5.9c-1.7,0.8-3.2,1.5-4.2,2c-1,0.5-1.6,0.8-1.6,0.8L228.7,259
		 l0.8-0.6L228.7,259l0.4,0.9c0,0,9.4-4.4,18-8.6l0.8-0.4l-0.3-0.8c-1.9-5.4-4.3-9.1-6.9-11.6c-2.6-2.5-5.3-3.6-7.9-3.6
		 c-2.7,0-5.2,1.3-6.9,3.4c-1.7,2.1-2.7,5-2.7,8.4c0,3.9,1.4,8.4,4.7,13l0.5,0.7l0.7-0.4L228.7,259z"/>
	  <path d="M211.2,271.7l0.7-0.7c-4.2-4.5-5.8-9.1-5.8-12.9c0-2.7,0.8-5,2.1-6.6c1.3-1.6,3.1-2.5,5.2-2.5c1.9,0,4.2,0.8,6.5,2.7
		 c2.4,1.9,4.8,5,7.1,9.6l0.9-0.5l-0.6-0.8c-3.9,2.6-8.1,5.3-11.3,7.4c-1.6,1-3,1.9-3.9,2.5c-1,0.6-1.5,0.9-1.5,0.9L211.2,271.7
		 l0.7-0.7L211.2,271.7l0.5,0.9c0,0,8.9-5.5,16.8-10.8l0.7-0.5l-0.4-0.8c-2.4-4.7-5-8-7.6-10.2c-2.6-2.2-5.3-3.2-7.8-3.2
		 c-2.7,0-5.1,1.2-6.7,3.2c-1.7,2-2.6,4.7-2.6,7.8c0,4.4,1.9,9.4,6.3,14.3l0.6,0.6l0.7-0.4L211.2,271.7z"/>
	  <path d="M197.5,287.2l0.5-0.8c-6.8-4.2-9.5-9.7-9.5-14c0-2.3,0.7-4.2,1.9-5.6c1.2-1.4,3-2.2,5.2-2.2c1.8,0,4,0.6,6.4,1.9
		 c2.4,1.4,5.1,3.5,7.9,6.6l0.7-0.7l-0.8-0.7c-3.1,3.5-6.4,7.2-9,10c-1.3,1.4-2.4,2.6-3.1,3.4c-0.8,0.8-1.2,1.3-1.2,1.3L197.5,287.2
		 l0.5-0.8L197.5,287.2l0.7,0.7c0,0,7.1-7.7,13.3-14.8l0.6-0.7l-0.6-0.7c-2.9-3.3-5.8-5.6-8.4-7c-2.7-1.5-5.1-2.2-7.4-2.2
		 c-2.8,0-5.1,1.1-6.7,2.9c-1.6,1.8-2.5,4.2-2.5,6.9c0,5.2,3.2,11.3,10.4,15.7l0.7,0.4l0.6-0.6L197.5,287.2z"/>
	  <path d="M186.3,304.2l0.4-0.9c-8.1-3.6-11.5-9.4-11.5-14c0-2.1,0.7-3.9,1.9-5.2c1.3-1.3,3.1-2.1,5.5-2.1c3.5,0,8.3,1.8,14.1,6.6
		 l0.6-0.8l-0.8-0.5c-2.6,4-5.4,8.1-7.5,11.2c-1.1,1.6-2,2.9-2.6,3.8c-0.6,0.9-1,1.4-1,1.5L186.3,304.2l0.4-0.9L186.3,304.2l0.8,0.6
		 c0,0,5.9-8.5,11.1-16.5l0.5-0.7l-0.7-0.6c-6-5-11.2-7-15.3-7c-2.9,0-5.3,1-7,2.7c-1.6,1.7-2.5,4.1-2.5,6.6c0,5.5,4,12,12.6,15.8
		 l0.8,0.3l0.5-0.7L186.3,304.2z"/>
	  <path d="M177.7,324l0.3-1c-9.2-2.8-13.2-8.8-13.2-13.6c0-2,0.7-3.8,2-5.1c1.3-1.3,3.3-2.1,6-2.1c3.4,0,7.8,1.3,13.3,4.8l0.5-0.8
		 l-0.9-0.4c-2.1,4.3-4.3,8.7-6.1,12.1c-0.9,1.7-1.6,3.1-2.1,4.1c-0.5,1-0.8,1.6-0.8,1.6L177.7,324l0.3-1L177.7,324l0.9,0.5
		 c0,0,4.8-9.2,9-17.8l0.4-0.8l-0.8-0.5c-5.7-3.6-10.5-5.1-14.4-5.1c-3.1,0-5.7,1-7.4,2.7c-1.7,1.7-2.6,4-2.6,6.5
		 c0,5.8,4.8,12.5,14.6,15.5l0.8,0.2l0.4-0.7L177.7,324z"/>
	  <path d="M173.2,344.1l0-1c-5.5-0.2-9.7-1.8-12.4-4.1c-2.7-2.3-4.1-5.1-4.1-7.6c0-2,0.8-3.8,2.5-5.2c1.7-1.4,4.3-2.3,8-2.3
		 c2.7,0,6,0.5,9.8,1.7l0.3-1l-1-0.2c-0.9,4.6-2,9.5-2.8,13.2c-0.4,1.9-0.7,3.4-1,4.5c-0.2,1.1-0.4,1.7-0.4,1.7L173.2,344.1l0-1
		 L173.2,344.1l1,0.2c0,0,2.2-10.2,4.1-19.5l0.2-0.9l-0.9-0.3c-4-1.3-7.5-1.8-10.4-1.8c-4,0-7.1,1-9.2,2.8c-2.1,1.7-3.2,4.2-3.2,6.7
		 c0,3.2,1.7,6.6,4.8,9.2c3.1,2.6,7.7,4.4,13.6,4.6l0.8,0l0.2-0.8L173.2,344.1z"/>
   </g>
   <g fill="none" stroke="white"  stroke-width="2.6" stroke-linecap="round" stroke-linejoin="round" >
	  <path d="M301.7,213c4.3,0,8.4,3.4,9.5,10.8c0.1,0.4,0.4,0.8,0.9,0.9c0.2,0,0.4,0.1,0.7,0.1h0.1c0.4,0,0.7-0.2,0.9-0.6
		 c2.6-5.4,7.1-8.2,11.1-8.2c4.9,0,9.3,4.2,9,12.8c0,0.5,0.3,0.9,0.7,1c0.6,0.2,1.1,0.4,1.7,0.5c0.1,0,0.2,0,0.3,0
		 c0.3,0,0.6-0.1,0.8-0.4c3.3-4,7.3-5.9,10.9-5.9c5.8,0,10.4,5,8.2,13.9c-0.1,0.5,0.1,0.9,0.5,1.1s0.9,0.5,1.3,0.7
		 c0.1,0.1,0.3,0.1,0.5,0.1c0.3,0,0.5-0.1,0.7-0.3c3.3-3.1,6.9-4.5,10.1-4.5c6.7,0,11.6,6.1,7.3,15.8c-0.2,0.4-0.1,0.9,0.3,1.2
		 c0.1,0.1,0.2,0.1,0.3,0.2c0.2,0.1,0.4,0.2,0.6,0.2c0.2,0,0.4-0.1,0.6-0.2c3-2.1,6.2-3.1,9-3.1c7.7,0,12.9,7.2,6.3,17.3
		 c-0.3,0.4-0.2,0.9,0.1,1.2c0.3,0.3,0.5,0.6,0.8,0.9c0.4,0.4,0.7,0.8,1.1,1.2c0.2,0.2,0.5,0.3,0.7,0.3c0.1,0,0.2,0,0.4-0.1
		 c2-0.7,4-1.1,5.8-1.1c9.3,0,14.8,8.7,6.5,17.5c-0.3,0.3-0.4,0.8-0.1,1.2c0.1,0.2,0.2,0.3,0.3,0.5c0.2,0.3,0.4,0.6,0.6,0.9
		 c0.2,0.3,0.5,0.5,0.9,0.5c0.1,0,0.2,0,0.2,0c1.4-0.3,2.7-0.5,4-0.5c11,0,16.7,11,4.7,19.5c0.1,0.3,0.3,0.7,0.4,1
		 c0.1,0.3,0.2,0.5,0.3,0.8c0.8-0.1,1.6-0.1,2.4-0.1c12.7,0,18.4,12.9,4.4,20.1c-0.4,0.2-0.6,0.7-0.5,1.1c0.1,0.3,0.1,0.5,0.2,0.8
		 c0,0.1,0,0.1,0,0.2c0.1,0.4,0.2,0.8,0.2,1.2c14.3,1.7,18.2,16.8,3.2,20.7c-0.5,0.1-0.8,0.5-0.8,1s0,0.9,0,1.4
		 c0,0.4,0.3,0.8,0.7,0.9c13.4,4,14.8,19.3-1.2,20.8c-0.5,0-0.8,0.4-0.9,0.9c0,0.1,0,0.2,0,0.3c-0.1,0.4,0.2,0.9,0.6,1
		 c12.1,5.7,11.7,20-2.7,20.4c-0.6,1.5-0.6,1.6-1.2,3.1c7.9,7.6,5.4,18.5-4.9,18.5c-1.3,0-2.8-0.2-4.4-0.6c-0.1,0-0.2,0-0.3,0
		 c-0.4,0-0.7,0.2-0.9,0.5c-0.2,0.4-0.4,0.8-0.7,1.2c-0.2,0.4-0.1,0.9,0.2,1.2c8.1,8.2,5.2,19.2-4.3,19.2c-2,0-4.4-0.5-6.9-1.6
		 c-0.1-0.1-0.3-0.1-0.4-0.1c-0.3,0-0.6,0.1-0.8,0.4c0,0.1-0.1,0.1-0.1,0.2c-0.3,0.4-0.3,0.8,0,1.2c6.3,8.7,2.9,18.5-5.4,18.5
		 c-2.5,0-5.4-0.9-8.7-3c-0.2-0.1-0.4-0.2-0.6-0.2c-0.2,0-0.5,0.1-0.7,0.3c-0.4,0.3-0.7,0.7-1.1,1c-0.3,0.3-0.4,0.7-0.2,1.1
		 c3.7,9.2-0.7,17.1-7.5,17.1c-2.7,0-5.8-1.3-8.9-4.3c-0.2-0.2-0.5-0.3-0.7-0.3s-0.4,0.1-0.5,0.2c-0.4,0.3-0.8,0.5-1.2,0.8
		 c-0.4,0.2-0.5,0.7-0.4,1.1c2.1,8.9-2.5,15.7-8.6,15.7c-3.1,0-6.6-1.8-9.8-6c-0.2-0.3-0.5-0.4-0.8-0.4c-0.1,0-0.3,0-0.4,0.1
		 c-0.1,0.1-0.3,0.1-0.4,0.2c-0.4,0.2-0.6,0.6-0.6,1c0.6,8.3-4.1,14-9.6,14c-3.5,0-7.2-2.3-10.1-7.7c-0.2-0.3-0.5-0.5-0.9-0.5
		 c-0.1,0-0.1,0-0.2,0c-1.1,0.2-2.1,0.5-3.2,0.7c-0.4,0.1-0.7,0.4-0.8,0.8c-1.4,6.8-6.1,10.8-10.7,10.8c-3.7,0-7.3-2.5-9.3-8.2
		 c-0.1-0.4-0.5-0.7-0.9-0.7c-0.7,0-1.4,0.1-2.1,0.1c-0.4,0-0.8,0.3-0.9,0.7c-2.1,6.1-6.7,9.5-11,9.5c-4.3,0-8.3-3.3-9.4-10.5
		 c-0.1-0.4-0.4-0.8-0.9-0.9c-0.3,0-0.6-0.1-0.8-0.1h-0.1c-0.4,0-0.7,0.2-0.9,0.6c-2.7,5.3-7,8-11,8c-4.9,0-9.2-4-9-12.5
		 c0-0.4-0.3-0.8-0.7-1c-0.6-0.2-1.3-0.4-1.9-0.6c-0.1,0-0.2,0-0.3,0c-0.3,0-0.6,0.1-0.8,0.4c-3.2,3.8-7.2,5.6-10.6,5.6
		 c-5.7,0-10.2-4.8-8.3-13.5c0.1-0.4-0.1-0.9-0.5-1.1c-0.5-0.3-1.1-0.6-1.6-0.8c-0.1-0.1-0.3-0.1-0.5-0.1c-0.2,0-0.5,0.1-0.7,0.3
		 c-3.2,2.9-6.7,4.2-9.8,4.2c-6.6,0-11.4-5.9-7.5-15.4c0.2-0.4,0.1-0.9-0.3-1.2c-0.2-0.1-0.3-0.3-0.5-0.4c-0.2-0.1-0.4-0.2-0.6-0.2
		 c-0.2,0-0.4,0.1-0.6,0.2c-2.9,1.9-5.9,2.8-8.6,2.8c-7.6,0-12.7-7-6.6-16.8c0.2-0.4,0.2-0.9-0.1-1.2c-0.3-0.3-0.6-0.7-0.9-1
		 c-0.2-0.2-0.5-0.3-0.7-0.3c-0.1,0-0.3,0-0.4,0.1c-2.2,0.9-4.4,1.3-6.3,1.3c-9.3,0-14.8-8.7-6.3-17.7c0.3-0.3,0.4-0.8,0.1-1.2
		 c-0.3-0.4-0.5-0.8-0.8-1.2c-0.2-0.3-0.5-0.5-0.8-0.5c-0.1,0-0.2,0-0.3,0c-1.6,0.4-3.2,0.6-4.6,0.6c-10.8,0-16.5-10.7-5-19.2
		 c0.4-0.3,0.5-0.8,0.3-1.2c0,0,0-0.1-0.1-0.1c-0.2-0.4-0.5-0.6-0.9-0.6H166c-0.8,0.1-1.6,0.1-2.3,0.1c-12.6,0-18.3-13-4-20.2
		 c0.4-0.2,0.6-0.7,0.5-1.1c-0.1-0.4-0.2-0.8-0.3-1.2c-0.1-0.4-0.4-0.7-0.9-0.8c-14.3-1.6-18.2-16.8-2.8-20.8c0.5-0.1,0.8-0.5,0.8-1
		 c0-0.4,0-0.7,0-1.1c0-0.5-0.3-0.8-0.8-0.9c-14.1-3.5-15.8-19.5,0.9-21c0.5,0,0.9-0.4,0.9-0.9c0.1-0.5-0.2-0.9-0.6-1.1
		 c-12.9-5.4-12.7-20.7,2.8-20.7c0.5,0,1.1,0,1.6,0.1c0,0,0,0,0.1,0c0.4,0,0.8-0.3,1-0.7c0.1-0.4,0.3-0.8,0.4-1.2
		 c0.1-0.4,0-0.8-0.3-1.1c-9.7-7.6-7.6-19.9,3.4-19.9c1.3,0,2.8,0.2,4.4,0.6c0.1,0,0.2,0,0.3,0c0.4,0,0.7-0.2,0.9-0.5
		 c0.2-0.4,0.4-0.9,0.7-1.3c0.2-0.4,0.1-0.8-0.2-1.2c-7.9-8.2-5-19.1,4.4-19.1c2,0,4.2,0.5,6.7,1.5c0.1,0.1,0.3,0.1,0.4,0.1
		 c0.3,0,0.6-0.1,0.8-0.4c0.1-0.1,0.2-0.2,0.3-0.3c0.3-0.3,0.3-0.8,0-1.2c-6-8.7-2.5-18.2,5.6-18.2c2.4,0,5.2,0.8,8.3,2.7
		 c0.2,0.1,0.4,0.2,0.5,0.2c0.2,0,0.5-0.1,0.7-0.3c0.4-0.4,0.9-0.8,1.3-1.2c0.3-0.3,0.4-0.7,0.3-1.1c-3.3-8.9,1.1-16.6,7.7-16.6
		 c2.6,0,5.5,1.2,8.4,3.9c0.2,0.2,0.4,0.3,0.7,0.3c0.2,0,0.4-0.1,0.5-0.2c0.5-0.3,1.1-0.7,1.6-1c0.4-0.2,0.5-0.6,0.4-1.1
		 c-1.7-8.5,2.9-15,8.8-15c3,0,6.2,1.6,9.3,5.4c0.2,0.2,0.5,0.4,0.8,0.4c0.1,0,0.3,0,0.4-0.1c0.3-0.1,0.6-0.3,0.9-0.4
		 c0.4-0.2,0.6-0.5,0.6-1c-0.2-7.8,4.4-13.1,9.7-13.1c3.3,0,6.8,2,9.6,6.8c0.2,0.3,0.5,0.5,0.9,0.5c0.1,0,0.1,0,0.2,0
		 c1.4-0.3,2.8-0.6,4.2-0.9c0.4-0.1,0.7-0.4,0.8-0.8c1.4-6.9,6.1-10.9,10.7-10.9c3.7,0,7.4,2.6,9.4,8.4c0.1,0.4,0.5,0.7,1,0.7
		 c0.7,0,1.3,0,2-0.1c0.4,0,0.8-0.3,0.9-0.7C292.7,216.4,297.3,213,301.7,213 M301.7,211c-5.4,0-10.4,4.2-12.7,10.4
		 c-0.2,0-0.4,0-0.6,0c-2.1-5.7-6.2-9.1-11-9.1c-5.8,0-10.9,4.8-12.5,11.9c-1,0.2-1.9,0.4-2.9,0.6c-2.9-4.6-6.8-7.2-11-7.2
		 c-2.8,0-5.5,1.2-7.6,3.3c-2.6,2.6-4,6.4-4.1,10.6c-3-3.3-6.5-5.2-10-5.2c-3.1,0-5.9,1.4-8,3.9c-2.7,3.2-3.7,7.8-2.9,12.8
		 c-0.1,0.1-0.3,0.2-0.4,0.3c-3-2.6-6.1-3.9-9.2-3.9c-3.4,0-6.4,1.6-8.4,4.5c-2.6,3.7-3.1,9-1.4,14.1c-0.1,0.1-0.2,0.2-0.3,0.3
		 c-3-1.7-5.9-2.6-8.7-2.6c-4.1,0-7.5,2-9.3,5.5c-2.1,4-1.7,9.1,0.8,13.9c-1.9-0.6-3.6-0.9-5.3-0.9c-4.6,0-8.4,2.3-10.1,6.3
		 c-2,4.8-0.6,10.9,3.7,15.7c-1.4-0.3-2.8-0.5-4.1-0.5c-5.3,0-9.4,2.6-11,7c-1.8,5.2,0.4,11.3,5.6,15.8c-0.2,0-0.5,0-0.7,0
		 c-8.9,0-13,4.6-13.9,9c-1.1,5.3,2,10.8,7.5,14.1c-7.4,1.6-10.4,6.2-10.7,10.3c-0.5,6,4.1,11.5,11.2,13.8c-7.7,2.5-10.2,7.7-9.9,12
		 c0.4,6,5.8,10.9,13.3,12.2c-6.4,3.6-9.5,8.8-8.2,14.1c1.3,5.5,6.9,9.2,13.9,9.3c-4.2,4-5.9,8.7-4.5,13c1.6,4.8,6.6,8,12.8,8
		 c1.4,0,2.9-0.2,4.3-0.5c-4,4.5-5.2,9.4-3.4,13.6c1.8,4.2,6.3,6.8,11.7,6.8c2.1,0,4.3-0.4,6.4-1.2c-4,6.9-2.5,11.6-1.3,13.8
		 c1.9,3.4,5.6,5.4,10,5.4c2.7,0,5.4-0.7,8-2.2c-1.5,4.6-1.1,8.7,0.9,11.8c1.9,2.9,5.3,4.6,9.1,4.6c3.6,0,7.4-1.5,10.6-4.2
		 c0.1,0.1,0.2,0.1,0.3,0.2c-0.9,4.5-0.1,8.5,2.1,11.3c2,2.5,4.9,3.8,8.3,3.8c4.2,0,8.4-2.1,11.7-5.8c0.2,0.1,0.4,0.1,0.6,0.2
		 c0.1,5.8,2.1,9,3.8,10.8c1.9,1.9,4.5,3,7.2,3c4.7,0,9.2-2.9,12.1-7.7c1.8,7.8,6.8,10.7,11.1,10.7c5.4,0,10.3-4,12.6-10.2
		 c0.2,0,0.5,0,0.7,0c2.1,5.6,6.2,8.9,10.9,8.9c5.8,0,10.8-4.8,12.5-11.8c0.6-0.1,1.3-0.3,1.9-0.4c4,7,8.9,8.1,11.5,8.1
		 c2.9,0,5.6-1.3,7.8-3.6c2.4-2.6,3.8-6.3,3.9-10.4c3,3.3,6.5,5.1,10,5.1c3.2,0,6.1-1.5,8.2-4.1c2.7-3.4,3.6-8.3,2.6-13.4
		 c3.1,2.8,6.5,4.3,9.7,4.3c3.4,0,6.5-1.7,8.5-4.6c2.6-3.9,3-9.3,1-14.6c3.2,1.9,6.2,2.9,9.1,2.9c4.1,0,7.6-2,9.4-5.6
		 c2-4,1.7-9.1-0.9-13.8c1.8,0.6,3.6,0.9,5.3,0.9c4.7,0,8.5-2.4,10.1-6.3c2-4.8,0.5-10.9-3.8-15.7c1.4,0.3,2.8,0.4,4.1,0.4
		 c5.1,0,9.1-2.4,10.8-6.6c1.8-4.5,0.4-10-3.5-14.4l0.1-0.3l0.1-0.3c7.4-0.6,10.9-4.9,11.7-8.8c1.1-5.2-1.9-10.7-7.3-14.2
		 c7.4-1.5,10.5-6.1,10.8-10.1c0.6-5.9-3.9-11.6-11-14c7.9-2.4,10.4-7.7,10.1-12c-0.4-5.9-5.7-10.8-13-12.2c6.5-3.5,9.6-8.8,8.3-14.1
		 c-1.3-5.4-6.9-9.2-13.7-9.4c4.3-3.9,6-8.6,4.7-13c-1.6-5-6.6-8.2-13-8.2c-1.2,0-2.5,0.1-3.7,0.4c0-0.1-0.1-0.1-0.1-0.2
		 c3.9-4.4,5.1-9.3,3.3-13.5c-1.8-4.2-6.3-6.8-11.8-6.8c-1.9,0-3.9,0.3-5.9,1c-0.2-0.2-0.4-0.5-0.7-0.7c-0.1-0.1-0.2-0.2-0.3-0.3
		 c4.3-7,2.9-11.9,1.6-14.2c-1.9-3.4-5.6-5.5-10.1-5.5c-2.7,0-5.4,0.7-8,2.2c1.4-4.5,1.2-8.6-0.9-11.7c-1.9-3-5.3-4.7-9.1-4.7
		 c-3.8,0-7.7,1.6-11,4.5c1-4.7,0.3-8.8-1.9-11.7c-2-2.5-4.9-3.9-8.3-3.9c-4.3,0-8.6,2.2-12,6.1c-0.1,0-0.2-0.1-0.3-0.1
		 c0-5.9-2-9.3-3.8-11.1c-1.9-2-4.5-3.1-7.3-3.1c-4.7,0-9.2,2.9-12.1,7.7C311,213.8,306,211,301.7,211z"/>
   </g>
   <g fill="none" stroke="white"  stroke-width="3" stroke-linecap="round" stroke-linejoin="round" filter="url(#blurMe)">
	  <path d="M301.7,213c4.3,0,8.4,3.4,9.5,10.8c0.1,0.4,0.4,0.8,0.9,0.9c0.2,0,0.4,0.1,0.7,0.1h0.1c0.4,0,0.7-0.2,0.9-0.6
		 c2.6-5.4,7.1-8.2,11.1-8.2c4.9,0,9.3,4.2,9,12.8c0,0.5,0.3,0.9,0.7,1c0.6,0.2,1.1,0.4,1.7,0.5c0.1,0,0.2,0,0.3,0
		 c0.3,0,0.6-0.1,0.8-0.4c3.3-4,7.3-5.9,10.9-5.9c5.8,0,10.4,5,8.2,13.9c-0.1,0.5,0.1,0.9,0.5,1.1s0.9,0.5,1.3,0.7
		 c0.1,0.1,0.3,0.1,0.5,0.1c0.3,0,0.5-0.1,0.7-0.3c3.3-3.1,6.9-4.5,10.1-4.5c6.7,0,11.6,6.1,7.3,15.8c-0.2,0.4-0.1,0.9,0.3,1.2
		 c0.1,0.1,0.2,0.1,0.3,0.2c0.2,0.1,0.4,0.2,0.6,0.2c0.2,0,0.4-0.1,0.6-0.2c3-2.1,6.2-3.1,9-3.1c7.7,0,12.9,7.2,6.3,17.3
		 c-0.3,0.4-0.2,0.9,0.1,1.2c0.3,0.3,0.5,0.6,0.8,0.9c0.4,0.4,0.7,0.8,1.1,1.2c0.2,0.2,0.5,0.3,0.7,0.3c0.1,0,0.2,0,0.4-0.1
		 c2-0.7,4-1.1,5.8-1.1c9.3,0,14.8,8.7,6.5,17.5c-0.3,0.3-0.4,0.8-0.1,1.2c0.1,0.2,0.2,0.3,0.3,0.5c0.2,0.3,0.4,0.6,0.6,0.9
		 c0.2,0.3,0.5,0.5,0.9,0.5c0.1,0,0.2,0,0.2,0c1.4-0.3,2.7-0.5,4-0.5c11,0,16.7,11,4.7,19.5c0.1,0.3,0.3,0.7,0.4,1
		 c0.1,0.3,0.2,0.5,0.3,0.8c0.8-0.1,1.6-0.1,2.4-0.1c12.7,0,18.4,12.9,4.4,20.1c-0.4,0.2-0.6,0.7-0.5,1.1c0.1,0.3,0.1,0.5,0.2,0.8
		 c0,0.1,0,0.1,0,0.2c0.1,0.4,0.2,0.8,0.2,1.2c14.3,1.7,18.2,16.8,3.2,20.7c-0.5,0.1-0.8,0.5-0.8,1s0,0.9,0,1.4
		 c0,0.4,0.3,0.8,0.7,0.9c13.4,4,14.8,19.3-1.2,20.8c-0.5,0-0.8,0.4-0.9,0.9c0,0.1,0,0.2,0,0.3c-0.1,0.4,0.2,0.9,0.6,1
		 c12.1,5.7,11.7,20-2.7,20.4c-0.6,1.5-0.6,1.6-1.2,3.1c7.9,7.6,5.4,18.5-4.9,18.5c-1.3,0-2.8-0.2-4.4-0.6c-0.1,0-0.2,0-0.3,0
		 c-0.4,0-0.7,0.2-0.9,0.5c-0.2,0.4-0.4,0.8-0.7,1.2c-0.2,0.4-0.1,0.9,0.2,1.2c8.1,8.2,5.2,19.2-4.3,19.2c-2,0-4.4-0.5-6.9-1.6
		 c-0.1-0.1-0.3-0.1-0.4-0.1c-0.3,0-0.6,0.1-0.8,0.4c0,0.1-0.1,0.1-0.1,0.2c-0.3,0.4-0.3,0.8,0,1.2c6.3,8.7,2.9,18.5-5.4,18.5
		 c-2.5,0-5.4-0.9-8.7-3c-0.2-0.1-0.4-0.2-0.6-0.2c-0.2,0-0.5,0.1-0.7,0.3c-0.4,0.3-0.7,0.7-1.1,1c-0.3,0.3-0.4,0.7-0.2,1.1
		 c3.7,9.2-0.7,17.1-7.5,17.1c-2.7,0-5.8-1.3-8.9-4.3c-0.2-0.2-0.5-0.3-0.7-0.3s-0.4,0.1-0.5,0.2c-0.4,0.3-0.8,0.5-1.2,0.8
		 c-0.4,0.2-0.5,0.7-0.4,1.1c2.1,8.9-2.5,15.7-8.6,15.7c-3.1,0-6.6-1.8-9.8-6c-0.2-0.3-0.5-0.4-0.8-0.4c-0.1,0-0.3,0-0.4,0.1
		 c-0.1,0.1-0.3,0.1-0.4,0.2c-0.4,0.2-0.6,0.6-0.6,1c0.6,8.3-4.1,14-9.6,14c-3.5,0-7.2-2.3-10.1-7.7c-0.2-0.3-0.5-0.5-0.9-0.5
		 c-0.1,0-0.1,0-0.2,0c-1.1,0.2-2.1,0.5-3.2,0.7c-0.4,0.1-0.7,0.4-0.8,0.8c-1.4,6.8-6.1,10.8-10.7,10.8c-3.7,0-7.3-2.5-9.3-8.2
		 c-0.1-0.4-0.5-0.7-0.9-0.7c-0.7,0-1.4,0.1-2.1,0.1c-0.4,0-0.8,0.3-0.9,0.7c-2.1,6.1-6.7,9.5-11,9.5c-4.3,0-8.3-3.3-9.4-10.5
		 c-0.1-0.4-0.4-0.8-0.9-0.9c-0.3,0-0.6-0.1-0.8-0.1h-0.1c-0.4,0-0.7,0.2-0.9,0.6c-2.7,5.3-7,8-11,8c-4.9,0-9.2-4-9-12.5
		 c0-0.4-0.3-0.8-0.7-1c-0.6-0.2-1.3-0.4-1.9-0.6c-0.1,0-0.2,0-0.3,0c-0.3,0-0.6,0.1-0.8,0.4c-3.2,3.8-7.2,5.6-10.6,5.6
		 c-5.7,0-10.2-4.8-8.3-13.5c0.1-0.4-0.1-0.9-0.5-1.1c-0.5-0.3-1.1-0.6-1.6-0.8c-0.1-0.1-0.3-0.1-0.5-0.1c-0.2,0-0.5,0.1-0.7,0.3
		 c-3.2,2.9-6.7,4.2-9.8,4.2c-6.6,0-11.4-5.9-7.5-15.4c0.2-0.4,0.1-0.9-0.3-1.2c-0.2-0.1-0.3-0.3-0.5-0.4c-0.2-0.1-0.4-0.2-0.6-0.2
		 c-0.2,0-0.4,0.1-0.6,0.2c-2.9,1.9-5.9,2.8-8.6,2.8c-7.6,0-12.7-7-6.6-16.8c0.2-0.4,0.2-0.9-0.1-1.2c-0.3-0.3-0.6-0.7-0.9-1
		 c-0.2-0.2-0.5-0.3-0.7-0.3c-0.1,0-0.3,0-0.4,0.1c-2.2,0.9-4.4,1.3-6.3,1.3c-9.3,0-14.8-8.7-6.3-17.7c0.3-0.3,0.4-0.8,0.1-1.2
		 c-0.3-0.4-0.5-0.8-0.8-1.2c-0.2-0.3-0.5-0.5-0.8-0.5c-0.1,0-0.2,0-0.3,0c-1.6,0.4-3.2,0.6-4.6,0.6c-10.8,0-16.5-10.7-5-19.2
		 c0.4-0.3,0.5-0.8,0.3-1.2c0,0,0-0.1-0.1-0.1c-0.2-0.4-0.5-0.6-0.9-0.6H166c-0.8,0.1-1.6,0.1-2.3,0.1c-12.6,0-18.3-13-4-20.2
		 c0.4-0.2,0.6-0.7,0.5-1.1c-0.1-0.4-0.2-0.8-0.3-1.2c-0.1-0.4-0.4-0.7-0.9-0.8c-14.3-1.6-18.2-16.8-2.8-20.8c0.5-0.1,0.8-0.5,0.8-1
		 c0-0.4,0-0.7,0-1.1c0-0.5-0.3-0.8-0.8-0.9c-14.1-3.5-15.8-19.5,0.9-21c0.5,0,0.9-0.4,0.9-0.9c0.1-0.5-0.2-0.9-0.6-1.1
		 c-12.9-5.4-12.7-20.7,2.8-20.7c0.5,0,1.1,0,1.6,0.1c0,0,0,0,0.1,0c0.4,0,0.8-0.3,1-0.7c0.1-0.4,0.3-0.8,0.4-1.2
		 c0.1-0.4,0-0.8-0.3-1.1c-9.7-7.6-7.6-19.9,3.4-19.9c1.3,0,2.8,0.2,4.4,0.6c0.1,0,0.2,0,0.3,0c0.4,0,0.7-0.2,0.9-0.5
		 c0.2-0.4,0.4-0.9,0.7-1.3c0.2-0.4,0.1-0.8-0.2-1.2c-7.9-8.2-5-19.1,4.4-19.1c2,0,4.2,0.5,6.7,1.5c0.1,0.1,0.3,0.1,0.4,0.1
		 c0.3,0,0.6-0.1,0.8-0.4c0.1-0.1,0.2-0.2,0.3-0.3c0.3-0.3,0.3-0.8,0-1.2c-6-8.7-2.5-18.2,5.6-18.2c2.4,0,5.2,0.8,8.3,2.7
		 c0.2,0.1,0.4,0.2,0.5,0.2c0.2,0,0.5-0.1,0.7-0.3c0.4-0.4,0.9-0.8,1.3-1.2c0.3-0.3,0.4-0.7,0.3-1.1c-3.3-8.9,1.1-16.6,7.7-16.6
		 c2.6,0,5.5,1.2,8.4,3.9c0.2,0.2,0.4,0.3,0.7,0.3c0.2,0,0.4-0.1,0.5-0.2c0.5-0.3,1.1-0.7,1.6-1c0.4-0.2,0.5-0.6,0.4-1.1
		 c-1.7-8.5,2.9-15,8.8-15c3,0,6.2,1.6,9.3,5.4c0.2,0.2,0.5,0.4,0.8,0.4c0.1,0,0.3,0,0.4-0.1c0.3-0.1,0.6-0.3,0.9-0.4
		 c0.4-0.2,0.6-0.5,0.6-1c-0.2-7.8,4.4-13.1,9.7-13.1c3.3,0,6.8,2,9.6,6.8c0.2,0.3,0.5,0.5,0.9,0.5c0.1,0,0.1,0,0.2,0
		 c1.4-0.3,2.8-0.6,4.2-0.9c0.4-0.1,0.7-0.4,0.8-0.8c1.4-6.9,6.1-10.9,10.7-10.9c3.7,0,7.4,2.6,9.4,8.4c0.1,0.4,0.5,0.7,1,0.7
		 c0.7,0,1.3,0,2-0.1c0.4,0,0.8-0.3,0.9-0.7C292.7,216.4,297.3,213,301.7,213 M301.7,211c-5.4,0-10.4,4.2-12.7,10.4
		 c-0.2,0-0.4,0-0.6,0c-2.1-5.7-6.2-9.1-11-9.1c-5.8,0-10.9,4.8-12.5,11.9c-1,0.2-1.9,0.4-2.9,0.6c-2.9-4.6-6.8-7.2-11-7.2
		 c-2.8,0-5.5,1.2-7.6,3.3c-2.6,2.6-4,6.4-4.1,10.6c-3-3.3-6.5-5.2-10-5.2c-3.1,0-5.9,1.4-8,3.9c-2.7,3.2-3.7,7.8-2.9,12.8
		 c-0.1,0.1-0.3,0.2-0.4,0.3c-3-2.6-6.1-3.9-9.2-3.9c-3.4,0-6.4,1.6-8.4,4.5c-2.6,3.7-3.1,9-1.4,14.1c-0.1,0.1-0.2,0.2-0.3,0.3
		 c-3-1.7-5.9-2.6-8.7-2.6c-4.1,0-7.5,2-9.3,5.5c-2.1,4-1.7,9.1,0.8,13.9c-1.9-0.6-3.6-0.9-5.3-0.9c-4.6,0-8.4,2.3-10.1,6.3
		 c-2,4.8-0.6,10.9,3.7,15.7c-1.4-0.3-2.8-0.5-4.1-0.5c-5.3,0-9.4,2.6-11,7c-1.8,5.2,0.4,11.3,5.6,15.8c-0.2,0-0.5,0-0.7,0
		 c-8.9,0-13,4.6-13.9,9c-1.1,5.3,2,10.8,7.5,14.1c-7.4,1.6-10.4,6.2-10.7,10.3c-0.5,6,4.1,11.5,11.2,13.8c-7.7,2.5-10.2,7.7-9.9,12
		 c0.4,6,5.8,10.9,13.3,12.2c-6.4,3.6-9.5,8.8-8.2,14.1c1.3,5.5,6.9,9.2,13.9,9.3c-4.2,4-5.9,8.7-4.5,13c1.6,4.8,6.6,8,12.8,8
		 c1.4,0,2.9-0.2,4.3-0.5c-4,4.5-5.2,9.4-3.4,13.6c1.8,4.2,6.3,6.8,11.7,6.8c2.1,0,4.3-0.4,6.4-1.2c-4,6.9-2.5,11.6-1.3,13.8
		 c1.9,3.4,5.6,5.4,10,5.4c2.7,0,5.4-0.7,8-2.2c-1.5,4.6-1.1,8.7,0.9,11.8c1.9,2.9,5.3,4.6,9.1,4.6c3.6,0,7.4-1.5,10.6-4.2
		 c0.1,0.1,0.2,0.1,0.3,0.2c-0.9,4.5-0.1,8.5,2.1,11.3c2,2.5,4.9,3.8,8.3,3.8c4.2,0,8.4-2.1,11.7-5.8c0.2,0.1,0.4,0.1,0.6,0.2
		 c0.1,5.8,2.1,9,3.8,10.8c1.9,1.9,4.5,3,7.2,3c4.7,0,9.2-2.9,12.1-7.7c1.8,7.8,6.8,10.7,11.1,10.7c5.4,0,10.3-4,12.6-10.2
		 c0.2,0,0.5,0,0.7,0c2.1,5.6,6.2,8.9,10.9,8.9c5.8,0,10.8-4.8,12.5-11.8c0.6-0.1,1.3-0.3,1.9-0.4c4,7,8.9,8.1,11.5,8.1
		 c2.9,0,5.6-1.3,7.8-3.6c2.4-2.6,3.8-6.3,3.9-10.4c3,3.3,6.5,5.1,10,5.1c3.2,0,6.1-1.5,8.2-4.1c2.7-3.4,3.6-8.3,2.6-13.4
		 c3.1,2.8,6.5,4.3,9.7,4.3c3.4,0,6.5-1.7,8.5-4.6c2.6-3.9,3-9.3,1-14.6c3.2,1.9,6.2,2.9,9.1,2.9c4.1,0,7.6-2,9.4-5.6
		 c2-4,1.7-9.1-0.9-13.8c1.8,0.6,3.6,0.9,5.3,0.9c4.7,0,8.5-2.4,10.1-6.3c2-4.8,0.5-10.9-3.8-15.7c1.4,0.3,2.8,0.4,4.1,0.4
		 c5.1,0,9.1-2.4,10.8-6.6c1.8-4.5,0.4-10-3.5-14.4l0.1-0.3l0.1-0.3c7.4-0.6,10.9-4.9,11.7-8.8c1.1-5.2-1.9-10.7-7.3-14.2
		 c7.4-1.5,10.5-6.1,10.8-10.1c0.6-5.9-3.9-11.6-11-14c7.9-2.4,10.4-7.7,10.1-12c-0.4-5.9-5.7-10.8-13-12.2c6.5-3.5,9.6-8.8,8.3-14.1
		 c-1.3-5.4-6.9-9.2-13.7-9.4c4.3-3.9,6-8.6,4.7-13c-1.6-5-6.6-8.2-13-8.2c-1.2,0-2.5,0.1-3.7,0.4c0-0.1-0.1-0.1-0.1-0.2
		 c3.9-4.4,5.1-9.3,3.3-13.5c-1.8-4.2-6.3-6.8-11.8-6.8c-1.9,0-3.9,0.3-5.9,1c-0.2-0.2-0.4-0.5-0.7-0.7c-0.1-0.1-0.2-0.2-0.3-0.3
		 c4.3-7,2.9-11.9,1.6-14.2c-1.9-3.4-5.6-5.5-10.1-5.5c-2.7,0-5.4,0.7-8,2.2c1.4-4.5,1.2-8.6-0.9-11.7c-1.9-3-5.3-4.7-9.1-4.7
		 c-3.8,0-7.7,1.6-11,4.5c1-4.7,0.3-8.8-1.9-11.7c-2-2.5-4.9-3.9-8.3-3.9c-4.3,0-8.6,2.2-12,6.1c-0.1,0-0.2-0.1-0.3-0.1
		 c0-5.9-2-9.3-3.8-11.1c-1.9-2-4.5-3.1-7.3-3.1c-4.7,0-9.2,2.9-12.1,7.7C311,213.8,306,211,301.7,211z"/>
   </g>
   <!-- FIN MANDALA -->

   <!-- DEBUT FOUGERE DROITE -->
   <g>
	  <g fill="none" stroke="#FFFFFF" stroke-width="3" stroke-miterlimit="10">
		 <path  d="M341.5,222.5c15-22,73-115,79-124c2.6-3.9,7-10.7,4.6-15.6c-3.6-7.3-15.9-6.1-17.6,2
			c-0.5,2.6,1.4,5.9,4.1,5.6"/>
		 <line  x1="417.5" y1="162.5" x2="369.5" y2="233.5"/>
		 <path  d="M416.3,126.5c10.1-6.3,22.5-5.1,28.9,5.6c7.2,12.1,0,32.3-15,34.6c-7.3,1.1-14.1-5.2-18.6-10.2"/>
	  </g>
	  <g  fill="none" stroke="#FFFFFF" stroke-width="3" stroke-miterlimit="10">
		 <path d="M331.5,215.5c12-15,54.9-79.9,55-83c0.1-5.7-9.6-10.3-12-3.9c-1.3,3.5,2.4,5.8,5,6.9"/>
		 <path d="M379.2,145.2c-8.8-2-14.3-11.1-11.7-19.7c5.3-17.8,37.4-1.5,27.5,13.2"/>
		 <path d="M373.6,152.5c-9.3-2.9-16.1-11.6-16.1-22c0-12.7,10.3-23,23-23c11.1,0,20.4,7.9,22.5,18.4"/>
		 <path d="M420.5,150.5c2.2,2.5,5.4,5.8,9.1,4.6c2.9-0.9,5.3-4,6.2-6.8c2.2-6.3-3.6-10.4-9.4-9.4
			c-7.1,1.2-11,9.7-14.8,14.9c-6.3,8.5-12.3,17.3-18.1,26.1c-11,16.5-21.6,33.3-32,50.2c-1.3,2.1-2.6,4.3-3.9,6.4"/>
	  </g>
	  <g  fill="none" stroke="#FFFFFF" stroke-width="5" stroke-miterlimit="10">
		 <path d="M353.5,223.5c15-23,75-115,80-125s6-26-13-34c-8.4-3.5-18.6,2.1-23,9.4c-7,11.6,2,28.6,20,28.6"/>
	  </g>
	  <g fill="none" stroke="#FFFFFF" stroke-width="2" stroke-miterlimit="10">
		 <line x1="412.5" y1="170.5" x2="404.5" y2="164.5"/>
		 <line x1="408.5" y1="175.5" x2="400.5" y2="171.5"/>
		 <line x1="403.5" y1="183.5" x2="394.5" y2="178.5"/>
		 <line x1="398.5" y1="189.5" x2="390.5" y2="184.5"/>
		 <line x1="395.5" y1="195.5" x2="386.5" y2="190.5"/>
		 <line x1="391.5" y1="200.5" x2="383.5" y2="196.5"/>
		 <line x1="387.5" y1="206.5" x2="378.5" y2="202.5"/>
		 <line x1="382.5" y1="215.5" x2="373.5" y2="210.5"/>
		 <line x1="377.5" y1="220.5" x2="370.5" y2="215.5"/>
		 <line x1="373.5" y1="226.5" x2="366.5" y2="222.5"/>
		 <line x1="371.5" y1="230.5" x2="363.5" y2="226.5"/>
		 <line x1="366.5" y1="233.5" x2="361.5" y2="230.5"/>
		 <line x1="401.5" y1="121.5" x2="395.5" y2="128.5"/>
		 <line x1="399.5" y1="117.5" x2="393.5" y2="124.5"/>
		 <line x1="396.5" y1="114.5" x2="390.5" y2="122.5"/>
		 <line x1="393.5" y1="111.5" x2="387.5" y2="120.5"/>
		 <line x1="388.5" y1="108.5" x2="383.5" y2="118.5"/>
		 <line x1="383.5" y1="107.5" x2="380.5" y2="118.5"/>
		 <line x1="376.5" y1="107.5" x2="376.5" y2="117.5"/>
		 <line x1="370.5" y1="109.5" x2="373.5" y2="118.5"/>
		 <line x1="366.5" y1="113.5" x2="370.5" y2="120.5"/>
		 <line x1="361.5" y1="118.5" x2="367.5" y2="123.5"/>
		 <line x1="358.5" y1="126.5" x2="366.5" y2="128.5"/>
		 <line x1="358.5" y1="134.5" x2="367.5" y2="133.5"/>
		 <line x1="359.5" y1="140.5" x2="367.5" y2="136.5"/>
		 <line x1="364.5" y1="146.5" x2="370.5" y2="140.5"/>
		 <line x1="369.5" y1="150.5" x2="375.5" y2="143.5"/>
	  </g>
   </g>
   <!-- FIN FOUGERE DROITE -->

   <!-- FLEUR -->
   <g>
	  <g  fill="none" stroke="white" stroke-width="2" stroke-miterlimit="10">
		 <circle  cx="152" cy="263" r="7.7"/>
		 <circle  cx="152" cy="263" r="14.7"/>
		 <circle  cx="152.6" cy="262.3" r="23"/>
		 <circle  cx="152.6" cy="262.3" r="19.1"/>
	  </g>
	  <g fill="none" stroke="white" stroke-width="1" stroke-miterlimit="10">
		 <path  d="M470.4,435"/>
		 <line  x1="146.3" y1="249.6" x2="148.8" y2="255.9"/>
		 <line  x1="151.1" y1="248.1" x2="151.6" y2="254.9"/>
		 <line  x1="156.5" y1="249.6" x2="154" y2="255.9"/>
		 <line  x1="160.3" y1="250.8" x2="156.6" y2="256.8"/>
		 <line  x1="163.6" y1="254" x2="158.4" y2="258.7"/>
		 <line  x1="165.4" y1="257.4" x2="159.1" y2="260.4"/>
		 <line  x1="167" y1="260.9" x2="160.1" y2="262.1"/>
		 <line  x1="167.1" y1="264" x2="160" y2="264"/>
		 <line  x1="143.7" y1="250.8" x2="147.5" y2="257.2"/>
		 <line  x1="141.2" y1="253.4" x2="146.3" y2="258.5"/>
		 <line  x1="138.6" y1="257.2" x2="145" y2="259.8"/>
		 <line  x1="137.3" y1="261" x2="143.7" y2="262.3"/>
		 <line  x1="137.3" y1="264.9" x2="145" y2="263.6"/>
		 <line  x1="138.6" y1="268.7" x2="145" y2="266.1"/>
		 <line  x1="141.2" y1="272.5" x2="146.3" y2="268.7"/>
		 <line  x1="143.7" y1="275.1" x2="147.5" y2="270"/>
		 <line  x1="165.4" y1="268.7" x2="159" y2="266.1"/>
		 <line  x1="164.1" y1="271.3" x2="157.7" y2="267.4"/>
		 <line  x1="161.6" y1="273.8" x2="156.5" y2="268.7"/>
		 <line  x1="157.7" y1="276.4" x2="155.2" y2="270"/>
		 <line  x1="153.9" y1="277.6" x2="153.9" y2="270.6"/>
		 <line  x1="150.1" y1="277.6" x2="151.4" y2="271.3"/>
		 <line  x1="146.3" y1="276.4" x2="150.1" y2="270"/>
	  </g>
	  <!-- coeur de la fleur -->
	  <!--second  coeur de la fleur -->
	  <g fill="none" stroke="white" stroke-width="1.5" stroke-miterlimit="10">
		 <line  x1="143.7" y1="240.6" x2="145" y2="244.5"/>
		 <line  x1="148.8" y1="239.4" x2="150.1" y2="243.2"/>
		 <line  x1="155.2" y1="239.4" x2="155.2" y2="243.2"/>
		 <line  x1="161.6" y1="240.6" x2="160.3" y2="244.5"/>
		 <line  x1="166.7" y1="244.5" x2="164.1" y2="247"/>
		 <line  x1="170.5" y1="248.3" x2="167.9" y2="250.8"/>
		 <line  x1="174.3" y1="254.7" x2="170.5" y2="255.9"/>
		 <line  x1="175.6" y1="259.8" x2="171.8" y2="259.8"/>
		 <line  x1="175.6" y1="266.1" x2="171.8" y2="264.9"/>
		 <line  x1="174.3" y1="271.3" x2="170.5" y2="270"/>
		 <line  x1="170.5" y1="277.6" x2="166.7" y2="275.1"/>
		 <line  x1="165.4" y1="281.5" x2="164.1" y2="277.6"/>
		 <line  x1="161.6" y1="284" x2="160.3" y2="280.2"/>
		 <line  x1="155.2" y1="285.3" x2="155.2" y2="281.5"/>
		 <line  x1="148.8" y1="285.3" x2="150.1" y2="281.5"/>
		 <line  x1="143.7" y1="284" x2="145" y2="280.2"/>
		 <line  x1="138.6" y1="280.2" x2="141.2" y2="277.6"/>
		 <line  x1="134.8" y1="276.4" x2="138.6" y2="275.1"/>
		 <line  x1="130.9" y1="271.3" x2="134.8" y2="270"/>
		 <line  x1="129.7" y1="264.9" x2="133.5" y2="264.9"/>
		 <line  x1="129.7" y1="259.8" x2="133.5" y2="259.8"/>
		 <line  x1="130.9" y1="254.7" x2="134.8" y2="255.9"/>
		 <path  d="M137.3,250.8l-3.8-1.3c-14-2.6,2.6-20.4,5.1-5.1"/>
		 <line  x1="137.3" y1="244.5" x2="139.9" y2="247"/>
	  </g>
	  <!--second  coeur de la fleur -->
	  <!--demi cercle centre -->
	  <g fill="none" stroke="white" stroke-width="2" stroke-miterlimit="10">
		 <path  d="M148.8,239.4c-6.4-10.2,12.8-11.5,7.7,0"/>
		 <path  d="M140.4,243c-9.8-7,7.4-15.5,7.1-2.9"/>
		 <path  d="M137,239.4c-13.4-8.3,11.5-20.3,10.2-4.2"/>
		 <path  d="M128.4,244.5c-17.9-3.8,1.8-21.7,5.3-6.2"/>
		 <path  d="M125.8,257.2c-16.9,2.7-7.7-23,3.8-8.9"/>
		 <path  d="M123.3,267.4c-14,8.9-16.6-16.6,0-8.9"/>
		 <path  d="M128,278.7c-11.1,9.1-17.4-11.3-3.4-10"/>
		 <path  d="M134.8,286.6c-3.8,19.1-25.5-5.1-6.4-6.4"/>
		 <path  d="M169.2,238.1c6.4-17.9,25.5,3.8,6.4,7.7"/>
		 <path  d="M157.8,236.4c-2.6-16.1,21.5-9.8,10.7,2.8"/>
		 <path  d="M174.1,248c13.7-11.7,21.8,12,3.6,10.4"/>
		 <path  d="M182,258.5c4.8-2.2,8.8-2.7,10.5-1"/>
		 <path  d="M161,297.6c-2-1.1-3.5-3.4-3.4-7.4"/>
		 <path  d="M157.7,292.9c7.7,14-19.1,12.8-10.2-1.3"/>
		 <path  d="M146.3,290.4c1.3,16.6-23,6.4-8.9-3.8"/>
		 <path  d="M147.3,233.7c-8.5-15.4,16.4-17.6,10-0.1"/>
		 <path  d="M130.8,257.9c-13.7,1.9-8.8-16.6,2.5-7.2"/>
		 <path  d="M129.9,266.4c-12,7-14.5-12.1-0.4-7.6"/>
		 <path  d="M133.2,275.2c-9.7,9.9-17.2-7.8-2.4-7.3"/>
		 <path  d="M158,240.7c-3.1-11.6,15.6-7.2,7.3,2.2"/>
		 <path  d="M166.2,243.3c2.4-12,17.8,1.5,5.8,5.8"/>
		 <path  d="M172.5,250.9c7.1-9.9,15.4,8.8,2.8,7.7"/>
		 <path  d="M178.8,268.6c-1.2,0-2.5-0.4-4.1-1.1"/>
		 <path  d="M175.1,259.3c5.3-2.9,7-1,7.4,2.2"/>
		 <path  d="M174.3,268.1c1.9-0.2,3.4,0,4.5,0.5"/>
		 <path  d="M167.4,285.5c-0.8-0.9-1.4-2.1-1.9-3.8"/>
		 <path  d="M167.5,290.5c-8,4-10.4-1.1-10.5-5.3"/>
		 <path  d="M164.5,281.8c1.4,0.9,2.3,1.9,2.8,2.9"/>
		 <path  d="M147.6,284.7c2.4,13-17.2,7.2-7.7-2.9"/>
		 <path  d="M139.4,280.9c-3.6,12.7-18.6-1.1-5.6-5.9"/>
		 <path  d="M156.7,284.5c6,13.6-14.5,14.1-8.2-0.5"/>
	  </g>
	  <!--demi cercle centre -->
	  <!-- cercle petales -->
	  <g fill="none" stroke="white" stroke-width="2" stroke-miterlimit="10">
		 <circle cx="142.4" cy="239.4" r="2.6"/>
		 <circle cx="152" cy="237.4" r="2.6"/>
		 <circle cx="162.2" cy="238.7" r="2.6"/>
		 <circle cx="134.1" cy="245.1" r="2.6"/>
		 <circle cx="129" cy="254" r="2.6"/>
		 <circle cx="127.8" cy="263" r="2.6"/>
		 <circle cx="129" cy="273.2" r="2.6"/>
		 <circle cx="134.1" cy="279.5" r="2.6"/>
		 <circle cx="143.1" cy="285.9" r="2.6"/>
		 <circle cx="153.3" cy="287.2" r="2.6"/>
		 <circle cx="176.2" cy="271.9" r="2.6"/>
		 <circle cx="162.2" cy="285.9" r="2.6"/>
		 <circle cx="177.5" cy="263" r="2.6"/>
		 <circle cx="171.1" cy="245.1" r="2.6"/>
		 <circle cx="176.2" cy="254" r="2.6"/>
	  </g>
	  <!-- cercle petales -->
	  <!-- trait petalles -->
	  <g fill="none" stroke="white" stroke-width="2" stroke-linecap="round" stroke-linejoin="round" stroke-miterlimit="10" >
		 <path d="M104.2,243.2c2.2,0.4,4.4,0.9,6.5,1.6c2.1,0.6,4.2,1.4,6.3,2.3c-2.2-0.4-4.4-0.9-6.5-1.6C108.3,244.8,106.2,244.1,104.2,243.2z"/>
		 <path d="M109.3,239.4c1.7,0.8,3.2,1.8,4.7,2.9c1.5,1.1,2.9,2.2,4.2,3.5c-1.7-0.8-3.2-1.8-4.7-2.9S110.6,240.7,109.3,239.4z"/>
		 <path d="M115.6,238.1c0.9,0.9,1.6,1.9,2.2,3s1.2,2.2,1.6,3.4c-0.9-0.9-1.6-1.9-2.2-3S116,239.3,115.6,238.1z"/>
		 <path d="M104.2,282.7c1.8-1.1,3.7-2,5.6-2.9c1.9-0.8,3.9-1.6,5.9-2.2c-1.8,1.1-3.7,2-5.6,2.9
			C108.1,281.4,106.2,282.2,104.2,282.7z"/>
		 <path d="M108,276.4c1.2-0.5,2.5-0.8,3.8-1s2.6-0.3,3.9-0.3c-1.2,0.5-2.5,0.8-3.8,1C110.6,276.3,109.3,276.4,108,276.4z"/>
		 <path d="M109.3,271.3c1.3-0.1,2.6,0.1,3.9,0.3c1.3,0.2,2.5,0.5,3.8,1c-1.3,0.1-2.6-0.1-3.9-0.3
			C111.7,272,110.5,271.8,109.3,271.3z"/>
		 <path d="M108,255.9c1.4-0.7,2.9-1.2,4.4-1.6c1.5-0.4,3-0.8,4.6-0.9c-1.4,0.7-2.9,1.2-4.4,1.6C111.1,255.4,109.5,255.8,108,255.9z"/>
		 <path d="M105.4,249.6c1.7-0.3,3.4-0.4,5.1-0.4s3.4,0.1,5.1,0.4c-1.7,0.3-3.4,0.4-5.1,0.4C108.8,249.9,107.1,249.9,105.4,249.6z"/>
		 <path d="M197.3,250.8c-1.5,0.1-3-0.1-4.5-0.3s-3-0.5-4.4-1c1.5-0.1,3,0.1,4.5,0.3C194.4,250.1,195.8,250.3,197.3,250.8z"/>
		 <path d="M197.3,255.9c-1.8-0.1-3.5-0.5-5.2-0.9s-3.4-0.9-5-1.6c1.8,0.1,3.5,0.5,5.2,0.9C194,254.7,195.7,255.2,197.3,255.9z"/>
		 <path d="M145,305.7c-0.5-1-0.8-2.1-1-3.1c-0.2-1.1-0.3-2.1-0.3-3.3c0.5,1,0.8,2.1,1,3.1C144.9,303.5,145.1,304.6,145,305.7z"/>
		 <path d="M139.9,308.3c-0.3-1.3-0.4-2.6-0.4-3.8c0-1.3,0.1-2.6,0.4-3.8c0.3,1.3,0.4,2.6,0.4,3.8
			C140.2,305.7,140.2,307,139.9,308.3z"/>
		 <path d="M132.2,309.5c0.6-1.8,1.4-3.6,2.2-5.3c0.9-1.7,1.8-3.4,2.9-4.9c-0.6,1.8-1.4,3.6-2.2,5.3
			C134.2,306.3,133.3,308,132.2,309.5z"/>
		 <path d="M129.7,304.4c0.6-1.4,1.4-2.8,2.2-4c0.9-1.3,1.8-2.5,2.9-3.6c-0.6,1.4-1.4,2.8-2.2,4
			C131.7,302.1,130.8,303.3,129.7,304.4z"/>
		 <path d="M111.8,286.6c0.9-1.3,1.9-2.4,2.9-3.5c1.1-1.1,2.2-2.1,3.5-2.9c-0.9,1.3-1.9,2.4-2.9,3.5
			C114.2,284.7,113.1,285.7,111.8,286.6z"/>
		 <path d="M145,218.9c-0.1,1.4-0.5,2.7-0.9,3.9c-0.4,1.3-0.9,2.5-1.6,3.7c0.1-1.4,0.5-2.7,0.9-3.9
			C143.8,221.4,144.3,220.1,145,218.9z"/>
		 <path d="M139.9,217.7c0.3,1.7,0.4,3.4,0.4,5.1c0,1.7-0.1,3.4-0.4,5.1c-0.3-1.7-0.4-3.4-0.4-5.1
			C139.5,221.1,139.6,219.4,139.9,217.7z"/>
		 <path d="M132.2,216.4c1.1,1.8,2,3.7,2.9,5.6c0.8,1.9,1.6,3.9,2.2,5.9c-1.1-1.8-2-3.7-2.9-5.6
			C133.6,220.4,132.8,218.4,132.2,216.4z"/>
		 <path d="M128.4,221.5c1.5,1.1,2.8,2.3,4.1,3.6s2.5,2.6,3.6,4.1c-1.5-1.1-2.8-2.3-4.1-3.6S129.5,223,128.4,221.5z"/>
		 <path d="M160.3,218.9c0.5,1.2,0.8,2.5,1,3.8s0.3,2.6,0.3,3.9c-0.5-1.2-0.8-2.5-1-3.8C160.4,221.6,160.2,220.3,160.3,218.9z"/>
		 <path d="M164.1,216.4c0.5,1.7,0.8,3.4,1,5.1c0.2,1.7,0.3,3.4,0.3,5.1c-0.5-1.7-0.8-3.4-1-5.1C164.2,219.8,164,218.1,164.1,216.4z"/>
		 <path d="M171.8,216.4c-0.6,2-1.4,4-2.2,5.9c-0.9,1.9-1.8,3.8-2.9,5.6c0.6-2,1.4-4,2.2-5.9C169.7,220.1,170.7,218.2,171.8,216.4z"/>
		 <path d="M174.3,222.8c-0.4,1-1,1.9-1.6,2.8c-0.6,0.8-1.3,1.7-2.2,2.3c0.4-1,1-1.9,1.6-2.8C172.8,224.3,173.4,223.4,174.3,222.8z"/>
		 <path d="M187.1,238.1c-0.1,1.4-0.5,2.7-0.9,3.9c-0.4,1.3-0.9,2.5-1.6,3.7c0.1-1.4,0.5-2.7,0.9-3.9
			C185.9,240.5,186.4,239.3,187.1,238.1z"/>
		 <path d="M193.5,239.4c-0.8,1.5-1.8,2.8-2.9,4.1c-1.1,1.3-2.2,2.5-3.5,3.6c0.8-1.5,1.8-2.8,2.9-4.1
			C191.1,241.7,192.2,240.4,193.5,239.4z"/>
		 <path d="M199.8,243.2c-2,1.1-4.1,2-6.2,2.9c-2.1,0.8-4.3,1.6-6.5,2.2c2-1.1,4.1-2,6.2-2.9C195.5,244.5,197.6,243.8,199.8,243.2z"/>
	  </g>
	  <!-- trait petalles -->
	  <!-- bord petales -->
	  <g fill="none" stroke="white" stroke-width="3" stroke-linecap="round" stroke-linejoin="round" stroke-miterlimit="10">
		 <path class="st8" d="M122,235.5c-11.5-17.9,0-20.4,2.6-28.1s2.6-6.4,2.6-6.4s1.3,3.8,12.8,5.1s14,11.5,14,15.3"/>
		 <path class="st8" d="M104.9,263.1C94,256,94.9,251,92.7,243.2c-2.3-7.7-3.8-8.9-3.8-8.9s6.4,3.8,12.8-1.3c9-7.2,14.4-7,16.6-3.8"/>
		 <path class="st8" d="M152.6,308.3c-6.4,14-13,10.8-20,14.3s-6.1,2.7-6.1,2.7s1.8-3.5-5-12.1s0.4-17.6,3-20.2"/>
		 <path class="st8" d="M125.6,293.3c-10,6-17.6,6-22.7,2.2c-5.6-4.2-14-7.7-14-7.7s5,0,6.4-12.8c1.3-11.5,14.2-13.2,17.9-14"/>
		 <path class="st8" d="M183.3,233c12.8-11.5,17.8-0.1,25.5,2.4s4.8,7.1,4.8,7.1"/>
		 <path class="st8" d="M152.6,215.1c10.2-12.8,12.2-7.9,19.7-10.9s6.5-2.2,6.5-2.2s-2.1,3.5,4.4,13c6.5,9.6,1.6,16.7-1.3,19.2"/>
	  </g>
	  <g fill="none" stroke="white"  stroke-width="2" stroke-miterlimit="10">
		 <path class="st9" d="M155.5,310.5c-3-1-3.9-3.6-4.1-7.4"/>
		 <path class="st9" d="M181.7,290"/>
	  </g>
   </g>
   <!-- fin fleur -->

   <g class="coulureanim" stroke="white" stroke-width="2.5" stroke-miterlimit="3">
	  <!-- premier mot  -->
	  <path d="M450,209.1c0,0.3,0,0.2,0.1,0.2c0,0,0,0,0.1-0.1s0.1-0.1,0.1-0.2c0.1-0.2,0.1-0.4,0.1-0.6c0-0.2,0-0.4,0-0.7
		 c-0.1-0.2-0.1-0.5-0.3-0.7c-0.5-1-1.6-2-3.1-2.8c-0.4-0.2-0.8-0.3-1.1-0.5c-0.4-0.2-0.8-0.4-1.2-0.5c-0.8-0.2-1.7-0.6-2.6-0.7
		 c-0.9-0.2-1.8-0.4-2.7-0.5l-2.8-0.4l2.7-0.8c0.9-0.3,1.9-0.4,2.8-0.6c1-0.2,1.9-0.2,2.9-0.4c0.5-0.1,1,0,1.5,0s1,0,1.6,0.1
		 c2.1,0.2,4.4,0.8,6.6,2.3c0.6,0.4,1,0.9,1.5,1.4c0.4,0.6,0.9,1.1,1.3,1.8c0.4,0.6,0.7,1.3,0.9,2.1c0.1,0.4,0.2,0.7,0.3,1.1
		 c0,0.2,0.1,0.4,0.1,0.6c0,0.3,0.1,0.4,0,0.9L450,209.1z"/>
	  <path d="M503.5,204.5c-15-4.4-29.7-10.2-44.9-12.7c-7.6-1.3-15.2-1.9-22.9-1.8c-7.6,0.2-15.4,0.7-22.5,2.4
		 c-7.2,1.7-14,4.6-19,9.4c-2.5,2.4-4.7,5.1-6.3,8.2c-1.6,3.1-2.7,6.4-3.6,10c-0.1,0.4-0.2,0.9-0.3,1.4l-0.2,0.7l-0.1,0.3
		 c0,0.1,0,0.2,0,0.2l-0.1,0.9c0,0.3,0,0.6,0,1c0.1,1.3,0.5,2.6,1.1,3.9c1.2,2.5,3.6,4.6,6,5.5c1.2,0.4,2.4,0.5,3.5,0.3
		 c0.2,0,0.8-0.2,1.2-0.2c0.4-0.1,0.9-0.2,1.3-0.3c0.9-0.2,1.7-0.5,2.6-0.8c1.7-0.6,3.4-1.2,5.1-1.9c0.8-0.3,1.7-0.7,2.5-1.1
		 c0.8-0.4,1.7-0.8,2.3-1.2l23.1-12.8l-17.7,19.8l-0.2,0.3l-0.3,0.4c-0.2,0.3-0.4,0.5-0.6,0.8c-0.4,0.6-0.7,1.2-1,1.8
		 c-0.6,1.2-0.9,2.4-0.9,3.5v0.4v0.4c0,0.3,0.1,0.5,0.1,0.8c0,0.2,0.1,0.6,0.3,0.9c0.1,0.3,0.2,0.7,0.4,1c0.5,1.3,1.3,2.5,2.1,3.6
		 c0.9,1.1,1.9,2.1,3.1,2.9c0.6,0.4,1.2,0.7,1.8,1.1c0.7,0.3,1.3,0.6,2,0.8c1.3,0.5,2.8,0.8,4.3,0.9c0.8,0,1.5,0.1,2.3,0.1h1.2
		 c0.4,0,0.8-0.1,1.2-0.1c3.3-0.3,6.6-0.9,9.7-2c3.1-1,6.1-2.5,8.4-4.4c1.1-0.9,2.1-2,2.4-2.7c0.5-1.2,0.8-2.5,0.7-3.3
		 c0-0.4-0.1-0.7-0.3-1c-0.2-0.3-0.5-0.5-0.9-0.8c-0.9-0.6-2.3-1-3.8-1.2s-3.1-0.2-4.8-0.1c-1.7,0.1-3.4,0.4-5.4,0.5
		 c-1,0.1-2.1,0.1-3.2,0.1c-1.2-0.1-2.6-0.3-4-1.1s-2.4-2.1-3-3.4c-0.6-1.3-0.8-2.8-0.7-4.1c0.1-1.3,0.5-2.5,1-3.7
		 c0.6-1.1,1.2-2.1,2.1-2.9c1.7-1.7,3.9-2.9,6.4-3.2h0.9h0.5h0.3c0.4,0,0.8,0,1.2,0c0.8,0,1.7-0.1,2.5-0.2c1.7-0.2,3.5-0.6,5.2-0.9
		 c6.9-1.6,13.7-4,19.5-8c1.4-1,2.8-2.2,4.2-3.4c1.4-1.2,2.7-2.4,4-3.7c2.6-2.5,5-5.3,7.1-8.2c-1.7,3.2-3.9,6.2-6.1,9.1
		 c-1.2,1.4-2.4,2.8-3.6,4.2c-1.3,1.4-2.6,2.6-4,3.9c-2.9,2.5-6.1,4.4-9.5,6.1c-3.4,1.7-6.9,3.1-10.5,4.2c-1.8,0.6-3.6,1-5.5,1.4
		 c-0.9,0.2-1.9,0.3-2.9,0.5c-0.5,0.1-1,0.1-1.5,0.1h-0.4h-0.2h-0.5c-1.2,0.3-2.3,0.9-3.1,1.9c-0.4,0.5-0.7,1-1,1.6
		 c-0.2,0.6-0.3,1.1-0.3,1.6s0.1,0.9,0.3,1.2c0.2,0.3,0.4,0.5,0.6,0.6s0.7,0.2,1.3,0.2c0.7,0,1.4-0.1,2.2-0.2
		 c3.3-0.5,7.3-1.3,11.6-1c2.1,0.2,4.4,0.6,6.7,1.9c1.1,0.7,2.3,1.6,3.2,2.8c0.9,1.2,1.4,2.7,1.7,4.1c0.2,1.4,0.2,2.7,0,3.9
		 c-0.2,1.3-0.5,2.3-1,3.4c-1.2,2.6-2.8,4.2-4.5,5.7c-3.3,2.8-7,4.6-10.7,6c-3.8,1.4-7.6,2.3-11.6,2.7c-4,0.5-8.4,0.4-12.6-1
		 c-1.1-0.3-2.1-0.8-3.1-1.2c-1-0.5-2-1-2.9-1.7c-1.8-1.3-3.5-2.8-4.9-4.5c-1.4-1.7-2.6-3.7-3.5-5.7c-0.2-0.5-0.4-1-0.6-1.6
		 c-0.2-0.5-0.4-1.1-0.5-1.7c-0.1-0.6-0.3-1.3-0.3-1.9l-0.1-1c0-0.3,0-0.6,0-1c0.1-2.6,0.7-5,1.7-7.1c0.5-1.1,1.1-2,1.7-3
		 c0.3-0.5,0.7-0.9,1-1.4l0.6-0.7c0.2-0.2,0.4-0.4,0.7-0.8l5.4,7.1c-1.1,0.6-1.9,1-2.9,1.5c-0.9,0.4-1.9,0.9-2.9,1.3
		 c-1.9,0.8-3.9,1.5-5.9,2.2c-1,0.3-2,0.6-3,0.9c-0.5,0.1-1,0.3-1.5,0.4c-0.5,0.1-0.9,0.3-1.7,0.4c-0.7,0.1-1.4,0.2-2.1,0.2
		 s-1.4,0-2.1,0c-0.7-0.1-1.3-0.2-2-0.3s-1.3-0.4-1.9-0.6c-2.5-0.9-4.7-2.3-6.5-4s-3.3-3.7-4.4-6c-1.1-2.2-1.8-4.7-2-7.4
		 c0-0.7,0-1.3,0-2c0.1-0.7,0.2-1.3,0.3-2l0.1-0.5l0.1-0.4l0.2-0.7c0.1-0.5,0.2-1,0.4-1.5c1-4,2.5-8.1,4.7-11.9
		 c2.1-3.8,4.9-7.2,8.2-10.1c0.8-0.7,1.6-1.4,2.5-2.1l2.7-1.8c0.4-0.3,0.9-0.6,1.4-0.8l1.4-0.8c1-0.5,1.9-1.1,2.9-1.4
		 c2-0.8,3.9-1.7,5.9-2.1l3-0.9c1-0.2,2-0.4,3-0.6l3-0.6l3.1-0.3l3-0.3c1-0.1,2-0.1,3-0.2c2-0.1,4-0.2,6-0.2s4,0,6,0.1
		 c8,0.4,16,1.5,23.7,3.4s15.2,4.6,22.5,7.6c3.6,1.5,7.2,3.1,10.8,4.7L503.5,204.5z"/>
	  <path d="M503.5,204.5c-0.9,5.4-3,10.4-4.5,15.5c-0.7,2.5-1.2,5.1-1.8,7.8c-0.5,2.6-1.1,5.3-1.6,7.9c-1.1,5.3-2.4,10.6-4.2,15.8
		 c-1.8,5.2-4.1,10.4-7.3,15.1c-1.6,2.3-3.5,4.5-5.6,6.5s-4.4,3.7-6.8,5.2c-4.8,3-9.9,5.2-15.2,6.8c-10.5,3.3-21.3,4.7-32.1,5.4
		 c10.5-2.7,20.9-5.2,30.8-9.1c9.8-3.9,19.1-9.1,24.7-17.6c2.9-4.2,5.1-8.9,7-13.8c1.9-4.9,3.4-10,4.9-15.2
		 c0.8-2.6,1.5-5.2,2.3-7.8l1.2-3.9c0.4-1.3,0.9-2.6,1.4-3.9C498.9,214.2,501.6,209.6,503.5,204.5z"/>
	  <path d="M435.6,189.9c-4.4,1.6-8.8,3.7-12.6,6.5c-1.9,1.4-3.6,2.9-4.9,4.7c-1.2,1.8-1.8,3.8-1.2,5.8c0.6,1.9,2.2,3.8,4.1,5.1
		 s4.3,2,6.6,2.3c1.2,0.2,2.4,0.2,3.6,0.1c1.2-0.1,2.4-0.4,3.4-1c0.5-0.3,0.9-0.7,1.3-1.2c0.3-0.5,0.4-1.1,0.4-1.6
		 c-0.1-1.2-0.9-2.2-1.8-3.1c0.9,0.8,1.8,1.8,2.1,3.1c0.1,0.6,0,1.3-0.3,1.9c-0.3,0.6-0.8,1.1-1.3,1.4c-2.1,1.5-4.9,1.8-7.4,1.7
		 s-5.1-0.7-7.5-1.9c-1.2-0.6-2.3-1.5-3.2-2.4c-0.9-1-1.8-2.1-2.3-3.4c-0.6-1.3-0.8-2.9-0.5-4.3c0.2-1.5,0.7-2.8,1.4-4
		 c1.4-2.4,3.3-4.3,5.2-6c4-3.4,8.4-6,13.1-8.2L435.6,189.9z"/>
	  <path d="M443.5,259.5c3.7-0.4,7.3-1.1,10.8-2s6.9-2.1,10.1-3.5c6.5-2.9,12.2-7,16.6-12.3c2.2-2.7,4-5.6,5.6-8.7
		 c1.7-3.3,3.4-6.5,5.1-9.7c1.8-3.2,3.6-6.4,5.5-9.5c2-3.1,3.9-6.3,6.2-9.2c-2.6,6.9-5.2,13.8-8.1,20.5c-1.4,3.4-2.9,6.7-4.5,10.1
		 c-1.6,3.5-3.6,6.9-6.1,9.8c-5,6-11.8,10.3-19,12.7C458.5,259.9,450.8,260.7,443.5,259.5z"/>
	  <!-- premier mot -->
	  <!-- deuxiemme mot  -->
	  <path d="M480,293c-1.7,0-3.4-0.2-5.1-0.3c-1.7-0.1-3.4-0.2-5-0.2c-3.3-0.1-6.6,0.1-9.6,0.8c-1.5,0.3-2.9,0.9-4.2,1.5
		 c-1.3,0.6-2.5,1.4-3.6,2.4c-2.3,1.9-4.4,4.2-6.1,6.6s-2.9,5.1-3.2,7.3c-0.1,1.1,0,2,0.3,2.7s0.8,1.3,1.5,2s1.7,1.2,2.9,1.7
		 c0.6,0.3,1.2,0.5,1.9,0.7l1,0.3l0.5,0.2l0.4,0.1c1.2,0.3,2.7,0.5,4.2,0.7c1.6,0.2,3.2,0.4,5.1,0.6l-2.1,11.6
		 c-2.1-0.3-3.8-0.5-5.1-0.3c-0.6,0.1-1.1,0.2-1.5,0.4c-0.3,0.2-0.5,0.3-0.7,0.6c-0.5,0.6-1.1,1.7-1.5,3.2s-0.6,3.3-0.7,5.1
		 c0,0.9,0,1.9,0,2.8c0,0.4,0.1,0.6,0.1,0.7c0,0,0-0.2-0.2-0.5c-0.2-0.4-0.5-0.7-0.7-0.8c-0.2-0.1-0.3-0.1-0.2-0.1
		 c0.2,0.1,0.8,0.1,1.5,0.1c1.5,0,3.4-0.2,5.3-0.6c2-0.4,3.9-0.9,6.1-1.5l2.2,12.6c-3.5,0.3-7.9,1.3-10.5,2.6
		 c-0.6,0.3-1,0.7-1.1,0.7c0.1-0.2-0.3,0.4-0.5,0.7c-0.3,0.4-0.5,0.7-0.8,1.1c-1,1.5-1.8,3.2-2.5,4.9c-1.4,3.5-2.1,7.3-2.2,11.2
		 c-0.2,3.9,0.4,8,1.3,11.9c0.5,2,1.2,3.9,1.9,5.8l1.3,2.9c0.5,0.9,0.9,1.9,1.5,2.8c2,3.6,4.5,7,7.5,10c6,6,14,10.2,22.6,13.1
		 c-4.5-0.2-9.1-1-13.6-2.4l-1.7-0.5l-1.6-0.6c-1.1-0.4-2.2-0.9-3.2-1.4c-1.1-0.5-2.1-1.1-3.2-1.7c-1-0.7-2-1.3-3-2
		 c-3.9-2.8-7.4-6.3-10.4-10.1c-0.7-1-1.4-2-2.1-3l-1.9-3.1c-1.2-2.2-2.3-4.4-3.1-6.8c-1.8-4.6-2.8-9.6-3.1-14.7
		 c-0.2-5.1,0.3-10.3,1.9-15.3c0.8-2.5,1.9-5,3.2-7.3c0.4-0.6,0.7-1.2,1.1-1.7c0.4-0.6,0.6-1,1.5-2c1.5-1.7,2.9-2.6,4.3-3.4
		 c2.7-1.5,5.2-2.3,7.8-3c2.5-0.7,5-1.2,7.7-1.4l2.2,12.6c-2.1,0.6-4.5,1.2-6.9,1.7c-2.5,0.5-5,0.9-8,0.9c-1.5,0-3.2-0.1-5.1-0.7
		 c-1-0.3-2.1-0.8-3.2-1.5s-2.3-1.8-3.1-3.1c-0.8-1.3-1.2-2.6-1.4-3.6c-0.2-1.1-0.3-1.9-0.3-2.7c-0.1-1.3-0.1-2.6,0-4
		 c0.2-2.6,0.5-5.3,1.4-8.1c0.9-2.8,2.2-5.8,4.9-8.4c1.3-1.3,3.1-2.4,4.8-3.1c1.7-0.7,3.5-1,5.1-1.1c3.2-0.2,5.9,0.3,8.2,0.8
		 l-2.1,11.6c-1.5-0.3-3.1-0.6-4.9-1c-1.7-0.4-3.5-0.7-5.6-1.4l-0.8-0.3l-0.7-0.3c-0.4-0.2-0.9-0.4-1.3-0.6
		 c-0.9-0.4-1.8-0.8-2.7-1.3c-1.8-1-3.7-2.3-5.3-4.1c-1.6-1.7-3-4-3.6-6.6c-0.6-2.5-0.4-5,0.1-7.2c0.6-2.2,1.5-4.1,2.5-5.8
		 c1-1.7,2.2-3.2,3.5-4.6c2.6-2.8,5.4-5.1,8.7-6.9c1.6-0.9,3.4-1.7,5.3-2.3c1.8-0.5,3.7-0.8,5.5-0.9c3.7-0.1,7.2,0.5,10.5,1.3
		 C473.6,290.9,476.8,292,480,293z"/>
	  <!-- deuxiemme mot  -->
	  <!-- point-->
	  <g stroke="white" stroke-width="9" stroke-miterlimit="10" fill="none">
		 <line  x1="492.5" y1="286.5" x2="492.5" y2="297.5"/>
		 <line  x1="473.5" y1="319.5" x2="474.5" y2="326.5"/>
		 <line  x1="479.5" y1="339.5" x2="479.5" y2="348.5"/>
	  </g>
   </g>
   <!-- fougre centrale -->
   <g>
	  <g fill="none" stroke="white" stroke-width="3" stroke-miterlimit="10" >
		 <path  d="M297,119c24,11,31-22.9,6.3-26.9c-7.7-1.3-12.7,5.5-15.3,11.9l-0.2,112"/>
		 <path  d="M301,110c5.3,4.4,13-1,7.7-6.9c-1.4-1.5-3.5-2.5-5.5-2.2c-9.4,1.6-7.8,19.2-7.5,25.7c1.4,28.1,2.8,56.2,4.3,84.2c0,0.7,0.1,1.4,0.1,2.1"/>
		 <path  d="M305.2,81.5c15.3,0,24.3,11.6,24.3,26s-12,31-33,25"/>
	  </g>
	  <g fill="none" stroke="white" stroke-width="2" stroke-miterlimit="10">
		 <line  x1="298.5" y1="83.5" x2="298.5" y2="91.5"/>
		 <line  x1="308.5" y1="82.5" x2="305.5" y2="91.5"/>
		 <line  x1="312.5" y1="82.5" x2="308.5" y2="92.5"/>
		 <line  x1="319.5" y1="85.5" x2="312.5" y2="94.5"/>
		 <line  x1="325.5" y1="91.5" x2="315.5" y2="97.5"/>
		 <line  x1="328.5" y1="100.5" x2="318.5" y2="104.5"/>
		 <line  x1="329.5" y1="109.5" x2="318.5" y2="109.5"/>
		 <line  x1="326.5" y1="118.5" x2="317.5" y2="113.5"/>
		 <line  x1="322.5" y1="126.5" x2="315.5" y2="118.5"/>
		 <line  x1="315.5" y1="130.5" x2="313.5" y2="119.5"/>
		 <line  x1="310.5" y1="132.5" x2="308.5" y2="120.5"/>
		 <line  x1="304.5" y1="133.5" x2="303.5" y2="120.5"/>
		 <line  x1="300.5" y1="132.5" x2="299.5" y2="121.5"/>
	  </g>
	  <g fill="none" stroke="white" stroke-width="3" stroke-miterlimit="10">
		 <path d="M286.5,121.5c-1.3-20.1-2.6-45.3,0-52.4c2.6-7.2,13.5-8,18.8-2.7c5.4,5.4,3.2,17.6-6.3,17.2
			c-7.1-0.3-8.1-12-0.8-10.9"/>
	  </g>
	  <g fill="none" stroke="white" stroke-width="3" stroke-miterlimit="10">
		 <path  d="M288,224c-1-31-3-168-4-185c-0.6-9.8,8.7-12.9,16.5-8.4c11.3,6.6-0.7,23.4-7.5,14.4"/>
		 <path  d="M277,213c-2-29-7-168-6-191c0.6-13.5,19.2-17.5,29.7-14.3c15.5,4.7,21.6,21.9,16.3,36.5
			c-5.3,14.7-19.6,17.2-32.6,10.4"/>
	  </g>
	  <g fill="none" stroke="white" stroke-width="3" stroke-miterlimit="10">
		 <path  d="M271.4,63.5C258,45,233,58,235,76c1,9,8.4,17.9,29.2,16"/>
		 <path  d="M268,216c-0.9-26.1-1.7-52.3-2.6-78.4c-0.6-17.7-0.6-35.6-1.5-53.3c-0.3-4.7-2.8-19.8-10.6-15.6c-8.3,4.5-5.3,13.7,3.8,13.2"/>
	  </g>
	  <g fill="none" stroke="white" stroke-width="3" stroke-miterlimit="10">
		 <path  d="M249.5,217.5c0-20-1-36-1-42c0-2.6-2.1-4.8-4.8-4.8c-5.5,0.1-3.4,10.1,0.8,8.6"/>
		 <path  d="M263.5,224.5c-0.6-15.8-0.4-31.6-1.1-47.3c-0.2-4.6-1.4-9.4-5-12.3c-2-1.6-4.5-2.4-7.1-2.6c-3.1-0.2-6.2,0.6-8.8,2.2c-12.8,7.9-9,29.4,7.9,26"/>
	  </g>
	  <g fill="none"  stroke="white"  stroke-width="2" stroke-miterlimit="10">
		 <line  x1="269" y1="217.5" x2="263.5" y2="217.5"/>
		 <line  x1="268" y1="211.5" x2="263.5" y2="211.5"/>
		 <line  x1="267.5" y1="204.5" x2="263.5" y2="204.5"/>
		 <line  x1="266.5" y1="198.5" x2="263.5" y2="198.5"/>
		 <line  x1="267.5" y1="192.5" x2="263" y2="192.5"/>
		 <line  x1="267.5" y1="186.5" x2="262.5" y2="186.5"/>
		 <line  x1="267" y1="179.5" x2="263" y2="179.5"/>
		 <line  x1="261.5" y1="174.5" x2="266.5" y2="174.5"/>
		 <line  x1="260.5" y1="170.5" x2="266.5" y2="170.5"/>
		 <line  x1="259.5" y1="166.5" x2="265.5" y2="166.5"/>
		 <path  d="M266.5,166.5c0,0-7-4-14-4"/>
	  </g>
   </g>
   <!-- FIN fougre  -->

   <g fill="none" stroke="white" stroke-width="3" stroke-miterlimit="10">
	  <path d="M334.1,131.1c-6.8-9.5-2.8-21,3.1-18.5C343.1,115.1,334.1,131.1,334.1,131.1z"/>
	  <path d="M350.5,116.5c2-3,5-8,0-9S350.5,116.5,350.5,116.5z"/>
	  <path d="M300.5,132.5c6,5,12,4,14,11s-4,10,0,12s7.6-6.5,10.9-8.2c0.4-0.2,0.8-0.4,1.2-0.3c0.6,0.1,1,0.8,1.2,1.4
		 c0.7,1.6,1.2,3.3,1.6,5c0.3,1.3,0.5,2.7,1.5,3.5c4.2,3.7,6.5-13.8,7.3-15.7c0.8-2,2.5-3.8,4.7-4.2c2.3-0.4,4.5,0.9,6.1,2.7
		 c1,1.1,1.8,2.6,1.9,4.1c0.1,2.8-2.2,4.9-4.1,6.9c-3,3.1-5.5,6.7-7.3,10.6c-0.2,0.4,6.4,2.2,7.2,2.6c5.6,2.8,6.3,11.1,0,13.6
		 c-2.9,1.2-6.5,3.6-1.7,5.5c2.2,0.9,7.7-1.5,8.7,1.5"/>
   </g>
   <g class="coulureanim" fill="none" stroke="white" stroke-width="2" stroke-miterlimit="10">
	  <path d="M337.2,182.5c-0.1-5,7.4-15.3-0.8-18.2c-2.8-1-8.2,1.1-10.1-2.3c-1-1.9,1-3.6-0.9-5.5c-3-3-4,2-7,4s-9,4-9-7
		 s-6-13-13-15l3,66c0,0,0,6,6,8s8,9,8,9s5-4,10-6s7,0,7,0l20-27C344.9,188.5,337.4,190.3,337.2,182.5z M319.5,164.5
		 c3.3,0,6,2.7,6,6s-2.7,6-6,6s-6-2.7-6-6S316.2,164.5,319.5,164.5z M313.5,186.5c0,2.2-1.8,4-4,4s-4-1.8-4-4s1.8-4,4-4
		 S313.5,184.3,313.5,186.5z M301.5,150.5c0-1.1,0.9-2,2-2s2,0.9,2,2s-0.9,2-2,2S301.5,151.6,301.5,150.5z M302.5,166.5
		 c0-2.2,1.8-4,4-4s4,1.8,4,4s-1.8,4-4,4S302.5,168.7,302.5,166.5z M310.5,207.5c-2.8,0-5-2.2-5-5s2.2-5,5-5s5,2.2,5,5
		 S313.3,207.5,310.5,207.5z M323.5,195.5c-2.2,0-4-1.8-4-4s1.8-4,4-4s4,1.8,4,4S325.7,195.5,323.5,195.5z M327.5,176.5
		 c0-1.7,1.3-3,3-3s3,1.3,3,3s-1.3,3-3,3S327.5,178.2,327.5,176.5z M331.5,205.5c-1.7,0-3-1.3-3-3s1.3-3,3-3s3,1.3,3,3
		 S333.2,205.5,331.5,205.5z M338.5,195.5c-1.7,0-3-1.3-3-3s1.3-3,3-3s3,1.3,3,3S340.2,195.5,338.5,195.5z"/>
   </g>
   <!--  fin glups -->
   <!-- DEBUT Arbre -->
   <g>
	  <g  stroke="white" stroke-width="1" stroke-linecap="round" stroke-linejoin="round" stroke-miterlimit="10" >
		 <path d="M138.5,104.5c1.1,1.9,2.2,3.8,2.8,6c0.2,1.1,0.2,2.4,0,3.5c-0.1,0.6-0.3,1.1-0.5,1.7c-0.1,0.3-0.2,0.5-0.3,0.8l-0.2,0.4
			l-0.1,0.3c-0.2,0.8-0.1,1.7,0.3,2.7c0.3,0.9,0.8,1.8,1.4,2.7c1.1,1.7,2.4,3.5,3.8,5l0.1,0.1l0.1,0.2c1.4,3,2.9,5.9,4.3,8.9
			l4.3,8.9l-0.3-0.5c2.8,3.2,5.6,6.4,8.4,9.6c2.8,3.2,5.6,6.4,8.3,9.6c2.9,3.1,5.8,6.1,8.8,9.2l8.7,9.3l0.2,0.2l0.1,0.3
			c2.8,5.2,5.4,10.5,8.1,15.7l0.5,1l0.1,0.2l0.1,0.1c0,0,0.1,0.2,0,0c0-0.1-0.1-0.2-0.2-0.2c-0.1-0.1-0.1-0.1-0.1-0.1l0,0
			c0.3,0.2,1,0.6,1.6,0.8c1.3,0.6,2.6,1.1,3.9,1.6c2.7,1.1,5.5,2,8.2,3c2.8,1,5.5,2,8.3,3l2.1,0.8c0.4,0.1,0.7,0.3,1.1,0.5
			c0.2,0.1,0.4,0.2,0.6,0.3c0.1,0,0.2,0.1,0.3,0.2l0.1,0.1l0,0c0,0,0.1,0,0.1,0.1c0.4,0.3,1.1,0.7,1.7,1.1l1.9,1.1
			c5.1,2.9,10.3,5.7,15.4,8.7c-5.5-2.1-10.9-4.3-16.3-6.8l-2-0.9c-0.7-0.3-1.3-0.6-2.1-1.1l-0.4-0.3l-0.1-0.1l0,0l0.1,0.1l-0.4-0.2
			c-0.3-0.1-0.6-0.2-1-0.3l-2.1-0.6c-2.8-0.8-5.6-1.6-8.5-2.4c-2.8-0.8-5.7-1.7-8.5-2.6c-1.4-0.5-2.8-0.9-4.3-1.5
			c-0.7-0.3-1.4-0.6-2.4-1.2c-0.1-0.1-0.3-0.2-0.4-0.3c0,0-0.2-0.2-0.3-0.3s-0.2-0.3-0.3-0.4l-0.3-0.6l-0.5-1
			c-2.8-5.1-5.7-10.2-8.4-15.4l0.4,0.5l-8.8-9.2c-2.9-3.1-5.8-6.2-8.7-9.4c-2.8-3.3-5.5-6.5-8.2-9.9c-2.7-3.3-5.4-6.6-8.1-9.9
			l-0.2-0.3l-0.1-0.2l-3.7-9.1c-1.3-3-2.5-6.1-3.7-9.1l0.2,0.4c-1.4-1.8-2.7-3.7-3.7-5.8c-0.5-1-0.9-2.1-1.2-3.3
			c-0.3-1.2-0.4-2.5,0.1-3.8l0.2-0.5l0.2-0.4c0.1-0.2,0.3-0.5,0.4-0.7c0.2-0.5,0.4-0.9,0.6-1.4c0.4-1,0.5-2,0.4-3
			C140.1,108.6,139.3,106.5,138.5,104.5z"/>
		 <path d="M160.5,112.5c1.1,1.4,2,2.9,2.8,4.5c0.7,1.7,1.2,3.5,1.2,5.5s-0.5,3.9-1.3,5.6c-0.7,1.7-1.7,3.3-2.6,4.7l-0.2-3
			c1.7,2,2.6,4.2,3.2,6.4c0.6,2.2,0.9,4.4,0.9,6.6c0.1,2.2-0.1,4.3-0.4,6.4c-0.3,2.1-0.8,4.2-1.6,6.2c-0.4-2.1-0.7-4.2-1-6.2
			s-0.7-4-1.1-6c-0.4-1.9-0.8-3.8-1.5-5.6c-0.6-1.7-1.4-3.4-2.4-4.6l-1.2-1.5l1-1.5c0.9-1.4,1.9-2.7,2.6-4c0.8-1.3,1.3-2.6,1.7-4
			c0.3-1.4,0.4-2.9,0.3-4.6C161,115.9,160.7,114.2,160.5,112.5z"/>
		 <path d="M171.5,171.5c-0.8,0.4-1.5,0.8-2.3,1.2s-1.6,0.7-2.5,1c-0.9,0.2-1.9,0.4-3,0.3c-1.1-0.1-2.2-0.6-3.1-1.2
			c-1.8-1.3-2.8-3.1-3.6-4.7l-2.1-4.4c-0.7-1.4-1.3-2.6-2.1-3.6s-1.9-1.7-3.2-2.5l-1-0.5c-0.4-0.2-0.8-0.4-1.2-0.6
			c-0.8-0.4-1.5-1-2.2-1.5c-0.7-0.6-1.3-1.3-1.8-2s-0.9-1.6-1-2.5c1.2,1.2,2.7,1.8,4.1,2.4c0.7,0.2,1.5,0.4,2.2,0.6
			c0.4,0.1,0.8,0.2,1.1,0.2c0.4,0.1,0.9,0.2,1.3,0.3c1.8,0.5,3.6,1.4,5.1,2.8c0.8,0.7,1.4,1.5,1.9,2.3s1,1.6,1.3,2.4
			c0.8,1.6,1.4,3.1,1.9,4.7c0.5,1.4,1,2.7,1.8,3.6c0.4,0.4,0.7,0.7,1.3,1c0.5,0.3,1.2,0.4,2,0.5C168,171.4,169.8,171.3,171.5,171.5
			z"/>
		 <path d="M127.5,148.5c1.7,0,3.3,0.3,4.9,0.6c1.6,0.4,3.1,0.8,4.5,1.4c1.5,0.5,2.9,1.3,4.3,2c1.3,0.6,2.7,1.2,4.4,1.5
			c-1.5,0.9-3.3,1-5,0.8c-1.6-0.3-3.1-0.8-4.6-1.4c-1.5-0.6-2.9-1.2-4.4-2C130.1,150.5,128.8,149.6,127.5,148.5z"/>
		 <path d="M144.5,128.5c0.3,1.1,0.3,2.2,0.1,3.2s-0.6,2-1.1,2.9s-1.2,1.8-2,2.5s-1.8,1.3-3,1.4c0.4-1.1,0.8-2,1.2-2.8
			c0.4-0.9,0.8-1.7,1.2-2.5s0.9-1.6,1.5-2.4S143.6,129.3,144.5,128.5z"/>
		 <path d="M169.5,164.5c0.6-1.4,1-2.7,1.4-4c0.3-1.3,0.6-2.5,0.8-3.8s0.3-2.6,0.4-3.9c0.1-0.7,0.1-1.4,0.2-2.1
			c0.1-0.7,0.1-1.4,0.3-2.2c0.5,0.6,0.8,1.3,1.2,1.9c0.3,0.7,0.6,1.4,0.7,2.1c0.3,1.5,0.4,3,0.2,4.6c-0.2,1.5-0.8,3-1.6,4.4
			C172.1,162.8,171,164,169.5,164.5z"/>
		 <path d="M178.5,131.5c2.4,2.4,4.5,5,6.6,7.7c1,1.4,2,2.7,3,4.1c0.5,0.7,0.9,1.4,1.4,2.2l0.2,0.3c0.1,0.1,0.1,0.3,0.2,0.4
			c0.1,0.3,0.2,0.5,0.3,0.8c0.1,0.5,0.2,1,0.2,1.5c0.2,3.7-0.4,7-1.1,10.4c-0.7,3.3-1.6,6.6-2.7,9.8v-0.3c0,0.9-0.1,1.8-0.2,2.7
			c-0.1,0.9-0.1,1.8-0.2,2.7c-0.2,1.8-0.4,3.7-0.6,5.5c-0.3-1.8-0.5-3.7-0.6-5.5c-0.1-0.9-0.2-1.8-0.2-2.7
			c-0.1-0.9-0.2-1.8-0.2-2.7v-0.1v-0.2c0.7-3.3,1.3-6.6,1.9-9.8c0.3-1.6,0.6-3.3,0.8-4.9c0.2-1.6,0.4-3.3,0.3-4.8
			c0-0.4,0-0.7-0.1-1c0-0.1-0.1-0.3-0.1-0.4l-0.1-0.2l-0.1-0.3c-0.3-0.7-0.7-1.4-1.2-2.1c-0.8-1.4-1.7-2.9-2.5-4.3
			C181.8,137.4,180.1,134.5,178.5,131.5z"/>
		 <path d="M179.5,156.5c1.2,0.7,2,1.8,2.7,2.9c0.7,1.1,1.2,2.3,1.5,3.6s0.4,2.4,0.6,3.5c0.1,0.5,0.2,1.1,0.4,1.6s0.3,1,0.9,1.5
			c-0.7,0.3-1.5-0.2-2.1-0.6c-0.6-0.5-1-1-1.4-1.6c-0.7-1.2-1-2.6-1.3-3.6c-0.3-1.1-0.5-2.3-0.7-3.4
			C179.8,159.1,179.6,157.9,179.5,156.5z"/>
		 <path d="M181.5,125.5c4.6,2.3,8.5,6.1,11.4,10.6c1.4,2.2,2.6,4.5,4,6.5c1.3,1.9,3,3.8,4.8,5.6l2.7,2.7c0.5,0.5,0.9,0.9,1.4,1.4
			s0.9,1,1.4,1.7l0.2,0.3c0.1,0.1,0.1,0.2,0.1,0.2l0.2,0.2c0.2,0.2,0.3,0.4,0.5,0.7l1.1,1.4l2.4,2.9c0.8,1,1.6,2,2.5,3
			c0.4,0.5,0.8,1,1.2,1.6c0.2,0.3,0.4,0.6,0.6,0.9l0.2,0.2l0.2,0.3l0.2,0.3c0.1,0.3,0.3,0.7,0.3,1.1c0,0.1,0,0.2,0,0.3v0.1v0.2v0.4
			l-0.1,0.5l-0.1,1l-0.2,1.9c-0.1,1.2-0.3,2.5-0.3,3.7c-0.1,1.2-0.1,2.4-0.1,3.5c0.1,1.1,0.3,2.2,0.5,2.5c0.8,1.3,1.3,2.5,1.9,3.6
			c0.6,1.1,1.1,2.2,1.7,3.2c1.2,2.1,2.6,4,4.2,5.6c0.8,0.8,1.7,1.5,2.6,2.2c0.5,0.3,0.9,0.6,1.5,0.9c0.5,0.3,1.1,0.6,1.6,0.8
			c2.2,1.1,4.5,1.8,7,2.7c1.2,0.4,2.5,0.9,3.7,1.6c1.2,0.7,2.4,1.5,3.4,2.6c1.9,2.1,3,4.7,3.6,7.2c0.6,2.6,0.8,5.2,0.6,7.8
			c-0.2-1.3-0.4-2.5-0.7-3.8c-0.3-1.2-0.7-2.4-1.2-3.6c-0.5-1.1-1-2.3-1.7-3.3s-1.4-1.9-2.3-2.6c-1.7-1.5-3.9-2.2-6.4-2.8
			c-2.4-0.6-5-1.3-7.6-2.3c-0.6-0.2-1.2-0.5-1.9-0.8c-0.6-0.3-1.3-0.6-1.9-1c-1.2-0.7-2.4-1.6-3.4-2.5c-2.1-1.9-3.8-4.1-5.3-6.4
			c-0.7-1.1-1.4-2.3-2-3.5c-0.6-1.1-1.2-2.3-1.7-3.1l-0.2-0.3l-0.2-0.4c-0.1-0.2-0.3-0.5-0.3-0.7c-0.1-0.4-0.3-0.9-0.4-1.3
			c-0.2-0.8-0.2-1.5-0.3-2.3c-0.1-1.4,0-2.8,0-4.1c0.1-1.3,0.2-2.7,0.4-4l0.2-1.9l0.1-0.9l0.1-0.4v-0.1l0,0l0,0c0,0,0,0.1,0,0.2
			c0,0.2,0.1,0.5,0.2,0.6l-0.1-0.1v-0.1l0.2,0.1c-0.1-0.2-0.3-0.4-0.5-0.7c-0.3-0.5-0.7-1-1.1-1.5l-2.3-3l-2.4-3.1
			c-0.4-0.5-0.8-1-1.2-1.6c-0.2-0.3-0.4-0.6-0.6-0.9c-0.1-0.2-0.2-0.4-0.3-0.6l-0.1-0.2v-0.1c-0.2-0.3-0.6-0.8-0.9-1.3l-1.2-1.4
			l-2.5-2.9c-1.7-2-3.4-4.1-4.7-6.5s-2.2-4.8-3.3-7C188.6,132.8,185.5,128.8,181.5,125.5z"/>
		 <path d="M199.3,148.5c0.6-1.5,0.9-2.9,1-4.2c0-0.7,0-1.3,0-2c-0.1-0.7-0.2-1.2-0.3-1.9c-0.3-1.4-0.6-2.8-0.9-4.3
			c-0.3-1.5-0.5-3-0.6-4.6c1.2,1.1,2.1,2.4,2.8,3.8c0.7,1.4,1.2,2.9,1.6,4.4c0.2,0.8,0.3,1.7,0.2,2.5c-0.1,0.9-0.2,1.7-0.5,2.5
			C201.9,146.4,200.8,147.8,199.3,148.5z"/>
		 <path d="M208.5,138.5c-0.5,1.1-0.9,2.2-0.9,3.2s0.2,1.9,0.8,2.5c0.2,0.1,0.3,0.3,0.5,0.4l0.3,0.2l0.1,0.1l0.2,0.2
			c0.3,0.2,0.6,0.5,0.8,0.7l0.6,0.8c0.4,0.5,0.7,1.1,1,1.7c0.3,0.6,0.5,1.1,0.7,1.7c0.9,2.3,1.4,4.6,1.7,6.9
			c0.3,2.3,0.4,4.7,0.1,7.1c-1-2.2-1.7-4.4-2.4-6.6c-0.7-2.2-1.4-4.3-2.2-6.4c-0.4-1-0.8-2-1.3-2.9l-0.4-0.6l-0.4-0.5l-0.1-0.1
			l-0.2-0.2l-0.4-0.4c-0.2-0.2-0.4-0.6-0.6-0.9c-0.8-1.3-0.8-2.9-0.3-4.2C206.7,140.1,207.5,139.2,208.5,138.5z"/>
		 <path d="M222.5,166.5c1.4,0.8,2.6,1.8,3.7,2.9c1.2,1.1,2.2,2.5,2.9,4c1.5,3,2.2,5.9,2.8,8.9s1,6,1,9c0.1,3-0.1,6.1-0.8,9.2
			c-1.3-2.9-2.3-5.7-3.1-8.6c-0.8-2.9-1.5-5.8-2.1-8.7s-1-5.8-1.6-8.5c-0.3-1.3-0.7-2.6-1.3-4C223.7,169.4,223,168,222.5,166.5z"/>
		 <path d="M220.5,176.5c1.1,0,2,0.2,2.9,0.5s1.7,0.7,2.4,1.2c0.8,0.5,1.4,1.1,2.1,1.8c0.6,0.7,1.2,1.5,1.6,2.5
			c-1.1,0-2-0.2-2.9-0.5s-1.7-0.7-2.4-1.2s-1.4-1.1-2.1-1.8C221.5,178.3,220.9,177.5,220.5,176.5z"/>
		 <path d="M205.5,172.5c1.1,0.3,2.1,0.8,2.9,1.3c0.9,0.6,1.6,1.2,2.3,1.9s1.3,1.5,1.9,2.4c0.5,0.9,1,1.8,1.3,3
			c-1.1-0.3-2.1-0.7-2.9-1.3c-0.9-0.6-1.6-1.2-2.3-1.9s-1.3-1.5-1.9-2.4C206.2,174.6,205.8,173.6,205.5,172.5z"/>
		 <path d="M196.5,156.5c0.9,1.3,1.7,2.5,2.5,3.5c0.9,1,1.8,1.7,2.7,2s1.9,0.2,3.1-0.3c1.2-0.5,2.4-1.3,3.7-2.2
			c-0.3,1.6-1.1,3-2.4,4.2c-0.7,0.6-1.5,1-2.4,1.3s-2,0.2-2.9-0.1c-1.9-0.6-3.2-2.1-3.8-3.6C196.4,159.7,196.2,158.1,196.5,156.5z"/>
		 <path d="M217.1,209.5c-1.1-2.5-2.2-5-3.6-7.1c-0.7-1.1-1.5-2.1-2.3-3.2c-0.8-1.1-1.6-2.4-2.1-3.9c-0.1-0.5-0.2-0.6-0.3-0.9
			c-0.1-0.3-0.2-0.5-0.3-0.8c-0.3-0.6-0.6-1.1-0.9-1.7c-0.6-1.1-1.3-2.3-2-3.4c-1.4-2.3-2.8-4.6-4.2-7c2.3,1.6,4.2,3.5,6.1,5.6
			c0.9,1,1.8,2.1,2.6,3.3c0.4,0.6,0.8,1.2,1.1,1.9c0.2,0.4,0.3,0.7,0.5,1.1l0.4,1.1c0.6,2,2.5,4.3,3.6,6.9
			C216.7,203.9,217.2,206.7,217.1,209.5z"/>
		 <path d="M205.5,206.5c-0.7,1.9-2.2,3.5-4,4.6c-0.5,0.3-1,0.5-1.5,0.7s-0.8,0.3-1.2,0.5c-0.8,0.3-1.7,0.8-2.5,1.1
			c-1.7,0.8-3.4,1.6-5.2,2.3s-3.6,1.4-5.6,1.8c1.3-1.5,2.9-2.8,4.4-3.9c1.6-1.1,3.3-2.1,5.1-3c0.9-0.4,1.8-0.8,2.8-1.1
			c0.5-0.2,1.1-0.3,1.5-0.4c0.4-0.1,0.8-0.2,1.2-0.3C202.2,208.5,203.9,207.7,205.5,206.5z"/>
		 <path d="M214.5,192.5c1.6,1,2.9,2.2,4.2,3.5c1.2,1.4,2.3,2.7,3.1,4.7c0.4,1,0.5,1.8,0.7,2.8c0.2,0.9,0.3,1.8,0.3,2.7
			c0.1,1.8,0.1,3.6-0.3,5.4c-0.9-1.6-1.5-3.3-2-5c-0.3-0.8-0.5-1.7-0.8-2.5c-0.2-0.8-0.5-1.7-0.7-2.3c-0.5-1.3-1.4-2.9-2.2-4.4
			C215.9,195.8,215.1,194.2,214.5,192.5z"/>
	  </g>
	  <!-- Branches -->
	  <g fill="none" stroke="white" stroke-width="1.5" stroke-miterlimit="10">
		 <path class="st4" d="M137.2,167.2c-4.7,6.8-7.8,9.4-12.5,6.9C128.7,168,137.2,167.2,137.2,167.2z"/>
		 <path d="M137.2,167.2c-1,1.2-2.2,2.1-3.4,3c-1.3,0.8-2.5,1.6-4,2.2c1-1.2,2.2-2.1,3.4-3C134.5,168.5,135.8,167.7,137.2,167.2z"/>
		 <path class="st4" d="M147.4,159.9c-7.5,3.4-11.4,4.2-14.3-0.4C139.6,156.2,147.4,159.9,147.4,159.9z"/>
		 <path d="M147.4,159.9c-1.5,0.5-3,0.7-4.5,0.8s-3,0.1-4.6-0.2c1.5-0.5,3-0.7,4.5-0.8C144.3,159.6,145.8,159.6,147.4,159.9z"/>
		 <path class="st4" d="M156.4,166.9c-7.5,3.4-11.4,4.2-14.3-0.4C148.6,163.2,156.4,166.9,156.4,166.9z"/>
		 <path d="M156.4,166.9c-1.5,0.5-3,0.7-4.5,0.8s-3,0.1-4.6-0.2c1.5-0.5,3-0.7,4.5-0.8C153.3,166.6,154.8,166.6,156.4,166.9z"/>
		 <path class="st4" d="M158.6,171.2c-5.6,6-9,8.2-13.4,5.1C150,170.8,158.6,171.2,158.6,171.2z"/>
		 <path d="M158.6,171.2c-1.2,1-2.5,1.8-3.8,2.5c-1.4,0.7-2.7,1.3-4.3,1.6c1.2-1,2.5-1.8,3.8-2.5
			C155.7,172.1,157.1,171.5,158.6,171.2z"/>
		 <path class="st4" d="M154.7,183.8c-2.7,7.8-4.9,11.1-10.2,10C146.7,186.9,154.7,183.8,154.7,183.8z"/>
		 <path d="M154.7,183.8c-0.7,1.4-1.6,2.6-2.5,3.8c-1,1.2-2,2.3-3.3,3.2c0.7-1.4,1.6-2.6,2.5-3.8
			C152.4,185.8,153.5,184.7,154.7,183.8z"/>
		 <path class="st4" d="M163.7,173.7c-2.7,7.8-4.9,11.2-10.1,10.1C155.7,176.9,163.7,173.7,163.7,173.7z"/>
		 <path d="M163.7,173.7c-0.7,1.4-1.5,2.6-2.5,3.8s-2,2.3-3.3,3.2c0.6-1.4,1.5-2.6,2.5-3.8C161.4,175.8,162.4,174.6,163.7,173.7z"/>
		 <path class="st4" d="M165.6,172.9c1.4,8.1,1.2,12.1-4,13.8C160.1,179.6,165.6,172.9,165.6,172.9z"/>
		 <path d="M165.6,172.9c0.1,1.6-0.1,3.1-0.3,4.5c-0.3,1.5-0.6,3-1.3,4.4c-0.1-1.6,0.1-3.1,0.3-4.5
			C164.6,175.8,164.9,174.3,165.6,172.9z"/>
		 <path class="st4" d="M172.6,172.9c1.4,8.1,1.2,12.1-4,13.8C167.1,179.6,172.6,172.9,172.6,172.9z"/>
		 <path d="M172.6,172.9c0.1,1.6-0.1,3.1-0.3,4.5c-0.3,1.5-0.6,3-1.3,4.4c-0.1-1.6,0.1-3.1,0.3-4.5
			C171.6,175.8,171.9,174.3,172.6,172.9z"/>
		 <path class="st4" d="M177.7,176.3c0,8.2-0.9,12.1-6.3,12.9C171.2,181.9,177.7,176.3,177.7,176.3z"/>
		 <path d="M177.7,176.3c-0.2,1.6-0.6,3-1.1,4.4s-1.1,2.8-2,4.1c0.2-1.6,0.6-3,1.1-4.4C176.2,179,176.8,177.6,177.7,176.3z"/>
		 <path class="st4" d="M181.6,180.9c-1.2,8.2-2.7,11.9-8.1,11.8C174.4,185.4,181.6,180.9,181.6,180.9z"/>
		 <path class="st4" d="M193.5,183.5c-2-8-2-12,3-14C198.5,176.5,193.5,183.5,193.5,183.5z"/>
		 <path d="M193.5,183.5c-0.2-1.5-0.1-3.1,0-4.6c0.2-1.5,0.4-3,1-4.4c0.2,1.5,0.1,3.1,0,4.6C194.3,180.6,194.1,182,193.5,183.5z"/>
		 <path d="M181.6,180.9c-0.4,1.5-1,2.9-1.7,4.2s-1.5,2.6-2.6,3.7c0.4-1.5,1-2.9,1.7-4.2C179.8,183.3,180.6,182,181.6,180.9z"/>
		 <path class="st4" d="M186.4,186.6c-3.9,7.3-6.6,10.2-11.6,8.4C178,188.4,186.4,186.6,186.4,186.6z"/>
		 <path d="M186.4,186.6c-0.9,1.3-1.9,2.4-3.1,3.4c-1.1,1-2.3,1.9-3.7,2.6c0.9-1.3,1.9-2.4,3.1-3.4
			C183.8,188.2,185,187.3,186.4,186.6z"/>
		 <path class="st4" d="M187.4,166.3c2.3-5.2,4-7.4,7.6-6.4C193.1,164.6,187.4,166.3,187.4,166.3z"/>
		 <path d="M187.4,166.3c0.4-1,1.1-1.8,1.8-2.6c0.7-0.7,1.5-1.4,2.5-1.9c-0.4,1-1.1,1.8-1.8,2.6
			C189.2,165.2,188.4,165.9,187.4,166.3z"/>
		 <path class="st4" d="M193.2,198c3.8-7.3,6.4-10.4,11.5-8.6C201.5,196.1,193.2,198,193.2,198z"/>
		 <path d="M193.2,198c0.8-1.3,1.9-2.4,3-3.4s2.3-2,3.7-2.7c-0.8,1.3-1.9,2.4-3,3.4C195.7,196.4,194.5,197.3,193.2,198z"/>
		 <path class="st4" d="M195.8,204c-6.9,4.5-10.7,5.7-14.2,1.6C187.6,201.5,195.8,204,195.8,204z"/>
		 <path d="M195.8,204c-1.4,0.7-2.8,1.1-4.3,1.5c-1.5,0.3-3,0.5-4.5,0.5c1.4-0.7,2.8-1.1,4.3-1.5S194.3,203.9,195.8,204z"/>
		 <path class="st4" d="M196.3,204c-2.7,7.8-4.9,11.1-10.2,10C188.3,207,196.3,204,196.3,204z"/>
		 <path d="M196.3,204c-0.7,1.4-1.6,2.6-2.5,3.8c-1,1.2-2,2.3-3.3,3.2c0.7-1.4,1.6-2.6,2.5-3.8C194,206,195,204.9,196.3,204z"/>
		 <path class="st4" d="M193.1,214.3c6.9,4.5,9.5,7.5,7,12.7C193.9,223.3,193.1,214.3,193.1,214.3z"/>
		 <path d="M193.1,214.3c1.2,1,2.1,2.2,3,3.5s1.6,2.6,2.2,4c-1.2-1-2.1-2.2-3-3.5C194.4,217.1,193.6,215.8,193.1,214.3z"/>
		 <path class="st4" d="M192.9,215.2c1.5,8.1,1.1,12-4.4,13.8C186.9,222,192.9,215.2,192.9,215.2z"/>
		 <path d="M192.9,215.2c0.1,1.6-0.1,3.1-0.4,4.6c-0.3,1.5-0.7,3-1.4,4.4c-0.1-1.6,0.1-3.1,0.4-4.6
			C191.8,218.1,192.2,216.6,192.9,215.2z"/>
		 <path class="st4" d="M228,214.7c-1.8,6.2-3.5,9-7.8,8.4C221.6,217.6,228,214.7,228,214.7z"/>
		 <path d="M228,214.7c-0.4,1.2-1.1,2.2-1.8,3.2c-0.7,0.9-1.5,1.9-2.6,2.6c0.4-1.2,1.1-2.2,1.8-3.2
			C226.1,216.3,226.9,215.4,228,214.7z"/>
		 <path class="st4" d="M224,212.7c-1.8,6.2-3.5,9-7.8,8.4C217.6,215.6,224,212.7,224,212.7z"/>
		 <path d="M224,212.7c-0.4,1.2-1.1,2.2-1.8,3.2c-0.7,0.9-1.5,1.9-2.6,2.6c0.4-1.2,1.1-2.2,1.8-3.2
			C222.1,214.3,222.9,213.4,224,212.7z"/>
		 <path class="st4" d="M216.1,210.3c1.8,6.2,1.9,9.4-2,11.3C212.3,216.1,216.1,210.3,216.1,210.3z"/>
		 <path d="M216.1,210.3c0.3,1.2,0.3,2.4,0.2,3.6c-0.1,1.2-0.3,2.4-0.8,3.6c-0.3-1.2-0.3-2.4-0.2-3.6
			C215.4,212.6,215.6,211.5,216.1,210.3z"/>
		 <path class="st4" d="M214.3,210.1c-0.9,6.4-2.1,9.4-6.5,9.4C208.5,213.8,214.3,210.1,214.3,210.1z"/>
		 <path d="M214.3,210.1c-0.2,1.2-0.7,2.3-1.3,3.4c-0.6,1-1.2,2.1-2.2,2.9c0.2-1.2,0.7-2.3,1.3-3.4
			C212.8,211.9,213.4,210.9,214.3,210.1z"/>
		 <path class="st4" d="M208.2,208.4c0.6,6.5,0.1,9.6-4.2,10.7C203.3,213.4,208.2,208.4,208.2,208.4z"/>
		 <path d="M208.2,208.4c0.1,1.3-0.2,2.4-0.5,3.6c-0.3,1.2-0.7,2.3-1.4,3.3c-0.1-1.3,0.2-2.4,0.5-3.6
			C207.1,210.6,207.5,209.5,208.2,208.4z"/>
		 <path class="st4" d="M205.3,208c-0.9,6.4-2.1,9.4-6.5,9.4C199.5,211.8,205.3,208,205.3,208z"/>
		 <path d="M205.3,208c-0.2,1.2-0.7,2.3-1.3,3.4c-0.6,1-1.2,2.1-2.2,2.9c0.2-1.2,0.7-2.3,1.3-3.4
			C203.8,209.9,204.4,208.9,205.3,208z"/>
		 <path class="st4" d="M221.7,232.1c-6.4-1-9.3-2.3-9.3-6.7C218.1,226.2,221.7,232.1,221.7,232.1z"/>
		 <path d="M221.7,232.1c-1.2-0.3-2.3-0.8-3.4-1.4c-1-0.6-2-1.3-2.9-2.2c1.2,0.3,2.3,0.8,3.4,1.4S220.9,231.2,221.7,232.1z"/>
		 <path class="st4" d="M223.7,229.1c-6.4-1-9.3-2.3-9.3-6.7C220.1,223.2,223.7,229.1,223.7,229.1z"/>
		 <path d="M223.7,229.1c-1.2-0.3-2.3-0.8-3.4-1.4c-1-0.6-2-1.3-2.9-2.2c1.2,0.3,2.3,0.8,3.4,1.4S222.9,228.2,223.7,229.1z"/>
		 <path class="st4" d="M213,218.8c-2.7,8.9-5.2,12.8-12,12.1C203,223,213,218.8,213,218.8z"/>
		 <path d="M213,218.8c-0.8,1.6-1.9,3.1-3,4.4c-1.1,1.4-2.3,2.7-3.7,3.8c0.8-1.6,1.9-3.1,3-4.4C210.4,221.3,211.6,220,213,218.8z"/>
		 <path class="st4" d="M242.3,221c-2.2,6.1-4,8.7-8.3,7.9C235.8,223.4,242.3,221,242.3,221z"/>
		 <path d="M242.3,221c-0.5,1.2-1.2,2.1-2,3.1c-0.8,0.9-1.6,1.8-2.7,2.4c0.5-1.2,1.2-2.1,2-3.1C240.4,222.5,241.2,221.6,242.3,221z"/>
		 <path class="st4" d="M239.1,219.9c-3.5,5.5-5.8,7.7-9.8,5.9C232.2,220.9,239.1,219.9,239.1,219.9z"/>
		 <path d="M239.1,219.9c-0.7,1-1.6,1.8-2.6,2.6c-1,0.7-2,1.4-3.2,1.8c0.7-1,1.6-1.8,2.6-2.6C236.9,221,237.9,220.4,239.1,219.9z"	/>
		 <path class="st4" d="M231,216.7c-1.8,6.2-3.5,9-7.8,8.4C224.6,219.6,231,216.7,231,216.7z"/>
		 <path d="M231,216.7c-0.4,1.2-1.1,2.2-1.8,3.2c-0.7,0.9-1.5,1.9-2.6,2.6c0.4-1.2,1.1-2.2,1.8-3.2
			C229.1,218.3,229.9,217.4,231,216.7z"/>
		 <path class="st4" d="M218.5,237.7c-6.5,0.8-9.6,0.4-10.8-3.8C213.3,233,218.5,237.7,218.5,237.7z"/>
		 <path d="M218.5,237.7c-1.3,0.1-2.5-0.1-3.6-0.3c-1.2-0.3-2.3-0.7-3.4-1.3c1.3-0.1,2.5,0.1,3.6,0.3
			C216.3,236.7,217.4,237,218.5,237.7z"/>
		 <path class="st4" d="M221.9,234.9c-8.2,1.1-12.1,0.6-13.7-4.7C215.4,228.9,221.9,234.9,221.9,234.9z"/>
		 <path d="M221.9,234.9c-1.6,0-3.1-0.2-4.6-0.6c-1.5-0.4-2.9-0.8-4.3-1.5c1.6,0,3.1,0.2,4.6,0.6
			C219.1,233.7,220.5,234.1,221.9,234.9z"/>
		 <path class="st4" d="M173.4,203.8c-3.9-3-5.4-4.9-3.8-7.8C173.1,198.6,173.4,203.8,173.4,203.8z"/>
		 <path d="M173.4,203.8c-0.8-0.6-1.4-1.3-1.9-2.1s-0.9-1.6-1-2.6c0.8,0.6,1.4,1.3,1.9,2.1S173.3,202.8,173.4,203.8z"/>
		 <path class="st4" d="M170.4,204.8c-3.9-3-5.4-4.9-3.8-7.8C170.1,199.6,170.4,204.8,170.4,204.8z"/>
		 <path d="M170.4,204.8c-0.8-0.6-1.4-1.3-1.9-2.1s-0.9-1.6-1-2.6c0.8,0.6,1.4,1.3,1.9,2.1S170.3,203.8,170.4,204.8z"/>
		 <path class="st4" d="M167.4,205.8c-3.9-3-5.4-4.9-3.8-7.8C167.1,200.6,167.4,205.8,167.4,205.8z"/>
		 <path d="M167.4,205.8c-0.8-0.6-1.4-1.3-1.9-2.1s-0.9-1.6-1-2.6c0.8,0.6,1.4,1.3,1.9,2.1S167.3,204.8,167.4,205.8z"/>
		 <path class="st4" d="M168.9,196.5c-4.8-1.1-7-2.2-6.8-5.5C166.4,191.9,168.9,196.5,168.9,196.5z"/>
		 <path d="M168.9,196.5c-1-0.2-1.8-0.6-2.6-1.1s-1.5-1.1-2-1.9c1,0.2,1.8,0.6,2.6,1.1C167.6,195.1,168.3,195.7,168.9,196.5z"/>
		 <path class="st4" d="M164.5,205c-4.6-1.7-6.7-3-6.1-6.3C162.6,200,164.5,205,164.5,205z"/>
		 <path d="M164.5,205c-1-0.3-1.7-0.8-2.4-1.4c-0.7-0.6-1.3-1.3-1.8-2.2c1,0.3,1.7,0.8,2.4,1.4C163.5,203.4,164.1,204.1,164.5,205z"/>
		 <path class="st4" d="M174.4,203.4c-2.1-4.5-2.5-6.9,0.2-8.7C176.5,198.6,174.4,203.4,174.4,203.4z"/>
		 <path d="M174.4,203.4c-0.5-0.9-0.6-1.8-0.7-2.7c-0.1-0.9,0-1.8,0.3-2.8c0.5,0.9,0.6,1.8,0.7,2.7
			C174.7,201.5,174.7,202.5,174.4,203.4z"/>
		 <path class="st4" d="M188.4,190.6c-3.9,7.3-6.6,10.2-11.6,8.4C180,192.4,188.4,190.6,188.4,190.6z"/>
		 <path d="M188.4,190.6c-0.9,1.3-1.9,2.4-3.1,3.4c-1.1,1-2.3,1.9-3.7,2.6c0.9-1.3,1.9-2.4,3.1-3.4
			C185.8,192.2,187,191.3,188.4,190.6z"/>
		 <path class="st4" d="M191.4,194.6c-3.9,7.3-6.6,10.2-11.6,8.4C183,196.4,191.4,194.6,191.4,194.6z"/>
		 <path d="M191.4,194.6c-0.9,1.3-1.9,2.4-3.1,3.4c-1.1,1-2.3,1.9-3.7,2.6c0.9-1.3,1.9-2.4,3.1-3.4
			C188.8,196.2,190,195.3,191.4,194.6z"/>
		 <path class="st4" d="M157.4,208.8c-3.9-3-5.4-4.9-3.8-7.8C157.1,203.6,157.4,208.8,157.4,208.8z"/>
		 <path d="M157.4,208.8c-0.8-0.6-1.4-1.3-1.9-2.1s-0.9-1.6-1-2.6c0.8,0.6,1.4,1.3,1.9,2.1S157.3,207.8,157.4,208.8z"/>
	  </g>
   </g>
   <!-- FIN arbre -->
   <!-- DEBUT GLUPS GAUCHE -->
	<g fill="none" stroke="white" stroke-width="3" stroke-miterlimit="10">
		  <path d="M148,400c-6-3-7.7-6.4-9.3-9.5c-1.8-3.3-7-4.4-10-6.3c-0.6-0.4-1.2-0.8-1.5-1.4c-0.7-1.5,0.6-3.1,2-3.9
			  c2.2-1.3,4.8-2.2,4.3-5.3c-0.3-1.7-1.4-3.2-2.6-4.4c-1.2-1.3-2.5-2.4-3.4-4c-0.5-0.9-0.8-2-0.5-2.9s1-1.5,1.6-2.2
			  c1.7-1.9,4.5-6.6,2.6-9.1c-0.6-0.8-1.6-1.1-2.5-1.4c-6.4-1.6-11.9-2.3-15.3-8.8c-0.8-1.5-1.3-3.3-1.1-5c0.4-4,4.8-11.6,13.8-13.6"/>
   </g>
   <g class="coulureanim" stroke="white" stroke-width="1" stroke-miterlimit="10">
	  <path d="M147.5,327.5c0,0-1-9,15-8c-4-4-10-11-10-11s-0.1,5.6-7,9c-6.6,3.2-17,6.1-18,8c-1.6,1.1-8.1,5.9-9,7.7
		  c-0.5,1-0.7,2.1-0.8,3.2c-0.9,6.8,6.4,7.8,11.8,7.8c6,0,10,6,6,12s-1,7,2,11s4,5,2,9s-4,3-3,6s4,2,5,7c0.8,4,4.2,7.5,6.5,11.8
		  c0.6,1.1,1.1,2.2,1.5,3.4c0,0-0.1-0.5,1-6c1-5,7.1-6.7,8-9c-8,1-24-13-4-24c-17-3-11.2-22.4-1-24
		  C145.5,335.5,147.5,327.5,147.5,327.5z M131.5,340.3c0,1.7-1.3,3-3,3s-3-1.3-3-3s1.3-3,3-3S131.5,338.6,131.5,340.3z M141.5,384.3
		  c0-1.1,0.9-2,2-2s2,0.9,2,2s-0.9,2-2,2S141.5,385.4,141.5,384.3z M141.5,369.3c0-1.7,1.3-3,3-3s3,1.3,3,3s-1.3,3-3,3
		  S141.5,370.9,141.5,369.3z M138.5,359.3c1.1,0,2,0.9,2,2s-0.9,2-2,2s-2-0.9-2-2C136.5,360.2,137.4,359.3,138.5,359.3z
		   M138.5,337.3c0,1.1-0.9,2-2,2s-2-0.9-2-2s0.9-2,2-2S138.5,336.2,138.5,337.3z M144.5,341.3c0,0.6-0.4,1-1,1s-1-0.4-1-1s0.4-1,1-1
		  S144.5,340.7,144.5,341.3z M143.5,352.5c0,2.8,1.8,4.8-1,4.8s-5-2.2-5-5s2.2-5,5-5S143.5,349.7,143.5,352.5z"/>
	  <path d="M172.5,443.5c0.7-5,4-10,4-10s-13,2-17-6c-2.5-5.1-2-6,0-9s6-6,6-6s-3,1-9-2s-8-8-8-8c-2.5,1.3-7.3,6.6-3,8.9
		  c0.9,0.5,2,0.6,3,0.9c4.2,1.1,7.3,5,7.9,9.2c0.1,0.7,0.1,1.5-0.2,2.2c-1.4,2.8-7.6,1.9-7.8,5.6c0,0.7,0.2,1.4,0.4,2.1
		  c1.1,3.5,3.9,3.2,6.1,5.7c1.1,1.3,1.3,3.2,0.9,4.8c-1.3,4.8-10.2,12.4-3.3,16.6c3.9,2.3,11.5,4.4,14.1-0.7c0.6-1.2,1-2.5,1.7-3.5
		  c2.2-3.2,8.8-1.8,12.2-1.8C180.5,452.5,171.5,450.5,172.5,443.5z M156.5,431.5c0-1.1,0.9-2,2-2s2,0.9,2,2s-0.9,2-2,2
		  S156.5,432.6,156.5,431.5z M160,452.5c-1.4,0-2.5-1.1-2.5-2.5s1.1-2.5,2.5-2.5s2.5,1.1,2.5,2.5S161.4,452.5,160,452.5z
		   M161.5,440.5c-1.1,0-2-0.9-2-2s0.9-2,2-2s2,0.9,2,2S162.6,440.5,161.5,440.5z M169.5,441.5c-1.7,0-3-1.3-3-3s1.3-3,3-3s3,1.3,3,3
		  S171.2,441.5,169.5,441.5z"/>
   </g>
   <g fill="none" stroke="white" stroke-width="3" stroke-miterlimit="10">
	  <path d="M146.5,399.5c-3.1,1.2-6.2,3.9-6.9,7.4c-0.8,4.5,2,7.4,6.2,7.7c2.4,0.2,7.9,2.7,7.2,5.9
		  c-0.7,3.1-5.2,2.6-7.2,4.4c-3.5,3.2-2.1,8.4,1.5,10.7c1.6,1,3.4,1.8,4.8,3.2c0.4,0.4,0.7,0.8,0.8,1.3c0.3,1.8-2.4,3.7-3.3,5
		  c-3.7,4.9-4.2,10.4,0.6,14.8c2.6,2.4,6.3,4,9.7,4.9c2.8,0.8,5.7,0.3,7.2-2.3c1.4-2.4,1.1-5.4,4.4-6c2.7-0.6,5.6-0.6,8.6-0.5
		  c3.6,0.2,7.2,0.6,10.6,1"/>
   </g>
   <!-- FIN GLUPS GAUCHE -->

   <!-- coulure bas -->
	<g class="coulureanim" fill="none" stroke="white" stroke-width="3" stroke-linecap="round" stroke-linejoin="round" stroke-miterlimit="10" >
	   <path d="M207,477c-5.6,2.8-6.7,16.3-6.8,21.6c-0.2,10.6-0.4,21.2-2.7,31.6c-0.4,1.9-2.8,8.4-4.9,4.3c-0.5-0.9-0.4-2-0.4-3
		   c0.4-7.4,1.3-14.7,2.7-21.9c0.3-1.4,1.4-7.7-2-6.5c-0.4,0.1-0.7,0.4-1,0.5c-0.8,0.3-1.8-0.3-2.2-1.1c-0.4-0.8-0.5-1.7-0.5-2.6
		   c-0.1-3.2-0.1-6.3-0.2-9.5c0,4.8-1.5,10.2-1.9,15.1c-0.5,6-1,12-1.5,18c-0.8,9.8-1.6,19.7-2.3,29.5c-0.6,7.3-1.7,15.1,1.7,21.9
		   c2,4,0,9-4,8s-7-5-5-10s4-19,4-25c0-16.1,0.6-32.2,1.7-48.2c1-14.3,4.5-30.2-1.7-43.8l9.3,1c0,0-0.3,1-0.3,4s0,7,2,8s6,3,8,3
		   s8-3,8-3h2l-2,5L207,477L207,477z"/>

		<path d="M219,486c-4.6,4.6,1.4,27.9-4.9,29.3c-2.7,0.6-2.7-5.7-3.1-7.3c-1-5,0-20-2-24c-1-2,0-1,0-1s3,1,5,2S219,486,219,486z"/>

	   <!-- <path d="M437.4,389c2.9,6.1-0.4,13-10.3,13.3c-0.6,1.5-0.6,1.6-1.2,3.1c8.9,8.6,4.6,21.4-9.4,17.9c-0.5-0.1-0.9,0.1-1.1,0.5
		   s-0.4,0.8-0.7,1.2c-0.2,0.4-0.1,0.9,0.2,1.2c9.8,10,3.5,24-11.2,17.6c-0.4-0.2-0.9-0.1-1.2,0.3c0,0.1-0.1,0.1-0.1,0.2
		   c-0.3,0.4-0.3,0.8,0,1.2c8.3,11.4-0.2,24.5-14.1,15.5c-0.4-0.2-0.9-0.2-1.2,0.1c-0.4,0.3-0.7,0.7-1.1,1c-0.3,0.3-0.4,0.7-0.2,1.1
		   c5.2,12.9-5.6,23.4-16.4,12.8c-0.3-0.3-0.9-0.4-1.2-0.1c-0.4,0.3-0.8,0.5-1.2,0.8c-0.4,0.2-0.5,0.7-0.4,1.1
		   c3.2,13.4-9,22.2-18.4,9.7c-0.3-0.4-0.8-0.5-1.2-0.3c-0.1,0.1-0.3,0.1-0.4,0.2c-0.4,0.2-0.6,0.6-0.6,1c1,13.5-12.3,20.3-19.7,6.4
		   c-0.2-0.4-0.7-0.6-1.1-0.5c-1.1,0.2-2.1,0.5-3.2,0.7c-0.4,0.1-0.7,0.4-0.8,0.8c-2.6,12.2-15.6,15.4-20,2.6c-0.1-0.4-0.5-0.7-1-0.7
		   c-0.7,0-1.4,0.1-2.1,0.1c-0.4,0-0.8,0.3-0.9,0.7c-4.1,12.2-18.1,13.5-20.4-1c-0.1-0.4-0.4-0.8-0.9-0.9c-0.3,0-0.6-0.1-0.8-0.1
		   c-0.4-0.1-0.8,0.2-1,0.6c-5.7,11.3-19.3,10.9-20-2.9h-6.8c-5,3.6-14.9,0-14.9,0c0,4.7,0.9,9.4,0.3,14.1c-0.8,6.3-6,15-3.9,21.2
		   c0.6,1.7,2.1,3.6,3.4,4.6c1,0.8,2.5,1.1,3.7,0.6c8.5-3.6-2.3-18.9,0.8-24.6c0.5-1,1.5-1.8,2.4-2.5c3.1-2.3,7-4.3,10.9-5
		   c3.5-0.6,8,1.6,10.9,3.4c3.9,2.4,4,5.3,6.4,8.9c1.7,2.6,5.2,3.7,8.3,3.3c7.9-1.1,9.1-9.9,17.5-9.9c5.3,0,10.3,2.7,15.6,2.3
		   c4.9-0.3,7.9-4.3,12.5-5.2c3.9-0.7,7.9-0.2,11.8-0.7c2.2-0.3,8.5-4,10.1-2.9c0.8,0.6,1.2,1.7,1.4,2.7c3,12.5,1.4,28-1.6,40.3
		   c-0.5,2.1-1.1,4.3-0.9,6.5c0.1,0.9,0.4,1.9,1.2,2.5c1,0.7,2.4,0.5,3.4-0.2c3.5-2.6,4.1-7.7,3.8-11.7c-0.5-8.2,1-15.8,2.1-23.8
		   c0.5-4.1-2.3-11.3,0-14.8c2-3,15-10,20-13c13.1-7.9,24.1-15,35-26c15.6-15.8,25.9-36.1,32.6-56.8c1.9-6,1.1-11.2-0.6-17.2
		   C439,390,438.5,389.4,437.4,389z"/> -->
   </g>
   <!-- FIN coulure bas -->

</svg>
